<?xml version="1.0" encoding="utf-8"?>
<svg xmlns="http://www.w3.org/2000/svg" xmlns:xlink="http://www.w3.org/1999/xlink" width="600" height="400" viewBox="0 0 2400 1600">
<defs>
  <clipPath id="clip990">
    <rect x="0" y="0" width="2400" height="1600"/>
  </clipPath>
</defs>
<path clip-path="url(#clip990)" d="M0 1600 L2400 1600 L2400 0 L0 0  Z" fill="#ffffff" fill-rule="evenodd" fill-opacity="1"/>
<defs>
  <clipPath id="clip991">
    <rect x="313" y="110" width="1978" height="1251"/>
  </clipPath>
</defs>
<path clip-path="url(#clip990)" d="M313.02 1360.19 L2289.76 1360.19 L2289.76 110.236 L313.02 110.236  Z" fill="#ffffff" fill-rule="evenodd" fill-opacity="1"/>
<polyline clip-path="url(#clip990)" style="stroke:#000000; stroke-linecap:round; stroke-linejoin:round; stroke-width:4; stroke-opacity:1; fill:none" points="313.02,1360.19 2289.76,1360.19 "/>
<polyline clip-path="url(#clip990)" style="stroke:#000000; stroke-linecap:round; stroke-linejoin:round; stroke-width:4; stroke-opacity:1; fill:none" points="609.744,1360.19 609.744,1341.29 "/>
<polyline clip-path="url(#clip990)" style="stroke:#000000; stroke-linecap:round; stroke-linejoin:round; stroke-width:4; stroke-opacity:1; fill:none" points="963.83,1360.19 963.83,1341.29 "/>
<polyline clip-path="url(#clip990)" style="stroke:#000000; stroke-linecap:round; stroke-linejoin:round; stroke-width:4; stroke-opacity:1; fill:none" points="1317.92,1360.19 1317.92,1341.29 "/>
<polyline clip-path="url(#clip990)" style="stroke:#000000; stroke-linecap:round; stroke-linejoin:round; stroke-width:4; stroke-opacity:1; fill:none" points="1672,1360.19 1672,1341.29 "/>
<polyline clip-path="url(#clip990)" style="stroke:#000000; stroke-linecap:round; stroke-linejoin:round; stroke-width:4; stroke-opacity:1; fill:none" points="2026.09,1360.19 2026.09,1341.29 "/>
<path clip-path="url(#clip990)" d="M558.356 1418.65 L574.675 1418.65 L574.675 1422.59 L552.731 1422.59 L552.731 1418.65 Q555.393 1415.9 559.976 1411.27 Q564.582 1406.62 565.763 1405.27 Q568.008 1402.75 568.888 1401.01 Q569.791 1399.25 569.791 1397.56 Q569.791 1394.81 567.846 1393.07 Q565.925 1391.34 562.823 1391.34 Q560.624 1391.34 558.17 1392.1 Q555.74 1392.87 552.962 1394.42 L552.962 1389.69 Q555.786 1388.56 558.24 1387.98 Q560.694 1387.4 562.731 1387.4 Q568.101 1387.4 571.295 1390.09 Q574.49 1392.77 574.49 1397.26 Q574.49 1399.39 573.68 1401.31 Q572.893 1403.21 570.786 1405.81 Q570.207 1406.48 567.106 1409.69 Q564.004 1412.89 558.356 1418.65 Z" fill="#000000" fill-rule="nonzero" fill-opacity="1" /><path clip-path="url(#clip990)" d="M585.3 1418.65 L592.939 1418.65 L592.939 1392.29 L584.629 1393.95 L584.629 1389.69 L592.892 1388.03 L597.568 1388.03 L597.568 1418.65 L605.207 1418.65 L605.207 1422.59 L585.3 1422.59 L585.3 1418.65 Z" fill="#000000" fill-rule="nonzero" fill-opacity="1" /><path clip-path="url(#clip990)" d="M624.652 1391.11 Q621.04 1391.11 619.212 1394.67 Q617.406 1398.21 617.406 1405.34 Q617.406 1412.45 619.212 1416.01 Q621.04 1419.56 624.652 1419.56 Q628.286 1419.56 630.091 1416.01 Q631.92 1412.45 631.92 1405.34 Q631.92 1398.21 630.091 1394.67 Q628.286 1391.11 624.652 1391.11 M624.652 1387.4 Q630.462 1387.4 633.517 1392.01 Q636.596 1396.59 636.596 1405.34 Q636.596 1414.07 633.517 1418.68 Q630.462 1423.26 624.652 1423.26 Q618.841 1423.26 615.763 1418.68 Q612.707 1414.07 612.707 1405.34 Q612.707 1396.59 615.763 1392.01 Q618.841 1387.4 624.652 1387.4 Z" fill="#000000" fill-rule="nonzero" fill-opacity="1" /><path clip-path="url(#clip990)" d="M654.813 1391.11 Q651.202 1391.11 649.374 1394.67 Q647.568 1398.21 647.568 1405.34 Q647.568 1412.45 649.374 1416.01 Q651.202 1419.56 654.813 1419.56 Q658.448 1419.56 660.253 1416.01 Q662.082 1412.45 662.082 1405.34 Q662.082 1398.21 660.253 1394.67 Q658.448 1391.11 654.813 1391.11 M654.813 1387.4 Q660.624 1387.4 663.679 1392.01 Q666.758 1396.59 666.758 1405.34 Q666.758 1414.07 663.679 1418.68 Q660.624 1423.26 654.813 1423.26 Q649.003 1423.26 645.925 1418.68 Q642.869 1414.07 642.869 1405.34 Q642.869 1396.59 645.925 1392.01 Q649.003 1387.4 654.813 1387.4 Z" fill="#000000" fill-rule="nonzero" fill-opacity="1" /><path clip-path="url(#clip990)" d="M912.442 1418.65 L928.761 1418.65 L928.761 1422.59 L906.817 1422.59 L906.817 1418.65 Q909.479 1415.9 914.062 1411.27 Q918.668 1406.62 919.849 1405.27 Q922.094 1402.75 922.974 1401.01 Q923.877 1399.25 923.877 1397.56 Q923.877 1394.81 921.932 1393.07 Q920.011 1391.34 916.909 1391.34 Q914.71 1391.34 912.256 1392.1 Q909.826 1392.87 907.048 1394.42 L907.048 1389.69 Q909.872 1388.56 912.326 1387.98 Q914.779 1387.4 916.817 1387.4 Q922.187 1387.4 925.381 1390.09 Q928.576 1392.77 928.576 1397.26 Q928.576 1399.39 927.766 1401.31 Q926.978 1403.21 924.872 1405.81 Q924.293 1406.48 921.191 1409.69 Q918.09 1412.89 912.442 1418.65 Z" fill="#000000" fill-rule="nonzero" fill-opacity="1" /><path clip-path="url(#clip990)" d="M951.423 1392.1 L939.617 1410.55 L951.423 1410.55 L951.423 1392.1 M950.196 1388.03 L956.076 1388.03 L956.076 1410.55 L961.006 1410.55 L961.006 1414.44 L956.076 1414.44 L956.076 1422.59 L951.423 1422.59 L951.423 1414.44 L935.821 1414.44 L935.821 1409.93 L950.196 1388.03 Z" fill="#000000" fill-rule="nonzero" fill-opacity="1" /><path clip-path="url(#clip990)" d="M978.737 1391.11 Q975.126 1391.11 973.298 1394.67 Q971.492 1398.21 971.492 1405.34 Q971.492 1412.45 973.298 1416.01 Q975.126 1419.56 978.737 1419.56 Q982.372 1419.56 984.177 1416.01 Q986.006 1412.45 986.006 1405.34 Q986.006 1398.21 984.177 1394.67 Q982.372 1391.11 978.737 1391.11 M978.737 1387.4 Q984.548 1387.4 987.603 1392.01 Q990.682 1396.59 990.682 1405.34 Q990.682 1414.07 987.603 1418.68 Q984.548 1423.26 978.737 1423.26 Q972.927 1423.26 969.849 1418.68 Q966.793 1414.07 966.793 1405.34 Q966.793 1396.59 969.849 1392.01 Q972.927 1387.4 978.737 1387.4 Z" fill="#000000" fill-rule="nonzero" fill-opacity="1" /><path clip-path="url(#clip990)" d="M1008.9 1391.11 Q1005.29 1391.11 1003.46 1394.67 Q1001.65 1398.21 1001.65 1405.34 Q1001.65 1412.45 1003.46 1416.01 Q1005.29 1419.56 1008.9 1419.56 Q1012.53 1419.56 1014.34 1416.01 Q1016.17 1412.45 1016.17 1405.34 Q1016.17 1398.21 1014.34 1394.67 Q1012.53 1391.11 1008.9 1391.11 M1008.9 1387.4 Q1014.71 1387.4 1017.77 1392.01 Q1020.84 1396.59 1020.84 1405.34 Q1020.84 1414.07 1017.77 1418.68 Q1014.71 1423.26 1008.9 1423.26 Q1003.09 1423.26 1000.01 1418.68 Q996.955 1414.07 996.955 1405.34 Q996.955 1396.59 1000.01 1392.01 Q1003.09 1387.4 1008.9 1387.4 Z" fill="#000000" fill-rule="nonzero" fill-opacity="1" /><path clip-path="url(#clip990)" d="M1266.53 1418.65 L1282.85 1418.65 L1282.85 1422.59 L1260.9 1422.59 L1260.9 1418.65 Q1263.56 1415.9 1268.15 1411.27 Q1272.75 1406.62 1273.93 1405.27 Q1276.18 1402.75 1277.06 1401.01 Q1277.96 1399.25 1277.96 1397.56 Q1277.96 1394.81 1276.02 1393.07 Q1274.1 1391.34 1270.99 1391.34 Q1268.8 1391.34 1266.34 1392.1 Q1263.91 1392.87 1261.13 1394.42 L1261.13 1389.69 Q1263.96 1388.56 1266.41 1387.98 Q1268.87 1387.4 1270.9 1387.4 Q1276.27 1387.4 1279.47 1390.09 Q1282.66 1392.77 1282.66 1397.26 Q1282.66 1399.39 1281.85 1401.31 Q1281.06 1403.21 1278.96 1405.81 Q1278.38 1406.48 1275.28 1409.69 Q1272.18 1412.89 1266.53 1418.65 Z" fill="#000000" fill-rule="nonzero" fill-opacity="1" /><path clip-path="url(#clip990)" d="M1291.48 1388.03 L1313.7 1388.03 L1313.7 1390.02 L1301.16 1422.59 L1296.27 1422.59 L1308.08 1391.96 L1291.48 1391.96 L1291.48 1388.03 Z" fill="#000000" fill-rule="nonzero" fill-opacity="1" /><path clip-path="url(#clip990)" d="M1332.82 1391.11 Q1329.21 1391.11 1327.38 1394.67 Q1325.58 1398.21 1325.58 1405.34 Q1325.58 1412.45 1327.38 1416.01 Q1329.21 1419.56 1332.82 1419.56 Q1336.46 1419.56 1338.26 1416.01 Q1340.09 1412.45 1340.09 1405.34 Q1340.09 1398.21 1338.26 1394.67 Q1336.46 1391.11 1332.82 1391.11 M1332.82 1387.4 Q1338.63 1387.4 1341.69 1392.01 Q1344.77 1396.59 1344.77 1405.34 Q1344.77 1414.07 1341.69 1418.68 Q1338.63 1423.26 1332.82 1423.26 Q1327.01 1423.26 1323.93 1418.68 Q1320.88 1414.07 1320.88 1405.34 Q1320.88 1396.59 1323.93 1392.01 Q1327.01 1387.4 1332.82 1387.4 Z" fill="#000000" fill-rule="nonzero" fill-opacity="1" /><path clip-path="url(#clip990)" d="M1362.99 1391.11 Q1359.37 1391.11 1357.55 1394.67 Q1355.74 1398.21 1355.74 1405.34 Q1355.74 1412.45 1357.55 1416.01 Q1359.37 1419.56 1362.99 1419.56 Q1366.62 1419.56 1368.43 1416.01 Q1370.25 1412.45 1370.25 1405.34 Q1370.25 1398.21 1368.43 1394.67 Q1366.62 1391.11 1362.99 1391.11 M1362.99 1387.4 Q1368.8 1387.4 1371.85 1392.01 Q1374.93 1396.59 1374.93 1405.34 Q1374.93 1414.07 1371.85 1418.68 Q1368.8 1423.26 1362.99 1423.26 Q1357.18 1423.26 1354.1 1418.68 Q1351.04 1414.07 1351.04 1405.34 Q1351.04 1396.59 1354.1 1392.01 Q1357.18 1387.4 1362.99 1387.4 Z" fill="#000000" fill-rule="nonzero" fill-opacity="1" /><path clip-path="url(#clip990)" d="M1630.68 1403.95 Q1634.04 1404.67 1635.91 1406.94 Q1637.81 1409.21 1637.81 1412.54 Q1637.81 1417.66 1634.29 1420.46 Q1630.78 1423.26 1624.29 1423.26 Q1622.12 1423.26 1619.8 1422.82 Q1617.51 1422.4 1615.06 1421.55 L1615.06 1417.03 Q1617 1418.17 1619.32 1418.75 Q1621.63 1419.32 1624.15 1419.32 Q1628.55 1419.32 1630.84 1417.59 Q1633.16 1415.85 1633.16 1412.54 Q1633.16 1409.49 1631.01 1407.77 Q1628.88 1406.04 1625.06 1406.04 L1621.03 1406.04 L1621.03 1402.19 L1625.24 1402.19 Q1628.69 1402.19 1630.52 1400.83 Q1632.35 1399.44 1632.35 1396.85 Q1632.35 1394.19 1630.45 1392.77 Q1628.58 1391.34 1625.06 1391.34 Q1623.14 1391.34 1620.94 1391.75 Q1618.74 1392.17 1616.1 1393.05 L1616.1 1388.88 Q1618.76 1388.14 1621.08 1387.77 Q1623.41 1387.4 1625.47 1387.4 Q1630.8 1387.4 1633.9 1389.83 Q1637 1392.24 1637 1396.36 Q1637 1399.23 1635.36 1401.22 Q1633.72 1403.19 1630.68 1403.95 Z" fill="#000000" fill-rule="nonzero" fill-opacity="1" /><path clip-path="url(#clip990)" d="M1656.68 1391.11 Q1653.07 1391.11 1651.24 1394.67 Q1649.43 1398.21 1649.43 1405.34 Q1649.43 1412.45 1651.24 1416.01 Q1653.07 1419.56 1656.68 1419.56 Q1660.31 1419.56 1662.12 1416.01 Q1663.95 1412.45 1663.95 1405.34 Q1663.95 1398.21 1662.12 1394.67 Q1660.31 1391.11 1656.68 1391.11 M1656.68 1387.4 Q1662.49 1387.4 1665.54 1392.01 Q1668.62 1396.59 1668.62 1405.34 Q1668.62 1414.07 1665.54 1418.68 Q1662.49 1423.26 1656.68 1423.26 Q1650.87 1423.26 1647.79 1418.68 Q1644.73 1414.07 1644.73 1405.34 Q1644.73 1396.59 1647.79 1392.01 Q1650.87 1387.4 1656.68 1387.4 Z" fill="#000000" fill-rule="nonzero" fill-opacity="1" /><path clip-path="url(#clip990)" d="M1686.84 1391.11 Q1683.23 1391.11 1681.4 1394.67 Q1679.59 1398.21 1679.59 1405.34 Q1679.59 1412.45 1681.4 1416.01 Q1683.23 1419.56 1686.84 1419.56 Q1690.47 1419.56 1692.28 1416.01 Q1694.11 1412.45 1694.11 1405.34 Q1694.11 1398.21 1692.28 1394.67 Q1690.47 1391.11 1686.84 1391.11 M1686.84 1387.4 Q1692.65 1387.4 1695.71 1392.01 Q1698.78 1396.59 1698.78 1405.34 Q1698.78 1414.07 1695.71 1418.68 Q1692.65 1423.26 1686.84 1423.26 Q1681.03 1423.26 1677.95 1418.68 Q1674.9 1414.07 1674.9 1405.34 Q1674.9 1396.59 1677.95 1392.01 Q1681.03 1387.4 1686.84 1387.4 Z" fill="#000000" fill-rule="nonzero" fill-opacity="1" /><path clip-path="url(#clip990)" d="M1717 1391.11 Q1713.39 1391.11 1711.56 1394.67 Q1709.76 1398.21 1709.76 1405.34 Q1709.76 1412.45 1711.56 1416.01 Q1713.39 1419.56 1717 1419.56 Q1720.64 1419.56 1722.44 1416.01 Q1724.27 1412.45 1724.27 1405.34 Q1724.27 1398.21 1722.44 1394.67 Q1720.64 1391.11 1717 1391.11 M1717 1387.4 Q1722.81 1387.4 1725.87 1392.01 Q1728.95 1396.59 1728.95 1405.34 Q1728.95 1414.07 1725.87 1418.68 Q1722.81 1423.26 1717 1423.26 Q1711.19 1423.26 1708.11 1418.68 Q1705.06 1414.07 1705.06 1405.34 Q1705.06 1396.59 1708.11 1392.01 Q1711.19 1387.4 1717 1387.4 Z" fill="#000000" fill-rule="nonzero" fill-opacity="1" /><path clip-path="url(#clip990)" d="M1984.77 1403.95 Q1988.13 1404.67 1990 1406.94 Q1991.9 1409.21 1991.9 1412.54 Q1991.9 1417.66 1988.38 1420.46 Q1984.86 1423.26 1978.38 1423.26 Q1976.2 1423.26 1973.89 1422.82 Q1971.6 1422.4 1969.14 1421.55 L1969.14 1417.03 Q1971.09 1418.17 1973.4 1418.75 Q1975.72 1419.32 1978.24 1419.32 Q1982.64 1419.32 1984.93 1417.59 Q1987.25 1415.85 1987.25 1412.54 Q1987.25 1409.49 1985.09 1407.77 Q1982.96 1406.04 1979.14 1406.04 L1975.12 1406.04 L1975.12 1402.19 L1979.33 1402.19 Q1982.78 1402.19 1984.61 1400.83 Q1986.44 1399.44 1986.44 1396.85 Q1986.44 1394.19 1984.54 1392.77 Q1982.66 1391.34 1979.14 1391.34 Q1977.22 1391.34 1975.02 1391.75 Q1972.82 1392.17 1970.19 1393.05 L1970.19 1388.88 Q1972.85 1388.14 1975.16 1387.77 Q1977.5 1387.4 1979.56 1387.4 Q1984.88 1387.4 1987.99 1389.83 Q1991.09 1392.24 1991.09 1396.36 Q1991.09 1399.23 1989.44 1401.22 Q1987.8 1403.19 1984.77 1403.95 Z" fill="#000000" fill-rule="nonzero" fill-opacity="1" /><path clip-path="url(#clip990)" d="M2014.93 1403.95 Q2018.29 1404.67 2020.16 1406.94 Q2022.06 1409.21 2022.06 1412.54 Q2022.06 1417.66 2018.54 1420.46 Q2015.02 1423.26 2008.54 1423.26 Q2006.37 1423.26 2004.05 1422.82 Q2001.76 1422.4 1999.31 1421.55 L1999.31 1417.03 Q2001.25 1418.17 2003.56 1418.75 Q2005.88 1419.32 2008.4 1419.32 Q2012.8 1419.32 2015.09 1417.59 Q2017.41 1415.85 2017.41 1412.54 Q2017.41 1409.49 2015.25 1407.77 Q2013.12 1406.04 2009.31 1406.04 L2005.28 1406.04 L2005.28 1402.19 L2009.49 1402.19 Q2012.94 1402.19 2014.77 1400.83 Q2016.6 1399.44 2016.6 1396.85 Q2016.6 1394.19 2014.7 1392.77 Q2012.82 1391.34 2009.31 1391.34 Q2007.38 1391.34 2005.19 1391.75 Q2002.99 1392.17 2000.35 1393.05 L2000.35 1388.88 Q2003.01 1388.14 2005.32 1387.77 Q2007.66 1387.4 2009.72 1387.4 Q2015.05 1387.4 2018.15 1389.83 Q2021.25 1392.24 2021.25 1396.36 Q2021.25 1399.23 2019.61 1401.22 Q2017.96 1403.19 2014.93 1403.95 Z" fill="#000000" fill-rule="nonzero" fill-opacity="1" /><path clip-path="url(#clip990)" d="M2040.93 1391.11 Q2037.31 1391.11 2035.49 1394.67 Q2033.68 1398.21 2033.68 1405.34 Q2033.68 1412.45 2035.49 1416.01 Q2037.31 1419.56 2040.93 1419.56 Q2044.56 1419.56 2046.37 1416.01 Q2048.19 1412.45 2048.19 1405.34 Q2048.19 1398.21 2046.37 1394.67 Q2044.56 1391.11 2040.93 1391.11 M2040.93 1387.4 Q2046.74 1387.4 2049.79 1392.01 Q2052.87 1396.59 2052.87 1405.34 Q2052.87 1414.07 2049.79 1418.68 Q2046.74 1423.26 2040.93 1423.26 Q2035.12 1423.26 2032.04 1418.68 Q2028.98 1414.07 2028.98 1405.34 Q2028.98 1396.59 2032.04 1392.01 Q2035.12 1387.4 2040.93 1387.4 Z" fill="#000000" fill-rule="nonzero" fill-opacity="1" /><path clip-path="url(#clip990)" d="M2071.09 1391.11 Q2067.48 1391.11 2065.65 1394.67 Q2063.84 1398.21 2063.84 1405.34 Q2063.84 1412.45 2065.65 1416.01 Q2067.48 1419.56 2071.09 1419.56 Q2074.72 1419.56 2076.53 1416.01 Q2078.36 1412.45 2078.36 1405.34 Q2078.36 1398.21 2076.53 1394.67 Q2074.72 1391.11 2071.09 1391.11 M2071.09 1387.4 Q2076.9 1387.4 2079.95 1392.01 Q2083.03 1396.59 2083.03 1405.34 Q2083.03 1414.07 2079.95 1418.68 Q2076.9 1423.26 2071.09 1423.26 Q2065.28 1423.26 2062.2 1418.68 Q2059.14 1414.07 2059.14 1405.34 Q2059.14 1396.59 2062.2 1392.01 Q2065.28 1387.4 2071.09 1387.4 Z" fill="#000000" fill-rule="nonzero" fill-opacity="1" /><path clip-path="url(#clip990)" d="M976.948 1457.53 L1006.99 1457.53 L1006.99 1462.94 L983.377 1462.94 L983.377 1477.01 L1006.01 1477.01 L1006.01 1482.42 L983.377 1482.42 L983.377 1499.64 L1007.57 1499.64 L1007.57 1505.05 L976.948 1505.05 L976.948 1457.53 Z" fill="#000000" fill-rule="nonzero" fill-opacity="1" /><path clip-path="url(#clip990)" d="M1047.51 1483.54 L1047.51 1505.05 L1041.66 1505.05 L1041.66 1483.73 Q1041.66 1478.67 1039.68 1476.15 Q1037.71 1473.64 1033.76 1473.64 Q1029.02 1473.64 1026.28 1476.66 Q1023.54 1479.68 1023.54 1484.9 L1023.54 1505.05 L1017.66 1505.05 L1017.66 1469.4 L1023.54 1469.4 L1023.54 1474.94 Q1025.65 1471.73 1028.48 1470.14 Q1031.34 1468.54 1035.07 1468.54 Q1041.21 1468.54 1044.36 1472.36 Q1047.51 1476.15 1047.51 1483.54 Z" fill="#000000" fill-rule="nonzero" fill-opacity="1" /><path clip-path="url(#clip990)" d="M1082.65 1486.81 Q1082.65 1480.45 1080.01 1476.95 Q1077.4 1473.45 1072.66 1473.45 Q1067.95 1473.45 1065.3 1476.95 Q1062.69 1480.45 1062.69 1486.81 Q1062.69 1493.15 1065.3 1496.65 Q1067.95 1500.15 1072.66 1500.15 Q1077.4 1500.15 1080.01 1496.65 Q1082.65 1493.15 1082.65 1486.81 M1088.51 1500.63 Q1088.51 1509.73 1084.46 1514.15 Q1080.42 1518.61 1072.08 1518.61 Q1069 1518.61 1066.26 1518.13 Q1063.52 1517.69 1060.94 1516.73 L1060.94 1511.04 Q1063.52 1512.44 1066.04 1513.1 Q1068.55 1513.77 1071.16 1513.77 Q1076.92 1513.77 1079.79 1510.75 Q1082.65 1507.76 1082.65 1501.68 L1082.65 1498.78 Q1080.84 1501.93 1078 1503.49 Q1075.17 1505.05 1071.22 1505.05 Q1064.67 1505.05 1060.66 1500.05 Q1056.65 1495.06 1056.65 1486.81 Q1056.65 1478.54 1060.66 1473.54 Q1064.67 1468.54 1071.22 1468.54 Q1075.17 1468.54 1078 1470.1 Q1080.84 1471.66 1082.65 1474.81 L1082.65 1469.4 L1088.51 1469.4 L1088.51 1500.63 Z" fill="#000000" fill-rule="nonzero" fill-opacity="1" /><path clip-path="url(#clip990)" d="M1100.57 1469.4 L1106.43 1469.4 L1106.43 1505.05 L1100.57 1505.05 L1100.57 1469.4 M1100.57 1455.53 L1106.43 1455.53 L1106.43 1462.94 L1100.57 1462.94 L1100.57 1455.53 Z" fill="#000000" fill-rule="nonzero" fill-opacity="1" /><path clip-path="url(#clip990)" d="M1148.31 1483.54 L1148.31 1505.05 L1142.46 1505.05 L1142.46 1483.73 Q1142.46 1478.67 1140.48 1476.15 Q1138.51 1473.64 1134.56 1473.64 Q1129.82 1473.64 1127.08 1476.66 Q1124.35 1479.68 1124.35 1484.9 L1124.35 1505.05 L1118.46 1505.05 L1118.46 1469.4 L1124.35 1469.4 L1124.35 1474.94 Q1126.45 1471.73 1129.28 1470.14 Q1132.14 1468.54 1135.87 1468.54 Q1142.01 1468.54 1145.16 1472.36 Q1148.31 1476.15 1148.31 1483.54 Z" fill="#000000" fill-rule="nonzero" fill-opacity="1" /><path clip-path="url(#clip990)" d="M1190.49 1485.76 L1190.49 1488.63 L1163.56 1488.63 Q1163.94 1494.68 1167.19 1497.86 Q1170.47 1501.01 1176.29 1501.01 Q1179.66 1501.01 1182.81 1500.18 Q1186 1499.35 1189.12 1497.7 L1189.12 1503.24 Q1185.97 1504.57 1182.66 1505.27 Q1179.35 1505.97 1175.94 1505.97 Q1167.41 1505.97 1162.41 1501.01 Q1157.45 1496.04 1157.45 1487.58 Q1157.45 1478.83 1162.16 1473.7 Q1166.9 1468.54 1174.92 1468.54 Q1182.11 1468.54 1186.28 1473.19 Q1190.49 1477.81 1190.49 1485.76 M1184.63 1484.04 Q1184.57 1479.24 1181.92 1476.37 Q1179.31 1473.51 1174.99 1473.51 Q1170.08 1473.51 1167.12 1476.28 Q1164.2 1479.05 1163.75 1484.08 L1184.63 1484.04 Z" fill="#000000" fill-rule="nonzero" fill-opacity="1" /><path clip-path="url(#clip990)" d="M1249.56 1459.09 L1249.56 1465.36 Q1245.9 1463.61 1242.65 1462.75 Q1239.41 1461.89 1236.38 1461.89 Q1231.13 1461.89 1228.27 1463.93 Q1225.43 1465.97 1225.43 1469.72 Q1225.43 1472.87 1227.31 1474.5 Q1229.22 1476.09 1234.5 1477.07 L1238.39 1477.87 Q1245.58 1479.24 1248.99 1482.71 Q1252.42 1486.15 1252.42 1491.94 Q1252.42 1498.85 1247.78 1502.41 Q1243.16 1505.97 1234.22 1505.97 Q1230.84 1505.97 1227.02 1505.21 Q1223.24 1504.45 1219.16 1502.95 L1219.16 1496.33 Q1223.08 1498.53 1226.83 1499.64 Q1230.59 1500.75 1234.22 1500.75 Q1239.72 1500.75 1242.72 1498.59 Q1245.71 1496.43 1245.71 1492.42 Q1245.71 1488.91 1243.54 1486.94 Q1241.41 1484.97 1236.51 1483.98 L1232.59 1483.22 Q1225.4 1481.79 1222.19 1478.73 Q1218.97 1475.67 1218.97 1470.23 Q1218.97 1463.93 1223.4 1460.3 Q1227.85 1456.67 1235.65 1456.67 Q1238.99 1456.67 1242.46 1457.28 Q1245.93 1457.88 1249.56 1459.09 Z" fill="#000000" fill-rule="nonzero" fill-opacity="1" /><path clip-path="url(#clip990)" d="M1267.86 1499.7 L1267.86 1518.61 L1261.97 1518.61 L1261.97 1469.4 L1267.86 1469.4 L1267.86 1474.81 Q1269.71 1471.63 1272.51 1470.1 Q1275.34 1468.54 1279.26 1468.54 Q1285.75 1468.54 1289.79 1473.7 Q1293.86 1478.86 1293.86 1487.26 Q1293.86 1495.66 1289.79 1500.82 Q1285.75 1505.97 1279.26 1505.97 Q1275.34 1505.97 1272.51 1504.45 Q1269.71 1502.89 1267.86 1499.7 M1287.79 1487.26 Q1287.79 1480.8 1285.11 1477.14 Q1282.47 1473.45 1277.82 1473.45 Q1273.18 1473.45 1270.5 1477.14 Q1267.86 1480.8 1267.86 1487.26 Q1267.86 1493.72 1270.5 1497.41 Q1273.18 1501.07 1277.82 1501.07 Q1282.47 1501.07 1285.11 1497.41 Q1287.79 1493.72 1287.79 1487.26 Z" fill="#000000" fill-rule="nonzero" fill-opacity="1" /><path clip-path="url(#clip990)" d="M1334.06 1485.76 L1334.06 1488.63 L1307.14 1488.63 Q1307.52 1494.68 1310.77 1497.86 Q1314.04 1501.01 1319.87 1501.01 Q1323.24 1501.01 1326.39 1500.18 Q1329.58 1499.35 1332.7 1497.7 L1332.7 1503.24 Q1329.54 1504.57 1326.23 1505.27 Q1322.92 1505.97 1319.52 1505.97 Q1310.99 1505.97 1305.99 1501.01 Q1301.03 1496.04 1301.03 1487.58 Q1301.03 1478.83 1305.74 1473.7 Q1310.48 1468.54 1318.5 1468.54 Q1325.69 1468.54 1329.86 1473.19 Q1334.06 1477.81 1334.06 1485.76 M1328.21 1484.04 Q1328.14 1479.24 1325.5 1476.37 Q1322.89 1473.51 1318.56 1473.51 Q1313.66 1473.51 1310.7 1476.28 Q1307.77 1479.05 1307.33 1484.08 L1328.21 1484.04 Z" fill="#000000" fill-rule="nonzero" fill-opacity="1" /><path clip-path="url(#clip990)" d="M1374.17 1485.76 L1374.17 1488.63 L1347.24 1488.63 Q1347.62 1494.68 1350.87 1497.86 Q1354.15 1501.01 1359.97 1501.01 Q1363.35 1501.01 1366.5 1500.18 Q1369.68 1499.35 1372.8 1497.7 L1372.8 1503.24 Q1369.65 1504.57 1366.34 1505.27 Q1363.03 1505.97 1359.62 1505.97 Q1351.09 1505.97 1346.1 1501.01 Q1341.13 1496.04 1341.13 1487.58 Q1341.13 1478.83 1345.84 1473.7 Q1350.58 1468.54 1358.6 1468.54 Q1365.8 1468.54 1369.97 1473.19 Q1374.17 1477.81 1374.17 1485.76 M1368.31 1484.04 Q1368.25 1479.24 1365.61 1476.37 Q1363 1473.51 1358.67 1473.51 Q1353.77 1473.51 1350.81 1476.28 Q1347.88 1479.05 1347.43 1484.08 L1368.31 1484.04 Z" fill="#000000" fill-rule="nonzero" fill-opacity="1" /><path clip-path="url(#clip990)" d="M1407.24 1474.81 L1407.24 1455.53 L1413.09 1455.53 L1413.09 1505.05 L1407.24 1505.05 L1407.24 1499.7 Q1405.39 1502.89 1402.56 1504.45 Q1399.76 1505.97 1395.81 1505.97 Q1389.35 1505.97 1385.28 1500.82 Q1381.23 1495.66 1381.23 1487.26 Q1381.23 1478.86 1385.28 1473.7 Q1389.35 1468.54 1395.81 1468.54 Q1399.76 1468.54 1402.56 1470.1 Q1405.39 1471.63 1407.24 1474.81 M1387.28 1487.26 Q1387.28 1493.72 1389.92 1497.41 Q1392.6 1501.07 1397.24 1501.07 Q1401.89 1501.07 1404.56 1497.41 Q1407.24 1493.72 1407.24 1487.26 Q1407.24 1480.8 1404.56 1477.14 Q1401.89 1473.45 1397.24 1473.45 Q1392.6 1473.45 1389.92 1477.14 Q1387.28 1480.8 1387.28 1487.26 Z" fill="#000000" fill-rule="nonzero" fill-opacity="1" /><path clip-path="url(#clip990)" d="M1459.95 1455.59 Q1455.68 1462.91 1453.61 1470.07 Q1451.54 1477.23 1451.54 1484.59 Q1451.54 1491.94 1453.61 1499.16 Q1455.71 1506.36 1459.95 1513.65 L1454.85 1513.65 Q1450.08 1506.17 1447.69 1498.94 Q1445.34 1491.72 1445.34 1484.59 Q1445.34 1477.49 1447.69 1470.29 Q1450.05 1463.1 1454.85 1455.59 L1459.95 1455.59 Z" fill="#000000" fill-rule="nonzero" fill-opacity="1" /><path clip-path="url(#clip990)" d="M1494.1 1482.77 Q1496.17 1483.47 1498.11 1485.76 Q1500.08 1488.06 1502.06 1492.07 L1508.58 1505.05 L1501.67 1505.05 L1495.59 1492.86 Q1493.24 1488.09 1491.01 1486.53 Q1488.81 1484.97 1484.99 1484.97 L1477.99 1484.97 L1477.99 1505.05 L1471.56 1505.05 L1471.56 1457.53 L1486.08 1457.53 Q1494.23 1457.53 1498.24 1460.94 Q1502.25 1464.34 1502.25 1471.22 Q1502.25 1475.71 1500.15 1478.67 Q1498.08 1481.63 1494.1 1482.77 M1477.99 1462.82 L1477.99 1479.68 L1486.08 1479.68 Q1490.72 1479.68 1493.08 1477.55 Q1495.47 1475.39 1495.47 1471.22 Q1495.47 1467.05 1493.08 1464.95 Q1490.72 1462.82 1486.08 1462.82 L1477.99 1462.82 Z" fill="#000000" fill-rule="nonzero" fill-opacity="1" /><path clip-path="url(#clip990)" d="M1523.28 1462.82 L1523.28 1480.67 L1531.37 1480.67 Q1535.86 1480.67 1538.31 1478.35 Q1540.76 1476.02 1540.76 1471.73 Q1540.76 1467.46 1538.31 1465.14 Q1535.86 1462.82 1531.37 1462.82 L1523.28 1462.82 M1516.86 1457.53 L1531.37 1457.53 Q1539.36 1457.53 1543.43 1461.16 Q1547.54 1464.76 1547.54 1471.73 Q1547.54 1478.76 1543.43 1482.36 Q1539.36 1485.95 1531.37 1485.95 L1523.28 1485.95 L1523.28 1505.05 L1516.86 1505.05 L1516.86 1457.53 Z" fill="#000000" fill-rule="nonzero" fill-opacity="1" /><path clip-path="url(#clip990)" d="M1556.16 1457.53 L1565.74 1457.53 L1577.87 1489.87 L1590.06 1457.53 L1599.64 1457.53 L1599.64 1505.05 L1593.37 1505.05 L1593.37 1463.32 L1581.12 1495.92 L1574.66 1495.92 L1562.4 1463.32 L1562.4 1505.05 L1556.16 1505.05 L1556.16 1457.53 Z" fill="#000000" fill-rule="nonzero" fill-opacity="1" /><path clip-path="url(#clip990)" d="M1611.23 1455.59 L1616.32 1455.59 Q1621.09 1463.1 1623.45 1470.29 Q1625.84 1477.49 1625.84 1484.59 Q1625.84 1491.72 1623.45 1498.94 Q1621.09 1506.17 1616.32 1513.65 L1611.23 1513.65 Q1615.46 1506.36 1617.53 1499.16 Q1619.63 1491.94 1619.63 1484.59 Q1619.63 1477.23 1617.53 1470.07 Q1615.46 1462.91 1611.23 1455.59 Z" fill="#000000" fill-rule="nonzero" fill-opacity="1" /><polyline clip-path="url(#clip990)" style="stroke:#000000; stroke-linecap:round; stroke-linejoin:round; stroke-width:4; stroke-opacity:1; fill:none" points="313.02,1360.19 313.02,110.236 "/>
<polyline clip-path="url(#clip990)" style="stroke:#000000; stroke-linecap:round; stroke-linejoin:round; stroke-width:4; stroke-opacity:1; fill:none" points="313.02,1235.19 331.918,1235.19 "/>
<polyline clip-path="url(#clip990)" style="stroke:#000000; stroke-linecap:round; stroke-linejoin:round; stroke-width:4; stroke-opacity:1; fill:none" points="313.02,985.202 331.918,985.202 "/>
<polyline clip-path="url(#clip990)" style="stroke:#000000; stroke-linecap:round; stroke-linejoin:round; stroke-width:4; stroke-opacity:1; fill:none" points="313.02,735.212 331.918,735.212 "/>
<polyline clip-path="url(#clip990)" style="stroke:#000000; stroke-linecap:round; stroke-linejoin:round; stroke-width:4; stroke-opacity:1; fill:none" points="313.02,485.222 331.918,485.222 "/>
<polyline clip-path="url(#clip990)" style="stroke:#000000; stroke-linecap:round; stroke-linejoin:round; stroke-width:4; stroke-opacity:1; fill:none" points="313.02,235.231 331.918,235.231 "/>
<path clip-path="url(#clip990)" d="M189.775 1220.99 Q186.164 1220.99 184.336 1224.56 Q182.53 1228.1 182.53 1235.23 Q182.53 1242.33 184.336 1245.9 Q186.164 1249.44 189.775 1249.44 Q193.41 1249.44 195.215 1245.9 Q197.044 1242.33 197.044 1235.23 Q197.044 1228.1 195.215 1224.56 Q193.41 1220.99 189.775 1220.99 M189.775 1217.29 Q195.586 1217.29 198.641 1221.89 Q201.72 1226.48 201.72 1235.23 Q201.72 1243.95 198.641 1248.56 Q195.586 1253.14 189.775 1253.14 Q183.965 1253.14 180.887 1248.56 Q177.831 1243.95 177.831 1235.23 Q177.831 1226.48 180.887 1221.89 Q183.965 1217.29 189.775 1217.29 Z" fill="#000000" fill-rule="nonzero" fill-opacity="1" /><path clip-path="url(#clip990)" d="M209.937 1246.59 L214.822 1246.59 L214.822 1252.47 L209.937 1252.47 L209.937 1246.59 Z" fill="#000000" fill-rule="nonzero" fill-opacity="1" /><path clip-path="url(#clip990)" d="M225.817 1248.54 L233.456 1248.54 L233.456 1222.17 L225.146 1223.84 L225.146 1219.58 L233.409 1217.91 L238.085 1217.91 L238.085 1248.54 L245.724 1248.54 L245.724 1252.47 L225.817 1252.47 L225.817 1248.54 Z" fill="#000000" fill-rule="nonzero" fill-opacity="1" /><path clip-path="url(#clip990)" d="M265.168 1236.06 Q261.835 1236.06 259.914 1237.84 Q258.016 1239.63 258.016 1242.75 Q258.016 1245.88 259.914 1247.66 Q261.835 1249.44 265.168 1249.44 Q268.502 1249.44 270.423 1247.66 Q272.344 1245.85 272.344 1242.75 Q272.344 1239.63 270.423 1237.84 Q268.525 1236.06 265.168 1236.06 M260.493 1234.07 Q257.483 1233.33 255.794 1231.27 Q254.127 1229.21 254.127 1226.25 Q254.127 1222.1 257.067 1219.69 Q260.03 1217.29 265.168 1217.29 Q270.33 1217.29 273.27 1219.69 Q276.21 1222.1 276.21 1226.25 Q276.21 1229.21 274.52 1231.27 Q272.854 1233.33 269.868 1234.07 Q273.247 1234.86 275.122 1237.15 Q277.02 1239.44 277.02 1242.75 Q277.02 1247.77 273.942 1250.46 Q270.886 1253.14 265.168 1253.14 Q259.451 1253.14 256.372 1250.46 Q253.317 1247.77 253.317 1242.75 Q253.317 1239.44 255.215 1237.15 Q257.113 1234.86 260.493 1234.07 M258.78 1226.69 Q258.78 1229.37 260.446 1230.88 Q262.136 1232.38 265.168 1232.38 Q268.178 1232.38 269.868 1230.88 Q271.58 1229.37 271.58 1226.69 Q271.58 1224 269.868 1222.5 Q268.178 1220.99 265.168 1220.99 Q262.136 1220.99 260.446 1222.5 Q258.78 1224 258.78 1226.69 Z" fill="#000000" fill-rule="nonzero" fill-opacity="1" /><path clip-path="url(#clip990)" d="M189.683 971.001 Q186.072 971.001 184.243 974.566 Q182.437 978.107 182.437 985.237 Q182.437 992.343 184.243 995.908 Q186.072 999.45 189.683 999.45 Q193.317 999.45 195.123 995.908 Q196.951 992.343 196.951 985.237 Q196.951 978.107 195.123 974.566 Q193.317 971.001 189.683 971.001 M189.683 967.297 Q195.493 967.297 198.548 971.904 Q201.627 976.487 201.627 985.237 Q201.627 993.964 198.548 998.57 Q195.493 1003.15 189.683 1003.15 Q183.873 1003.15 180.794 998.57 Q177.738 993.964 177.738 985.237 Q177.738 976.487 180.794 971.904 Q183.873 967.297 189.683 967.297 Z" fill="#000000" fill-rule="nonzero" fill-opacity="1" /><path clip-path="url(#clip990)" d="M209.845 996.603 L214.729 996.603 L214.729 1002.48 L209.845 1002.48 L209.845 996.603 Z" fill="#000000" fill-rule="nonzero" fill-opacity="1" /><path clip-path="url(#clip990)" d="M228.942 998.547 L245.261 998.547 L245.261 1002.48 L223.317 1002.48 L223.317 998.547 Q225.979 995.792 230.562 991.163 Q235.169 986.51 236.349 985.168 Q238.595 982.644 239.474 980.908 Q240.377 979.149 240.377 977.459 Q240.377 974.705 238.433 972.969 Q236.511 971.232 233.409 971.232 Q231.21 971.232 228.757 971.996 Q226.326 972.76 223.548 974.311 L223.548 969.589 Q226.372 968.455 228.826 967.876 Q231.28 967.297 233.317 967.297 Q238.687 967.297 241.882 969.982 Q245.076 972.668 245.076 977.158 Q245.076 979.288 244.266 981.209 Q243.479 983.107 241.372 985.7 Q240.794 986.371 237.692 989.589 Q234.59 992.783 228.942 998.547 Z" fill="#000000" fill-rule="nonzero" fill-opacity="1" /><path clip-path="url(#clip990)" d="M265.076 971.001 Q261.465 971.001 259.636 974.566 Q257.831 978.107 257.831 985.237 Q257.831 992.343 259.636 995.908 Q261.465 999.45 265.076 999.45 Q268.71 999.45 270.516 995.908 Q272.344 992.343 272.344 985.237 Q272.344 978.107 270.516 974.566 Q268.71 971.001 265.076 971.001 M265.076 967.297 Q270.886 967.297 273.942 971.904 Q277.02 976.487 277.02 985.237 Q277.02 993.964 273.942 998.57 Q270.886 1003.15 265.076 1003.15 Q259.266 1003.15 256.187 998.57 Q253.132 993.964 253.132 985.237 Q253.132 976.487 256.187 971.904 Q259.266 967.297 265.076 967.297 Z" fill="#000000" fill-rule="nonzero" fill-opacity="1" /><path clip-path="url(#clip990)" d="M191.28 721.011 Q187.669 721.011 185.84 724.575 Q184.035 728.117 184.035 735.247 Q184.035 742.353 185.84 745.918 Q187.669 749.46 191.28 749.46 Q194.914 749.46 196.72 745.918 Q198.548 742.353 198.548 735.247 Q198.548 728.117 196.72 724.575 Q194.914 721.011 191.28 721.011 M191.28 717.307 Q197.09 717.307 200.146 721.913 Q203.224 726.497 203.224 735.247 Q203.224 743.973 200.146 748.58 Q197.09 753.163 191.28 753.163 Q185.47 753.163 182.391 748.58 Q179.336 743.973 179.336 735.247 Q179.336 726.497 182.391 721.913 Q185.47 717.307 191.28 717.307 Z" fill="#000000" fill-rule="nonzero" fill-opacity="1" /><path clip-path="url(#clip990)" d="M211.442 746.612 L216.326 746.612 L216.326 752.492 L211.442 752.492 L211.442 746.612 Z" fill="#000000" fill-rule="nonzero" fill-opacity="1" /><path clip-path="url(#clip990)" d="M230.539 748.557 L246.858 748.557 L246.858 752.492 L224.914 752.492 L224.914 748.557 Q227.576 745.802 232.159 741.173 Q236.766 736.52 237.946 735.177 Q240.192 732.654 241.071 730.918 Q241.974 729.159 241.974 727.469 Q241.974 724.714 240.03 722.978 Q238.108 721.242 235.007 721.242 Q232.808 721.242 230.354 722.006 Q227.923 722.77 225.146 724.321 L225.146 719.599 Q227.97 718.464 230.423 717.886 Q232.877 717.307 234.914 717.307 Q240.284 717.307 243.479 719.992 Q246.673 722.677 246.673 727.168 Q246.673 729.298 245.863 731.219 Q245.076 733.117 242.97 735.71 Q242.391 736.381 239.289 739.599 Q236.187 742.793 230.539 748.557 Z" fill="#000000" fill-rule="nonzero" fill-opacity="1" /><path clip-path="url(#clip990)" d="M260.701 748.557 L277.02 748.557 L277.02 752.492 L255.076 752.492 L255.076 748.557 Q257.738 745.802 262.321 741.173 Q266.928 736.52 268.108 735.177 Q270.354 732.654 271.233 730.918 Q272.136 729.159 272.136 727.469 Q272.136 724.714 270.192 722.978 Q268.27 721.242 265.168 721.242 Q262.969 721.242 260.516 722.006 Q258.085 722.77 255.307 724.321 L255.307 719.599 Q258.131 718.464 260.585 717.886 Q263.039 717.307 265.076 717.307 Q270.446 717.307 273.641 719.992 Q276.835 722.677 276.835 727.168 Q276.835 729.298 276.025 731.219 Q275.238 733.117 273.131 735.71 Q272.553 736.381 269.451 739.599 Q266.349 742.793 260.701 748.557 Z" fill="#000000" fill-rule="nonzero" fill-opacity="1" /><path clip-path="url(#clip990)" d="M189.197 471.02 Q185.586 471.02 183.757 474.585 Q181.951 478.127 181.951 485.256 Q181.951 492.363 183.757 495.928 Q185.586 499.469 189.197 499.469 Q192.831 499.469 194.636 495.928 Q196.465 492.363 196.465 485.256 Q196.465 478.127 194.636 474.585 Q192.831 471.02 189.197 471.02 M189.197 467.317 Q195.007 467.317 198.062 471.923 Q201.141 476.506 201.141 485.256 Q201.141 493.983 198.062 498.59 Q195.007 503.173 189.197 503.173 Q183.387 503.173 180.308 498.59 Q177.252 493.983 177.252 485.256 Q177.252 476.506 180.308 471.923 Q183.387 467.317 189.197 467.317 Z" fill="#000000" fill-rule="nonzero" fill-opacity="1" /><path clip-path="url(#clip990)" d="M209.359 496.622 L214.243 496.622 L214.243 502.502 L209.359 502.502 L209.359 496.622 Z" fill="#000000" fill-rule="nonzero" fill-opacity="1" /><path clip-path="url(#clip990)" d="M228.456 498.567 L244.775 498.567 L244.775 502.502 L222.831 502.502 L222.831 498.567 Q225.493 495.812 230.076 491.182 Q234.683 486.53 235.863 485.187 Q238.108 482.664 238.988 480.928 Q239.891 479.168 239.891 477.479 Q239.891 474.724 237.946 472.988 Q236.025 471.252 232.923 471.252 Q230.724 471.252 228.271 472.016 Q225.84 472.78 223.062 474.331 L223.062 469.608 Q225.886 468.474 228.34 467.895 Q230.794 467.317 232.831 467.317 Q238.201 467.317 241.395 470.002 Q244.59 472.687 244.59 477.178 Q244.59 479.307 243.78 481.229 Q242.993 483.127 240.886 485.719 Q240.308 486.391 237.206 489.608 Q234.104 492.803 228.456 498.567 Z" fill="#000000" fill-rule="nonzero" fill-opacity="1" /><path clip-path="url(#clip990)" d="M267.437 472.016 L255.631 490.465 L267.437 490.465 L267.437 472.016 M266.21 467.942 L272.09 467.942 L272.09 490.465 L277.02 490.465 L277.02 494.354 L272.09 494.354 L272.09 502.502 L267.437 502.502 L267.437 494.354 L251.835 494.354 L251.835 489.84 L266.21 467.942 Z" fill="#000000" fill-rule="nonzero" fill-opacity="1" /><path clip-path="url(#clip990)" d="M189.521 221.03 Q185.91 221.03 184.081 224.595 Q182.275 228.137 182.275 235.266 Q182.275 242.373 184.081 245.937 Q185.91 249.479 189.521 249.479 Q193.155 249.479 194.961 245.937 Q196.789 242.373 196.789 235.266 Q196.789 228.137 194.961 224.595 Q193.155 221.03 189.521 221.03 M189.521 217.326 Q195.331 217.326 198.386 221.933 Q201.465 226.516 201.465 235.266 Q201.465 243.993 198.386 248.599 Q195.331 253.183 189.521 253.183 Q183.711 253.183 180.632 248.599 Q177.576 243.993 177.576 235.266 Q177.576 226.516 180.632 221.933 Q183.711 217.326 189.521 217.326 Z" fill="#000000" fill-rule="nonzero" fill-opacity="1" /><path clip-path="url(#clip990)" d="M209.683 246.632 L214.567 246.632 L214.567 252.511 L209.683 252.511 L209.683 246.632 Z" fill="#000000" fill-rule="nonzero" fill-opacity="1" /><path clip-path="url(#clip990)" d="M228.78 248.576 L245.099 248.576 L245.099 252.511 L223.155 252.511 L223.155 248.576 Q225.817 245.822 230.4 241.192 Q235.007 236.539 236.187 235.197 Q238.433 232.674 239.312 230.937 Q240.215 229.178 240.215 227.488 Q240.215 224.734 238.27 222.998 Q236.349 221.262 233.247 221.262 Q231.048 221.262 228.595 222.025 Q226.164 222.789 223.386 224.34 L223.386 219.618 Q226.21 218.484 228.664 217.905 Q231.118 217.326 233.155 217.326 Q238.525 217.326 241.72 220.012 Q244.914 222.697 244.914 227.187 Q244.914 229.317 244.104 231.238 Q243.317 233.136 241.21 235.729 Q240.632 236.4 237.53 239.618 Q234.428 242.812 228.78 248.576 Z" fill="#000000" fill-rule="nonzero" fill-opacity="1" /><path clip-path="url(#clip990)" d="M265.493 233.368 Q262.344 233.368 260.493 235.521 Q258.664 237.673 258.664 241.423 Q258.664 245.15 260.493 247.326 Q262.344 249.479 265.493 249.479 Q268.641 249.479 270.469 247.326 Q272.321 245.15 272.321 241.423 Q272.321 237.673 270.469 235.521 Q268.641 233.368 265.493 233.368 M274.775 218.715 L274.775 222.974 Q273.016 222.141 271.21 221.701 Q269.428 221.262 267.668 221.262 Q263.039 221.262 260.585 224.387 Q258.155 227.512 257.807 233.831 Q259.173 231.817 261.233 230.752 Q263.293 229.664 265.77 229.664 Q270.979 229.664 273.988 232.836 Q277.02 235.984 277.02 241.423 Q277.02 246.748 273.872 249.965 Q270.724 253.183 265.493 253.183 Q259.497 253.183 256.326 248.599 Q253.155 243.993 253.155 235.266 Q253.155 227.072 257.044 222.211 Q260.932 217.326 267.483 217.326 Q269.243 217.326 271.025 217.674 Q272.83 218.021 274.775 218.715 Z" fill="#000000" fill-rule="nonzero" fill-opacity="1" /><path clip-path="url(#clip990)" d="M79.4763 1036.41 L79.4763 996.206 L84.8871 996.206 L84.8871 1013.08 L126.996 1013.08 L126.996 1019.54 L84.8871 1019.54 L84.8871 1036.41 L79.4763 1036.41 Z" fill="#000000" fill-rule="nonzero" fill-opacity="1" /><path clip-path="url(#clip990)" d="M105.48 960.622 L126.996 960.622 L126.996 966.478 L105.671 966.478 Q100.61 966.478 98.096 968.451 Q95.5815 970.425 95.5815 974.372 Q95.5815 979.114 98.6052 981.851 Q101.629 984.589 106.849 984.589 L126.996 984.589 L126.996 990.477 L77.4711 990.477 L77.4711 984.589 L96.8865 984.589 Q93.6718 982.488 92.0804 979.655 Q90.489 976.791 90.489 973.067 Q90.489 966.924 94.3084 963.773 Q98.096 960.622 105.48 960.622 Z" fill="#000000" fill-rule="nonzero" fill-opacity="1" /><path clip-path="url(#clip990)" d="M107.708 918.449 L110.573 918.449 L110.573 945.376 Q116.62 944.994 119.803 941.747 Q122.954 938.469 122.954 932.644 Q122.954 929.271 122.127 926.12 Q121.299 922.937 119.644 919.817 L125.182 919.817 Q126.519 922.968 127.219 926.279 Q127.919 929.589 127.919 932.994 Q127.919 941.525 122.954 946.522 Q117.989 951.487 109.522 951.487 Q100.77 951.487 95.6452 946.776 Q90.489 942.034 90.489 934.013 Q90.489 926.82 95.1359 922.65 Q99.7511 918.449 107.708 918.449 M105.989 924.305 Q101.183 924.369 98.3188 927.011 Q95.4542 929.621 95.4542 933.949 Q95.4542 938.851 98.2233 941.811 Q100.992 944.739 106.021 945.185 L105.989 924.305 Z" fill="#000000" fill-rule="nonzero" fill-opacity="1" /><path clip-path="url(#clip990)" d="M96.8228 888.18 Q96.2499 889.167 95.9953 890.344 Q95.7088 891.49 95.7088 892.891 Q95.7088 897.856 98.9553 900.529 Q102.17 903.171 108.217 903.171 L126.996 903.171 L126.996 909.059 L91.3483 909.059 L91.3483 903.171 L96.8865 903.171 Q93.64 901.325 92.0804 898.365 Q90.489 895.405 90.489 891.172 Q90.489 890.567 90.5844 889.835 Q90.6481 889.103 90.8072 888.212 L96.8228 888.18 Z" fill="#000000" fill-rule="nonzero" fill-opacity="1" /><path clip-path="url(#clip990)" d="M98.1915 855.428 Q94.2447 853.232 92.3668 850.177 Q90.489 847.121 90.489 842.983 Q90.489 837.413 94.4039 834.39 Q98.2869 831.366 105.48 831.366 L126.996 831.366 L126.996 837.254 L105.671 837.254 Q100.547 837.254 98.0641 839.068 Q95.5815 840.883 95.5815 844.607 Q95.5815 849.158 98.6052 851.8 Q101.629 854.442 106.849 854.442 L126.996 854.442 L126.996 860.33 L105.671 860.33 Q100.515 860.33 98.0641 862.144 Q95.5815 863.958 95.5815 867.746 Q95.5815 872.234 98.6371 874.876 Q101.661 877.517 106.849 877.517 L126.996 877.517 L126.996 883.406 L91.3483 883.406 L91.3483 877.517 L96.8865 877.517 Q93.6082 875.512 92.0486 872.711 Q90.489 869.91 90.489 866.059 Q90.489 862.176 92.4623 859.471 Q94.4357 856.733 98.1915 855.428 Z" fill="#000000" fill-rule="nonzero" fill-opacity="1" /><path clip-path="url(#clip990)" d="M109.077 803.484 Q109.077 810.582 110.7 813.319 Q112.323 816.056 116.238 816.056 Q119.357 816.056 121.203 814.019 Q123.018 811.951 123.018 808.418 Q123.018 803.548 119.58 800.62 Q116.111 797.66 110.382 797.66 L109.077 797.66 L109.077 803.484 M106.658 791.803 L126.996 791.803 L126.996 797.66 L121.585 797.66 Q124.832 799.665 126.392 802.657 Q127.919 805.649 127.919 809.977 Q127.919 815.452 124.864 818.698 Q121.776 821.913 116.62 821.913 Q110.605 821.913 107.549 817.902 Q104.494 813.86 104.494 805.871 L104.494 797.66 L103.921 797.66 Q99.8784 797.66 97.6822 800.333 Q95.4542 802.975 95.4542 807.781 Q95.4542 810.837 96.1863 813.733 Q96.9183 816.629 98.3824 819.303 L92.9716 819.303 Q91.7303 816.088 91.1255 813.065 Q90.489 810.041 90.489 807.176 Q90.489 799.442 94.4994 795.623 Q98.5097 791.803 106.658 791.803 Z" fill="#000000" fill-rule="nonzero" fill-opacity="1" /><path clip-path="url(#clip990)" d="M77.4711 779.74 L77.4711 773.884 L126.996 773.884 L126.996 779.74 L77.4711 779.74 Z" fill="#000000" fill-rule="nonzero" fill-opacity="1" /><path clip-path="url(#clip990)" d="M79.4763 740.655 L79.4763 710.609 L84.8871 710.609 L84.8871 734.225 L98.9553 734.225 L98.9553 711.595 L104.366 711.595 L104.366 734.225 L121.585 734.225 L121.585 710.036 L126.996 710.036 L126.996 740.655 L79.4763 740.655 Z" fill="#000000" fill-rule="nonzero" fill-opacity="1" /><path clip-path="url(#clip990)" d="M77.4711 681.676 L82.3409 681.676 L82.3409 687.278 Q82.3409 690.429 83.614 691.671 Q84.8871 692.88 88.1973 692.88 L91.3483 692.88 L91.3483 683.236 L95.8998 683.236 L95.8998 692.88 L126.996 692.88 L126.996 698.768 L95.8998 698.768 L95.8998 704.37 L91.3483 704.37 L91.3483 698.768 L88.8657 698.768 Q82.9138 698.768 80.2083 695.999 Q77.4711 693.23 77.4711 687.215 L77.4711 681.676 Z" fill="#000000" fill-rule="nonzero" fill-opacity="1" /><path clip-path="url(#clip990)" d="M77.4711 658.728 L82.3409 658.728 L82.3409 664.33 Q82.3409 667.481 83.614 668.722 Q84.8871 669.932 88.1973 669.932 L91.3483 669.932 L91.3483 660.288 L95.8998 660.288 L95.8998 669.932 L126.996 669.932 L126.996 675.82 L95.8998 675.82 L95.8998 681.422 L91.3483 681.422 L91.3483 675.82 L88.8657 675.82 Q82.9138 675.82 80.2083 673.051 Q77.4711 670.282 77.4711 664.266 L77.4711 658.728 Z" fill="#000000" fill-rule="nonzero" fill-opacity="1" /><path clip-path="url(#clip990)" d="M91.3483 653.826 L91.3483 647.97 L126.996 647.97 L126.996 653.826 L91.3483 653.826 M77.4711 653.826 L77.4711 647.97 L84.8871 647.97 L84.8871 653.826 L77.4711 653.826 Z" fill="#000000" fill-rule="nonzero" fill-opacity="1" /><path clip-path="url(#clip990)" d="M92.717 610.062 L98.1915 610.062 Q96.8228 612.545 96.1544 615.059 Q95.4542 617.542 95.4542 620.088 Q95.4542 625.785 99.0827 628.936 Q102.679 632.088 109.204 632.088 Q115.729 632.088 119.357 628.936 Q122.954 625.785 122.954 620.088 Q122.954 617.542 122.286 615.059 Q121.585 612.545 120.217 610.062 L125.628 610.062 Q126.773 612.513 127.346 615.155 Q127.919 617.765 127.919 620.725 Q127.919 628.777 122.859 633.52 Q117.798 638.262 109.204 638.262 Q100.483 638.262 95.486 633.488 Q90.489 628.682 90.489 620.343 Q90.489 617.637 91.0619 615.059 Q91.603 612.481 92.717 610.062 Z" fill="#000000" fill-rule="nonzero" fill-opacity="1" /><path clip-path="url(#clip990)" d="M91.3483 599.877 L91.3483 594.021 L126.996 594.021 L126.996 599.877 L91.3483 599.877 M77.4711 599.877 L77.4711 594.021 L84.8871 594.021 L84.8871 599.877 L77.4711 599.877 Z" fill="#000000" fill-rule="nonzero" fill-opacity="1" /><path clip-path="url(#clip990)" d="M107.708 551.275 L110.573 551.275 L110.573 578.202 Q116.62 577.82 119.803 574.573 Q122.954 571.295 122.954 565.47 Q122.954 562.097 122.127 558.946 Q121.299 555.763 119.644 552.644 L125.182 552.644 Q126.519 555.795 127.219 559.105 Q127.919 562.415 127.919 565.821 Q127.919 574.351 122.954 579.348 Q117.989 584.313 109.522 584.313 Q100.77 584.313 95.6452 579.602 Q90.489 574.86 90.489 566.839 Q90.489 559.646 95.1359 555.476 Q99.7511 551.275 107.708 551.275 M105.989 557.131 Q101.183 557.195 98.3188 559.837 Q95.4542 562.447 95.4542 566.775 Q95.4542 571.677 98.2233 574.637 Q100.992 577.565 106.021 578.011 L105.989 557.131 Z" fill="#000000" fill-rule="nonzero" fill-opacity="1" /><path clip-path="url(#clip990)" d="M105.48 512.03 L126.996 512.03 L126.996 517.887 L105.671 517.887 Q100.61 517.887 98.096 519.86 Q95.5815 521.833 95.5815 525.78 Q95.5815 530.523 98.6052 533.26 Q101.629 535.997 106.849 535.997 L126.996 535.997 L126.996 541.885 L91.3483 541.885 L91.3483 535.997 L96.8865 535.997 Q93.6718 533.896 92.0804 531.064 Q90.489 528.199 90.489 524.475 Q90.489 518.332 94.3084 515.181 Q98.096 512.03 105.48 512.03 Z" fill="#000000" fill-rule="nonzero" fill-opacity="1" /><path clip-path="url(#clip990)" d="M92.717 474.695 L98.1915 474.695 Q96.8228 477.178 96.1544 479.693 Q95.4542 482.175 95.4542 484.721 Q95.4542 490.419 99.0827 493.57 Q102.679 496.721 109.204 496.721 Q115.729 496.721 119.357 493.57 Q122.954 490.419 122.954 484.721 Q122.954 482.175 122.286 479.693 Q121.585 477.178 120.217 474.695 L125.628 474.695 Q126.773 477.146 127.346 479.788 Q127.919 482.398 127.919 485.358 Q127.919 493.411 122.859 498.153 Q117.798 502.896 109.204 502.896 Q100.483 502.896 95.486 498.121 Q90.489 493.315 90.489 484.976 Q90.489 482.271 91.0619 479.693 Q91.603 477.114 92.717 474.695 Z" fill="#000000" fill-rule="nonzero" fill-opacity="1" /><path clip-path="url(#clip990)" d="M130.306 449.678 Q136.672 452.161 138.614 454.516 Q140.555 456.871 140.555 460.818 L140.555 465.497 L135.654 465.497 L135.654 462.059 Q135.654 459.641 134.508 458.304 Q133.362 456.967 129.097 455.344 L126.423 454.293 L91.3483 468.712 L91.3483 462.505 L119.23 451.365 L91.3483 440.225 L91.3483 434.019 L130.306 449.678 Z" fill="#000000" fill-rule="nonzero" fill-opacity="1" /><polyline clip-path="url(#clip991)" style="stroke:#009af9; stroke-linecap:round; stroke-linejoin:round; stroke-width:8; stroke-opacity:1; fill:none" points="368.966,764.723 741.936,640.455 1114.91,309.622 1487.88,432.11 1860.85,577.044 2233.82,1272.6 "/>
<circle clip-path="url(#clip991)" cx="368.966" cy="764.723" r="14.4" fill="#009af9" fill-rule="evenodd" fill-opacity="1" stroke="#000000" stroke-opacity="1" stroke-width="3.2"/>
<circle clip-path="url(#clip991)" cx="741.936" cy="640.455" r="14.4" fill="#009af9" fill-rule="evenodd" fill-opacity="1" stroke="#000000" stroke-opacity="1" stroke-width="3.2"/>
<circle clip-path="url(#clip991)" cx="1114.91" cy="309.622" r="14.4" fill="#009af9" fill-rule="evenodd" fill-opacity="1" stroke="#000000" stroke-opacity="1" stroke-width="3.2"/>
<circle clip-path="url(#clip991)" cx="1487.88" cy="432.11" r="14.4" fill="#009af9" fill-rule="evenodd" fill-opacity="1" stroke="#000000" stroke-opacity="1" stroke-width="3.2"/>
<circle clip-path="url(#clip991)" cx="1860.85" cy="577.044" r="14.4" fill="#009af9" fill-rule="evenodd" fill-opacity="1" stroke="#000000" stroke-opacity="1" stroke-width="3.2"/>
<circle clip-path="url(#clip991)" cx="2233.82" cy="1272.6" r="14.4" fill="#009af9" fill-rule="evenodd" fill-opacity="1" stroke="#000000" stroke-opacity="1" stroke-width="3.2"/>
<circle clip-path="url(#clip991)" cx="1114.91" cy="309.622" r="14.4" fill="#e26f46" fill-rule="evenodd" fill-opacity="1" stroke="#000000" stroke-opacity="1" stroke-width="3.2"/>
<path clip-path="url(#clip990)" d="M1528.05 255.581 L2223.87 255.581 L2223.87 151.901 L1528.05 151.901  Z" fill="#ffffff" fill-rule="evenodd" fill-opacity="1"/>
<polyline clip-path="url(#clip990)" style="stroke:#000000; stroke-linecap:round; stroke-linejoin:round; stroke-width:4; stroke-opacity:1; fill:none" points="1528.05,255.581 2223.87,255.581 2223.87,151.901 1528.05,151.901 1528.05,255.581 "/>
<circle clip-path="url(#clip990)" cx="1615.91" cy="203.741" r="20.48" fill="#e26f46" fill-rule="evenodd" fill-opacity="1" stroke="#000000" stroke-opacity="1" stroke-width="4.55111"/>
<path clip-path="url(#clip990)" d="M1703.76 186.461 L1710.73 186.461 L1719.55 209.98 L1728.42 186.461 L1735.38 186.461 L1735.38 221.021 L1730.82 221.021 L1730.82 190.674 L1721.91 214.378 L1717.21 214.378 L1708.3 190.674 L1708.3 221.021 L1703.76 221.021 L1703.76 186.461 Z" fill="#000000" fill-rule="nonzero" fill-opacity="1" /><path clip-path="url(#clip990)" d="M1756.26 207.989 Q1751.1 207.989 1749.11 209.169 Q1747.12 210.35 1747.12 213.197 Q1747.12 215.466 1748.6 216.808 Q1750.11 218.128 1752.67 218.128 Q1756.22 218.128 1758.35 215.628 Q1760.5 213.105 1760.5 208.938 L1760.5 207.989 L1756.26 207.989 M1764.76 206.23 L1764.76 221.021 L1760.5 221.021 L1760.5 217.086 Q1759.04 219.447 1756.86 220.581 Q1754.69 221.693 1751.54 221.693 Q1747.56 221.693 1745.2 219.47 Q1742.86 217.225 1742.86 213.475 Q1742.86 209.1 1745.78 206.878 Q1748.72 204.656 1754.53 204.656 L1760.5 204.656 L1760.5 204.239 Q1760.5 201.299 1758.55 199.702 Q1756.63 198.082 1753.14 198.082 Q1750.92 198.082 1748.81 198.614 Q1746.7 199.146 1744.76 200.211 L1744.76 196.276 Q1747.1 195.373 1749.3 194.933 Q1751.49 194.47 1753.58 194.47 Q1759.2 194.47 1761.98 197.387 Q1764.76 200.304 1764.76 206.23 Z" fill="#000000" fill-rule="nonzero" fill-opacity="1" /><path clip-path="url(#clip990)" d="M1795.08 195.095 L1785.71 207.711 L1795.57 221.021 L1790.54 221.021 L1783 210.836 L1775.45 221.021 L1770.43 221.021 L1780.5 207.457 L1771.29 195.095 L1776.31 195.095 L1783.18 204.332 L1790.06 195.095 L1795.08 195.095 Z" fill="#000000" fill-rule="nonzero" fill-opacity="1" /><path clip-path="url(#clip990)" d="M1816.84 186.461 L1838.69 186.461 L1838.69 190.396 L1821.52 190.396 L1821.52 200.628 L1837.98 200.628 L1837.98 204.563 L1821.52 204.563 L1821.52 217.086 L1839.11 217.086 L1839.11 221.021 L1816.84 221.021 L1816.84 186.461 Z" fill="#000000" fill-rule="nonzero" fill-opacity="1" /><path clip-path="url(#clip990)" d="M1859.73 185.003 L1859.73 188.545 L1855.66 188.545 Q1853.37 188.545 1852.47 189.471 Q1851.59 190.396 1851.59 192.804 L1851.59 195.095 L1858.6 195.095 L1858.6 198.406 L1851.59 198.406 L1851.59 221.021 L1847.3 221.021 L1847.3 198.406 L1843.23 198.406 L1843.23 195.095 L1847.3 195.095 L1847.3 193.29 Q1847.3 188.961 1849.32 186.994 Q1851.33 185.003 1855.71 185.003 L1859.73 185.003 Z" fill="#000000" fill-rule="nonzero" fill-opacity="1" /><path clip-path="url(#clip990)" d="M1876.42 185.003 L1876.42 188.545 L1872.35 188.545 Q1870.06 188.545 1869.16 189.471 Q1868.28 190.396 1868.28 192.804 L1868.28 195.095 L1875.29 195.095 L1875.29 198.406 L1868.28 198.406 L1868.28 221.021 L1863.99 221.021 L1863.99 198.406 L1859.92 198.406 L1859.92 195.095 L1863.99 195.095 L1863.99 193.29 Q1863.99 188.961 1866.01 186.994 Q1868.02 185.003 1872.4 185.003 L1876.42 185.003 Z" fill="#000000" fill-rule="nonzero" fill-opacity="1" /><path clip-path="url(#clip990)" d="M1879.99 195.095 L1884.25 195.095 L1884.25 221.021 L1879.99 221.021 L1879.99 195.095 M1879.99 185.003 L1884.25 185.003 L1884.25 190.396 L1879.99 190.396 L1879.99 185.003 Z" fill="#000000" fill-rule="nonzero" fill-opacity="1" /><path clip-path="url(#clip990)" d="M1911.82 196.091 L1911.82 200.072 Q1910.01 199.077 1908.18 198.591 Q1906.38 198.082 1904.53 198.082 Q1900.38 198.082 1898.09 200.72 Q1895.8 203.336 1895.8 208.082 Q1895.8 212.827 1898.09 215.466 Q1900.38 218.081 1904.53 218.081 Q1906.38 218.081 1908.18 217.595 Q1910.01 217.086 1911.82 216.091 L1911.82 220.026 Q1910.04 220.859 1908.11 221.276 Q1906.22 221.693 1904.06 221.693 Q1898.21 221.693 1894.76 218.012 Q1891.31 214.331 1891.31 208.082 Q1891.31 201.739 1894.78 198.105 Q1898.28 194.47 1904.34 194.47 Q1906.31 194.47 1908.18 194.887 Q1910.06 195.281 1911.82 196.091 Z" fill="#000000" fill-rule="nonzero" fill-opacity="1" /><path clip-path="url(#clip990)" d="M1919.22 195.095 L1923.48 195.095 L1923.48 221.021 L1919.22 221.021 L1919.22 195.095 M1919.22 185.003 L1923.48 185.003 L1923.48 190.396 L1919.22 190.396 L1919.22 185.003 Z" fill="#000000" fill-rule="nonzero" fill-opacity="1" /><path clip-path="url(#clip990)" d="M1954.57 206.994 L1954.57 209.077 L1934.99 209.077 Q1935.27 213.475 1937.63 215.79 Q1940.01 218.081 1944.25 218.081 Q1946.7 218.081 1948.99 217.48 Q1951.31 216.878 1953.58 215.674 L1953.58 219.702 Q1951.28 220.674 1948.88 221.183 Q1946.47 221.693 1943.99 221.693 Q1937.79 221.693 1934.16 218.081 Q1930.54 214.47 1930.54 208.313 Q1930.54 201.947 1933.97 198.22 Q1937.42 194.47 1943.25 194.47 Q1948.48 194.47 1951.52 197.85 Q1954.57 201.207 1954.57 206.994 M1950.31 205.744 Q1950.27 202.248 1948.35 200.165 Q1946.45 198.082 1943.3 198.082 Q1939.73 198.082 1937.58 200.095 Q1935.45 202.109 1935.13 205.767 L1950.31 205.744 Z" fill="#000000" fill-rule="nonzero" fill-opacity="1" /><path clip-path="url(#clip990)" d="M1983.11 205.373 L1983.11 221.021 L1978.85 221.021 L1978.85 205.512 Q1978.85 201.832 1977.42 200.003 Q1975.98 198.174 1973.11 198.174 Q1969.66 198.174 1967.67 200.373 Q1965.68 202.572 1965.68 206.369 L1965.68 221.021 L1961.4 221.021 L1961.4 195.095 L1965.68 195.095 L1965.68 199.123 Q1967.21 196.785 1969.27 195.628 Q1971.35 194.47 1974.06 194.47 Q1978.53 194.47 1980.82 197.248 Q1983.11 200.003 1983.11 205.373 Z" fill="#000000" fill-rule="nonzero" fill-opacity="1" /><path clip-path="url(#clip990)" d="M2010.27 196.091 L2010.27 200.072 Q2008.46 199.077 2006.63 198.591 Q2004.83 198.082 2002.97 198.082 Q1998.83 198.082 1996.54 200.72 Q1994.25 203.336 1994.25 208.082 Q1994.25 212.827 1996.54 215.466 Q1998.83 218.081 2002.97 218.081 Q2004.83 218.081 2006.63 217.595 Q2008.46 217.086 2010.27 216.091 L2010.27 220.026 Q2008.48 220.859 2006.56 221.276 Q2004.66 221.693 2002.51 221.693 Q1996.65 221.693 1993.21 218.012 Q1989.76 214.331 1989.76 208.082 Q1989.76 201.739 1993.23 198.105 Q1996.72 194.47 2002.79 194.47 Q2004.76 194.47 2006.63 194.887 Q2008.51 195.281 2010.27 196.091 Z" fill="#000000" fill-rule="nonzero" fill-opacity="1" /><path clip-path="url(#clip990)" d="M2028.46 223.429 Q2026.65 228.058 2024.94 229.47 Q2023.23 230.882 2020.36 230.882 L2016.96 230.882 L2016.96 227.318 L2019.46 227.318 Q2021.22 227.318 2022.19 226.484 Q2023.16 225.651 2024.34 222.549 L2025.1 220.605 L2014.62 195.095 L2019.13 195.095 L2027.23 215.373 L2035.34 195.095 L2039.85 195.095 L2028.46 223.429 Z" fill="#000000" fill-rule="nonzero" fill-opacity="1" /><path clip-path="url(#clip990)" d="M2043.37 215.142 L2048.25 215.142 L2048.25 221.021 L2043.37 221.021 L2043.37 215.142 M2043.37 196.508 L2048.25 196.508 L2048.25 202.387 L2043.37 202.387 L2043.37 196.508 Z" fill="#000000" fill-rule="nonzero" fill-opacity="1" /><path clip-path="url(#clip990)" d="M2083.92 189.54 Q2080.31 189.54 2078.48 193.105 Q2076.68 196.646 2076.68 203.776 Q2076.68 210.882 2078.48 214.447 Q2080.31 217.989 2083.92 217.989 Q2087.56 217.989 2089.36 214.447 Q2091.19 210.882 2091.19 203.776 Q2091.19 196.646 2089.36 193.105 Q2087.56 189.54 2083.92 189.54 M2083.92 185.836 Q2089.73 185.836 2092.79 190.443 Q2095.87 195.026 2095.87 203.776 Q2095.87 212.503 2092.79 217.109 Q2089.73 221.693 2083.92 221.693 Q2078.11 221.693 2075.03 217.109 Q2071.98 212.503 2071.98 203.776 Q2071.98 195.026 2075.03 190.443 Q2078.11 185.836 2083.92 185.836 Z" fill="#000000" fill-rule="nonzero" fill-opacity="1" /><path clip-path="url(#clip990)" d="M2104.08 215.142 L2108.97 215.142 L2108.97 221.021 L2104.08 221.021 L2104.08 215.142 Z" fill="#000000" fill-rule="nonzero" fill-opacity="1" /><path clip-path="url(#clip990)" d="M2123.18 217.086 L2139.5 217.086 L2139.5 221.021 L2117.56 221.021 L2117.56 217.086 Q2120.22 214.331 2124.8 209.702 Q2129.41 205.049 2130.59 203.707 Q2132.83 201.183 2133.71 199.447 Q2134.62 197.688 2134.62 195.998 Q2134.62 193.244 2132.67 191.508 Q2130.75 189.771 2127.65 189.771 Q2125.45 189.771 2123 190.535 Q2120.57 191.299 2117.79 192.85 L2117.79 188.128 Q2120.61 186.994 2123.07 186.415 Q2125.52 185.836 2127.56 185.836 Q2132.93 185.836 2136.12 188.521 Q2139.32 191.207 2139.32 195.697 Q2139.32 197.827 2138.51 199.748 Q2137.72 201.646 2135.61 204.239 Q2135.03 204.91 2131.93 208.128 Q2128.83 211.322 2123.18 217.086 Z" fill="#000000" fill-rule="nonzero" fill-opacity="1" /><path clip-path="url(#clip990)" d="M2149.36 186.461 L2167.72 186.461 L2167.72 190.396 L2153.64 190.396 L2153.64 198.869 Q2154.66 198.521 2155.68 198.359 Q2156.7 198.174 2157.72 198.174 Q2163.51 198.174 2166.89 201.345 Q2170.27 204.517 2170.27 209.933 Q2170.27 215.512 2166.79 218.614 Q2163.32 221.693 2157 221.693 Q2154.83 221.693 2152.56 221.322 Q2150.31 220.952 2147.9 220.211 L2147.9 215.512 Q2149.99 216.646 2152.21 217.202 Q2154.43 217.757 2156.91 217.757 Q2160.91 217.757 2163.25 215.651 Q2165.59 213.544 2165.59 209.933 Q2165.59 206.322 2163.25 204.216 Q2160.91 202.109 2156.91 202.109 Q2155.03 202.109 2153.16 202.526 Q2151.31 202.943 2149.36 203.822 L2149.36 186.461 Z" fill="#000000" fill-rule="nonzero" fill-opacity="1" /><path clip-path="url(#clip990)" d="M2192.33 190.535 L2180.52 208.984 L2192.33 208.984 L2192.33 190.535 M2191.1 186.461 L2196.98 186.461 L2196.98 208.984 L2201.91 208.984 L2201.91 212.873 L2196.98 212.873 L2196.98 221.021 L2192.33 221.021 L2192.33 212.873 L2176.72 212.873 L2176.72 208.359 L2191.1 186.461 Z" fill="#000000" fill-rule="nonzero" fill-opacity="1" /></svg>
