<?xml version="1.0" encoding="utf-8"?>
<svg xmlns="http://www.w3.org/2000/svg" xmlns:xlink="http://www.w3.org/1999/xlink" width="600" height="400" viewBox="0 0 2400 1600">
<defs>
  <clipPath id="clip200">
    <rect x="0" y="0" width="2400" height="1600"/>
  </clipPath>
</defs>
<path clip-path="url(#clip200)" d="M0 1600 L2400 1600 L2400 0 L0 0  Z" fill="#ffffff" fill-rule="evenodd" fill-opacity="1"/>
<defs>
  <clipPath id="clip201">
    <rect x="266" y="110" width="1869" height="1251"/>
  </clipPath>
</defs>
<path clip-path="url(#clip200)" d="M266.956 1360.19 L2134.78 1360.19 L2134.78 110.236 L266.956 110.236  Z" fill="#ffffff" fill-rule="evenodd" fill-opacity="1"/>
<polyline clip-path="url(#clip200)" style="stroke:#000000; stroke-linecap:round; stroke-linejoin:round; stroke-width:4; stroke-opacity:1; fill:none" points="266.956,1360.19 2134.78,1360.19 "/>
<polyline clip-path="url(#clip200)" style="stroke:#000000; stroke-linecap:round; stroke-linejoin:round; stroke-width:4; stroke-opacity:1; fill:none" points="547.33,1360.19 547.33,1341.29 "/>
<polyline clip-path="url(#clip200)" style="stroke:#000000; stroke-linecap:round; stroke-linejoin:round; stroke-width:4; stroke-opacity:1; fill:none" points="881.906,1360.19 881.906,1341.29 "/>
<polyline clip-path="url(#clip200)" style="stroke:#000000; stroke-linecap:round; stroke-linejoin:round; stroke-width:4; stroke-opacity:1; fill:none" points="1216.48,1360.19 1216.48,1341.29 "/>
<polyline clip-path="url(#clip200)" style="stroke:#000000; stroke-linecap:round; stroke-linejoin:round; stroke-width:4; stroke-opacity:1; fill:none" points="1551.06,1360.19 1551.06,1341.29 "/>
<polyline clip-path="url(#clip200)" style="stroke:#000000; stroke-linecap:round; stroke-linejoin:round; stroke-width:4; stroke-opacity:1; fill:none" points="1885.63,1360.19 1885.63,1341.29 "/>
<path clip-path="url(#clip200)" d="M495.942 1418.65 L512.261 1418.65 L512.261 1422.59 L490.317 1422.59 L490.317 1418.65 Q492.979 1415.9 497.562 1411.27 Q502.168 1406.62 503.349 1405.27 Q505.594 1402.75 506.474 1401.01 Q507.377 1399.25 507.377 1397.56 Q507.377 1394.81 505.432 1393.07 Q503.511 1391.34 500.409 1391.34 Q498.21 1391.34 495.756 1392.1 Q493.326 1392.87 490.548 1394.42 L490.548 1389.69 Q493.372 1388.56 495.826 1387.98 Q498.279 1387.4 500.317 1387.4 Q505.687 1387.4 508.881 1390.09 Q512.076 1392.77 512.076 1397.26 Q512.076 1399.39 511.266 1401.31 Q510.478 1403.21 508.372 1405.81 Q507.793 1406.48 504.691 1409.69 Q501.59 1412.89 495.942 1418.65 Z" fill="#000000" fill-rule="nonzero" fill-opacity="1" /><path clip-path="url(#clip200)" d="M522.886 1418.65 L530.525 1418.65 L530.525 1392.29 L522.215 1393.95 L522.215 1389.69 L530.478 1388.03 L535.154 1388.03 L535.154 1418.65 L542.793 1418.65 L542.793 1422.59 L522.886 1422.59 L522.886 1418.65 Z" fill="#000000" fill-rule="nonzero" fill-opacity="1" /><path clip-path="url(#clip200)" d="M562.237 1391.11 Q558.626 1391.11 556.798 1394.67 Q554.992 1398.21 554.992 1405.34 Q554.992 1412.45 556.798 1416.01 Q558.626 1419.56 562.237 1419.56 Q565.872 1419.56 567.677 1416.01 Q569.506 1412.45 569.506 1405.34 Q569.506 1398.21 567.677 1394.67 Q565.872 1391.11 562.237 1391.11 M562.237 1387.4 Q568.048 1387.4 571.103 1392.01 Q574.182 1396.59 574.182 1405.34 Q574.182 1414.07 571.103 1418.68 Q568.048 1423.26 562.237 1423.26 Q556.427 1423.26 553.349 1418.68 Q550.293 1414.07 550.293 1405.34 Q550.293 1396.59 553.349 1392.01 Q556.427 1387.4 562.237 1387.4 Z" fill="#000000" fill-rule="nonzero" fill-opacity="1" /><path clip-path="url(#clip200)" d="M592.399 1391.11 Q588.788 1391.11 586.96 1394.67 Q585.154 1398.21 585.154 1405.34 Q585.154 1412.45 586.96 1416.01 Q588.788 1419.56 592.399 1419.56 Q596.034 1419.56 597.839 1416.01 Q599.668 1412.45 599.668 1405.34 Q599.668 1398.21 597.839 1394.67 Q596.034 1391.11 592.399 1391.11 M592.399 1387.4 Q598.21 1387.4 601.265 1392.01 Q604.344 1396.59 604.344 1405.34 Q604.344 1414.07 601.265 1418.68 Q598.21 1423.26 592.399 1423.26 Q586.589 1423.26 583.511 1418.68 Q580.455 1414.07 580.455 1405.34 Q580.455 1396.59 583.511 1392.01 Q586.589 1387.4 592.399 1387.4 Z" fill="#000000" fill-rule="nonzero" fill-opacity="1" /><path clip-path="url(#clip200)" d="M830.517 1418.65 L846.837 1418.65 L846.837 1422.59 L824.892 1422.59 L824.892 1418.65 Q827.554 1415.9 832.138 1411.27 Q836.744 1406.62 837.925 1405.27 Q840.17 1402.75 841.05 1401.01 Q841.952 1399.25 841.952 1397.56 Q841.952 1394.81 840.008 1393.07 Q838.087 1391.34 834.985 1391.34 Q832.786 1391.34 830.332 1392.1 Q827.902 1392.87 825.124 1394.42 L825.124 1389.69 Q827.948 1388.56 830.402 1387.98 Q832.855 1387.4 834.892 1387.4 Q840.263 1387.4 843.457 1390.09 Q846.651 1392.77 846.651 1397.26 Q846.651 1399.39 845.841 1401.31 Q845.054 1403.21 842.948 1405.81 Q842.369 1406.48 839.267 1409.69 Q836.165 1412.89 830.517 1418.65 Z" fill="#000000" fill-rule="nonzero" fill-opacity="1" /><path clip-path="url(#clip200)" d="M869.499 1392.1 L857.693 1410.55 L869.499 1410.55 L869.499 1392.1 M868.272 1388.03 L874.151 1388.03 L874.151 1410.55 L879.082 1410.55 L879.082 1414.44 L874.151 1414.44 L874.151 1422.59 L869.499 1422.59 L869.499 1414.44 L853.897 1414.44 L853.897 1409.93 L868.272 1388.03 Z" fill="#000000" fill-rule="nonzero" fill-opacity="1" /><path clip-path="url(#clip200)" d="M896.813 1391.11 Q893.202 1391.11 891.373 1394.67 Q889.568 1398.21 889.568 1405.34 Q889.568 1412.45 891.373 1416.01 Q893.202 1419.56 896.813 1419.56 Q900.447 1419.56 902.253 1416.01 Q904.082 1412.45 904.082 1405.34 Q904.082 1398.21 902.253 1394.67 Q900.447 1391.11 896.813 1391.11 M896.813 1387.4 Q902.623 1387.4 905.679 1392.01 Q908.758 1396.59 908.758 1405.34 Q908.758 1414.07 905.679 1418.68 Q902.623 1423.26 896.813 1423.26 Q891.003 1423.26 887.924 1418.68 Q884.869 1414.07 884.869 1405.34 Q884.869 1396.59 887.924 1392.01 Q891.003 1387.4 896.813 1387.4 Z" fill="#000000" fill-rule="nonzero" fill-opacity="1" /><path clip-path="url(#clip200)" d="M926.975 1391.11 Q923.364 1391.11 921.535 1394.67 Q919.73 1398.21 919.73 1405.34 Q919.73 1412.45 921.535 1416.01 Q923.364 1419.56 926.975 1419.56 Q930.609 1419.56 932.415 1416.01 Q934.244 1412.45 934.244 1405.34 Q934.244 1398.21 932.415 1394.67 Q930.609 1391.11 926.975 1391.11 M926.975 1387.4 Q932.785 1387.4 935.841 1392.01 Q938.919 1396.59 938.919 1405.34 Q938.919 1414.07 935.841 1418.68 Q932.785 1423.26 926.975 1423.26 Q921.165 1423.26 918.086 1418.68 Q915.031 1414.07 915.031 1405.34 Q915.031 1396.59 918.086 1392.01 Q921.165 1387.4 926.975 1387.4 Z" fill="#000000" fill-rule="nonzero" fill-opacity="1" /><path clip-path="url(#clip200)" d="M1165.09 1418.65 L1181.41 1418.65 L1181.41 1422.59 L1159.47 1422.59 L1159.47 1418.65 Q1162.13 1415.9 1166.71 1411.27 Q1171.32 1406.62 1172.5 1405.27 Q1174.75 1402.75 1175.63 1401.01 Q1176.53 1399.25 1176.53 1397.56 Q1176.53 1394.81 1174.58 1393.07 Q1172.66 1391.34 1169.56 1391.34 Q1167.36 1391.34 1164.91 1392.1 Q1162.48 1392.87 1159.7 1394.42 L1159.7 1389.69 Q1162.52 1388.56 1164.98 1387.98 Q1167.43 1387.4 1169.47 1387.4 Q1174.84 1387.4 1178.03 1390.09 Q1181.23 1392.77 1181.23 1397.26 Q1181.23 1399.39 1180.42 1401.31 Q1179.63 1403.21 1177.52 1405.81 Q1176.94 1406.48 1173.84 1409.69 Q1170.74 1412.89 1165.09 1418.65 Z" fill="#000000" fill-rule="nonzero" fill-opacity="1" /><path clip-path="url(#clip200)" d="M1190.05 1388.03 L1212.27 1388.03 L1212.27 1390.02 L1199.72 1422.59 L1194.84 1422.59 L1206.64 1391.96 L1190.05 1391.96 L1190.05 1388.03 Z" fill="#000000" fill-rule="nonzero" fill-opacity="1" /><path clip-path="url(#clip200)" d="M1231.39 1391.11 Q1227.78 1391.11 1225.95 1394.67 Q1224.14 1398.21 1224.14 1405.34 Q1224.14 1412.45 1225.95 1416.01 Q1227.78 1419.56 1231.39 1419.56 Q1235.02 1419.56 1236.83 1416.01 Q1238.66 1412.45 1238.66 1405.34 Q1238.66 1398.21 1236.83 1394.67 Q1235.02 1391.11 1231.39 1391.11 M1231.39 1387.4 Q1237.2 1387.4 1240.25 1392.01 Q1243.33 1396.59 1243.33 1405.34 Q1243.33 1414.07 1240.25 1418.68 Q1237.2 1423.26 1231.39 1423.26 Q1225.58 1423.26 1222.5 1418.68 Q1219.44 1414.07 1219.44 1405.34 Q1219.44 1396.59 1222.5 1392.01 Q1225.58 1387.4 1231.39 1387.4 Z" fill="#000000" fill-rule="nonzero" fill-opacity="1" /><path clip-path="url(#clip200)" d="M1261.55 1391.11 Q1257.94 1391.11 1256.11 1394.67 Q1254.31 1398.21 1254.31 1405.34 Q1254.31 1412.45 1256.11 1416.01 Q1257.94 1419.56 1261.55 1419.56 Q1265.19 1419.56 1266.99 1416.01 Q1268.82 1412.45 1268.82 1405.34 Q1268.82 1398.21 1266.99 1394.67 Q1265.19 1391.11 1261.55 1391.11 M1261.55 1387.4 Q1267.36 1387.4 1270.42 1392.01 Q1273.5 1396.59 1273.5 1405.34 Q1273.5 1414.07 1270.42 1418.68 Q1267.36 1423.26 1261.55 1423.26 Q1255.74 1423.26 1252.66 1418.68 Q1249.61 1414.07 1249.61 1405.34 Q1249.61 1396.59 1252.66 1392.01 Q1255.74 1387.4 1261.55 1387.4 Z" fill="#000000" fill-rule="nonzero" fill-opacity="1" /><path clip-path="url(#clip200)" d="M1509.74 1403.95 Q1513.09 1404.67 1514.97 1406.94 Q1516.87 1409.21 1516.87 1412.54 Q1516.87 1417.66 1513.35 1420.46 Q1509.83 1423.26 1503.35 1423.26 Q1501.17 1423.26 1498.86 1422.82 Q1496.57 1422.4 1494.11 1421.55 L1494.11 1417.03 Q1496.06 1418.17 1498.37 1418.75 Q1500.69 1419.32 1503.21 1419.32 Q1507.61 1419.32 1509.9 1417.59 Q1512.21 1415.85 1512.21 1412.54 Q1512.21 1409.49 1510.06 1407.77 Q1507.93 1406.04 1504.11 1406.04 L1500.09 1406.04 L1500.09 1402.19 L1504.3 1402.19 Q1507.75 1402.19 1509.58 1400.83 Q1511.4 1399.44 1511.4 1396.85 Q1511.4 1394.19 1509.51 1392.77 Q1507.63 1391.34 1504.11 1391.34 Q1502.19 1391.34 1499.99 1391.75 Q1497.79 1392.17 1495.15 1393.05 L1495.15 1388.88 Q1497.82 1388.14 1500.13 1387.77 Q1502.47 1387.4 1504.53 1387.4 Q1509.85 1387.4 1512.96 1389.83 Q1516.06 1392.24 1516.06 1396.36 Q1516.06 1399.23 1514.41 1401.22 Q1512.77 1403.19 1509.74 1403.95 Z" fill="#000000" fill-rule="nonzero" fill-opacity="1" /><path clip-path="url(#clip200)" d="M1535.73 1391.11 Q1532.12 1391.11 1530.29 1394.67 Q1528.49 1398.21 1528.49 1405.34 Q1528.49 1412.45 1530.29 1416.01 Q1532.12 1419.56 1535.73 1419.56 Q1539.37 1419.56 1541.17 1416.01 Q1543 1412.45 1543 1405.34 Q1543 1398.21 1541.17 1394.67 Q1539.37 1391.11 1535.73 1391.11 M1535.73 1387.4 Q1541.54 1387.4 1544.6 1392.01 Q1547.68 1396.59 1547.68 1405.34 Q1547.68 1414.07 1544.6 1418.68 Q1541.54 1423.26 1535.73 1423.26 Q1529.92 1423.26 1526.84 1418.68 Q1523.79 1414.07 1523.79 1405.34 Q1523.79 1396.59 1526.84 1392.01 Q1529.92 1387.4 1535.73 1387.4 Z" fill="#000000" fill-rule="nonzero" fill-opacity="1" /><path clip-path="url(#clip200)" d="M1565.9 1391.11 Q1562.28 1391.11 1560.46 1394.67 Q1558.65 1398.21 1558.65 1405.34 Q1558.65 1412.45 1560.46 1416.01 Q1562.28 1419.56 1565.9 1419.56 Q1569.53 1419.56 1571.33 1416.01 Q1573.16 1412.45 1573.16 1405.34 Q1573.16 1398.21 1571.33 1394.67 Q1569.53 1391.11 1565.9 1391.11 M1565.9 1387.4 Q1571.71 1387.4 1574.76 1392.01 Q1577.84 1396.59 1577.84 1405.34 Q1577.84 1414.07 1574.76 1418.68 Q1571.71 1423.26 1565.9 1423.26 Q1560.09 1423.26 1557.01 1418.68 Q1553.95 1414.07 1553.95 1405.34 Q1553.95 1396.59 1557.01 1392.01 Q1560.09 1387.4 1565.9 1387.4 Z" fill="#000000" fill-rule="nonzero" fill-opacity="1" /><path clip-path="url(#clip200)" d="M1596.06 1391.11 Q1592.45 1391.11 1590.62 1394.67 Q1588.81 1398.21 1588.81 1405.34 Q1588.81 1412.45 1590.62 1416.01 Q1592.45 1419.56 1596.06 1419.56 Q1599.69 1419.56 1601.5 1416.01 Q1603.33 1412.45 1603.33 1405.34 Q1603.33 1398.21 1601.5 1394.67 Q1599.69 1391.11 1596.06 1391.11 M1596.06 1387.4 Q1601.87 1387.4 1604.92 1392.01 Q1608 1396.59 1608 1405.34 Q1608 1414.07 1604.92 1418.68 Q1601.87 1423.26 1596.06 1423.26 Q1590.25 1423.26 1587.17 1418.68 Q1584.11 1414.07 1584.11 1405.34 Q1584.11 1396.59 1587.17 1392.01 Q1590.25 1387.4 1596.06 1387.4 Z" fill="#000000" fill-rule="nonzero" fill-opacity="1" /><path clip-path="url(#clip200)" d="M1844.31 1403.95 Q1847.67 1404.67 1849.55 1406.94 Q1851.44 1409.21 1851.44 1412.54 Q1851.44 1417.66 1847.92 1420.46 Q1844.41 1423.26 1837.92 1423.26 Q1835.75 1423.26 1833.43 1422.82 Q1831.14 1422.4 1828.69 1421.55 L1828.69 1417.03 Q1830.63 1418.17 1832.95 1418.75 Q1835.26 1419.32 1837.79 1419.32 Q1842.18 1419.32 1844.48 1417.59 Q1846.79 1415.85 1846.79 1412.54 Q1846.79 1409.49 1844.64 1407.77 Q1842.51 1406.04 1838.69 1406.04 L1834.66 1406.04 L1834.66 1402.19 L1838.87 1402.19 Q1842.32 1402.19 1844.15 1400.83 Q1845.98 1399.44 1845.98 1396.85 Q1845.98 1394.19 1844.08 1392.77 Q1842.21 1391.34 1838.69 1391.34 Q1836.77 1391.34 1834.57 1391.75 Q1832.37 1392.17 1829.73 1393.05 L1829.73 1388.88 Q1832.39 1388.14 1834.71 1387.77 Q1837.05 1387.4 1839.11 1387.4 Q1844.43 1387.4 1847.53 1389.83 Q1850.63 1392.24 1850.63 1396.36 Q1850.63 1399.23 1848.99 1401.22 Q1847.35 1403.19 1844.31 1403.95 Z" fill="#000000" fill-rule="nonzero" fill-opacity="1" /><path clip-path="url(#clip200)" d="M1874.48 1403.95 Q1877.83 1404.67 1879.71 1406.94 Q1881.61 1409.21 1881.61 1412.54 Q1881.61 1417.66 1878.09 1420.46 Q1874.57 1423.26 1868.09 1423.26 Q1865.91 1423.26 1863.6 1422.82 Q1861.3 1422.4 1858.85 1421.55 L1858.85 1417.03 Q1860.8 1418.17 1863.11 1418.75 Q1865.42 1419.32 1867.95 1419.32 Q1872.35 1419.32 1874.64 1417.59 Q1876.95 1415.85 1876.95 1412.54 Q1876.95 1409.49 1874.8 1407.77 Q1872.67 1406.04 1868.85 1406.04 L1864.82 1406.04 L1864.82 1402.19 L1869.04 1402.19 Q1872.48 1402.19 1874.31 1400.83 Q1876.14 1399.44 1876.14 1396.85 Q1876.14 1394.19 1874.24 1392.77 Q1872.37 1391.34 1868.85 1391.34 Q1866.93 1391.34 1864.73 1391.75 Q1862.53 1392.17 1859.89 1393.05 L1859.89 1388.88 Q1862.55 1388.14 1864.87 1387.77 Q1867.21 1387.4 1869.27 1387.4 Q1874.59 1387.4 1877.69 1389.83 Q1880.8 1392.24 1880.8 1396.36 Q1880.8 1399.23 1879.15 1401.22 Q1877.51 1403.19 1874.48 1403.95 Z" fill="#000000" fill-rule="nonzero" fill-opacity="1" /><path clip-path="url(#clip200)" d="M1900.47 1391.11 Q1896.86 1391.11 1895.03 1394.67 Q1893.23 1398.21 1893.23 1405.34 Q1893.23 1412.45 1895.03 1416.01 Q1896.86 1419.56 1900.47 1419.56 Q1904.11 1419.56 1905.91 1416.01 Q1907.74 1412.45 1907.74 1405.34 Q1907.74 1398.21 1905.91 1394.67 Q1904.11 1391.11 1900.47 1391.11 M1900.47 1387.4 Q1906.28 1387.4 1909.34 1392.01 Q1912.42 1396.59 1912.42 1405.34 Q1912.42 1414.07 1909.34 1418.68 Q1906.28 1423.26 1900.47 1423.26 Q1894.66 1423.26 1891.58 1418.68 Q1888.53 1414.07 1888.53 1405.34 Q1888.53 1396.59 1891.58 1392.01 Q1894.66 1387.4 1900.47 1387.4 Z" fill="#000000" fill-rule="nonzero" fill-opacity="1" /><path clip-path="url(#clip200)" d="M1930.63 1391.11 Q1927.02 1391.11 1925.19 1394.67 Q1923.39 1398.21 1923.39 1405.34 Q1923.39 1412.45 1925.19 1416.01 Q1927.02 1419.56 1930.63 1419.56 Q1934.27 1419.56 1936.07 1416.01 Q1937.9 1412.45 1937.9 1405.34 Q1937.9 1398.21 1936.07 1394.67 Q1934.27 1391.11 1930.63 1391.11 M1930.63 1387.4 Q1936.44 1387.4 1939.5 1392.01 Q1942.58 1396.59 1942.58 1405.34 Q1942.58 1414.07 1939.5 1418.68 Q1936.44 1423.26 1930.63 1423.26 Q1924.82 1423.26 1921.74 1418.68 Q1918.69 1414.07 1918.69 1405.34 Q1918.69 1396.59 1921.74 1392.01 Q1924.82 1387.4 1930.63 1387.4 Z" fill="#000000" fill-rule="nonzero" fill-opacity="1" /><path clip-path="url(#clip200)" d="M876.424 1457.53 L906.47 1457.53 L906.47 1462.94 L882.853 1462.94 L882.853 1477.01 L905.483 1477.01 L905.483 1482.42 L882.853 1482.42 L882.853 1499.64 L907.043 1499.64 L907.043 1505.05 L876.424 1505.05 L876.424 1457.53 Z" fill="#000000" fill-rule="nonzero" fill-opacity="1" /><path clip-path="url(#clip200)" d="M946.988 1483.54 L946.988 1505.05 L941.131 1505.05 L941.131 1483.73 Q941.131 1478.67 939.158 1476.15 Q937.185 1473.64 933.238 1473.64 Q928.495 1473.64 925.758 1476.66 Q923.021 1479.68 923.021 1484.9 L923.021 1505.05 L917.133 1505.05 L917.133 1469.4 L923.021 1469.4 L923.021 1474.94 Q925.122 1471.73 927.954 1470.14 Q930.819 1468.54 934.543 1468.54 Q940.686 1468.54 943.837 1472.36 Q946.988 1476.15 946.988 1483.54 Z" fill="#000000" fill-rule="nonzero" fill-opacity="1" /><path clip-path="url(#clip200)" d="M982.126 1486.81 Q982.126 1480.45 979.485 1476.95 Q976.875 1473.45 972.132 1473.45 Q967.422 1473.45 964.78 1476.95 Q962.17 1480.45 962.17 1486.81 Q962.17 1493.15 964.78 1496.65 Q967.422 1500.15 972.132 1500.15 Q976.875 1500.15 979.485 1496.65 Q982.126 1493.15 982.126 1486.81 M987.983 1500.63 Q987.983 1509.73 983.941 1514.15 Q979.898 1518.61 971.559 1518.61 Q968.472 1518.61 965.735 1518.13 Q962.998 1517.69 960.419 1516.73 L960.419 1511.04 Q962.998 1512.44 965.512 1513.1 Q968.026 1513.77 970.636 1513.77 Q976.397 1513.77 979.262 1510.75 Q982.126 1507.76 982.126 1501.68 L982.126 1498.78 Q980.312 1501.93 977.479 1503.49 Q974.647 1505.05 970.7 1505.05 Q964.143 1505.05 960.133 1500.05 Q956.123 1495.06 956.123 1486.81 Q956.123 1478.54 960.133 1473.54 Q964.143 1468.54 970.7 1468.54 Q974.647 1468.54 977.479 1470.1 Q980.312 1471.66 982.126 1474.81 L982.126 1469.4 L987.983 1469.4 L987.983 1500.63 Z" fill="#000000" fill-rule="nonzero" fill-opacity="1" /><path clip-path="url(#clip200)" d="M1000.05 1469.4 L1005.9 1469.4 L1005.9 1505.05 L1000.05 1505.05 L1000.05 1469.4 M1000.05 1455.53 L1005.9 1455.53 L1005.9 1462.94 L1000.05 1462.94 L1000.05 1455.53 Z" fill="#000000" fill-rule="nonzero" fill-opacity="1" /><path clip-path="url(#clip200)" d="M1047.79 1483.54 L1047.79 1505.05 L1041.93 1505.05 L1041.93 1483.73 Q1041.93 1478.67 1039.96 1476.15 Q1037.99 1473.64 1034.04 1473.64 Q1029.3 1473.64 1026.56 1476.66 Q1023.82 1479.68 1023.82 1484.9 L1023.82 1505.05 L1017.93 1505.05 L1017.93 1469.4 L1023.82 1469.4 L1023.82 1474.94 Q1025.92 1471.73 1028.76 1470.14 Q1031.62 1468.54 1035.34 1468.54 Q1041.49 1468.54 1044.64 1472.36 Q1047.79 1476.15 1047.79 1483.54 Z" fill="#000000" fill-rule="nonzero" fill-opacity="1" /><path clip-path="url(#clip200)" d="M1089.96 1485.76 L1089.96 1488.63 L1063.03 1488.63 Q1063.42 1494.68 1066.66 1497.86 Q1069.94 1501.01 1075.77 1501.01 Q1079.14 1501.01 1082.29 1500.18 Q1085.47 1499.35 1088.59 1497.7 L1088.59 1503.24 Q1085.44 1504.57 1082.13 1505.27 Q1078.82 1505.97 1075.42 1505.97 Q1066.89 1505.97 1061.89 1501.01 Q1056.92 1496.04 1056.92 1487.58 Q1056.92 1478.83 1061.63 1473.7 Q1066.38 1468.54 1074.4 1468.54 Q1081.59 1468.54 1085.76 1473.19 Q1089.96 1477.81 1089.96 1485.76 M1084.11 1484.04 Q1084.04 1479.24 1081.4 1476.37 Q1078.79 1473.51 1074.46 1473.51 Q1069.56 1473.51 1066.6 1476.28 Q1063.67 1479.05 1063.23 1484.08 L1084.11 1484.04 Z" fill="#000000" fill-rule="nonzero" fill-opacity="1" /><path clip-path="url(#clip200)" d="M1149.04 1459.09 L1149.04 1465.36 Q1145.38 1463.61 1142.13 1462.75 Q1138.88 1461.89 1135.86 1461.89 Q1130.61 1461.89 1127.74 1463.93 Q1124.91 1465.97 1124.91 1469.72 Q1124.91 1472.87 1126.79 1474.5 Q1128.7 1476.09 1133.98 1477.07 L1137.86 1477.87 Q1145.06 1479.24 1148.46 1482.71 Q1151.9 1486.15 1151.9 1491.94 Q1151.9 1498.85 1147.25 1502.41 Q1142.64 1505.97 1133.69 1505.97 Q1130.32 1505.97 1126.5 1505.21 Q1122.71 1504.45 1118.64 1502.95 L1118.64 1496.33 Q1122.55 1498.53 1126.31 1499.64 Q1130.07 1500.75 1133.69 1500.75 Q1139.2 1500.75 1142.19 1498.59 Q1145.18 1496.43 1145.18 1492.42 Q1145.18 1488.91 1143.02 1486.94 Q1140.89 1484.97 1135.99 1483.98 L1132.07 1483.22 Q1124.88 1481.79 1121.66 1478.73 Q1118.45 1475.67 1118.45 1470.23 Q1118.45 1463.93 1122.87 1460.3 Q1127.33 1456.67 1135.13 1456.67 Q1138.47 1456.67 1141.94 1457.28 Q1145.41 1457.88 1149.04 1459.09 Z" fill="#000000" fill-rule="nonzero" fill-opacity="1" /><path clip-path="url(#clip200)" d="M1167.34 1499.7 L1167.34 1518.61 L1161.45 1518.61 L1161.45 1469.4 L1167.34 1469.4 L1167.34 1474.81 Q1169.18 1471.63 1171.98 1470.1 Q1174.82 1468.54 1178.73 1468.54 Q1185.22 1468.54 1189.27 1473.7 Q1193.34 1478.86 1193.34 1487.26 Q1193.34 1495.66 1189.27 1500.82 Q1185.22 1505.97 1178.73 1505.97 Q1174.82 1505.97 1171.98 1504.45 Q1169.18 1502.89 1167.34 1499.7 M1187.26 1487.26 Q1187.26 1480.8 1184.59 1477.14 Q1181.95 1473.45 1177.3 1473.45 Q1172.65 1473.45 1169.98 1477.14 Q1167.34 1480.8 1167.34 1487.26 Q1167.34 1493.72 1169.98 1497.41 Q1172.65 1501.07 1177.3 1501.07 Q1181.95 1501.07 1184.59 1497.41 Q1187.26 1493.72 1187.26 1487.26 Z" fill="#000000" fill-rule="nonzero" fill-opacity="1" /><path clip-path="url(#clip200)" d="M1233.54 1485.76 L1233.54 1488.63 L1206.61 1488.63 Q1207 1494.68 1210.24 1497.86 Q1213.52 1501.01 1219.34 1501.01 Q1222.72 1501.01 1225.87 1500.18 Q1229.05 1499.35 1232.17 1497.7 L1232.17 1503.24 Q1229.02 1504.57 1225.71 1505.27 Q1222.4 1505.97 1218.99 1505.97 Q1210.46 1505.97 1205.47 1501.01 Q1200.5 1496.04 1200.5 1487.58 Q1200.5 1478.83 1205.21 1473.7 Q1209.96 1468.54 1217.98 1468.54 Q1225.17 1468.54 1229.34 1473.19 Q1233.54 1477.81 1233.54 1485.76 M1227.68 1484.04 Q1227.62 1479.24 1224.98 1476.37 Q1222.37 1473.51 1218.04 1473.51 Q1213.14 1473.51 1210.18 1476.28 Q1207.25 1479.05 1206.8 1484.08 L1227.68 1484.04 Z" fill="#000000" fill-rule="nonzero" fill-opacity="1" /><path clip-path="url(#clip200)" d="M1273.64 1485.76 L1273.64 1488.63 L1246.72 1488.63 Q1247.1 1494.68 1250.35 1497.86 Q1253.62 1501.01 1259.45 1501.01 Q1262.82 1501.01 1265.97 1500.18 Q1269.16 1499.35 1272.28 1497.7 L1272.28 1503.24 Q1269.12 1504.57 1265.81 1505.27 Q1262.5 1505.97 1259.1 1505.97 Q1250.57 1505.97 1245.57 1501.01 Q1240.61 1496.04 1240.61 1487.58 Q1240.61 1478.83 1245.32 1473.7 Q1250.06 1468.54 1258.08 1468.54 Q1265.27 1468.54 1269.44 1473.19 Q1273.64 1477.81 1273.64 1485.76 M1267.79 1484.04 Q1267.72 1479.24 1265.08 1476.37 Q1262.47 1473.51 1258.14 1473.51 Q1253.24 1473.51 1250.28 1476.28 Q1247.35 1479.05 1246.91 1484.08 L1267.79 1484.04 Z" fill="#000000" fill-rule="nonzero" fill-opacity="1" /><path clip-path="url(#clip200)" d="M1306.71 1474.81 L1306.71 1455.53 L1312.57 1455.53 L1312.57 1505.05 L1306.71 1505.05 L1306.71 1499.7 Q1304.87 1502.89 1302.04 1504.45 Q1299.23 1505.97 1295.29 1505.97 Q1288.83 1505.97 1284.75 1500.82 Q1280.71 1495.66 1280.71 1487.26 Q1280.71 1478.86 1284.75 1473.7 Q1288.83 1468.54 1295.29 1468.54 Q1299.23 1468.54 1302.04 1470.1 Q1304.87 1471.63 1306.71 1474.81 M1286.76 1487.26 Q1286.76 1493.72 1289.4 1497.41 Q1292.07 1501.07 1296.72 1501.07 Q1301.37 1501.07 1304.04 1497.41 Q1306.71 1493.72 1306.71 1487.26 Q1306.71 1480.8 1304.04 1477.14 Q1301.37 1473.45 1296.72 1473.45 Q1292.07 1473.45 1289.4 1477.14 Q1286.76 1480.8 1286.76 1487.26 Z" fill="#000000" fill-rule="nonzero" fill-opacity="1" /><path clip-path="url(#clip200)" d="M1359.42 1455.59 Q1355.16 1462.91 1353.09 1470.07 Q1351.02 1477.23 1351.02 1484.59 Q1351.02 1491.94 1353.09 1499.16 Q1355.19 1506.36 1359.42 1513.65 L1354.33 1513.65 Q1349.56 1506.17 1347.17 1498.94 Q1344.81 1491.72 1344.81 1484.59 Q1344.81 1477.49 1347.17 1470.29 Q1349.52 1463.1 1354.33 1455.59 L1359.42 1455.59 Z" fill="#000000" fill-rule="nonzero" fill-opacity="1" /><path clip-path="url(#clip200)" d="M1393.57 1482.77 Q1395.64 1483.47 1397.58 1485.76 Q1399.56 1488.06 1401.53 1492.07 L1408.06 1505.05 L1401.15 1505.05 L1395.07 1492.86 Q1392.71 1488.09 1390.49 1486.53 Q1388.29 1484.97 1384.47 1484.97 L1377.47 1484.97 L1377.47 1505.05 L1371.04 1505.05 L1371.04 1457.53 L1385.55 1457.53 Q1393.7 1457.53 1397.71 1460.94 Q1401.72 1464.34 1401.72 1471.22 Q1401.72 1475.71 1399.62 1478.67 Q1397.55 1481.63 1393.57 1482.77 M1377.47 1462.82 L1377.47 1479.68 L1385.55 1479.68 Q1390.2 1479.68 1392.56 1477.55 Q1394.94 1475.39 1394.94 1471.22 Q1394.94 1467.05 1392.56 1464.95 Q1390.2 1462.82 1385.55 1462.82 L1377.47 1462.82 Z" fill="#000000" fill-rule="nonzero" fill-opacity="1" /><path clip-path="url(#clip200)" d="M1422.76 1462.82 L1422.76 1480.67 L1430.85 1480.67 Q1435.33 1480.67 1437.78 1478.35 Q1440.23 1476.02 1440.23 1471.73 Q1440.23 1467.46 1437.78 1465.14 Q1435.33 1462.82 1430.85 1462.82 L1422.76 1462.82 M1416.33 1457.53 L1430.85 1457.53 Q1438.83 1457.53 1442.91 1461.16 Q1447.01 1464.76 1447.01 1471.73 Q1447.01 1478.76 1442.91 1482.36 Q1438.83 1485.95 1430.85 1485.95 L1422.76 1485.95 L1422.76 1505.05 L1416.33 1505.05 L1416.33 1457.53 Z" fill="#000000" fill-rule="nonzero" fill-opacity="1" /><path clip-path="url(#clip200)" d="M1455.64 1457.53 L1465.22 1457.53 L1477.35 1489.87 L1489.54 1457.53 L1499.12 1457.53 L1499.12 1505.05 L1492.85 1505.05 L1492.85 1463.32 L1480.59 1495.92 L1474.13 1495.92 L1461.88 1463.32 L1461.88 1505.05 L1455.64 1505.05 L1455.64 1457.53 Z" fill="#000000" fill-rule="nonzero" fill-opacity="1" /><path clip-path="url(#clip200)" d="M1510.7 1455.59 L1515.8 1455.59 Q1520.57 1463.1 1522.93 1470.29 Q1525.31 1477.49 1525.31 1484.59 Q1525.31 1491.72 1522.93 1498.94 Q1520.57 1506.17 1515.8 1513.65 L1510.7 1513.65 Q1514.94 1506.36 1517 1499.16 Q1519.11 1491.94 1519.11 1484.59 Q1519.11 1477.23 1517 1470.07 Q1514.94 1462.91 1510.7 1455.59 Z" fill="#000000" fill-rule="nonzero" fill-opacity="1" /><polyline clip-path="url(#clip200)" style="stroke:#000000; stroke-linecap:round; stroke-linejoin:round; stroke-width:4; stroke-opacity:1; fill:none" points="266.956,1360.19 266.956,110.236 "/>
<polyline clip-path="url(#clip200)" style="stroke:#000000; stroke-linecap:round; stroke-linejoin:round; stroke-width:4; stroke-opacity:1; fill:none" points="266.956,1265.49 285.853,1265.49 "/>
<polyline clip-path="url(#clip200)" style="stroke:#000000; stroke-linecap:round; stroke-linejoin:round; stroke-width:4; stroke-opacity:1; fill:none" points="266.956,966.76 285.853,966.76 "/>
<polyline clip-path="url(#clip200)" style="stroke:#000000; stroke-linecap:round; stroke-linejoin:round; stroke-width:4; stroke-opacity:1; fill:none" points="266.956,668.026 285.853,668.026 "/>
<polyline clip-path="url(#clip200)" style="stroke:#000000; stroke-linecap:round; stroke-linejoin:round; stroke-width:4; stroke-opacity:1; fill:none" points="266.956,369.292 285.853,369.292 "/>
<path clip-path="url(#clip200)" d="M182.877 1278.84 L199.197 1278.84 L199.197 1282.77 L177.252 1282.77 L177.252 1278.84 Q179.914 1276.08 184.498 1271.46 Q189.104 1266.8 190.285 1265.46 Q192.53 1262.94 193.41 1261.2 Q194.312 1259.44 194.312 1257.75 Q194.312 1255 192.368 1253.26 Q190.447 1251.52 187.345 1251.52 Q185.146 1251.52 182.692 1252.29 Q180.262 1253.05 177.484 1254.6 L177.484 1249.88 Q180.308 1248.75 182.762 1248.17 Q185.215 1247.59 187.252 1247.59 Q192.623 1247.59 195.817 1250.27 Q199.011 1252.96 199.011 1257.45 Q199.011 1259.58 198.201 1261.5 Q197.414 1263.4 195.308 1265.99 Q194.729 1266.66 191.627 1269.88 Q188.525 1273.08 182.877 1278.84 Z" fill="#000000" fill-rule="nonzero" fill-opacity="1" /><path clip-path="url(#clip200)" d="M219.011 1251.29 Q215.4 1251.29 213.572 1254.86 Q211.766 1258.4 211.766 1265.53 Q211.766 1272.64 213.572 1276.2 Q215.4 1279.74 219.011 1279.74 Q222.646 1279.74 224.451 1276.2 Q226.28 1272.64 226.28 1265.53 Q226.28 1258.4 224.451 1254.86 Q222.646 1251.29 219.011 1251.29 M219.011 1247.59 Q224.821 1247.59 227.877 1252.2 Q230.956 1256.78 230.956 1265.53 Q230.956 1274.26 227.877 1278.86 Q224.821 1283.45 219.011 1283.45 Q213.201 1283.45 210.122 1278.86 Q207.067 1274.26 207.067 1265.53 Q207.067 1256.78 210.122 1252.2 Q213.201 1247.59 219.011 1247.59 Z" fill="#000000" fill-rule="nonzero" fill-opacity="1" /><path clip-path="url(#clip200)" d="M183.873 980.105 L200.192 980.105 L200.192 984.04 L178.248 984.04 L178.248 980.105 Q180.91 977.351 185.493 972.721 Q190.099 968.068 191.28 966.726 Q193.525 964.203 194.405 962.466 Q195.308 960.707 195.308 959.017 Q195.308 956.263 193.363 954.527 Q191.442 952.791 188.34 952.791 Q186.141 952.791 183.687 953.554 Q181.257 954.318 178.479 955.869 L178.479 951.147 Q181.303 950.013 183.757 949.434 Q186.211 948.855 188.248 948.855 Q193.618 948.855 196.812 951.541 Q200.007 954.226 200.007 958.716 Q200.007 960.846 199.197 962.767 Q198.41 964.665 196.303 967.258 Q195.724 967.929 192.623 971.147 Q189.521 974.341 183.873 980.105 Z" fill="#000000" fill-rule="nonzero" fill-opacity="1" /><path clip-path="url(#clip200)" d="M210.053 949.48 L228.409 949.48 L228.409 953.416 L214.335 953.416 L214.335 961.888 Q215.354 961.54 216.372 961.378 Q217.391 961.193 218.409 961.193 Q224.196 961.193 227.576 964.365 Q230.956 967.536 230.956 972.952 Q230.956 978.531 227.483 981.633 Q224.011 984.712 217.692 984.712 Q215.516 984.712 213.247 984.341 Q211.002 983.971 208.595 983.23 L208.595 978.531 Q210.678 979.665 212.9 980.221 Q215.122 980.776 217.599 980.776 Q221.604 980.776 223.942 978.67 Q226.28 976.564 226.28 972.952 Q226.28 969.341 223.942 967.235 Q221.604 965.128 217.599 965.128 Q215.724 965.128 213.849 965.545 Q211.997 965.962 210.053 966.841 L210.053 949.48 Z" fill="#000000" fill-rule="nonzero" fill-opacity="1" /><path clip-path="url(#clip200)" d="M193.016 666.672 Q196.373 667.389 198.248 669.658 Q200.146 671.926 200.146 675.26 Q200.146 680.375 196.627 683.176 Q193.109 685.977 186.627 685.977 Q184.451 685.977 182.137 685.537 Q179.845 685.121 177.391 684.264 L177.391 679.75 Q179.336 680.885 181.65 681.463 Q183.965 682.042 186.488 682.042 Q190.886 682.042 193.178 680.306 Q195.493 678.57 195.493 675.26 Q195.493 672.204 193.34 670.491 Q191.211 668.755 187.391 668.755 L183.363 668.755 L183.363 664.913 L187.576 664.913 Q191.025 664.913 192.854 663.547 Q194.683 662.158 194.683 659.565 Q194.683 656.903 192.785 655.491 Q190.91 654.056 187.391 654.056 Q185.47 654.056 183.271 654.473 Q181.072 654.89 178.433 655.769 L178.433 651.602 Q181.095 650.862 183.41 650.491 Q185.748 650.121 187.808 650.121 Q193.132 650.121 196.234 652.552 Q199.335 654.959 199.335 659.079 Q199.335 661.95 197.692 663.94 Q196.048 665.908 193.016 666.672 Z" fill="#000000" fill-rule="nonzero" fill-opacity="1" /><path clip-path="url(#clip200)" d="M219.011 653.825 Q215.4 653.825 213.572 657.389 Q211.766 660.931 211.766 668.061 Q211.766 675.167 213.572 678.732 Q215.4 682.274 219.011 682.274 Q222.646 682.274 224.451 678.732 Q226.28 675.167 226.28 668.061 Q226.28 660.931 224.451 657.389 Q222.646 653.825 219.011 653.825 M219.011 650.121 Q224.821 650.121 227.877 654.727 Q230.956 659.311 230.956 668.061 Q230.956 676.788 227.877 681.394 Q224.821 685.977 219.011 685.977 Q213.201 685.977 210.122 681.394 Q207.067 676.788 207.067 668.061 Q207.067 659.311 210.122 654.727 Q213.201 650.121 219.011 650.121 Z" fill="#000000" fill-rule="nonzero" fill-opacity="1" /><path clip-path="url(#clip200)" d="M194.011 367.937 Q197.368 368.655 199.243 370.924 Q201.141 373.192 201.141 376.525 Q201.141 381.641 197.623 384.442 Q194.104 387.243 187.623 387.243 Q185.447 387.243 183.132 386.803 Q180.84 386.386 178.387 385.53 L178.387 381.016 Q180.331 382.15 182.646 382.729 Q184.961 383.308 187.484 383.308 Q191.882 383.308 194.173 381.572 Q196.488 379.836 196.488 376.525 Q196.488 373.47 194.336 371.757 Q192.206 370.021 188.386 370.021 L184.359 370.021 L184.359 366.178 L188.572 366.178 Q192.021 366.178 193.849 364.813 Q195.678 363.424 195.678 360.831 Q195.678 358.169 193.78 356.757 Q191.905 355.322 188.386 355.322 Q186.465 355.322 184.266 355.738 Q182.067 356.155 179.428 357.035 L179.428 352.868 Q182.09 352.127 184.405 351.757 Q186.743 351.387 188.803 351.387 Q194.127 351.387 197.229 353.817 Q200.331 356.225 200.331 360.345 Q200.331 363.215 198.687 365.206 Q197.044 367.174 194.011 367.937 Z" fill="#000000" fill-rule="nonzero" fill-opacity="1" /><path clip-path="url(#clip200)" d="M210.053 352.012 L228.409 352.012 L228.409 355.947 L214.335 355.947 L214.335 364.419 Q215.354 364.072 216.372 363.91 Q217.391 363.725 218.409 363.725 Q224.196 363.725 227.576 366.896 Q230.956 370.067 230.956 375.484 Q230.956 381.062 227.483 384.164 Q224.011 387.243 217.692 387.243 Q215.516 387.243 213.247 386.873 Q211.002 386.502 208.595 385.761 L208.595 381.062 Q210.678 382.197 212.9 382.752 Q215.122 383.308 217.599 383.308 Q221.604 383.308 223.942 381.201 Q226.28 379.095 226.28 375.484 Q226.28 371.873 223.942 369.766 Q221.604 367.66 217.599 367.66 Q215.724 367.66 213.849 368.076 Q211.997 368.493 210.053 369.373 L210.053 352.012 Z" fill="#000000" fill-rule="nonzero" fill-opacity="1" /><path clip-path="url(#clip200)" d="M104.303 1027.1 L121.713 1027.1 L121.713 1016.78 Q121.713 1011.6 119.58 1009.11 Q117.416 1006.6 112.992 1006.6 Q108.536 1006.6 106.435 1009.11 Q104.303 1011.6 104.303 1016.78 L104.303 1027.1 M84.7598 1027.1 L99.0827 1027.1 L99.0827 1017.58 Q99.0827 1012.87 97.3321 1010.58 Q95.5497 1008.25 91.9212 1008.25 Q88.3246 1008.25 86.5422 1010.58 Q84.7598 1012.87 84.7598 1017.58 L84.7598 1027.1 M79.4763 1033.52 L79.4763 1017.1 Q79.4763 1009.75 82.5318 1005.77 Q85.5874 1001.79 91.221 1001.79 Q95.5815 1001.79 98.1596 1003.83 Q100.738 1005.87 101.374 1009.81 Q102.393 1005.07 105.639 1002.46 Q108.854 999.818 113.692 999.818 Q120.058 999.818 123.527 1004.15 Q126.996 1008.48 126.996 1016.46 L126.996 1033.52 L79.4763 1033.52 Z" fill="#000000" fill-rule="nonzero" fill-opacity="1" /><path clip-path="url(#clip200)" d="M96.8228 968.404 Q96.2499 969.39 95.9953 970.568 Q95.7088 971.714 95.7088 973.114 Q95.7088 978.08 98.9553 980.753 Q102.17 983.395 108.217 983.395 L126.996 983.395 L126.996 989.283 L91.3483 989.283 L91.3483 983.395 L96.8865 983.395 Q93.64 981.549 92.0804 978.589 Q90.489 975.629 90.489 971.396 Q90.489 970.791 90.5844 970.059 Q90.6481 969.327 90.8072 968.436 L96.8228 968.404 Z" fill="#000000" fill-rule="nonzero" fill-opacity="1" /><path clip-path="url(#clip200)" d="M109.077 946.06 Q109.077 953.158 110.7 955.895 Q112.323 958.632 116.238 958.632 Q119.357 958.632 121.203 956.595 Q123.018 954.526 123.018 950.994 Q123.018 946.124 119.58 943.196 Q116.111 940.235 110.382 940.235 L109.077 940.235 L109.077 946.06 M106.658 934.379 L126.996 934.379 L126.996 940.235 L121.585 940.235 Q124.832 942.241 126.392 945.233 Q127.919 948.224 127.919 952.553 Q127.919 958.028 124.864 961.274 Q121.776 964.489 116.62 964.489 Q110.605 964.489 107.549 960.478 Q104.494 956.436 104.494 948.447 L104.494 940.235 L103.921 940.235 Q99.8784 940.235 97.6822 942.909 Q95.4542 945.551 95.4542 950.357 Q95.4542 953.412 96.1863 956.309 Q96.9183 959.205 98.3824 961.879 L92.9716 961.879 Q91.7303 958.664 91.1255 955.64 Q90.489 952.617 90.489 949.752 Q90.489 942.018 94.4994 938.198 Q98.5097 934.379 106.658 934.379 Z" fill="#000000" fill-rule="nonzero" fill-opacity="1" /><path clip-path="url(#clip200)" d="M77.4711 922.539 L77.4711 916.651 L106.722 916.651 L91.3483 899.177 L91.3483 891.697 L108.026 910.603 L126.996 890.901 L126.996 898.54 L109.586 916.651 L126.996 916.651 L126.996 922.539 L77.4711 922.539 Z" fill="#000000" fill-rule="nonzero" fill-opacity="1" /><path clip-path="url(#clip200)" d="M107.708 856.399 L110.573 856.399 L110.573 883.326 Q116.62 882.944 119.803 879.698 Q122.954 876.419 122.954 870.595 Q122.954 867.221 122.127 864.07 Q121.299 860.887 119.644 857.768 L125.182 857.768 Q126.519 860.919 127.219 864.229 Q127.919 867.539 127.919 870.945 Q127.919 879.475 122.954 884.472 Q117.989 889.437 109.522 889.437 Q100.77 889.437 95.6452 884.727 Q90.489 879.984 90.489 871.963 Q90.489 864.77 95.1359 860.6 Q99.7511 856.399 107.708 856.399 M105.989 862.256 Q101.183 862.319 98.3188 864.961 Q95.4542 867.571 95.4542 871.9 Q95.4542 876.801 98.2233 879.761 Q100.992 882.689 106.021 883.135 L105.989 862.256 Z" fill="#000000" fill-rule="nonzero" fill-opacity="1" /><path clip-path="url(#clip200)" d="M79.4763 832.4 L79.4763 792.201 L84.8871 792.201 L84.8871 809.07 L126.996 809.07 L126.996 815.531 L84.8871 815.531 L84.8871 832.4 L79.4763 832.4 Z" fill="#000000" fill-rule="nonzero" fill-opacity="1" /><path clip-path="url(#clip200)" d="M95.4542 783.512 Q95.4542 788.222 99.1463 790.96 Q102.807 793.697 109.204 793.697 Q115.602 793.697 119.294 790.991 Q122.954 788.254 122.954 783.512 Q122.954 778.833 119.262 776.096 Q115.57 773.358 109.204 773.358 Q102.87 773.358 99.1781 776.096 Q95.4542 778.833 95.4542 783.512 M90.489 783.512 Q90.489 775.873 95.4542 771.512 Q100.419 767.152 109.204 767.152 Q117.957 767.152 122.954 771.512 Q127.919 775.873 127.919 783.512 Q127.919 791.182 122.954 795.543 Q117.957 799.872 109.204 799.872 Q100.419 799.872 95.4542 795.543 Q90.489 791.182 90.489 783.512 Z" fill="#000000" fill-rule="nonzero" fill-opacity="1" /><path clip-path="url(#clip200)" d="M96.8228 736.787 Q96.2499 737.774 95.9953 738.952 Q95.7088 740.098 95.7088 741.498 Q95.7088 746.463 98.9553 749.137 Q102.17 751.779 108.217 751.779 L126.996 751.779 L126.996 757.667 L91.3483 757.667 L91.3483 751.779 L96.8865 751.779 Q93.64 749.933 92.0804 746.973 Q90.489 744.013 90.489 739.779 Q90.489 739.175 90.5844 738.443 Q90.6481 737.711 90.8072 736.819 L96.8228 736.787 Z" fill="#000000" fill-rule="nonzero" fill-opacity="1" /><path clip-path="url(#clip200)" d="M109.204 728.289 Q115.665 728.289 119.357 725.647 Q123.018 722.974 123.018 718.327 Q123.018 713.68 119.357 711.006 Q115.665 708.333 109.204 708.333 Q102.743 708.333 99.0827 711.006 Q95.3906 713.68 95.3906 718.327 Q95.3906 722.974 99.0827 725.647 Q102.743 728.289 109.204 728.289 M121.649 708.333 Q124.832 710.179 126.392 713.012 Q127.919 715.812 127.919 719.759 Q127.919 726.22 122.763 730.294 Q117.607 734.337 109.204 734.337 Q100.801 734.337 95.6452 730.294 Q90.489 726.22 90.489 719.759 Q90.489 715.812 92.0486 713.012 Q93.5763 710.179 96.7592 708.333 L91.3483 708.333 L91.3483 702.476 L140.555 702.476 L140.555 708.333 L121.649 708.333 Z" fill="#000000" fill-rule="nonzero" fill-opacity="1" /><path clip-path="url(#clip200)" d="M112.928 691.018 L91.3483 691.018 L91.3483 685.162 L112.705 685.162 Q117.766 685.162 120.312 683.188 Q122.827 681.215 122.827 677.268 Q122.827 672.526 119.803 669.788 Q116.779 667.019 111.559 667.019 L91.3483 667.019 L91.3483 661.163 L126.996 661.163 L126.996 667.019 L121.522 667.019 Q124.768 669.152 126.36 671.985 Q127.919 674.785 127.919 678.509 Q127.919 684.652 124.1 687.835 Q120.28 691.018 112.928 691.018 M90.489 676.281 L90.489 676.281 Z" fill="#000000" fill-rule="nonzero" fill-opacity="1" /><path clip-path="url(#clip200)" d="M107.708 618.608 L110.573 618.608 L110.573 645.535 Q116.62 645.153 119.803 641.907 Q122.954 638.628 122.954 632.804 Q122.954 629.43 122.127 626.279 Q121.299 623.096 119.644 619.977 L125.182 619.977 Q126.519 623.128 127.219 626.438 Q127.919 629.748 127.919 633.154 Q127.919 641.684 122.954 646.681 Q117.989 651.646 109.522 651.646 Q100.77 651.646 95.6452 646.936 Q90.489 642.193 90.489 634.172 Q90.489 626.979 95.1359 622.81 Q99.7511 618.608 107.708 618.608 M105.989 624.465 Q101.183 624.528 98.3188 627.17 Q95.4542 629.78 95.4542 634.109 Q95.4542 639.01 98.2233 641.97 Q100.992 644.899 106.021 645.344 L105.989 624.465 Z" fill="#000000" fill-rule="nonzero" fill-opacity="1" /><path clip-path="url(#clip200)" d="M77.5347 574.207 Q84.8553 578.472 92.0167 580.541 Q99.1781 582.61 106.531 582.61 Q113.883 582.61 121.108 580.541 Q128.301 578.441 135.59 574.207 L135.59 579.3 Q128.11 584.074 120.885 586.461 Q113.66 588.817 106.531 588.817 Q99.4328 588.817 92.2395 586.461 Q85.0463 584.106 77.5347 579.3 L77.5347 574.207 Z" fill="#000000" fill-rule="nonzero" fill-opacity="1" /><path clip-path="url(#clip200)" d="M79.4763 562.59 L79.4763 553.933 L119.23 532.862 L79.4763 532.862 L79.4763 526.624 L126.996 526.624 L126.996 535.281 L87.2424 556.352 L126.996 556.352 L126.996 562.59 L79.4763 562.59 Z" fill="#000000" fill-rule="nonzero" fill-opacity="1" /><path clip-path="url(#clip200)" d="M98.1915 486.329 Q94.2447 484.133 92.3668 481.077 Q90.489 478.022 90.489 473.884 Q90.489 468.314 94.4039 465.29 Q98.2869 462.266 105.48 462.266 L126.996 462.266 L126.996 468.155 L105.671 468.155 Q100.547 468.155 98.0641 469.969 Q95.5815 471.783 95.5815 475.507 Q95.5815 480.059 98.6052 482.7 Q101.629 485.342 106.849 485.342 L126.996 485.342 L126.996 491.23 L105.671 491.23 Q100.515 491.23 98.0641 493.045 Q95.5815 494.859 95.5815 498.646 Q95.5815 503.134 98.6371 505.776 Q101.661 508.418 106.849 508.418 L126.996 508.418 L126.996 514.306 L91.3483 514.306 L91.3483 508.418 L96.8865 508.418 Q93.6082 506.413 92.0486 503.612 Q90.489 500.811 90.489 496.959 Q90.489 493.076 92.4623 490.371 Q94.4357 487.634 98.1915 486.329 Z" fill="#000000" fill-rule="nonzero" fill-opacity="1" /><path clip-path="url(#clip200)" d="M77.5347 451.508 L77.5347 446.416 Q85.0463 441.641 92.2395 439.286 Q99.4328 436.899 106.531 436.899 Q113.66 436.899 120.885 439.286 Q128.11 441.641 135.59 446.416 L135.59 451.508 Q128.301 447.275 121.108 445.206 Q113.883 443.106 106.531 443.106 Q99.1781 443.106 92.0167 445.206 Q84.8553 447.275 77.5347 451.508 Z" fill="#000000" fill-rule="nonzero" fill-opacity="1" /><polyline clip-path="url(#clip201)" style="stroke:#0000ff; stroke-linecap:round; stroke-linejoin:round; stroke-width:8; stroke-opacity:1; fill:none" points="319.819,335.31 672.238,209.699 1024.66,145.612 1377.08,150.739 1729.5,225.08 2081.92,1324.81 "/>
<circle clip-path="url(#clip201)" cx="1024.66" cy="145.612" r="14.4" fill="#4169e1" fill-rule="evenodd" fill-opacity="1" stroke="#000000" stroke-opacity="1" stroke-width="3.2"/>
<path clip-path="url(#clip200)" d="M844.608 1318.52 L1557.13 1318.52 L1557.13 1059.32 L844.608 1059.32  Z" fill="#ffffff" fill-rule="evenodd" fill-opacity="1"/>
<polyline clip-path="url(#clip200)" style="stroke:#000000; stroke-linecap:round; stroke-linejoin:round; stroke-width:4; stroke-opacity:1; fill:none" points="844.608,1318.52 1557.13,1318.52 1557.13,1059.32 844.608,1059.32 844.608,1318.52 "/>
<polyline clip-path="url(#clip200)" style="stroke:#0000ff; stroke-linecap:round; stroke-linejoin:round; stroke-width:8; stroke-opacity:1; fill:none" points="865.361,1111.16 989.883,1111.16 "/>
<path clip-path="url(#clip200)" d="M1015.31 1111.94 L1015.31 1124.6 L1022.81 1124.6 Q1026.59 1124.6 1028.39 1123.05 Q1030.22 1121.48 1030.22 1118.26 Q1030.22 1115.02 1028.39 1113.49 Q1026.59 1111.94 1022.81 1111.94 L1015.31 1111.94 M1015.31 1097.73 L1015.31 1108.14 L1022.23 1108.14 Q1025.66 1108.14 1027.33 1106.87 Q1029.02 1105.57 1029.02 1102.93 Q1029.02 1100.32 1027.33 1099.02 Q1025.66 1097.73 1022.23 1097.73 L1015.31 1097.73 M1010.64 1093.88 L1022.58 1093.88 Q1027.93 1093.88 1030.82 1096.1 Q1033.72 1098.33 1033.72 1102.42 Q1033.72 1105.6 1032.23 1107.47 Q1030.75 1109.35 1027.88 1109.81 Q1031.33 1110.55 1033.23 1112.91 Q1035.15 1115.25 1035.15 1118.77 Q1035.15 1123.4 1032 1125.92 Q1028.85 1128.44 1023.04 1128.44 L1010.64 1128.44 L1010.64 1093.88 Z" fill="#000000" fill-rule="nonzero" fill-opacity="1" /><path clip-path="url(#clip200)" d="M1058 1106.5 Q1057.28 1106.08 1056.42 1105.9 Q1055.59 1105.69 1054.57 1105.69 Q1050.96 1105.69 1049.02 1108.05 Q1047.09 1110.39 1047.09 1114.79 L1047.09 1128.44 L1042.81 1128.44 L1042.81 1102.52 L1047.09 1102.52 L1047.09 1106.54 Q1048.44 1104.18 1050.59 1103.05 Q1052.74 1101.89 1055.82 1101.89 Q1056.26 1101.89 1056.79 1101.96 Q1057.33 1102.01 1057.97 1102.12 L1058 1106.5 Z" fill="#000000" fill-rule="nonzero" fill-opacity="1" /><path clip-path="url(#clip200)" d="M1074.25 1115.41 Q1069.09 1115.41 1067.09 1116.59 Q1065.1 1117.77 1065.1 1120.62 Q1065.1 1122.89 1066.59 1124.23 Q1068.09 1125.55 1070.66 1125.55 Q1074.2 1125.55 1076.33 1123.05 Q1078.48 1120.53 1078.48 1116.36 L1078.48 1115.41 L1074.25 1115.41 M1082.74 1113.65 L1082.74 1128.44 L1078.48 1128.44 L1078.48 1124.51 Q1077.03 1126.87 1074.85 1128 Q1072.67 1129.11 1069.53 1129.11 Q1065.54 1129.11 1063.18 1126.89 Q1060.84 1124.65 1060.84 1120.9 Q1060.84 1116.52 1063.76 1114.3 Q1066.7 1112.08 1072.51 1112.08 L1078.48 1112.08 L1078.48 1111.66 Q1078.48 1108.72 1076.54 1107.12 Q1074.62 1105.5 1071.12 1105.5 Q1068.9 1105.5 1066.79 1106.04 Q1064.69 1106.57 1062.74 1107.63 L1062.74 1103.7 Q1065.08 1102.79 1067.28 1102.35 Q1069.48 1101.89 1071.56 1101.89 Q1077.19 1101.89 1079.97 1104.81 Q1082.74 1107.73 1082.74 1113.65 Z" fill="#000000" fill-rule="nonzero" fill-opacity="1" /><path clip-path="url(#clip200)" d="M1091.35 1092.42 L1095.64 1092.42 L1095.64 1113.7 L1108.34 1102.52 L1113.78 1102.52 L1100.03 1114.65 L1114.36 1128.44 L1108.81 1128.44 L1095.64 1115.78 L1095.64 1128.44 L1091.35 1128.44 L1091.35 1092.42 Z" fill="#000000" fill-rule="nonzero" fill-opacity="1" /><path clip-path="url(#clip200)" d="M1139.46 1114.41 L1139.46 1116.5 L1119.87 1116.5 Q1120.15 1120.9 1122.51 1123.21 Q1124.9 1125.5 1129.13 1125.5 Q1131.59 1125.5 1133.88 1124.9 Q1136.19 1124.3 1138.46 1123.1 L1138.46 1127.12 Q1136.17 1128.1 1133.76 1128.6 Q1131.35 1129.11 1128.88 1129.11 Q1122.67 1129.11 1119.04 1125.5 Q1115.43 1121.89 1115.43 1115.73 Q1115.43 1109.37 1118.85 1105.64 Q1122.3 1101.89 1128.14 1101.89 Q1133.37 1101.89 1136.4 1105.27 Q1139.46 1108.63 1139.46 1114.41 M1135.2 1113.16 Q1135.15 1109.67 1133.23 1107.59 Q1131.33 1105.5 1128.18 1105.5 Q1124.62 1105.5 1122.46 1107.52 Q1120.34 1109.53 1120.01 1113.19 L1135.2 1113.16 Z" fill="#000000" fill-rule="nonzero" fill-opacity="1" /><path clip-path="url(#clip200)" d="M1156.91 1093.88 L1186.15 1093.88 L1186.15 1097.82 L1173.88 1097.82 L1173.88 1128.44 L1169.18 1128.44 L1169.18 1097.82 L1156.91 1097.82 L1156.91 1093.88 Z" fill="#000000" fill-rule="nonzero" fill-opacity="1" /><path clip-path="url(#clip200)" d="M1192.46 1105.5 Q1189.04 1105.5 1187.05 1108.19 Q1185.06 1110.85 1185.06 1115.5 Q1185.06 1120.16 1187.02 1122.84 Q1189.02 1125.5 1192.46 1125.5 Q1195.87 1125.5 1197.86 1122.82 Q1199.85 1120.13 1199.85 1115.5 Q1199.85 1110.9 1197.86 1108.21 Q1195.87 1105.5 1192.46 1105.5 M1192.46 1101.89 Q1198.02 1101.89 1201.19 1105.5 Q1204.36 1109.11 1204.36 1115.5 Q1204.36 1121.87 1201.19 1125.5 Q1198.02 1129.11 1192.46 1129.11 Q1186.89 1129.11 1183.71 1125.5 Q1180.57 1121.87 1180.57 1115.5 Q1180.57 1109.11 1183.71 1105.5 Q1186.89 1101.89 1192.46 1101.89 Z" fill="#000000" fill-rule="nonzero" fill-opacity="1" /><path clip-path="url(#clip200)" d="M1226.45 1106.5 Q1225.73 1106.08 1224.87 1105.9 Q1224.04 1105.69 1223.02 1105.69 Q1219.41 1105.69 1217.46 1108.05 Q1215.54 1110.39 1215.54 1114.79 L1215.54 1128.44 L1211.26 1128.44 L1211.26 1102.52 L1215.54 1102.52 L1215.54 1106.54 Q1216.89 1104.18 1219.04 1103.05 Q1221.19 1101.89 1224.27 1101.89 Q1224.71 1101.89 1225.24 1101.96 Q1225.77 1102.01 1226.42 1102.12 L1226.45 1106.5 Z" fill="#000000" fill-rule="nonzero" fill-opacity="1" /><path clip-path="url(#clip200)" d="M1232.63 1115.5 Q1232.63 1120.2 1234.55 1122.89 Q1236.49 1125.55 1239.87 1125.55 Q1243.25 1125.55 1245.2 1122.89 Q1247.14 1120.2 1247.14 1115.5 Q1247.14 1110.8 1245.2 1108.14 Q1243.25 1105.46 1239.87 1105.46 Q1236.49 1105.46 1234.55 1108.14 Q1232.63 1110.8 1232.63 1115.5 M1247.14 1124.55 Q1245.8 1126.87 1243.74 1128 Q1241.7 1129.11 1238.83 1129.11 Q1234.13 1129.11 1231.17 1125.36 Q1228.23 1121.61 1228.23 1115.5 Q1228.23 1109.39 1231.17 1105.64 Q1234.13 1101.89 1238.83 1101.89 Q1241.7 1101.89 1243.74 1103.03 Q1245.8 1104.14 1247.14 1106.45 L1247.14 1102.52 L1251.4 1102.52 L1251.4 1138.3 L1247.14 1138.3 L1247.14 1124.55 Z" fill="#000000" fill-rule="nonzero" fill-opacity="1" /><path clip-path="url(#clip200)" d="M1259.73 1118.21 L1259.73 1102.52 L1263.99 1102.52 L1263.99 1118.05 Q1263.99 1121.73 1265.43 1123.58 Q1266.86 1125.41 1269.73 1125.41 Q1273.18 1125.41 1275.17 1123.21 Q1277.19 1121.01 1277.19 1117.22 L1277.19 1102.52 L1281.45 1102.52 L1281.45 1128.44 L1277.19 1128.44 L1277.19 1124.46 Q1275.64 1126.82 1273.58 1127.98 Q1271.54 1129.11 1268.83 1129.11 Q1264.36 1129.11 1262.05 1126.34 Q1259.73 1123.56 1259.73 1118.21 M1270.45 1101.89 L1270.45 1101.89 Z" fill="#000000" fill-rule="nonzero" fill-opacity="1" /><path clip-path="url(#clip200)" d="M1312.39 1114.41 L1312.39 1116.5 L1292.81 1116.5 Q1293.09 1120.9 1295.45 1123.21 Q1297.83 1125.5 1302.07 1125.5 Q1304.52 1125.5 1306.82 1124.9 Q1309.13 1124.3 1311.4 1123.1 L1311.4 1127.12 Q1309.11 1128.1 1306.7 1128.6 Q1304.29 1129.11 1301.82 1129.11 Q1295.61 1129.11 1291.98 1125.5 Q1288.37 1121.89 1288.37 1115.73 Q1288.37 1109.37 1291.79 1105.64 Q1295.24 1101.89 1301.07 1101.89 Q1306.31 1101.89 1309.34 1105.27 Q1312.39 1108.63 1312.39 1114.41 M1308.14 1113.16 Q1308.09 1109.67 1306.17 1107.59 Q1304.27 1105.5 1301.12 1105.5 Q1297.56 1105.5 1295.4 1107.52 Q1293.27 1109.53 1292.95 1113.19 L1308.14 1113.16 Z" fill="#000000" fill-rule="nonzero" fill-opacity="1" /><polyline clip-path="url(#clip200)" style="stroke:#ff0000; stroke-linecap:round; stroke-linejoin:round; stroke-width:8; stroke-opacity:1; fill:none" points="865.361,1163 989.883,1163 "/>
<path clip-path="url(#clip200)" d="M1015.31 1163.78 L1015.31 1176.44 L1022.81 1176.44 Q1026.59 1176.44 1028.39 1174.89 Q1030.22 1173.32 1030.22 1170.1 Q1030.22 1166.86 1028.39 1165.33 Q1026.59 1163.78 1022.81 1163.78 L1015.31 1163.78 M1015.31 1149.57 L1015.31 1159.98 L1022.23 1159.98 Q1025.66 1159.98 1027.33 1158.71 Q1029.02 1157.41 1029.02 1154.77 Q1029.02 1152.16 1027.33 1150.86 Q1025.66 1149.57 1022.23 1149.57 L1015.31 1149.57 M1010.64 1145.72 L1022.58 1145.72 Q1027.93 1145.72 1030.82 1147.94 Q1033.72 1150.17 1033.72 1154.26 Q1033.72 1157.44 1032.23 1159.31 Q1030.75 1161.19 1027.88 1161.65 Q1031.33 1162.39 1033.23 1164.75 Q1035.15 1167.09 1035.15 1170.61 Q1035.15 1175.24 1032 1177.76 Q1028.85 1180.28 1023.04 1180.28 L1010.64 1180.28 L1010.64 1145.72 Z" fill="#000000" fill-rule="nonzero" fill-opacity="1" /><path clip-path="url(#clip200)" d="M1058 1158.34 Q1057.28 1157.92 1056.42 1157.74 Q1055.59 1157.53 1054.57 1157.53 Q1050.96 1157.53 1049.02 1159.89 Q1047.09 1162.23 1047.09 1166.63 L1047.09 1180.28 L1042.81 1180.28 L1042.81 1154.36 L1047.09 1154.36 L1047.09 1158.38 Q1048.44 1156.02 1050.59 1154.89 Q1052.74 1153.73 1055.82 1153.73 Q1056.26 1153.73 1056.79 1153.8 Q1057.33 1153.85 1057.97 1153.96 L1058 1158.34 Z" fill="#000000" fill-rule="nonzero" fill-opacity="1" /><path clip-path="url(#clip200)" d="M1074.25 1167.25 Q1069.09 1167.25 1067.09 1168.43 Q1065.1 1169.61 1065.1 1172.46 Q1065.1 1174.73 1066.59 1176.07 Q1068.09 1177.39 1070.66 1177.39 Q1074.2 1177.39 1076.33 1174.89 Q1078.48 1172.37 1078.48 1168.2 L1078.48 1167.25 L1074.25 1167.25 M1082.74 1165.49 L1082.74 1180.28 L1078.48 1180.28 L1078.48 1176.35 Q1077.03 1178.71 1074.85 1179.84 Q1072.67 1180.95 1069.53 1180.95 Q1065.54 1180.95 1063.18 1178.73 Q1060.84 1176.49 1060.84 1172.74 Q1060.84 1168.36 1063.76 1166.14 Q1066.7 1163.92 1072.51 1163.92 L1078.48 1163.92 L1078.48 1163.5 Q1078.48 1160.56 1076.54 1158.96 Q1074.62 1157.34 1071.12 1157.34 Q1068.9 1157.34 1066.79 1157.88 Q1064.69 1158.41 1062.74 1159.47 L1062.74 1155.54 Q1065.08 1154.63 1067.28 1154.19 Q1069.48 1153.73 1071.56 1153.73 Q1077.19 1153.73 1079.97 1156.65 Q1082.74 1159.57 1082.74 1165.49 Z" fill="#000000" fill-rule="nonzero" fill-opacity="1" /><path clip-path="url(#clip200)" d="M1091.35 1144.26 L1095.64 1144.26 L1095.64 1165.54 L1108.34 1154.36 L1113.78 1154.36 L1100.03 1166.49 L1114.36 1180.28 L1108.81 1180.28 L1095.64 1167.62 L1095.64 1180.28 L1091.35 1180.28 L1091.35 1144.26 Z" fill="#000000" fill-rule="nonzero" fill-opacity="1" /><path clip-path="url(#clip200)" d="M1139.46 1166.25 L1139.46 1168.34 L1119.87 1168.34 Q1120.15 1172.74 1122.51 1175.05 Q1124.9 1177.34 1129.13 1177.34 Q1131.59 1177.34 1133.88 1176.74 Q1136.19 1176.14 1138.46 1174.94 L1138.46 1178.96 Q1136.17 1179.94 1133.76 1180.44 Q1131.35 1180.95 1128.88 1180.95 Q1122.67 1180.95 1119.04 1177.34 Q1115.43 1173.73 1115.43 1167.57 Q1115.43 1161.21 1118.85 1157.48 Q1122.3 1153.73 1128.14 1153.73 Q1133.37 1153.73 1136.4 1157.11 Q1139.46 1160.47 1139.46 1166.25 M1135.2 1165 Q1135.15 1161.51 1133.23 1159.43 Q1131.33 1157.34 1128.18 1157.34 Q1124.62 1157.34 1122.46 1159.36 Q1120.34 1161.37 1120.01 1165.03 L1135.2 1165 Z" fill="#000000" fill-rule="nonzero" fill-opacity="1" /><path clip-path="url(#clip200)" d="M1166.38 1149.57 L1166.38 1162.55 L1172.26 1162.55 Q1175.52 1162.55 1177.3 1160.86 Q1179.08 1159.17 1179.08 1156.05 Q1179.08 1152.94 1177.3 1151.26 Q1175.52 1149.57 1172.26 1149.57 L1166.38 1149.57 M1161.7 1145.72 L1172.26 1145.72 Q1178.07 1145.72 1181.03 1148.36 Q1184.02 1150.98 1184.02 1156.05 Q1184.02 1161.16 1181.03 1163.78 Q1178.07 1166.39 1172.26 1166.39 L1166.38 1166.39 L1166.38 1180.28 L1161.7 1180.28 L1161.7 1145.72 Z" fill="#000000" fill-rule="nonzero" fill-opacity="1" /><path clip-path="url(#clip200)" d="M1198.46 1157.34 Q1195.03 1157.34 1193.04 1160.03 Q1191.05 1162.69 1191.05 1167.34 Q1191.05 1172 1193.02 1174.68 Q1195.01 1177.34 1198.46 1177.34 Q1201.86 1177.34 1203.85 1174.66 Q1205.84 1171.97 1205.84 1167.34 Q1205.84 1162.74 1203.85 1160.05 Q1201.86 1157.34 1198.46 1157.34 M1198.46 1153.73 Q1204.02 1153.73 1207.19 1157.34 Q1210.36 1160.95 1210.36 1167.34 Q1210.36 1173.71 1207.19 1177.34 Q1204.02 1180.95 1198.46 1180.95 Q1192.88 1180.95 1189.71 1177.34 Q1186.56 1173.71 1186.56 1167.34 Q1186.56 1160.95 1189.71 1157.34 Q1192.88 1153.73 1198.46 1153.73 Z" fill="#000000" fill-rule="nonzero" fill-opacity="1" /><path clip-path="url(#clip200)" d="M1214.94 1154.36 L1219.2 1154.36 L1224.52 1174.59 L1229.83 1154.36 L1234.85 1154.36 L1240.17 1174.59 L1245.47 1154.36 L1249.73 1154.36 L1242.95 1180.28 L1237.93 1180.28 L1232.35 1159.03 L1226.75 1180.28 L1221.72 1180.28 L1214.94 1154.36 Z" fill="#000000" fill-rule="nonzero" fill-opacity="1" /><path clip-path="url(#clip200)" d="M1278.37 1166.25 L1278.37 1168.34 L1258.78 1168.34 Q1259.06 1172.74 1261.42 1175.05 Q1263.81 1177.34 1268.04 1177.34 Q1270.5 1177.34 1272.79 1176.74 Q1275.1 1176.14 1277.37 1174.94 L1277.37 1178.96 Q1275.08 1179.94 1272.67 1180.44 Q1270.26 1180.95 1267.79 1180.95 Q1261.58 1180.95 1257.95 1177.34 Q1254.34 1173.73 1254.34 1167.57 Q1254.34 1161.21 1257.77 1157.48 Q1261.21 1153.73 1267.05 1153.73 Q1272.28 1153.73 1275.31 1157.11 Q1278.37 1160.47 1278.37 1166.25 M1274.11 1165 Q1274.06 1161.51 1272.14 1159.43 Q1270.24 1157.34 1267.09 1157.34 Q1263.53 1157.34 1261.38 1159.36 Q1259.25 1161.37 1258.92 1165.03 L1274.11 1165 Z" fill="#000000" fill-rule="nonzero" fill-opacity="1" /><path clip-path="url(#clip200)" d="M1300.38 1158.34 Q1299.66 1157.92 1298.81 1157.74 Q1297.97 1157.53 1296.95 1157.53 Q1293.34 1157.53 1291.4 1159.89 Q1289.48 1162.23 1289.48 1166.63 L1289.48 1180.28 L1285.2 1180.28 L1285.2 1154.36 L1289.48 1154.36 L1289.48 1158.38 Q1290.82 1156.02 1292.97 1154.89 Q1295.13 1153.73 1298.2 1153.73 Q1298.64 1153.73 1299.18 1153.8 Q1299.71 1153.85 1300.36 1153.96 L1300.38 1158.34 Z" fill="#000000" fill-rule="nonzero" fill-opacity="1" /><circle clip-path="url(#clip200)" cx="927.622" cy="1214.84" r="20.48" fill="#4169e1" fill-rule="evenodd" fill-opacity="1" stroke="#000000" stroke-opacity="1" stroke-width="4.55111"/>
<path clip-path="url(#clip200)" d="M1010.64 1197.56 L1017.6 1197.56 L1026.42 1221.08 L1035.29 1197.56 L1042.26 1197.56 L1042.26 1232.12 L1037.7 1232.12 L1037.7 1201.78 L1028.78 1225.48 L1024.09 1225.48 L1015.17 1201.78 L1015.17 1232.12 L1010.64 1232.12 L1010.64 1197.56 Z" fill="#000000" fill-rule="nonzero" fill-opacity="1" /><path clip-path="url(#clip200)" d="M1063.14 1219.09 Q1057.97 1219.09 1055.98 1220.27 Q1053.99 1221.45 1053.99 1224.3 Q1053.99 1226.57 1055.47 1227.91 Q1056.98 1229.23 1059.55 1229.23 Q1063.09 1229.23 1065.22 1226.73 Q1067.37 1224.21 1067.37 1220.04 L1067.37 1219.09 L1063.14 1219.09 M1071.63 1217.33 L1071.63 1232.12 L1067.37 1232.12 L1067.37 1228.19 Q1065.91 1230.55 1063.74 1231.68 Q1061.56 1232.79 1058.41 1232.79 Q1054.43 1232.79 1052.07 1230.57 Q1049.73 1228.33 1049.73 1224.58 Q1049.73 1220.2 1052.65 1217.98 Q1055.59 1215.76 1061.4 1215.76 L1067.37 1215.76 L1067.37 1215.34 Q1067.37 1212.4 1065.43 1210.8 Q1063.51 1209.18 1060.01 1209.18 Q1057.79 1209.18 1055.68 1209.72 Q1053.58 1210.25 1051.63 1211.31 L1051.63 1207.38 Q1053.97 1206.47 1056.17 1206.03 Q1058.37 1205.57 1060.45 1205.57 Q1066.08 1205.57 1068.85 1208.49 Q1071.63 1211.41 1071.63 1217.33 Z" fill="#000000" fill-rule="nonzero" fill-opacity="1" /><path clip-path="url(#clip200)" d="M1101.96 1206.2 L1092.58 1218.81 L1102.44 1232.12 L1097.42 1232.12 L1089.87 1221.94 L1082.33 1232.12 L1077.3 1232.12 L1087.37 1218.56 L1078.16 1206.2 L1083.18 1206.2 L1090.06 1215.43 L1096.93 1206.2 L1101.96 1206.2 Z" fill="#000000" fill-rule="nonzero" fill-opacity="1" /><path clip-path="url(#clip200)" d="M1118.92 1197.56 L1148.16 1197.56 L1148.16 1201.5 L1135.89 1201.5 L1135.89 1232.12 L1131.19 1232.12 L1131.19 1201.5 L1118.92 1201.5 L1118.92 1197.56 Z" fill="#000000" fill-rule="nonzero" fill-opacity="1" /><path clip-path="url(#clip200)" d="M1154.48 1209.18 Q1151.05 1209.18 1149.06 1211.87 Q1147.07 1214.53 1147.07 1219.18 Q1147.07 1223.84 1149.04 1226.52 Q1151.03 1229.18 1154.48 1229.18 Q1157.88 1229.18 1159.87 1226.5 Q1161.86 1223.81 1161.86 1219.18 Q1161.86 1214.58 1159.87 1211.89 Q1157.88 1209.18 1154.48 1209.18 M1154.48 1205.57 Q1160.03 1205.57 1163.21 1209.18 Q1166.38 1212.79 1166.38 1219.18 Q1166.38 1225.55 1163.21 1229.18 Q1160.03 1232.79 1154.48 1232.79 Q1148.9 1232.79 1145.73 1229.18 Q1142.58 1225.55 1142.58 1219.18 Q1142.58 1212.79 1145.73 1209.18 Q1148.9 1205.57 1154.48 1205.57 Z" fill="#000000" fill-rule="nonzero" fill-opacity="1" /><path clip-path="url(#clip200)" d="M1188.46 1210.18 Q1187.74 1209.76 1186.89 1209.58 Q1186.05 1209.37 1185.03 1209.37 Q1181.42 1209.37 1179.48 1211.73 Q1177.56 1214.07 1177.56 1218.47 L1177.56 1232.12 L1173.27 1232.12 L1173.27 1206.2 L1177.56 1206.2 L1177.56 1210.22 Q1178.9 1207.86 1181.05 1206.73 Q1183.21 1205.57 1186.28 1205.57 Q1186.72 1205.57 1187.26 1205.64 Q1187.79 1205.69 1188.44 1205.8 L1188.46 1210.18 Z" fill="#000000" fill-rule="nonzero" fill-opacity="1" /><path clip-path="url(#clip200)" d="M1194.64 1219.18 Q1194.64 1223.88 1196.56 1226.57 Q1198.51 1229.23 1201.89 1229.23 Q1205.27 1229.23 1207.21 1226.57 Q1209.15 1223.88 1209.15 1219.18 Q1209.15 1214.48 1207.21 1211.82 Q1205.27 1209.14 1201.89 1209.14 Q1198.51 1209.14 1196.56 1211.82 Q1194.64 1214.48 1194.64 1219.18 M1209.15 1228.23 Q1207.81 1230.55 1205.75 1231.68 Q1203.71 1232.79 1200.84 1232.79 Q1196.14 1232.79 1193.18 1229.04 Q1190.24 1225.29 1190.24 1219.18 Q1190.24 1213.07 1193.18 1209.32 Q1196.14 1205.57 1200.84 1205.57 Q1203.71 1205.57 1205.75 1206.71 Q1207.81 1207.82 1209.15 1210.13 L1209.15 1206.2 L1213.41 1206.2 L1213.41 1241.98 L1209.15 1241.98 L1209.15 1228.23 Z" fill="#000000" fill-rule="nonzero" fill-opacity="1" /><path clip-path="url(#clip200)" d="M1221.75 1221.89 L1221.75 1206.2 L1226.01 1206.2 L1226.01 1221.73 Q1226.01 1225.41 1227.44 1227.26 Q1228.88 1229.09 1231.75 1229.09 Q1235.2 1229.09 1237.19 1226.89 Q1239.2 1224.69 1239.2 1220.9 L1239.2 1206.2 L1243.46 1206.2 L1243.46 1232.12 L1239.2 1232.12 L1239.2 1228.14 Q1237.65 1230.5 1235.59 1231.66 Q1233.55 1232.79 1230.84 1232.79 Q1226.38 1232.79 1224.06 1230.02 Q1221.75 1227.24 1221.75 1221.89 M1232.46 1205.57 L1232.46 1205.57 Z" fill="#000000" fill-rule="nonzero" fill-opacity="1" /><path clip-path="url(#clip200)" d="M1274.41 1218.09 L1274.41 1220.18 L1254.83 1220.18 Q1255.1 1224.58 1257.46 1226.89 Q1259.85 1229.18 1264.08 1229.18 Q1266.54 1229.18 1268.83 1228.58 Q1271.14 1227.98 1273.41 1226.78 L1273.41 1230.8 Q1271.12 1231.78 1268.71 1232.28 Q1266.31 1232.79 1263.83 1232.79 Q1257.63 1232.79 1253.99 1229.18 Q1250.38 1225.57 1250.38 1219.41 Q1250.38 1213.05 1253.81 1209.32 Q1257.26 1205.57 1263.09 1205.57 Q1268.32 1205.57 1271.35 1208.95 Q1274.41 1212.31 1274.41 1218.09 M1270.15 1216.84 Q1270.1 1213.35 1268.18 1211.27 Q1266.28 1209.18 1263.14 1209.18 Q1259.57 1209.18 1257.42 1211.2 Q1255.29 1213.21 1254.96 1216.87 L1270.15 1216.84 Z" fill="#000000" fill-rule="nonzero" fill-opacity="1" /><path clip-path="url(#clip200)" d="M1282.49 1226.24 L1287.37 1226.24 L1287.37 1232.12 L1282.49 1232.12 L1282.49 1226.24 M1282.49 1207.61 L1287.37 1207.61 L1287.37 1213.49 L1282.49 1213.49 L1282.49 1207.61 Z" fill="#000000" fill-rule="nonzero" fill-opacity="1" /><path clip-path="url(#clip200)" d="M1327.21 1213.49 Q1330.57 1214.21 1332.44 1216.47 Q1334.34 1218.74 1334.34 1222.08 Q1334.34 1227.19 1330.82 1229.99 Q1327.3 1232.79 1320.82 1232.79 Q1318.64 1232.79 1316.33 1232.35 Q1314.04 1231.94 1311.58 1231.08 L1311.58 1226.57 Q1313.53 1227.7 1315.84 1228.28 Q1318.16 1228.86 1320.68 1228.86 Q1325.08 1228.86 1327.37 1227.12 Q1329.69 1225.39 1329.69 1222.08 Q1329.69 1219.02 1327.53 1217.31 Q1325.4 1215.57 1321.58 1215.57 L1317.56 1215.57 L1317.56 1211.73 L1321.77 1211.73 Q1325.22 1211.73 1327.05 1210.36 Q1328.88 1208.97 1328.88 1206.38 Q1328.88 1203.72 1326.98 1202.31 Q1325.1 1200.87 1321.58 1200.87 Q1319.66 1200.87 1317.46 1201.29 Q1315.26 1201.71 1312.63 1202.59 L1312.63 1198.42 Q1315.29 1197.68 1317.6 1197.31 Q1319.94 1196.94 1322 1196.94 Q1327.32 1196.94 1330.43 1199.37 Q1333.53 1201.78 1333.53 1205.9 Q1333.53 1208.77 1331.88 1210.76 Q1330.24 1212.72 1327.21 1213.49 Z" fill="#000000" fill-rule="nonzero" fill-opacity="1" /><path clip-path="url(#clip200)" d="M1353.2 1215.71 Q1349.87 1215.71 1347.95 1217.49 Q1346.05 1219.28 1346.05 1222.4 Q1346.05 1225.53 1347.95 1227.31 Q1349.87 1229.09 1353.2 1229.09 Q1356.54 1229.09 1358.46 1227.31 Q1360.38 1225.5 1360.38 1222.4 Q1360.38 1219.28 1358.46 1217.49 Q1356.56 1215.71 1353.2 1215.71 M1348.53 1213.72 Q1345.52 1212.98 1343.83 1210.92 Q1342.16 1208.86 1342.16 1205.9 Q1342.16 1201.75 1345.1 1199.35 Q1348.07 1196.94 1353.2 1196.94 Q1358.37 1196.94 1361.31 1199.35 Q1364.25 1201.75 1364.25 1205.9 Q1364.25 1208.86 1362.56 1210.92 Q1360.89 1212.98 1357.9 1213.72 Q1361.28 1214.51 1363.16 1216.8 Q1365.06 1219.09 1365.06 1222.4 Q1365.06 1227.42 1361.98 1230.11 Q1358.92 1232.79 1353.2 1232.79 Q1347.49 1232.79 1344.41 1230.11 Q1341.35 1227.42 1341.35 1222.4 Q1341.35 1219.09 1343.25 1216.8 Q1345.15 1214.51 1348.53 1213.72 M1346.82 1206.34 Q1346.82 1209.02 1348.48 1210.53 Q1350.17 1212.03 1353.2 1212.03 Q1356.21 1212.03 1357.9 1210.53 Q1359.62 1209.02 1359.62 1206.34 Q1359.62 1203.65 1357.9 1202.15 Q1356.21 1200.64 1353.2 1200.64 Q1350.17 1200.64 1348.48 1202.15 Q1346.82 1203.65 1346.82 1206.34 Z" fill="#000000" fill-rule="nonzero" fill-opacity="1" /><path clip-path="url(#clip200)" d="M1373.37 1226.24 L1378.25 1226.24 L1378.25 1232.12 L1373.37 1232.12 L1373.37 1226.24 Z" fill="#000000" fill-rule="nonzero" fill-opacity="1" /><path clip-path="url(#clip200)" d="M1387.26 1197.56 L1409.48 1197.56 L1409.48 1199.55 L1396.93 1232.12 L1392.05 1232.12 L1403.85 1201.5 L1387.26 1201.5 L1387.26 1197.56 Z" fill="#000000" fill-rule="nonzero" fill-opacity="1" /><path clip-path="url(#clip200)" d="M1431.44 1201.64 L1419.64 1220.09 L1431.44 1220.09 L1431.44 1201.64 M1430.22 1197.56 L1436.1 1197.56 L1436.1 1220.09 L1441.03 1220.09 L1441.03 1223.97 L1436.1 1223.97 L1436.1 1232.12 L1431.44 1232.12 L1431.44 1223.97 L1415.84 1223.97 L1415.84 1219.46 L1430.22 1197.56 Z" fill="#000000" fill-rule="nonzero" fill-opacity="1" /><path clip-path="url(#clip200)" d="M1463.41 1197.56 L1469.71 1197.56 L1485.03 1226.47 L1485.03 1197.56 L1489.57 1197.56 L1489.57 1232.12 L1483.27 1232.12 L1467.95 1203.21 L1467.95 1232.12 L1463.41 1232.12 L1463.41 1197.56 Z" fill="#000000" fill-rule="nonzero" fill-opacity="1" /><path clip-path="url(#clip200)" d="M1518.87 1211.17 Q1520.47 1208.3 1522.69 1206.94 Q1524.92 1205.57 1527.93 1205.57 Q1531.98 1205.57 1534.18 1208.42 Q1536.37 1211.24 1536.37 1216.47 L1536.37 1232.12 L1532.09 1232.12 L1532.09 1216.61 Q1532.09 1212.89 1530.77 1211.08 Q1529.45 1209.28 1526.75 1209.28 Q1523.43 1209.28 1521.51 1211.47 Q1519.59 1213.67 1519.59 1217.47 L1519.59 1232.12 L1515.31 1232.12 L1515.31 1216.61 Q1515.31 1212.86 1513.99 1211.08 Q1512.67 1209.28 1509.92 1209.28 Q1506.65 1209.28 1504.73 1211.5 Q1502.81 1213.7 1502.81 1217.47 L1502.81 1232.12 L1498.53 1232.12 L1498.53 1206.2 L1502.81 1206.2 L1502.81 1210.22 Q1504.27 1207.84 1506.31 1206.71 Q1508.34 1205.57 1511.14 1205.57 Q1513.97 1205.57 1515.93 1207.01 Q1517.93 1208.44 1518.87 1211.17 Z" fill="#000000" fill-rule="nonzero" fill-opacity="1" /><circle clip-path="url(#clip200)" cx="927.622" cy="1266.68" r="20.48" fill="#b22222" fill-rule="evenodd" fill-opacity="1" stroke="#000000" stroke-opacity="1" stroke-width="4.55111"/>
<path clip-path="url(#clip200)" d="M1010.64 1249.4 L1017.6 1249.4 L1026.42 1272.92 L1035.29 1249.4 L1042.26 1249.4 L1042.26 1283.96 L1037.7 1283.96 L1037.7 1253.62 L1028.78 1277.32 L1024.09 1277.32 L1015.17 1253.62 L1015.17 1283.96 L1010.64 1283.96 L1010.64 1249.4 Z" fill="#000000" fill-rule="nonzero" fill-opacity="1" /><path clip-path="url(#clip200)" d="M1063.14 1270.93 Q1057.97 1270.93 1055.98 1272.11 Q1053.99 1273.29 1053.99 1276.14 Q1053.99 1278.41 1055.47 1279.75 Q1056.98 1281.07 1059.55 1281.07 Q1063.09 1281.07 1065.22 1278.57 Q1067.37 1276.05 1067.37 1271.88 L1067.37 1270.93 L1063.14 1270.93 M1071.63 1269.17 L1071.63 1283.96 L1067.37 1283.96 L1067.37 1280.03 Q1065.91 1282.39 1063.74 1283.52 Q1061.56 1284.63 1058.41 1284.63 Q1054.43 1284.63 1052.07 1282.41 Q1049.73 1280.17 1049.73 1276.42 Q1049.73 1272.04 1052.65 1269.82 Q1055.59 1267.6 1061.4 1267.6 L1067.37 1267.6 L1067.37 1267.18 Q1067.37 1264.24 1065.43 1262.64 Q1063.51 1261.02 1060.01 1261.02 Q1057.79 1261.02 1055.68 1261.56 Q1053.58 1262.09 1051.63 1263.15 L1051.63 1259.22 Q1053.97 1258.31 1056.17 1257.87 Q1058.37 1257.41 1060.45 1257.41 Q1066.08 1257.41 1068.85 1260.33 Q1071.63 1263.25 1071.63 1269.17 Z" fill="#000000" fill-rule="nonzero" fill-opacity="1" /><path clip-path="url(#clip200)" d="M1101.96 1258.04 L1092.58 1270.65 L1102.44 1283.96 L1097.42 1283.96 L1089.87 1273.78 L1082.33 1283.96 L1077.3 1283.96 L1087.37 1270.4 L1078.16 1258.04 L1083.18 1258.04 L1090.06 1267.27 L1096.93 1258.04 L1101.96 1258.04 Z" fill="#000000" fill-rule="nonzero" fill-opacity="1" /><path clip-path="url(#clip200)" d="M1128.39 1253.25 L1128.39 1266.23 L1134.27 1266.23 Q1137.53 1266.23 1139.32 1264.54 Q1141.1 1262.85 1141.1 1259.73 Q1141.1 1256.62 1139.32 1254.94 Q1137.53 1253.25 1134.27 1253.25 L1128.39 1253.25 M1123.71 1249.4 L1134.27 1249.4 Q1140.08 1249.4 1143.04 1252.04 Q1146.03 1254.66 1146.03 1259.73 Q1146.03 1264.84 1143.04 1267.46 Q1140.08 1270.07 1134.27 1270.07 L1128.39 1270.07 L1128.39 1283.96 L1123.71 1283.96 L1123.71 1249.4 Z" fill="#000000" fill-rule="nonzero" fill-opacity="1" /><path clip-path="url(#clip200)" d="M1160.47 1261.02 Q1157.05 1261.02 1155.06 1263.71 Q1153.07 1266.37 1153.07 1271.02 Q1153.07 1275.68 1155.03 1278.36 Q1157.02 1281.02 1160.47 1281.02 Q1163.88 1281.02 1165.87 1278.34 Q1167.86 1275.65 1167.86 1271.02 Q1167.86 1266.42 1165.87 1263.73 Q1163.88 1261.02 1160.47 1261.02 M1160.47 1257.41 Q1166.03 1257.41 1169.2 1261.02 Q1172.37 1264.63 1172.37 1271.02 Q1172.37 1277.39 1169.2 1281.02 Q1166.03 1284.63 1160.47 1284.63 Q1154.9 1284.63 1151.72 1281.02 Q1148.58 1277.39 1148.58 1271.02 Q1148.58 1264.63 1151.72 1261.02 Q1154.9 1257.41 1160.47 1257.41 Z" fill="#000000" fill-rule="nonzero" fill-opacity="1" /><path clip-path="url(#clip200)" d="M1176.96 1258.04 L1181.21 1258.04 L1186.54 1278.27 L1191.84 1258.04 L1196.86 1258.04 L1202.19 1278.27 L1207.49 1258.04 L1211.75 1258.04 L1204.96 1283.96 L1199.94 1283.96 L1194.36 1262.71 L1188.76 1283.96 L1183.74 1283.96 L1176.96 1258.04 Z" fill="#000000" fill-rule="nonzero" fill-opacity="1" /><path clip-path="url(#clip200)" d="M1240.38 1269.93 L1240.38 1272.02 L1220.8 1272.02 Q1221.08 1276.42 1223.44 1278.73 Q1225.82 1281.02 1230.06 1281.02 Q1232.51 1281.02 1234.8 1280.42 Q1237.12 1279.82 1239.39 1278.62 L1239.39 1282.64 Q1237.09 1283.62 1234.69 1284.12 Q1232.28 1284.63 1229.8 1284.63 Q1223.6 1284.63 1219.96 1281.02 Q1216.35 1277.41 1216.35 1271.25 Q1216.35 1264.89 1219.78 1261.16 Q1223.23 1257.41 1229.06 1257.41 Q1234.29 1257.41 1237.33 1260.79 Q1240.38 1264.15 1240.38 1269.93 M1236.12 1268.68 Q1236.08 1265.19 1234.15 1263.11 Q1232.26 1261.02 1229.11 1261.02 Q1225.54 1261.02 1223.39 1263.04 Q1221.26 1265.05 1220.94 1268.71 L1236.12 1268.68 Z" fill="#000000" fill-rule="nonzero" fill-opacity="1" /><path clip-path="url(#clip200)" d="M1262.39 1262.02 Q1261.68 1261.6 1260.82 1261.42 Q1259.99 1261.21 1258.97 1261.21 Q1255.36 1261.21 1253.41 1263.57 Q1251.49 1265.91 1251.49 1270.31 L1251.49 1283.96 L1247.21 1283.96 L1247.21 1258.04 L1251.49 1258.04 L1251.49 1262.06 Q1252.83 1259.7 1254.99 1258.57 Q1257.14 1257.41 1260.22 1257.41 Q1260.66 1257.41 1261.19 1257.48 Q1261.72 1257.53 1262.37 1257.64 L1262.39 1262.02 Z" fill="#000000" fill-rule="nonzero" fill-opacity="1" /><path clip-path="url(#clip200)" d="M1267.12 1278.08 L1272 1278.08 L1272 1283.96 L1267.12 1283.96 L1267.12 1278.08 M1267.12 1259.45 L1272 1259.45 L1272 1265.33 L1267.12 1265.33 L1267.12 1259.45 Z" fill="#000000" fill-rule="nonzero" fill-opacity="1" /><path clip-path="url(#clip200)" d="M1298.48 1280.03 L1306.12 1280.03 L1306.12 1253.66 L1297.81 1255.33 L1297.81 1251.07 L1306.07 1249.4 L1310.75 1249.4 L1310.75 1280.03 L1318.39 1280.03 L1318.39 1283.96 L1298.48 1283.96 L1298.48 1280.03 Z" fill="#000000" fill-rule="nonzero" fill-opacity="1" /><path clip-path="url(#clip200)" d="M1331.86 1280.03 L1348.18 1280.03 L1348.18 1283.96 L1326.24 1283.96 L1326.24 1280.03 Q1328.9 1277.27 1333.48 1272.64 Q1338.09 1267.99 1339.27 1266.65 Q1341.51 1264.12 1342.39 1262.39 Q1343.3 1260.63 1343.3 1258.94 Q1343.3 1256.19 1341.35 1254.45 Q1339.43 1252.71 1336.33 1252.71 Q1334.13 1252.71 1331.68 1253.48 Q1329.25 1254.24 1326.47 1255.79 L1326.47 1251.07 Q1329.29 1249.94 1331.75 1249.36 Q1334.2 1248.78 1336.24 1248.78 Q1341.61 1248.78 1344.8 1251.46 Q1348 1254.15 1348 1258.64 Q1348 1260.77 1347.19 1262.69 Q1346.4 1264.59 1344.29 1267.18 Q1343.71 1267.85 1340.61 1271.07 Q1337.51 1274.26 1331.86 1280.03 Z" fill="#000000" fill-rule="nonzero" fill-opacity="1" /><path clip-path="url(#clip200)" d="M1358 1278.08 L1362.88 1278.08 L1362.88 1283.96 L1358 1283.96 L1358 1278.08 Z" fill="#000000" fill-rule="nonzero" fill-opacity="1" /><path clip-path="url(#clip200)" d="M1385.91 1253.48 L1374.11 1271.93 L1385.91 1271.93 L1385.91 1253.48 M1384.69 1249.4 L1390.57 1249.4 L1390.57 1271.93 L1395.5 1271.93 L1395.5 1275.81 L1390.57 1275.81 L1390.57 1283.96 L1385.91 1283.96 L1385.91 1275.81 L1370.31 1275.81 L1370.31 1271.3 L1384.69 1249.4 Z" fill="#000000" fill-rule="nonzero" fill-opacity="1" /><path clip-path="url(#clip200)" d="M1403.27 1249.4 L1421.63 1249.4 L1421.63 1253.34 L1407.56 1253.34 L1407.56 1261.81 Q1408.57 1261.46 1409.59 1261.3 Q1410.61 1261.12 1411.63 1261.12 Q1417.42 1261.12 1420.8 1264.29 Q1424.18 1267.46 1424.18 1272.87 Q1424.18 1278.45 1420.7 1281.56 Q1417.23 1284.63 1410.91 1284.63 Q1408.74 1284.63 1406.47 1284.26 Q1404.22 1283.89 1401.82 1283.15 L1401.82 1278.45 Q1403.9 1279.59 1406.12 1280.14 Q1408.34 1280.7 1410.82 1280.7 Q1414.82 1280.7 1417.16 1278.59 Q1419.5 1276.49 1419.5 1272.87 Q1419.5 1269.26 1417.16 1267.16 Q1414.82 1265.05 1410.82 1265.05 Q1408.94 1265.05 1407.07 1265.47 Q1405.22 1265.88 1403.27 1266.76 L1403.27 1249.4 Z" fill="#000000" fill-rule="nonzero" fill-opacity="1" /><path clip-path="url(#clip200)" d="M1447.69 1247.94 L1451.98 1247.94 L1451.98 1269.22 L1464.69 1258.04 L1470.12 1258.04 L1456.38 1270.17 L1470.7 1283.96 L1465.15 1283.96 L1451.98 1271.3 L1451.98 1283.96 L1447.69 1283.96 L1447.69 1247.94 Z" fill="#000000" fill-rule="nonzero" fill-opacity="1" /><path clip-path="url(#clip200)" d="M1472.42 1249.4 L1477.14 1249.4 L1484.41 1278.62 L1491.65 1249.4 L1496.91 1249.4 L1504.18 1278.62 L1511.42 1249.4 L1516.17 1249.4 L1507.49 1283.96 L1501.61 1283.96 L1494.31 1253.96 L1486.95 1283.96 L1481.07 1283.96 L1472.42 1249.4 Z" fill="#000000" fill-rule="nonzero" fill-opacity="1" /><polyline clip-path="url(#clip200)" style="stroke:#000000; stroke-linecap:round; stroke-linejoin:round; stroke-width:4; stroke-opacity:1; fill:none" points="2134.78,1360.19 2134.78,110.236 "/>
<polyline clip-path="url(#clip200)" style="stroke:#000000; stroke-linecap:round; stroke-linejoin:round; stroke-width:4; stroke-opacity:1; fill:none" points="2134.78,1280.26 2115.88,1280.26 "/>
<polyline clip-path="url(#clip200)" style="stroke:#000000; stroke-linecap:round; stroke-linejoin:round; stroke-width:4; stroke-opacity:1; fill:none" points="2134.78,1072.19 2115.88,1072.19 "/>
<polyline clip-path="url(#clip200)" style="stroke:#000000; stroke-linecap:round; stroke-linejoin:round; stroke-width:4; stroke-opacity:1; fill:none" points="2134.78,864.118 2115.88,864.118 "/>
<polyline clip-path="url(#clip200)" style="stroke:#000000; stroke-linecap:round; stroke-linejoin:round; stroke-width:4; stroke-opacity:1; fill:none" points="2134.78,656.048 2115.88,656.048 "/>
<polyline clip-path="url(#clip200)" style="stroke:#000000; stroke-linecap:round; stroke-linejoin:round; stroke-width:4; stroke-opacity:1; fill:none" points="2134.78,447.978 2115.88,447.978 "/>
<polyline clip-path="url(#clip200)" style="stroke:#000000; stroke-linecap:round; stroke-linejoin:round; stroke-width:4; stroke-opacity:1; fill:none" points="2134.78,239.907 2115.88,239.907 "/>
<path clip-path="url(#clip200)" d="M2170.78 1262.98 L2193 1262.98 L2193 1264.97 L2180.46 1297.54 L2175.57 1297.54 L2187.38 1266.91 L2170.78 1266.91 L2170.78 1262.98 Z" fill="#000000" fill-rule="nonzero" fill-opacity="1" /><path clip-path="url(#clip200)" d="M2182.63 1073.06 Q2179.3 1073.06 2177.38 1074.84 Q2175.48 1076.62 2175.48 1079.75 Q2175.48 1082.87 2177.38 1084.65 Q2179.3 1086.44 2182.63 1086.44 Q2185.97 1086.44 2187.89 1084.65 Q2189.81 1082.85 2189.81 1079.75 Q2189.81 1076.62 2187.89 1074.84 Q2185.99 1073.06 2182.63 1073.06 M2177.96 1071.06 Q2174.95 1070.32 2173.26 1068.26 Q2171.59 1066.2 2171.59 1063.24 Q2171.59 1059.1 2174.53 1056.69 Q2177.49 1054.28 2182.63 1054.28 Q2187.79 1054.28 2190.73 1056.69 Q2193.67 1059.1 2193.67 1063.24 Q2193.67 1066.2 2191.98 1068.26 Q2190.32 1070.32 2187.33 1071.06 Q2190.71 1071.85 2192.59 1074.14 Q2194.48 1076.44 2194.48 1079.75 Q2194.48 1084.77 2191.41 1087.45 Q2188.35 1090.14 2182.63 1090.14 Q2176.91 1090.14 2173.84 1087.45 Q2170.78 1084.77 2170.78 1079.75 Q2170.78 1076.44 2172.68 1074.14 Q2174.58 1071.85 2177.96 1071.06 M2176.24 1063.68 Q2176.24 1066.37 2177.91 1067.87 Q2179.6 1069.38 2182.63 1069.38 Q2185.64 1069.38 2187.33 1067.87 Q2189.04 1066.37 2189.04 1063.68 Q2189.04 1061 2187.33 1059.49 Q2185.64 1057.99 2182.63 1057.99 Q2179.6 1057.99 2177.91 1059.49 Q2176.24 1061 2176.24 1063.68 Z" fill="#000000" fill-rule="nonzero" fill-opacity="1" /><path clip-path="url(#clip200)" d="M2173 880.68 L2173 876.421 Q2174.76 877.254 2176.57 877.694 Q2178.37 878.134 2180.11 878.134 Q2184.74 878.134 2187.17 875.032 Q2189.62 871.907 2189.97 865.564 Q2188.63 867.555 2186.57 868.62 Q2184.51 869.685 2182.01 869.685 Q2176.82 869.685 2173.79 866.56 Q2170.78 863.412 2170.78 857.972 Q2170.78 852.648 2173.93 849.43 Q2177.08 846.213 2182.31 846.213 Q2188.3 846.213 2191.45 850.819 Q2194.62 855.402 2194.62 864.152 Q2194.62 872.324 2190.73 877.208 Q2186.87 882.069 2180.32 882.069 Q2178.56 882.069 2176.75 881.722 Q2174.95 881.374 2173 880.68 M2182.31 866.027 Q2185.46 866.027 2187.28 863.875 Q2189.14 861.722 2189.14 857.972 Q2189.14 854.245 2187.28 852.092 Q2185.46 849.916 2182.31 849.916 Q2179.16 849.916 2177.31 852.092 Q2175.48 854.245 2175.48 857.972 Q2175.48 861.722 2177.31 863.875 Q2179.16 866.027 2182.31 866.027 Z" fill="#000000" fill-rule="nonzero" fill-opacity="1" /><path clip-path="url(#clip200)" d="M2171.45 669.392 L2179.09 669.392 L2179.09 643.027 L2170.78 644.693 L2170.78 640.434 L2179.04 638.768 L2183.72 638.768 L2183.72 669.392 L2191.36 669.392 L2191.36 673.328 L2171.45 673.328 L2171.45 669.392 Z" fill="#000000" fill-rule="nonzero" fill-opacity="1" /><path clip-path="url(#clip200)" d="M2210.8 641.846 Q2207.19 641.846 2205.36 645.411 Q2203.56 648.953 2203.56 656.082 Q2203.56 663.189 2205.36 666.754 Q2207.19 670.295 2210.8 670.295 Q2214.44 670.295 2216.24 666.754 Q2218.07 663.189 2218.07 656.082 Q2218.07 648.953 2216.24 645.411 Q2214.44 641.846 2210.8 641.846 M2210.8 638.143 Q2216.61 638.143 2219.67 642.749 Q2222.75 647.332 2222.75 656.082 Q2222.75 664.809 2219.67 669.416 Q2216.61 673.999 2210.8 673.999 Q2204.99 673.999 2201.91 669.416 Q2198.86 664.809 2198.86 656.082 Q2198.86 647.332 2201.91 642.749 Q2204.99 638.143 2210.8 638.143 Z" fill="#000000" fill-rule="nonzero" fill-opacity="1" /><path clip-path="url(#clip200)" d="M2171.45 461.322 L2179.09 461.322 L2179.09 434.957 L2170.78 436.623 L2170.78 432.364 L2179.04 430.698 L2183.72 430.698 L2183.72 461.322 L2191.36 461.322 L2191.36 465.258 L2171.45 465.258 L2171.45 461.322 Z" fill="#000000" fill-rule="nonzero" fill-opacity="1" /><path clip-path="url(#clip200)" d="M2201.61 461.322 L2209.25 461.322 L2209.25 434.957 L2200.94 436.623 L2200.94 432.364 L2209.21 430.698 L2213.88 430.698 L2213.88 461.322 L2221.52 461.322 L2221.52 465.258 L2201.61 465.258 L2201.61 461.322 Z" fill="#000000" fill-rule="nonzero" fill-opacity="1" /><path clip-path="url(#clip200)" d="M2171.45 253.252 L2179.09 253.252 L2179.09 226.887 L2170.78 228.553 L2170.78 224.294 L2179.04 222.627 L2183.72 222.627 L2183.72 253.252 L2191.36 253.252 L2191.36 257.187 L2171.45 257.187 L2171.45 253.252 Z" fill="#000000" fill-rule="nonzero" fill-opacity="1" /><path clip-path="url(#clip200)" d="M2204.83 253.252 L2221.15 253.252 L2221.15 257.187 L2199.21 257.187 L2199.21 253.252 Q2201.87 250.498 2206.45 245.868 Q2211.06 241.215 2212.24 239.873 Q2214.48 237.35 2215.36 235.614 Q2216.27 233.854 2216.27 232.164 Q2216.27 229.41 2214.32 227.674 Q2212.4 225.938 2209.3 225.938 Q2207.1 225.938 2204.65 226.702 Q2202.22 227.465 2199.44 229.016 L2199.44 224.294 Q2202.26 223.16 2204.72 222.581 Q2207.17 222.002 2209.21 222.002 Q2214.58 222.002 2217.77 224.688 Q2220.97 227.373 2220.97 231.864 Q2220.97 233.993 2220.16 235.914 Q2219.37 237.813 2217.26 240.405 Q2216.68 241.076 2213.58 244.294 Q2210.48 247.488 2204.83 253.252 Z" fill="#000000" fill-rule="nonzero" fill-opacity="1" /><path clip-path="url(#clip200)" d="M2293.08 1012.07 L2310.49 1012.07 L2310.49 1001.76 Q2310.49 996.572 2308.36 994.089 Q2306.19 991.575 2301.77 991.575 Q2297.31 991.575 2295.21 994.089 Q2293.08 996.572 2293.08 1001.76 L2293.08 1012.07 M2273.54 1012.07 L2287.86 1012.07 L2287.86 1002.56 Q2287.86 997.845 2286.11 995.553 Q2284.33 993.23 2280.7 993.23 Q2277.1 993.23 2275.32 995.553 Q2273.54 997.845 2273.54 1002.56 L2273.54 1012.07 M2268.25 1018.5 L2268.25 1002.08 Q2268.25 994.726 2271.31 990.747 Q2274.36 986.769 2280 986.769 Q2284.36 986.769 2286.94 988.806 Q2289.51 990.843 2290.15 994.79 Q2291.17 990.047 2294.41 987.437 Q2297.63 984.795 2302.47 984.795 Q2308.83 984.795 2312.3 989.124 Q2315.77 993.453 2315.77 1001.44 L2315.77 1018.5 L2268.25 1018.5 Z" fill="#000000" fill-rule="nonzero" fill-opacity="1" /><path clip-path="url(#clip200)" d="M2285.6 953.381 Q2285.03 954.367 2284.77 955.545 Q2284.48 956.691 2284.48 958.091 Q2284.48 963.057 2287.73 965.73 Q2290.95 968.372 2296.99 968.372 L2315.77 968.372 L2315.77 974.26 L2280.12 974.26 L2280.12 968.372 L2285.66 968.372 Q2282.42 966.526 2280.86 963.566 Q2279.26 960.606 2279.26 956.373 Q2279.26 955.768 2279.36 955.036 Q2279.42 954.304 2279.58 953.412 L2285.6 953.381 Z" fill="#000000" fill-rule="nonzero" fill-opacity="1" /><path clip-path="url(#clip200)" d="M2297.85 931.037 Q2297.85 938.135 2299.48 940.872 Q2301.1 943.609 2305.01 943.609 Q2308.13 943.609 2309.98 941.572 Q2311.79 939.503 2311.79 935.97 Q2311.79 931.101 2308.36 928.172 Q2304.89 925.212 2299.16 925.212 L2297.85 925.212 L2297.85 931.037 M2295.43 919.356 L2315.77 919.356 L2315.77 925.212 L2310.36 925.212 Q2313.61 927.218 2315.17 930.209 Q2316.69 933.201 2316.69 937.53 Q2316.69 943.005 2313.64 946.251 Q2310.55 949.466 2305.4 949.466 Q2299.38 949.466 2296.32 945.455 Q2293.27 941.413 2293.27 933.424 L2293.27 925.212 L2292.7 925.212 Q2288.65 925.212 2286.46 927.886 Q2284.23 930.528 2284.23 935.334 Q2284.23 938.389 2284.96 941.286 Q2285.69 944.182 2287.16 946.856 L2281.75 946.856 Q2280.51 943.641 2279.9 940.617 Q2279.26 937.594 2279.26 934.729 Q2279.26 926.995 2283.27 923.175 Q2287.29 919.356 2295.43 919.356 Z" fill="#000000" fill-rule="nonzero" fill-opacity="1" /><path clip-path="url(#clip200)" d="M2266.25 907.516 L2266.25 901.627 L2295.5 901.627 L2280.12 884.154 L2280.12 876.674 L2296.8 895.58 L2315.77 875.878 L2315.77 883.517 L2298.36 901.627 L2315.77 901.627 L2315.77 907.516 L2266.25 907.516 Z" fill="#000000" fill-rule="nonzero" fill-opacity="1" /><path clip-path="url(#clip200)" d="M2296.48 841.376 L2299.35 841.376 L2299.35 868.303 Q2305.4 867.921 2308.58 864.675 Q2311.73 861.396 2311.73 855.572 Q2311.73 852.198 2310.9 849.047 Q2310.07 845.864 2308.42 842.745 L2313.96 842.745 Q2315.29 845.896 2315.99 849.206 Q2316.69 852.516 2316.69 855.922 Q2316.69 864.452 2311.73 869.449 Q2306.76 874.414 2298.3 874.414 Q2289.55 874.414 2284.42 869.703 Q2279.26 864.961 2279.26 856.94 Q2279.26 849.747 2283.91 845.577 Q2288.53 841.376 2296.48 841.376 M2294.76 847.232 Q2289.96 847.296 2287.09 849.938 Q2284.23 852.548 2284.23 856.877 Q2284.23 861.778 2287 864.738 Q2289.77 867.666 2294.8 868.112 L2294.76 847.232 Z" fill="#000000" fill-rule="nonzero" fill-opacity="1" /><path clip-path="url(#clip200)" d="M2273.54 804.359 L2291.39 804.359 L2291.39 796.275 Q2291.39 791.787 2289.07 789.336 Q2286.74 786.886 2282.45 786.886 Q2278.18 786.886 2275.86 789.336 Q2273.54 791.787 2273.54 796.275 L2273.54 804.359 M2268.25 810.789 L2268.25 796.275 Q2268.25 788.286 2271.88 784.212 Q2275.48 780.106 2282.45 780.106 Q2289.48 780.106 2293.08 784.212 Q2296.67 788.286 2296.67 796.275 L2296.67 804.359 L2315.77 804.359 L2315.77 810.789 L2268.25 810.789 Z" fill="#000000" fill-rule="nonzero" fill-opacity="1" /><path clip-path="url(#clip200)" d="M2284.23 760.245 Q2284.23 764.956 2287.92 767.693 Q2291.58 770.43 2297.98 770.43 Q2304.38 770.43 2308.07 767.725 Q2311.73 764.988 2311.73 760.245 Q2311.73 755.566 2308.04 752.829 Q2304.35 750.092 2297.98 750.092 Q2291.65 750.092 2287.95 752.829 Q2284.23 755.566 2284.23 760.245 M2279.26 760.245 Q2279.26 752.606 2284.23 748.246 Q2289.19 743.885 2297.98 743.885 Q2306.73 743.885 2311.73 748.246 Q2316.69 752.606 2316.69 760.245 Q2316.69 767.916 2311.73 772.276 Q2306.73 776.605 2297.98 776.605 Q2289.19 776.605 2284.23 772.276 Q2279.26 767.916 2279.26 760.245 Z" fill="#000000" fill-rule="nonzero" fill-opacity="1" /><path clip-path="url(#clip200)" d="M2280.12 737.583 L2280.12 731.727 L2307.94 724.406 L2280.12 717.117 L2280.12 710.211 L2307.94 702.89 L2280.12 695.601 L2280.12 689.745 L2315.77 699.071 L2315.77 705.977 L2286.55 713.648 L2315.77 721.351 L2315.77 728.257 L2280.12 737.583 Z" fill="#000000" fill-rule="nonzero" fill-opacity="1" /><path clip-path="url(#clip200)" d="M2296.48 650.373 L2299.35 650.373 L2299.35 677.3 Q2305.4 676.918 2308.58 673.671 Q2311.73 670.393 2311.73 664.569 Q2311.73 661.195 2310.9 658.044 Q2310.07 654.861 2308.42 651.742 L2313.96 651.742 Q2315.29 654.893 2315.99 658.203 Q2316.69 661.513 2316.69 664.919 Q2316.69 673.449 2311.73 678.446 Q2306.76 683.411 2298.3 683.411 Q2289.55 683.411 2284.42 678.7 Q2279.26 673.958 2279.26 665.937 Q2279.26 658.744 2283.91 654.574 Q2288.53 650.373 2296.48 650.373 M2294.76 656.229 Q2289.96 656.293 2287.09 658.935 Q2284.23 661.545 2284.23 665.874 Q2284.23 670.775 2287 673.735 Q2289.77 676.663 2294.8 677.109 L2294.76 656.229 Z" fill="#000000" fill-rule="nonzero" fill-opacity="1" /><path clip-path="url(#clip200)" d="M2285.6 620.104 Q2285.03 621.091 2284.77 622.268 Q2284.48 623.414 2284.48 624.815 Q2284.48 629.78 2287.73 632.454 Q2290.95 635.095 2296.99 635.095 L2315.77 635.095 L2315.77 640.984 L2280.12 640.984 L2280.12 635.095 L2285.66 635.095 Q2282.42 633.249 2280.86 630.289 Q2279.26 627.329 2279.26 623.096 Q2279.26 622.491 2279.36 621.759 Q2279.42 621.027 2279.58 620.136 L2285.6 620.104 Z" fill="#000000" fill-rule="nonzero" fill-opacity="1" /><path clip-path="url(#clip200)" d="M2266.31 579.173 Q2273.63 583.438 2280.79 585.506 Q2287.95 587.575 2295.31 587.575 Q2302.66 587.575 2309.88 585.506 Q2317.08 583.406 2324.37 579.173 L2324.37 584.265 Q2316.89 589.039 2309.66 591.427 Q2302.44 593.782 2295.31 593.782 Q2288.21 593.782 2281.01 591.427 Q2273.82 589.071 2266.31 584.265 L2266.31 579.173 Z" fill="#000000" fill-rule="nonzero" fill-opacity="1" /><path clip-path="url(#clip200)" d="M2266.25 568.033 L2266.25 562.144 L2295.5 562.144 L2280.12 544.67 L2280.12 537.191 L2296.8 556.097 L2315.77 536.395 L2315.77 544.034 L2298.36 562.144 L2315.77 562.144 L2315.77 568.033 L2266.25 568.033 Z" fill="#000000" fill-rule="nonzero" fill-opacity="1" /><path clip-path="url(#clip200)" d="M2268.25 534.04 L2268.25 527.547 L2308.42 517.553 L2268.25 507.59 L2268.25 500.365 L2308.42 490.371 L2268.25 480.409 L2268.25 473.884 L2315.77 485.819 L2315.77 493.904 L2274.52 503.93 L2315.77 514.051 L2315.77 522.136 L2268.25 534.04 Z" fill="#000000" fill-rule="nonzero" fill-opacity="1" /><path clip-path="url(#clip200)" d="M2266.31 466.531 L2266.31 461.439 Q2273.82 456.665 2281.01 454.309 Q2288.21 451.922 2295.31 451.922 Q2302.44 451.922 2309.66 454.309 Q2316.89 456.665 2324.37 461.439 L2324.37 466.531 Q2317.08 462.298 2309.88 460.229 Q2302.66 458.129 2295.31 458.129 Q2287.95 458.129 2280.79 460.229 Q2273.63 462.298 2266.31 466.531 Z" fill="#000000" fill-rule="nonzero" fill-opacity="1" /><polyline clip-path="url(#clip201)" style="stroke:#ff0000; stroke-linecap:round; stroke-linejoin:round; stroke-width:8; stroke-opacity:1; fill:none" points="319.819,1262.75 672.238,921.401 1024.66,595.57 1377.08,347.317 1729.5,145.612 2081.92,1324.81 "/>
<circle clip-path="url(#clip201)" cx="1729.5" cy="145.612" r="14.4" fill="#b22222" fill-rule="evenodd" fill-opacity="1" stroke="#000000" stroke-opacity="1" stroke-width="3.2"/>
</svg>
