<?xml version="1.0" encoding="utf-8"?>
<svg xmlns="http://www.w3.org/2000/svg" xmlns:xlink="http://www.w3.org/1999/xlink" width="600" height="400" viewBox="0 0 2400 1600">
<defs>
  <clipPath id="clip220">
    <rect x="0" y="0" width="2400" height="1600"/>
  </clipPath>
</defs>
<path clip-path="url(#clip220)" d="M0 1600 L2400 1600 L2400 0 L0 0  Z" fill="#ffffff" fill-rule="evenodd" fill-opacity="1"/>
<defs>
  <clipPath id="clip221">
    <rect x="497" y="280" width="1793" height="1055"/>
  </clipPath>
</defs>
<path clip-path="url(#clip220)" d="M536.532 1334.27 L2289.76 1334.27 L2289.76 280.637 L536.532 280.637  Z" fill="#ffffff" fill-rule="evenodd" fill-opacity="1"/>
<defs>
  <clipPath id="clip222">
    <rect x="536" y="280" width="1754" height="1055"/>
  </clipPath>
</defs>
<polyline clip-path="url(#clip220)" style="stroke:#000000; stroke-linecap:round; stroke-linejoin:round; stroke-width:4; stroke-opacity:1; fill:none" points="536.532,1334.27 2289.76,1334.27 "/>
<polyline clip-path="url(#clip220)" style="stroke:#000000; stroke-linecap:round; stroke-linejoin:round; stroke-width:4; stroke-opacity:1; fill:none" points="586.151,1334.27 586.151,1318 "/>
<polyline clip-path="url(#clip220)" style="stroke:#000000; stroke-linecap:round; stroke-linejoin:round; stroke-width:4; stroke-opacity:1; fill:none" points="962.109,1334.27 962.109,1318 "/>
<polyline clip-path="url(#clip220)" style="stroke:#000000; stroke-linecap:round; stroke-linejoin:round; stroke-width:4; stroke-opacity:1; fill:none" points="1338.07,1334.27 1338.07,1318 "/>
<polyline clip-path="url(#clip220)" style="stroke:#000000; stroke-linecap:round; stroke-linejoin:round; stroke-width:4; stroke-opacity:1; fill:none" points="1714.02,1334.27 1714.02,1318 "/>
<polyline clip-path="url(#clip220)" style="stroke:#000000; stroke-linecap:round; stroke-linejoin:round; stroke-width:4; stroke-opacity:1; fill:none" points="2089.98,1334.27 2089.98,1318 "/>
<path clip-path="url(#clip220)" d="M586.151 1368.12 Q581.638 1368.12 579.352 1372.57 Q577.095 1377 577.095 1385.91 Q577.095 1394.79 579.352 1399.25 Q581.638 1403.68 586.151 1403.68 Q590.694 1403.68 592.951 1399.25 Q595.237 1394.79 595.237 1385.91 Q595.237 1377 592.951 1372.57 Q590.694 1368.12 586.151 1368.12 M586.151 1363.49 Q593.414 1363.49 597.234 1369.24 Q601.082 1374.97 601.082 1385.91 Q601.082 1396.82 597.234 1402.58 Q593.414 1408.31 586.151 1408.31 Q578.889 1408.31 575.04 1402.58 Q571.221 1396.82 571.221 1385.91 Q571.221 1374.97 575.04 1369.24 Q578.889 1363.49 586.151 1363.49 Z" fill="#000000" fill-rule="nonzero" fill-opacity="1" /><path clip-path="url(#clip220)" d="M930.483 1364.27 L953.428 1364.27 L953.428 1369.19 L935.836 1369.19 L935.836 1379.78 Q937.109 1379.34 938.382 1379.14 Q939.655 1378.91 940.928 1378.91 Q948.162 1378.91 952.386 1382.87 Q956.611 1386.84 956.611 1393.61 Q956.611 1400.58 952.271 1404.46 Q947.93 1408.31 940.031 1408.31 Q937.311 1408.31 934.476 1407.84 Q931.669 1407.38 928.66 1406.45 L928.66 1400.58 Q931.264 1402 934.042 1402.69 Q936.819 1403.39 939.915 1403.39 Q944.921 1403.39 947.844 1400.75 Q950.766 1398.12 950.766 1393.61 Q950.766 1389.09 947.844 1386.46 Q944.921 1383.83 939.915 1383.83 Q937.572 1383.83 935.228 1384.35 Q932.913 1384.87 930.483 1385.97 L930.483 1364.27 Z" fill="#000000" fill-rule="nonzero" fill-opacity="1" /><path clip-path="url(#clip220)" d="M980.627 1368.12 Q976.113 1368.12 973.827 1372.57 Q971.57 1377 971.57 1385.91 Q971.57 1394.79 973.827 1399.25 Q976.113 1403.68 980.627 1403.68 Q985.17 1403.68 987.427 1399.25 Q989.713 1394.79 989.713 1385.91 Q989.713 1377 987.427 1372.57 Q985.17 1368.12 980.627 1368.12 M980.627 1363.49 Q987.89 1363.49 991.709 1369.24 Q995.558 1374.97 995.558 1385.91 Q995.558 1396.82 991.709 1402.58 Q987.89 1408.31 980.627 1408.31 Q973.364 1408.31 969.516 1402.58 Q965.697 1396.82 965.697 1385.91 Q965.697 1374.97 969.516 1369.24 Q973.364 1363.49 980.627 1363.49 Z" fill="#000000" fill-rule="nonzero" fill-opacity="1" /><path clip-path="url(#clip220)" d="M1287.57 1402.55 L1297.12 1402.55 L1297.12 1369.59 L1286.74 1371.68 L1286.74 1366.35 L1297.06 1364.27 L1302.91 1364.27 L1302.91 1402.55 L1312.46 1402.55 L1312.46 1407.47 L1287.57 1407.47 L1287.57 1402.55 Z" fill="#000000" fill-rule="nonzero" fill-opacity="1" /><path clip-path="url(#clip220)" d="M1336.76 1368.12 Q1332.25 1368.12 1329.96 1372.57 Q1327.71 1377 1327.71 1385.91 Q1327.71 1394.79 1329.96 1399.25 Q1332.25 1403.68 1336.76 1403.68 Q1341.31 1403.68 1343.56 1399.25 Q1345.85 1394.79 1345.85 1385.91 Q1345.85 1377 1343.56 1372.57 Q1341.31 1368.12 1336.76 1368.12 M1336.76 1363.49 Q1344.03 1363.49 1347.85 1369.24 Q1351.69 1374.97 1351.69 1385.91 Q1351.69 1396.82 1347.85 1402.58 Q1344.03 1408.31 1336.76 1408.31 Q1329.5 1408.31 1325.65 1402.58 Q1321.83 1396.82 1321.83 1385.91 Q1321.83 1374.97 1325.65 1369.24 Q1329.5 1363.49 1336.76 1363.49 Z" fill="#000000" fill-rule="nonzero" fill-opacity="1" /><path clip-path="url(#clip220)" d="M1374.47 1368.12 Q1369.95 1368.12 1367.67 1372.57 Q1365.41 1377 1365.41 1385.91 Q1365.41 1394.79 1367.67 1399.25 Q1369.95 1403.68 1374.47 1403.68 Q1379.01 1403.68 1381.27 1399.25 Q1383.55 1394.79 1383.55 1385.91 Q1383.55 1377 1381.27 1372.57 Q1379.01 1368.12 1374.47 1368.12 M1374.47 1363.49 Q1381.73 1363.49 1385.55 1369.24 Q1389.4 1374.97 1389.4 1385.91 Q1389.4 1396.82 1385.55 1402.58 Q1381.73 1408.31 1374.47 1408.31 Q1367.2 1408.31 1363.36 1402.58 Q1359.54 1396.82 1359.54 1385.91 Q1359.54 1374.97 1363.36 1369.24 Q1367.2 1363.49 1374.47 1363.49 Z" fill="#000000" fill-rule="nonzero" fill-opacity="1" /><path clip-path="url(#clip220)" d="M1663.53 1402.55 L1673.08 1402.55 L1673.08 1369.59 L1662.69 1371.68 L1662.69 1366.35 L1673.02 1364.27 L1678.87 1364.27 L1678.87 1402.55 L1688.42 1402.55 L1688.42 1407.47 L1663.53 1407.47 L1663.53 1402.55 Z" fill="#000000" fill-rule="nonzero" fill-opacity="1" /><path clip-path="url(#clip220)" d="M1700.28 1364.27 L1723.22 1364.27 L1723.22 1369.19 L1705.63 1369.19 L1705.63 1379.78 Q1706.91 1379.34 1708.18 1379.14 Q1709.45 1378.91 1710.72 1378.91 Q1717.96 1378.91 1722.18 1382.87 Q1726.41 1386.84 1726.41 1393.61 Q1726.41 1400.58 1722.07 1404.46 Q1717.73 1408.31 1709.83 1408.31 Q1707.11 1408.31 1704.27 1407.84 Q1701.47 1407.38 1698.46 1406.45 L1698.46 1400.58 Q1701.06 1402 1703.84 1402.69 Q1706.62 1403.39 1709.71 1403.39 Q1714.72 1403.39 1717.64 1400.75 Q1720.56 1398.12 1720.56 1393.61 Q1720.56 1389.09 1717.64 1386.46 Q1714.72 1383.83 1709.71 1383.83 Q1707.37 1383.83 1705.02 1384.35 Q1702.71 1384.87 1700.28 1385.97 L1700.28 1364.27 Z" fill="#000000" fill-rule="nonzero" fill-opacity="1" /><path clip-path="url(#clip220)" d="M1750.42 1368.12 Q1745.91 1368.12 1743.62 1372.57 Q1741.37 1377 1741.37 1385.91 Q1741.37 1394.79 1743.62 1399.25 Q1745.91 1403.68 1750.42 1403.68 Q1754.97 1403.68 1757.22 1399.25 Q1759.51 1394.79 1759.51 1385.91 Q1759.51 1377 1757.22 1372.57 Q1754.97 1368.12 1750.42 1368.12 M1750.42 1363.49 Q1757.69 1363.49 1761.51 1369.24 Q1765.35 1374.97 1765.35 1385.91 Q1765.35 1396.82 1761.51 1402.58 Q1757.69 1408.31 1750.42 1408.31 Q1743.16 1408.31 1739.31 1402.58 Q1735.49 1396.82 1735.49 1385.91 Q1735.49 1374.97 1739.31 1369.24 Q1743.16 1363.49 1750.42 1363.49 Z" fill="#000000" fill-rule="nonzero" fill-opacity="1" /><path clip-path="url(#clip220)" d="M2044.6 1402.55 L2064.99 1402.55 L2064.99 1407.47 L2037.56 1407.47 L2037.56 1402.55 Q2040.89 1399.11 2046.62 1393.32 Q2052.38 1387.5 2053.85 1385.82 Q2056.66 1382.67 2057.76 1380.5 Q2058.89 1378.3 2058.89 1376.19 Q2058.89 1372.75 2056.46 1370.58 Q2054.06 1368.41 2050.18 1368.41 Q2047.43 1368.41 2044.36 1369.36 Q2041.33 1370.32 2037.85 1372.25 L2037.85 1366.35 Q2041.38 1364.93 2044.45 1364.21 Q2047.52 1363.49 2050.06 1363.49 Q2056.78 1363.49 2060.77 1366.84 Q2064.76 1370.2 2064.76 1375.81 Q2064.76 1378.47 2063.75 1380.88 Q2062.77 1383.25 2060.13 1386.49 Q2059.41 1387.33 2055.53 1391.35 Q2051.66 1395.34 2044.6 1402.55 Z" fill="#000000" fill-rule="nonzero" fill-opacity="1" /><path clip-path="url(#clip220)" d="M2089.76 1368.12 Q2085.25 1368.12 2082.96 1372.57 Q2080.71 1377 2080.71 1385.91 Q2080.71 1394.79 2082.96 1399.25 Q2085.25 1403.68 2089.76 1403.68 Q2094.31 1403.68 2096.56 1399.25 Q2098.85 1394.79 2098.85 1385.91 Q2098.85 1377 2096.56 1372.57 Q2094.31 1368.12 2089.76 1368.12 M2089.76 1363.49 Q2097.03 1363.49 2100.85 1369.24 Q2104.69 1374.97 2104.69 1385.91 Q2104.69 1396.82 2100.85 1402.58 Q2097.03 1408.31 2089.76 1408.31 Q2082.5 1408.31 2078.65 1402.58 Q2074.83 1396.82 2074.83 1385.91 Q2074.83 1374.97 2078.65 1369.24 Q2082.5 1363.49 2089.76 1363.49 Z" fill="#000000" fill-rule="nonzero" fill-opacity="1" /><path clip-path="url(#clip220)" d="M2127.47 1368.12 Q2122.95 1368.12 2120.67 1372.57 Q2118.41 1377 2118.41 1385.91 Q2118.41 1394.79 2120.67 1399.25 Q2122.95 1403.68 2127.47 1403.68 Q2132.01 1403.68 2134.27 1399.25 Q2136.55 1394.79 2136.55 1385.91 Q2136.55 1377 2134.27 1372.57 Q2132.01 1368.12 2127.47 1368.12 M2127.47 1363.49 Q2134.73 1363.49 2138.55 1369.24 Q2142.4 1374.97 2142.4 1385.91 Q2142.4 1396.82 2138.55 1402.58 Q2134.73 1408.31 2127.47 1408.31 Q2120.2 1408.31 2116.35 1402.58 Q2112.54 1396.82 2112.54 1385.91 Q2112.54 1374.97 2116.35 1369.24 Q2120.2 1363.49 2127.47 1363.49 Z" fill="#000000" fill-rule="nonzero" fill-opacity="1" /><path clip-path="url(#clip220)" d="M1097.48 1496.22 L1097.48 1493.45 L1099.63 1493.45 Q1104.5 1493.45 1105.6 1492.66 Q1106.74 1491.83 1106.74 1489.19 L1106.74 1442.07 Q1106.74 1439.48 1105.6 1438.69 Q1104.46 1437.86 1099.63 1437.86 L1097.48 1437.86 L1097.48 1435.04 L1146.84 1435.04 L1149.34 1455.29 L1147.1 1455.29 Q1146.49 1450.15 1145.65 1447.25 Q1144.86 1444.31 1143.02 1441.98 Q1141.17 1439.66 1138.06 1438.78 Q1134.98 1437.86 1129.93 1437.86 L1119.13 1437.86 Q1116.05 1437.86 1115.4 1438.51 Q1114.74 1439.13 1114.74 1441.46 L1114.74 1464.21 L1122.47 1464.21 Q1128.57 1464.21 1130.28 1462.01 Q1132 1459.81 1132 1453.67 L1134.24 1453.67 L1134.24 1477.51 L1132 1477.51 Q1132 1471.32 1130.28 1469.17 Q1128.57 1466.97 1122.47 1466.97 L1114.74 1466.97 L1114.74 1489.11 Q1114.74 1491 1115.04 1491.74 Q1115.35 1492.44 1117.24 1492.97 Q1119.13 1493.45 1123.26 1493.45 L1126.24 1493.45 L1126.24 1496.22 Q1122.99 1495.96 1111.14 1495.96 Q1100.64 1495.96 1097.48 1496.22 Z" fill="#000000" fill-rule="nonzero" fill-opacity="1" /><path clip-path="url(#clip220)" d="M1163.12 1496.22 L1163.12 1493.45 Q1167.91 1493.45 1169.01 1492.88 Q1170.15 1492.27 1170.15 1489.37 L1170.15 1465.26 Q1170.15 1461.92 1168.96 1461.09 Q1167.82 1460.25 1163.12 1460.25 L1163.12 1457.44 L1175.64 1456.48 L1175.64 1466.36 Q1176.91 1462.49 1179.59 1459.51 Q1182.31 1456.48 1186.71 1456.48 Q1189.6 1456.48 1191.45 1458.1 Q1193.34 1459.73 1193.34 1461.97 Q1193.34 1463.94 1192.11 1464.95 Q1190.92 1465.92 1189.47 1465.92 Q1187.85 1465.92 1186.71 1464.91 Q1185.61 1463.85 1185.61 1462.05 Q1185.61 1460.96 1186.09 1460.12 Q1186.62 1459.24 1187.01 1458.94 Q1187.41 1458.63 1187.67 1458.54 Q1187.5 1458.45 1186.71 1458.45 Q1181.74 1458.45 1178.89 1463.42 Q1176.08 1468.33 1176.08 1475.36 L1176.08 1489.19 Q1176.08 1491.79 1177.13 1492.62 Q1178.23 1493.45 1182.93 1493.45 L1184.82 1493.45 L1184.82 1496.22 Q1181.22 1495.96 1173.4 1495.96 Q1172.3 1495.96 1170.59 1496 Q1168.88 1496.05 1166.64 1496.13 Q1164.4 1496.22 1163.12 1496.22 Z" fill="#000000" fill-rule="nonzero" fill-opacity="1" /><path clip-path="url(#clip220)" d="M1199.92 1476.41 Q1199.92 1467.94 1205.37 1461.92 Q1210.82 1455.91 1218.63 1455.91 Q1226.54 1455.91 1230.62 1461.04 Q1234.75 1466.18 1234.75 1473.56 Q1234.75 1474.92 1234.4 1475.18 Q1234.05 1475.45 1232.51 1475.45 L1207.39 1475.45 Q1207.39 1484.63 1210.11 1488.93 Q1213.89 1494.95 1220.26 1494.95 Q1221.14 1494.95 1222.19 1494.77 Q1223.24 1494.6 1225.4 1493.85 Q1227.55 1493.06 1229.44 1491 Q1231.32 1488.93 1232.42 1485.68 Q1232.69 1484.41 1233.56 1484.45 Q1234.75 1484.45 1234.75 1485.51 Q1234.75 1486.3 1233.87 1488.1 Q1233.04 1489.85 1231.41 1491.96 Q1229.79 1494.07 1226.63 1495.65 Q1223.51 1497.23 1219.73 1497.23 Q1211.83 1497.23 1205.85 1491.26 Q1199.92 1485.24 1199.92 1476.41 M1207.48 1473.56 L1228.82 1473.56 Q1228.82 1471.67 1228.47 1469.56 Q1228.16 1467.46 1227.2 1464.56 Q1226.27 1461.61 1224.08 1459.77 Q1221.88 1457.93 1218.63 1457.93 Q1217.18 1457.93 1215.6 1458.54 Q1214.07 1459.16 1212.18 1460.65 Q1210.29 1462.14 1208.97 1465.52 Q1207.65 1468.9 1207.48 1473.56 Z" fill="#000000" fill-rule="nonzero" fill-opacity="1" /><path clip-path="url(#clip220)" d="M1239.46 1476.9 Q1239.46 1468.25 1245.39 1462.36 Q1251.32 1456.48 1259.31 1456.48 Q1262.65 1456.48 1265.37 1458.1 Q1268.14 1459.73 1269.32 1461.35 Q1270.55 1462.93 1271.39 1464.64 L1274.77 1456.48 L1276.79 1456.48 L1276.79 1506.85 Q1276.79 1509.75 1277.89 1510.32 Q1279.03 1510.89 1283.77 1510.89 L1283.77 1513.66 Q1274.33 1513.39 1273.63 1513.39 Q1272.75 1513.39 1263.53 1513.66 L1263.53 1510.89 Q1268.31 1510.89 1269.41 1510.27 Q1270.55 1509.7 1270.55 1506.85 L1270.55 1490.73 Q1265.59 1497.19 1258.61 1497.23 Q1250.79 1497.23 1245.13 1491.26 Q1239.46 1485.24 1239.46 1476.9 M1246.93 1476.9 Q1246.93 1484.63 1250.44 1489.94 Q1254 1495.21 1258.96 1495.21 Q1263.84 1495.21 1267.22 1491.57 Q1270.82 1487.61 1270.82 1483.97 L1270.82 1471.32 Q1270.82 1467.1 1267.79 1462.93 Q1264.8 1458.72 1259.88 1458.72 Q1254.74 1458.72 1250.84 1463.9 Q1246.93 1469.08 1246.93 1476.9 Z" fill="#000000" fill-rule="nonzero" fill-opacity="1" /><path clip-path="url(#clip220)" d="M1291.44 1460.25 L1291.44 1457.44 L1304.66 1456.48 L1304.66 1486.34 Q1304.66 1488.49 1304.84 1489.77 Q1305.01 1491 1305.72 1492.44 Q1306.46 1493.89 1308.13 1494.55 Q1309.84 1495.21 1312.57 1495.21 Q1317.44 1495.21 1320.43 1491.21 Q1323.46 1487.22 1323.46 1481.29 L1323.46 1465.26 Q1323.46 1461.92 1322.27 1461.09 Q1321.09 1460.25 1316.43 1460.25 L1316.43 1457.44 L1329.65 1456.48 L1329.65 1488.4 Q1329.65 1491.74 1330.79 1492.62 Q1331.98 1493.45 1336.68 1493.45 L1336.68 1496.22 L1323.72 1497.23 L1323.72 1489.11 Q1319.94 1497.19 1312.13 1497.23 Q1308.17 1497.23 1305.45 1496.22 Q1302.77 1495.21 1301.41 1493.98 Q1300.05 1492.71 1299.3 1490.29 Q1298.6 1487.88 1298.51 1486.38 Q1298.43 1484.89 1298.43 1481.99 L1298.43 1468.51 Q1298.43 1462.4 1297.55 1461.35 Q1296.67 1460.25 1291.44 1460.25 Z" fill="#000000" fill-rule="nonzero" fill-opacity="1" /><path clip-path="url(#clip220)" d="M1341.57 1476.41 Q1341.57 1467.94 1347.02 1461.92 Q1352.46 1455.91 1360.28 1455.91 Q1368.19 1455.91 1372.27 1461.04 Q1376.4 1466.18 1376.4 1473.56 Q1376.4 1474.92 1376.05 1475.18 Q1375.7 1475.45 1374.16 1475.45 L1349.04 1475.45 Q1349.04 1484.63 1351.76 1488.93 Q1355.54 1494.95 1361.91 1494.95 Q1362.78 1494.95 1363.84 1494.77 Q1364.89 1494.6 1367.04 1493.85 Q1369.2 1493.06 1371.09 1491 Q1372.97 1488.93 1374.07 1485.68 Q1374.34 1484.41 1375.21 1484.45 Q1376.4 1484.45 1376.4 1485.51 Q1376.4 1486.3 1375.52 1488.1 Q1374.69 1489.85 1373.06 1491.96 Q1371.44 1494.07 1368.27 1495.65 Q1365.16 1497.23 1361.38 1497.23 Q1353.47 1497.23 1347.5 1491.26 Q1341.57 1485.24 1341.57 1476.41 M1349.13 1473.56 L1370.47 1473.56 Q1370.47 1471.67 1370.12 1469.56 Q1369.81 1467.46 1368.85 1464.56 Q1367.92 1461.61 1365.73 1459.77 Q1363.53 1457.93 1360.28 1457.93 Q1358.83 1457.93 1357.25 1458.54 Q1355.71 1459.16 1353.83 1460.65 Q1351.94 1462.14 1350.62 1465.52 Q1349.3 1468.9 1349.13 1473.56 Z" fill="#000000" fill-rule="nonzero" fill-opacity="1" /><path clip-path="url(#clip220)" d="M1379.31 1496.22 L1379.31 1493.45 Q1384.1 1493.45 1385.2 1492.88 Q1386.29 1492.27 1386.29 1489.37 L1386.29 1465.26 Q1386.29 1461.92 1385.11 1461.09 Q1383.97 1460.25 1379.31 1460.25 L1379.31 1457.44 L1391.96 1456.48 L1391.96 1465.92 Q1396.17 1456.48 1405.27 1456.48 Q1412.03 1456.48 1414.71 1459.81 Q1416.68 1462.05 1417.08 1464.56 Q1417.52 1467.06 1417.52 1473.56 L1417.52 1490.73 Q1417.61 1492.62 1419.06 1493.06 Q1420.5 1493.45 1424.54 1493.45 L1424.54 1496.22 Q1415.37 1495.96 1414.44 1495.96 Q1413.74 1495.96 1404.3 1496.22 L1404.3 1493.45 Q1409.09 1493.45 1410.18 1492.88 Q1411.33 1492.27 1411.33 1489.37 L1411.33 1468.42 Q1411.33 1463.85 1409.92 1461.18 Q1408.52 1458.45 1404.65 1458.45 Q1400 1458.45 1396.26 1462.36 Q1392.53 1466.27 1392.53 1472.86 L1392.53 1489.37 Q1392.53 1492.27 1393.63 1492.88 Q1394.77 1493.45 1399.51 1493.45 L1399.51 1496.22 Q1390.33 1495.96 1389.45 1495.96 Q1388.75 1495.96 1379.31 1496.22 Z" fill="#000000" fill-rule="nonzero" fill-opacity="1" /><path clip-path="url(#clip220)" d="M1436.59 1491.3 Q1430.88 1485.33 1430.88 1476.81 Q1430.88 1468.25 1436.5 1462.1 Q1442.12 1455.91 1450.38 1455.91 Q1455.87 1455.91 1460 1458.54 Q1464.13 1461.13 1464.13 1465.57 Q1464.13 1467.54 1462.94 1468.69 Q1461.8 1469.78 1460 1469.78 Q1458.11 1469.78 1456.97 1468.64 Q1455.87 1467.46 1455.87 1465.65 Q1455.87 1464.86 1456.13 1464.07 Q1456.4 1463.28 1457.36 1462.45 Q1458.37 1461.61 1460.09 1461.48 Q1456.88 1458.19 1450.64 1458.19 Q1450.56 1458.19 1450.47 1458.19 Q1445.9 1458.19 1442.12 1462.49 Q1438.35 1466.8 1438.35 1476.63 Q1438.35 1481.77 1439.58 1485.55 Q1440.85 1489.28 1442.91 1491.21 Q1444.98 1493.15 1447 1494.07 Q1449.02 1494.95 1450.99 1494.95 Q1459.82 1494.95 1462.81 1485.51 Q1463.07 1484.63 1463.95 1484.63 Q1465.14 1484.63 1465.14 1485.51 Q1465.14 1485.94 1464.78 1487.09 Q1464.43 1488.23 1463.34 1490.03 Q1462.24 1491.83 1460.66 1493.41 Q1459.12 1494.95 1456.35 1496.09 Q1453.63 1497.23 1450.2 1497.23 Q1442.3 1497.23 1436.59 1491.3 Z" fill="#000000" fill-rule="nonzero" fill-opacity="1" /><path clip-path="url(#clip220)" d="M1468.26 1507.38 Q1468.26 1505.49 1469.36 1504.48 Q1470.5 1503.51 1472.03 1503.51 Q1473.66 1503.51 1474.71 1504.52 Q1475.81 1505.58 1475.81 1507.29 Q1475.81 1510.63 1472.3 1511.07 Q1474.01 1512.69 1476.51 1512.69 Q1479.19 1512.69 1481.35 1510.71 Q1483.54 1508.74 1484.46 1506.85 Q1485.43 1504.96 1486.79 1501.54 Q1488.06 1498.86 1489.03 1496.22 L1475.55 1463.37 Q1474.67 1461.22 1473.31 1460.74 Q1471.95 1460.25 1468.26 1460.25 L1468.26 1457.44 Q1472.3 1457.71 1477 1457.71 Q1479.76 1457.71 1486.79 1457.44 L1486.79 1460.25 Q1481.74 1460.25 1481.74 1462.58 Q1481.74 1462.84 1482.27 1464.21 L1492.28 1488.4 L1501.37 1466.27 Q1501.9 1465 1501.9 1464.12 Q1501.9 1460.43 1497.68 1460.25 L1497.68 1457.44 Q1503.61 1457.71 1505.5 1457.71 Q1509.19 1457.71 1512.22 1457.44 L1512.22 1460.25 Q1506.2 1460.25 1503.87 1466.01 L1488.02 1504.39 Q1483.72 1514.62 1476.51 1514.67 Q1473.09 1514.67 1470.67 1512.56 Q1468.26 1510.45 1468.26 1507.38 Z" fill="#000000" fill-rule="nonzero" fill-opacity="1" /><path clip-path="url(#clip220)" d="M1538.96 1473.74 Q1538.96 1458.54 1544.62 1446.29 Q1547.04 1441.15 1550.42 1436.85 Q1553.8 1432.54 1556.04 1430.65 Q1558.28 1428.76 1558.89 1428.76 Q1559.77 1428.76 1559.82 1429.64 Q1559.82 1430.08 1558.63 1431.18 Q1544.14 1445.94 1544.18 1473.74 Q1544.18 1501.62 1558.28 1515.81 Q1559.82 1517.35 1559.82 1517.83 Q1559.82 1518.71 1558.89 1518.71 Q1558.28 1518.71 1556.13 1516.91 Q1553.98 1515.11 1550.64 1510.98 Q1547.3 1506.85 1544.88 1501.8 Q1538.96 1489.55 1538.96 1473.74 Z" fill="#000000" fill-rule="nonzero" fill-opacity="1" /><path clip-path="url(#clip220)" d="M1643.8 1435.79 Q1643.8 1437.06 1643.23 1437.33 Q1642.71 1437.59 1640.77 1437.59 Q1637.48 1437.59 1635.99 1438.03 Q1634.54 1438.43 1634.1 1439.13 Q1633.7 1439.79 1633.22 1441.72 L1621.05 1490.29 Q1621.05 1490.34 1620.92 1490.95 Q1620.79 1491.52 1620.79 1491.83 Q1620.79 1492.4 1621.14 1492.75 Q1621.54 1493.1 1622.5 1493.28 Q1623.47 1493.41 1624.22 1493.45 Q1625.01 1493.45 1626.63 1493.45 Q1628.65 1493.45 1628.96 1493.81 Q1629.14 1494.03 1629.14 1494.42 Q1629.14 1495.25 1628.78 1495.69 Q1628.48 1496.09 1628.17 1496.18 Q1627.91 1496.22 1627.38 1496.22 Q1626.46 1496.22 1624.48 1496.13 Q1622.5 1496.05 1621.49 1496.05 L1615.74 1495.96 L1604.32 1496.22 Q1603.09 1496.22 1603.09 1495.21 Q1603.09 1494.33 1603.4 1493.94 Q1603.71 1493.54 1604.01 1493.5 Q1604.37 1493.45 1605.24 1493.45 Q1609.77 1493.45 1611.26 1493.02 Q1612.8 1492.53 1613.41 1490.47 L1619.61 1465.65 L1592.2 1465.65 L1586.05 1490.29 Q1586.05 1490.34 1585.92 1490.95 Q1585.79 1491.52 1585.79 1491.83 Q1585.79 1492.4 1586.14 1492.75 Q1586.54 1493.1 1587.5 1493.28 Q1588.47 1493.41 1589.21 1493.45 Q1590.01 1493.45 1591.63 1493.45 Q1593.65 1493.45 1594 1493.81 Q1594.18 1494.03 1594.18 1494.42 Q1594.18 1495.04 1594 1495.47 Q1593.87 1495.87 1593.52 1496 Q1593.21 1496.13 1592.99 1496.18 Q1592.77 1496.22 1592.38 1496.22 Q1591.45 1496.22 1589.48 1496.13 Q1587.55 1496.05 1586.54 1496.05 L1580.78 1495.96 L1569.36 1496.22 Q1568.09 1496.22 1568.09 1495.21 Q1568.09 1494.33 1568.4 1493.98 Q1568.71 1493.59 1569.1 1493.54 Q1569.5 1493.45 1570.51 1493.45 Q1572.7 1493.45 1574.02 1493.32 Q1575.34 1493.19 1576.17 1493.02 Q1577.05 1492.8 1577.49 1492.18 Q1577.97 1491.57 1578.19 1491.04 Q1578.41 1490.47 1578.72 1489.19 L1590.75 1440.89 Q1591.1 1439.44 1591.1 1439.22 Q1591.1 1438.38 1590.58 1438.16 Q1590.09 1437.9 1588.69 1437.77 L1585.26 1437.59 Q1584.21 1437.59 1583.77 1437.55 Q1583.37 1437.5 1583.07 1437.28 Q1582.76 1437.06 1582.76 1436.58 Q1582.76 1435.97 1582.89 1435.57 Q1583.07 1435.13 1583.37 1435 Q1583.68 1434.87 1583.9 1434.83 Q1584.12 1434.78 1584.47 1434.78 L1596.07 1435.04 L1607.57 1434.78 Q1608.85 1434.78 1608.85 1435.79 Q1608.85 1437.06 1608.27 1437.33 Q1607.7 1437.59 1605.77 1437.59 Q1602.57 1437.59 1601.07 1438.03 Q1599.58 1438.43 1599.1 1439.13 Q1598.66 1439.83 1598.22 1441.72 L1592.9 1462.84 L1620.35 1462.84 L1625.75 1440.89 Q1626.11 1439.3 1626.11 1439.22 Q1626.11 1438.38 1625.58 1438.16 Q1625.1 1437.9 1623.69 1437.77 L1620.26 1437.59 Q1619.21 1437.59 1618.77 1437.55 Q1618.38 1437.5 1618.02 1437.28 Q1617.72 1437.06 1617.72 1436.58 Q1617.72 1435.97 1617.85 1435.57 Q1618.02 1435.13 1618.33 1435 Q1618.64 1434.87 1618.86 1434.83 Q1619.08 1434.78 1619.43 1434.78 L1631.02 1435.04 L1642.57 1434.78 Q1643.8 1434.78 1643.8 1435.79 Z" fill="#000000" fill-rule="nonzero" fill-opacity="1" /><path clip-path="url(#clip220)" d="M1685.6 1457.35 Q1685.6 1457.66 1684.85 1458.98 Q1684.15 1460.25 1681.56 1463.46 Q1678.96 1466.66 1675.1 1470.4 Q1673.65 1471.85 1671.45 1473.87 Q1669.26 1475.89 1667.77 1477.21 L1666.27 1478.52 Q1660.56 1483.35 1655.56 1488.76 Q1655.91 1488.62 1656.52 1488.58 Q1657.14 1488.49 1657.58 1488.49 L1658.02 1488.49 Q1660.3 1488.49 1664.3 1490.03 Q1667.81 1491.17 1669.61 1491.17 Q1671.37 1491.17 1673.3 1490.56 Q1675.23 1489.94 1677.34 1488.14 Q1679.45 1486.34 1680.41 1483.62 Q1680.59 1483.18 1680.68 1483.05 Q1680.77 1482.87 1681.03 1482.69 Q1681.29 1482.48 1681.64 1482.48 Q1682.13 1482.48 1682.43 1482.74 Q1682.74 1483 1682.74 1483.35 Q1682.74 1484.14 1682.13 1485.72 Q1681.56 1487.31 1680.28 1489.28 Q1679.05 1491.26 1677.43 1493.06 Q1675.85 1494.82 1673.47 1496.05 Q1671.1 1497.23 1668.6 1497.23 Q1666.8 1497.23 1665.48 1496.35 Q1664.16 1495.52 1662.85 1493.89 Q1661.05 1491.83 1660.08 1491.17 Q1659.11 1490.47 1657.62 1490.47 Q1653.62 1490.47 1649.98 1496.05 Q1649.58 1496.84 1649.32 1497.01 Q1649.1 1497.23 1648.57 1497.23 Q1647.48 1497.19 1647.48 1496.31 Q1647.48 1495.96 1648.44 1494.42 Q1649.45 1492.84 1651.69 1490.07 Q1653.98 1487.31 1656.74 1484.54 L1664.82 1476.99 Q1673.78 1469.43 1677.34 1465.17 Q1675.85 1465.17 1675.19 1465.13 Q1674.57 1465.08 1673.34 1464.82 Q1672.11 1464.51 1670.4 1463.85 Q1666.4 1462.49 1664.74 1462.49 Q1664.3 1462.49 1663.81 1462.54 Q1663.33 1462.58 1662.23 1462.8 Q1661.18 1463.02 1660.3 1463.46 Q1659.42 1463.85 1658.5 1464.73 Q1657.58 1465.57 1657.09 1466.71 Q1656.96 1467.06 1656.87 1467.24 Q1656.79 1467.41 1656.52 1467.59 Q1656.3 1467.72 1655.95 1467.72 Q1655.42 1467.72 1655.12 1467.41 Q1654.85 1467.1 1654.85 1466.71 Q1654.85 1465.92 1655.64 1464.29 Q1656.44 1462.67 1657.75 1460.91 Q1659.07 1459.11 1661.22 1457.79 Q1663.37 1456.48 1665.75 1456.48 Q1667.15 1456.48 1668.34 1457.09 Q1669.57 1457.71 1670.18 1458.36 Q1670.84 1458.98 1671.94 1460.34 Q1672.86 1461.39 1673.3 1461.83 Q1673.74 1462.27 1674.62 1462.76 Q1675.54 1463.2 1676.55 1463.2 Q1678.22 1463.2 1679.75 1461.92 Q1681.29 1460.6 1683.27 1457.44 Q1683.8 1456.48 1684.63 1456.48 Q1685.6 1456.48 1685.6 1457.35 Z" fill="#000000" fill-rule="nonzero" fill-opacity="1" /><path clip-path="url(#clip220)" d="M1694.28 1517.83 Q1694.28 1517.39 1695.43 1516.29 Q1709.92 1501.54 1709.92 1473.74 Q1709.92 1445.85 1696 1431.75 Q1694.28 1430.13 1694.28 1429.64 Q1694.28 1428.76 1695.16 1428.76 Q1695.78 1428.76 1697.93 1430.57 Q1700.12 1432.37 1703.42 1436.49 Q1706.76 1440.62 1709.22 1445.67 Q1715.14 1457.93 1715.14 1473.74 Q1715.14 1488.93 1709.48 1501.18 Q1707.06 1506.32 1703.68 1510.63 Q1700.3 1514.93 1698.06 1516.82 Q1695.82 1518.71 1695.16 1518.71 Q1694.28 1518.71 1694.28 1517.83 Z" fill="#000000" fill-rule="nonzero" fill-opacity="1" /><polyline clip-path="url(#clip220)" style="stroke:#000000; stroke-linecap:round; stroke-linejoin:round; stroke-width:4; stroke-opacity:1; fill:none" points="536.532,1334.27 536.532,280.637 "/>
<polyline clip-path="url(#clip220)" style="stroke:#000000; stroke-linecap:round; stroke-linejoin:round; stroke-width:4; stroke-opacity:1; fill:none" points="536.532,1324.81 555.429,1324.81 "/>
<polyline clip-path="url(#clip220)" style="stroke:#000000; stroke-linecap:round; stroke-linejoin:round; stroke-width:4; stroke-opacity:1; fill:none" points="536.532,1037.66 555.429,1037.66 "/>
<polyline clip-path="url(#clip220)" style="stroke:#000000; stroke-linecap:round; stroke-linejoin:round; stroke-width:4; stroke-opacity:1; fill:none" points="536.532,750.518 555.429,750.518 "/>
<polyline clip-path="url(#clip220)" style="stroke:#000000; stroke-linecap:round; stroke-linejoin:round; stroke-width:4; stroke-opacity:1; fill:none" points="536.532,463.372 555.429,463.372 "/>
<path clip-path="url(#clip220)" d="M205.358 1349.55 L214.907 1349.55 L214.907 1316.59 L204.519 1318.68 L204.519 1313.35 L214.849 1311.27 L220.694 1311.27 L220.694 1349.55 L230.242 1349.55 L230.242 1354.47 L205.358 1354.47 L205.358 1349.55 Z" fill="#000000" fill-rule="nonzero" fill-opacity="1" /><path clip-path="url(#clip220)" d="M254.548 1315.12 Q250.034 1315.12 247.748 1319.57 Q245.491 1324 245.491 1332.91 Q245.491 1341.8 247.748 1346.25 Q250.034 1350.68 254.548 1350.68 Q259.091 1350.68 261.347 1346.25 Q263.633 1341.8 263.633 1332.91 Q263.633 1324 261.347 1319.57 Q259.091 1315.12 254.548 1315.12 M254.548 1310.49 Q261.81 1310.49 265.63 1316.25 Q269.478 1321.98 269.478 1332.91 Q269.478 1343.82 265.63 1349.58 Q261.81 1355.31 254.548 1355.31 Q247.285 1355.31 243.437 1349.58 Q239.617 1343.82 239.617 1332.91 Q239.617 1321.98 243.437 1316.25 Q247.285 1310.49 254.548 1310.49 Z" fill="#000000" fill-rule="nonzero" fill-opacity="1" /><path clip-path="url(#clip220)" d="M269.478 1303.11 L299.618 1303.11 L299.618 1307.11 L269.478 1307.11 L269.478 1303.11 Z" fill="#000000" fill-rule="nonzero" fill-opacity="1" /><path clip-path="url(#clip220)" d="M322.916 1289.24 L310.926 1307.98 L322.916 1307.98 L322.916 1289.24 M321.67 1285.11 L327.641 1285.11 L327.641 1307.98 L332.649 1307.98 L332.649 1311.93 L327.641 1311.93 L327.641 1320.21 L322.916 1320.21 L322.916 1311.93 L307.07 1311.93 L307.07 1307.35 L321.67 1285.11 Z" fill="#000000" fill-rule="nonzero" fill-opacity="1" /><path clip-path="url(#clip220)" d="M340.501 1314.23 L345.462 1314.23 L345.462 1320.21 L340.501 1320.21 L340.501 1314.23 Z" fill="#000000" fill-rule="nonzero" fill-opacity="1" /><path clip-path="url(#clip220)" d="M365.962 1288.23 Q362.295 1288.23 360.437 1291.85 Q358.604 1295.45 358.604 1302.69 Q358.604 1309.91 360.437 1313.53 Q362.295 1317.13 365.962 1317.13 Q369.653 1317.13 371.487 1313.53 Q373.344 1309.91 373.344 1302.69 Q373.344 1295.45 371.487 1291.85 Q369.653 1288.23 365.962 1288.23 M365.962 1284.47 Q371.863 1284.47 374.966 1289.15 Q378.093 1293.8 378.093 1302.69 Q378.093 1311.55 374.966 1316.23 Q371.863 1320.89 365.962 1320.89 Q360.061 1320.89 356.934 1316.23 Q353.831 1311.55 353.831 1302.69 Q353.831 1293.8 356.934 1289.15 Q360.061 1284.47 365.962 1284.47 Z" fill="#000000" fill-rule="nonzero" fill-opacity="1" /><path clip-path="url(#clip220)" d="M415.05 1294.35 L404.306 1305.14 L415.05 1315.88 L412.253 1318.73 L401.462 1307.93 L390.671 1318.73 L387.897 1315.88 L398.617 1305.14 L387.897 1294.35 L390.671 1291.5 L401.462 1302.29 L412.253 1291.5 L415.05 1294.35 Z" fill="#000000" fill-rule="nonzero" fill-opacity="1" /><path clip-path="url(#clip220)" d="M427.605 1316.21 L435.363 1316.21 L435.363 1289.43 L426.923 1291.12 L426.923 1286.8 L435.316 1285.11 L440.065 1285.11 L440.065 1316.21 L447.823 1316.21 L447.823 1320.21 L427.605 1320.21 L427.605 1316.21 Z" fill="#000000" fill-rule="nonzero" fill-opacity="1" /><path clip-path="url(#clip220)" d="M467.571 1288.23 Q463.904 1288.23 462.046 1291.85 Q460.212 1295.45 460.212 1302.69 Q460.212 1309.91 462.046 1313.53 Q463.904 1317.13 467.571 1317.13 Q471.262 1317.13 473.096 1313.53 Q474.953 1309.91 474.953 1302.69 Q474.953 1295.45 473.096 1291.85 Q471.262 1288.23 467.571 1288.23 M467.571 1284.47 Q473.472 1284.47 476.575 1289.15 Q479.702 1293.8 479.702 1302.69 Q479.702 1311.55 476.575 1316.23 Q473.472 1320.89 467.571 1320.89 Q461.67 1320.89 458.543 1316.23 Q455.44 1311.55 455.44 1302.69 Q455.44 1293.8 458.543 1289.15 Q461.67 1284.47 467.571 1284.47 Z" fill="#000000" fill-rule="nonzero" fill-opacity="1" /><path clip-path="url(#clip220)" d="M496.3 1288.59 Q495.124 1286.56 492.75 1286.56 Q490.375 1286.56 489.2 1288.59 Q488.001 1290.61 488.001 1294.65 Q488.001 1298.72 489.2 1300.74 Q490.375 1302.76 492.75 1302.76 Q495.124 1302.76 496.3 1300.74 Q497.499 1298.72 497.499 1294.65 Q497.499 1290.61 496.3 1288.59 M492.75 1284.47 Q496.535 1284.47 498.533 1287.08 Q500.532 1289.69 500.532 1294.65 Q500.532 1299.64 498.533 1302.24 Q496.535 1304.85 492.75 1304.85 Q488.941 1304.85 486.943 1302.24 Q484.945 1299.64 484.945 1294.65 Q484.945 1289.69 486.943 1287.08 Q488.941 1284.47 492.75 1284.47 Z" fill="#000000" fill-rule="nonzero" fill-opacity="1" /><path clip-path="url(#clip220)" d="M205.358 1062.4 L214.907 1062.4 L214.907 1029.45 L204.519 1031.53 L204.519 1026.21 L214.849 1024.12 L220.694 1024.12 L220.694 1062.4 L230.242 1062.4 L230.242 1067.32 L205.358 1067.32 L205.358 1062.4 Z" fill="#000000" fill-rule="nonzero" fill-opacity="1" /><path clip-path="url(#clip220)" d="M254.548 1027.97 Q250.034 1027.97 247.748 1032.43 Q245.491 1036.85 245.491 1045.77 Q245.491 1054.65 247.748 1059.11 Q250.034 1063.53 254.548 1063.53 Q259.091 1063.53 261.347 1059.11 Q263.633 1054.65 263.633 1045.77 Q263.633 1036.85 261.347 1032.43 Q259.091 1027.97 254.548 1027.97 M254.548 1023.34 Q261.81 1023.34 265.63 1029.1 Q269.478 1034.83 269.478 1045.77 Q269.478 1056.68 265.63 1062.43 Q261.81 1068.16 254.548 1068.16 Q247.285 1068.16 243.437 1062.43 Q239.617 1056.68 239.617 1045.77 Q239.617 1034.83 243.437 1029.1 Q247.285 1023.34 254.548 1023.34 Z" fill="#000000" fill-rule="nonzero" fill-opacity="1" /><path clip-path="url(#clip220)" d="M269.478 1015.97 L299.618 1015.97 L299.618 1019.97 L269.478 1019.97 L269.478 1015.97 Z" fill="#000000" fill-rule="nonzero" fill-opacity="1" /><path clip-path="url(#clip220)" d="M313.959 1029.06 L330.533 1029.06 L330.533 1033.06 L308.246 1033.06 L308.246 1029.06 Q310.949 1026.27 315.604 1021.56 Q320.283 1016.84 321.482 1015.48 Q323.762 1012.91 324.655 1011.15 Q325.572 1009.36 325.572 1007.65 Q325.572 1004.85 323.598 1003.09 Q321.646 1001.32 318.496 1001.32 Q316.263 1001.32 313.77 1002.1 Q311.302 1002.87 308.481 1004.45 L308.481 999.653 Q311.349 998.501 313.841 997.913 Q316.333 997.326 318.402 997.326 Q323.856 997.326 327.101 1000.05 Q330.345 1002.78 330.345 1007.34 Q330.345 1009.5 329.522 1011.45 Q328.723 1013.38 326.583 1016.02 Q325.996 1016.7 322.845 1019.97 Q319.695 1023.21 313.959 1029.06 Z" fill="#000000" fill-rule="nonzero" fill-opacity="1" /><path clip-path="url(#clip220)" d="M340.501 1027.09 L345.462 1027.09 L345.462 1033.06 L340.501 1033.06 L340.501 1027.09 Z" fill="#000000" fill-rule="nonzero" fill-opacity="1" /><path clip-path="url(#clip220)" d="M365.962 1001.09 Q362.295 1001.09 360.437 1004.71 Q358.604 1008.3 358.604 1015.55 Q358.604 1022.76 360.437 1026.38 Q362.295 1029.98 365.962 1029.98 Q369.653 1029.98 371.487 1026.38 Q373.344 1022.76 373.344 1015.55 Q373.344 1008.3 371.487 1004.71 Q369.653 1001.09 365.962 1001.09 M365.962 997.326 Q371.863 997.326 374.966 1002 Q378.093 1006.66 378.093 1015.55 Q378.093 1024.41 374.966 1029.09 Q371.863 1033.74 365.962 1033.74 Q360.061 1033.74 356.934 1029.09 Q353.831 1024.41 353.831 1015.55 Q353.831 1006.66 356.934 1002 Q360.061 997.326 365.962 997.326 Z" fill="#000000" fill-rule="nonzero" fill-opacity="1" /><path clip-path="url(#clip220)" d="M415.05 1007.2 L404.306 1017.99 L415.05 1028.73 L412.253 1031.58 L401.462 1020.79 L390.671 1031.58 L387.897 1028.73 L398.617 1017.99 L387.897 1007.2 L390.671 1004.35 L401.462 1015.15 L412.253 1004.35 L415.05 1007.2 Z" fill="#000000" fill-rule="nonzero" fill-opacity="1" /><path clip-path="url(#clip220)" d="M427.605 1029.06 L435.363 1029.06 L435.363 1002.29 L426.923 1003.98 L426.923 999.653 L435.316 997.96 L440.065 997.96 L440.065 1029.06 L447.823 1029.06 L447.823 1033.06 L427.605 1033.06 L427.605 1029.06 Z" fill="#000000" fill-rule="nonzero" fill-opacity="1" /><path clip-path="url(#clip220)" d="M467.571 1001.09 Q463.904 1001.09 462.046 1004.71 Q460.212 1008.3 460.212 1015.55 Q460.212 1022.76 462.046 1026.38 Q463.904 1029.98 467.571 1029.98 Q471.262 1029.98 473.096 1026.38 Q474.953 1022.76 474.953 1015.55 Q474.953 1008.3 473.096 1004.71 Q471.262 1001.09 467.571 1001.09 M467.571 997.326 Q473.472 997.326 476.575 1002 Q479.702 1006.66 479.702 1015.55 Q479.702 1024.41 476.575 1029.09 Q473.472 1033.74 467.571 1033.74 Q461.67 1033.74 458.543 1029.09 Q455.44 1024.41 455.44 1015.55 Q455.44 1006.66 458.543 1002 Q461.67 997.326 467.571 997.326 Z" fill="#000000" fill-rule="nonzero" fill-opacity="1" /><path clip-path="url(#clip220)" d="M496.3 1001.44 Q495.124 999.418 492.75 999.418 Q490.375 999.418 489.2 1001.44 Q488.001 1003.46 488.001 1007.51 Q488.001 1011.57 489.2 1013.59 Q490.375 1015.62 492.75 1015.62 Q495.124 1015.62 496.3 1013.59 Q497.499 1011.57 497.499 1007.51 Q497.499 1003.46 496.3 1001.44 M492.75 997.326 Q496.535 997.326 498.533 999.935 Q500.532 1002.54 500.532 1007.51 Q500.532 1012.49 498.533 1015.1 Q496.535 1017.71 492.75 1017.71 Q488.941 1017.71 486.943 1015.1 Q484.945 1012.49 484.945 1007.51 Q484.945 1002.54 486.943 999.935 Q488.941 997.326 492.75 997.326 Z" fill="#000000" fill-rule="nonzero" fill-opacity="1" /><path clip-path="url(#clip220)" d="M412.15 775.259 L421.698 775.259 L421.698 742.302 L411.31 744.385 L411.31 739.061 L421.64 736.978 L427.485 736.978 L427.485 775.259 L437.034 775.259 L437.034 780.178 L412.15 780.178 L412.15 775.259 Z" fill="#000000" fill-rule="nonzero" fill-opacity="1" /><path clip-path="url(#clip220)" d="M461.339 740.826 Q456.825 740.826 454.539 745.282 Q452.282 749.709 452.282 758.621 Q452.282 767.504 454.539 771.96 Q456.825 776.387 461.339 776.387 Q465.882 776.387 468.139 771.96 Q470.425 767.504 470.425 758.621 Q470.425 749.709 468.139 745.282 Q465.882 740.826 461.339 740.826 M461.339 736.196 Q468.602 736.196 472.421 741.954 Q476.27 747.683 476.27 758.621 Q476.27 769.529 472.421 775.287 Q468.602 781.017 461.339 781.017 Q454.076 781.017 450.228 775.287 Q446.409 769.529 446.409 758.621 Q446.409 747.683 450.228 741.954 Q454.076 736.196 461.339 736.196 Z" fill="#000000" fill-rule="nonzero" fill-opacity="1" /><path clip-path="url(#clip220)" d="M488.401 713.941 Q484.733 713.941 482.876 717.562 Q481.042 721.159 481.042 728.4 Q481.042 735.617 482.876 739.238 Q484.733 742.835 488.401 742.835 Q492.092 742.835 493.925 739.238 Q495.783 735.617 495.783 728.4 Q495.783 721.159 493.925 717.562 Q492.092 713.941 488.401 713.941 M488.401 710.18 Q494.302 710.18 497.405 714.858 Q500.532 719.513 500.532 728.4 Q500.532 737.263 497.405 741.941 Q494.302 746.596 488.401 746.596 Q482.5 746.596 479.373 741.941 Q476.27 737.263 476.27 728.4 Q476.27 719.513 479.373 714.858 Q482.5 710.18 488.401 710.18 Z" fill="#000000" fill-rule="nonzero" fill-opacity="1" /><path clip-path="url(#clip220)" d="M244.126 488.113 L253.674 488.113 L253.674 455.156 L243.287 457.239 L243.287 451.915 L253.616 449.832 L259.461 449.832 L259.461 488.113 L269.01 488.113 L269.01 493.032 L244.126 493.032 L244.126 488.113 Z" fill="#000000" fill-rule="nonzero" fill-opacity="1" /><path clip-path="url(#clip220)" d="M293.315 453.68 Q288.801 453.68 286.516 458.136 Q284.259 462.563 284.259 471.475 Q284.259 480.358 286.516 484.814 Q288.801 489.241 293.315 489.241 Q297.858 489.241 300.115 484.814 Q302.401 480.358 302.401 471.475 Q302.401 462.563 300.115 458.136 Q297.858 453.68 293.315 453.68 M293.315 449.05 Q300.578 449.05 304.397 454.809 Q308.246 460.538 308.246 471.475 Q308.246 482.384 304.397 488.142 Q300.578 493.871 293.315 493.871 Q286.053 493.871 282.204 488.142 Q278.385 482.384 278.385 471.475 Q278.385 460.538 282.204 454.809 Q286.053 449.05 293.315 449.05 Z" fill="#000000" fill-rule="nonzero" fill-opacity="1" /><path clip-path="url(#clip220)" d="M313.959 454.772 L330.533 454.772 L330.533 458.769 L308.246 458.769 L308.246 454.772 Q310.949 451.974 315.604 447.272 Q320.283 442.547 321.482 441.183 Q323.762 438.621 324.655 436.858 Q325.572 435.071 325.572 433.355 Q325.572 430.557 323.598 428.794 Q321.646 427.031 318.496 427.031 Q316.263 427.031 313.77 427.806 Q311.302 428.582 308.481 430.157 L308.481 425.361 Q311.349 424.209 313.841 423.622 Q316.333 423.034 318.402 423.034 Q323.856 423.034 327.101 425.761 Q330.345 428.488 330.345 433.049 Q330.345 435.212 329.522 437.163 Q328.723 439.091 326.583 441.724 Q325.996 442.406 322.845 445.674 Q319.695 448.918 313.959 454.772 Z" fill="#000000" fill-rule="nonzero" fill-opacity="1" /><path clip-path="url(#clip220)" d="M340.501 452.797 L345.462 452.797 L345.462 458.769 L340.501 458.769 L340.501 452.797 Z" fill="#000000" fill-rule="nonzero" fill-opacity="1" /><path clip-path="url(#clip220)" d="M365.962 426.795 Q362.295 426.795 360.437 430.416 Q358.604 434.013 358.604 441.254 Q358.604 448.471 360.437 452.092 Q362.295 455.689 365.962 455.689 Q369.653 455.689 371.487 452.092 Q373.344 448.471 373.344 441.254 Q373.344 434.013 371.487 430.416 Q369.653 426.795 365.962 426.795 M365.962 423.034 Q371.863 423.034 374.966 427.712 Q378.093 432.367 378.093 441.254 Q378.093 450.117 374.966 454.796 Q371.863 459.45 365.962 459.45 Q360.061 459.45 356.934 454.796 Q353.831 450.117 353.831 441.254 Q353.831 432.367 356.934 427.712 Q360.061 423.034 365.962 423.034 Z" fill="#000000" fill-rule="nonzero" fill-opacity="1" /><path clip-path="url(#clip220)" d="M415.05 432.908 L404.306 443.699 L415.05 454.443 L412.253 457.288 L401.462 446.497 L390.671 457.288 L387.897 454.443 L398.617 443.699 L387.897 432.908 L390.671 430.063 L401.462 440.854 L412.253 430.063 L415.05 432.908 Z" fill="#000000" fill-rule="nonzero" fill-opacity="1" /><path clip-path="url(#clip220)" d="M427.605 454.772 L435.363 454.772 L435.363 427.994 L426.923 429.687 L426.923 425.361 L435.316 423.669 L440.065 423.669 L440.065 454.772 L447.823 454.772 L447.823 458.769 L427.605 458.769 L427.605 454.772 Z" fill="#000000" fill-rule="nonzero" fill-opacity="1" /><path clip-path="url(#clip220)" d="M467.571 426.795 Q463.904 426.795 462.046 430.416 Q460.212 434.013 460.212 441.254 Q460.212 448.471 462.046 452.092 Q463.904 455.689 467.571 455.689 Q471.262 455.689 473.096 452.092 Q474.953 448.471 474.953 441.254 Q474.953 434.013 473.096 430.416 Q471.262 426.795 467.571 426.795 M467.571 423.034 Q473.472 423.034 476.575 427.712 Q479.702 432.367 479.702 441.254 Q479.702 450.117 476.575 454.796 Q473.472 459.45 467.571 459.45 Q461.67 459.45 458.543 454.796 Q455.44 450.117 455.44 441.254 Q455.44 432.367 458.543 427.712 Q461.67 423.034 467.571 423.034 Z" fill="#000000" fill-rule="nonzero" fill-opacity="1" /><path clip-path="url(#clip220)" d="M496.3 427.148 Q495.124 425.126 492.75 425.126 Q490.375 425.126 489.2 427.148 Q488.001 429.17 488.001 433.214 Q488.001 437.281 489.2 439.303 Q490.375 441.324 492.75 441.324 Q495.124 441.324 496.3 439.303 Q497.499 437.281 497.499 433.214 Q497.499 429.17 496.3 427.148 M492.75 423.034 Q496.535 423.034 498.533 425.644 Q500.532 428.253 500.532 433.214 Q500.532 438.198 498.533 440.807 Q496.535 443.417 492.75 443.417 Q488.941 443.417 486.943 440.807 Q484.945 438.198 484.945 433.214 Q484.945 428.253 486.943 425.644 Q488.941 423.034 492.75 423.034 Z" fill="#000000" fill-rule="nonzero" fill-opacity="1" /><path clip-path="url(#clip220)" d="M157.471 1239.71 L154.705 1239.71 L154.705 1237.56 Q154.705 1232.68 153.914 1231.58 Q153.08 1230.44 150.445 1230.44 L103.058 1230.44 Q100.467 1230.44 99.6766 1231.58 Q98.8421 1232.73 98.8421 1237.56 L98.8421 1239.71 L96.0314 1239.71 L96.0314 1207.96 Q96.0314 1198.87 101.038 1192.81 Q106.045 1186.74 112.764 1186.74 Q119.439 1186.74 124.27 1192.94 Q129.057 1199.09 129.057 1207.25 L129.057 1222.45 L150.445 1222.45 Q153.036 1222.45 153.87 1221.35 Q154.705 1220.21 154.705 1215.33 L154.705 1213.18 L157.471 1213.18 Q157.208 1216.34 157.208 1226.49 Q157.208 1236.55 157.471 1239.71 M126.729 1222.71 L126.729 1210.33 Q126.729 1206.29 125.588 1203.35 Q124.446 1200.4 123.084 1199.09 Q121.679 1197.72 119.439 1196.98 Q117.156 1196.19 115.926 1196.1 Q114.652 1196.01 112.764 1196.01 Q110.788 1196.01 109.558 1196.1 Q108.284 1196.19 106.045 1196.98 Q103.761 1197.72 102.399 1199.09 Q100.994 1200.4 99.9401 1203.35 Q98.8421 1206.24 98.8421 1210.33 L98.8421 1218.32 Q98.8421 1221.4 99.457 1222.05 Q100.072 1222.71 102.443 1222.71 L126.729 1222.71 Z" fill="#000000" fill-rule="nonzero" fill-opacity="1" /><path clip-path="url(#clip220)" d="M152.641 1166.78 Q146.756 1172.71 138.236 1172.71 Q129.672 1172.71 123.436 1166.91 Q117.156 1161.07 117.156 1152.73 Q117.156 1144.56 123.392 1138.72 Q129.584 1132.83 138.236 1132.83 Q146.712 1132.83 152.597 1138.76 Q158.482 1144.65 158.482 1152.81 Q158.482 1160.81 152.641 1166.78 M137.489 1165.24 Q146.229 1165.24 150.181 1162.96 Q156.198 1159.45 156.198 1152.73 Q156.198 1149.39 154.397 1146.62 Q152.597 1143.81 149.566 1142.27 Q145.614 1140.3 137.489 1140.3 Q128.838 1140.3 125.017 1142.67 Q119.176 1146.18 119.176 1152.81 Q119.176 1155.71 120.713 1158.57 Q122.206 1161.38 125.192 1163.09 Q129.145 1165.24 137.489 1165.24 Z" fill="#000000" fill-rule="nonzero" fill-opacity="1" /><path clip-path="url(#clip220)" d="M121.503 1130.11 L118.693 1130.11 Q118.956 1125.23 118.956 1121.77 Q118.956 1120.05 118.693 1111.93 L121.503 1111.93 Q121.503 1117.24 123.919 1117.24 Q124.446 1117.24 125.544 1116.8 L149.566 1108.24 L127.783 1100.51 Q123.392 1102.13 122.865 1102.57 Q121.503 1103.67 121.503 1108.24 L118.693 1108.24 Q118.956 1104.2 118.956 1100.25 Q118.956 1098.71 118.693 1090.89 L121.503 1090.89 Q121.503 1096.21 123.919 1096.21 Q124.27 1096.21 125.632 1095.77 L150.708 1086.85 L127.696 1078.68 Q126.51 1078.24 125.807 1078.2 Q123.831 1078.2 122.733 1079.6 Q121.591 1081.01 121.503 1083.43 L118.693 1083.43 Q118.956 1078.29 118.956 1075.08 Q118.956 1071.48 118.693 1068.49 L121.503 1068.49 Q121.679 1074.07 127.256 1076.05 L156.769 1086.59 Q158.394 1087.6 158.482 1088.39 Q158.482 1089.57 156.769 1090.19 L131.209 1099.37 L156.681 1108.46 Q157.779 1108.81 158.13 1109.12 Q158.482 1109.42 158.482 1110.26 Q158.482 1111.05 157.998 1111.4 Q157.559 1111.75 156.461 1112.15 L124.621 1123.48 Q122.557 1124.27 122.03 1125.45 Q121.503 1126.6 121.503 1130.11 Z" fill="#000000" fill-rule="nonzero" fill-opacity="1" /><path clip-path="url(#clip220)" d="M137.665 1062.35 Q129.189 1062.35 123.172 1056.9 Q117.156 1051.46 117.156 1043.64 Q117.156 1035.73 122.294 1031.65 Q127.432 1027.52 134.81 1027.52 Q136.172 1027.52 136.435 1027.87 Q136.699 1028.23 136.699 1029.76 L136.699 1054.88 Q145.877 1054.88 150.181 1052.16 Q156.198 1048.38 156.198 1042.01 Q156.198 1041.14 156.022 1040.08 Q155.847 1039.03 155.1 1036.88 Q154.309 1034.72 152.245 1032.84 Q150.181 1030.95 146.931 1029.85 Q145.658 1029.59 145.702 1028.71 Q145.702 1027.52 146.756 1027.52 Q147.546 1027.52 149.347 1028.4 Q151.103 1029.24 153.211 1030.86 Q155.32 1032.48 156.901 1035.65 Q158.482 1038.77 158.482 1042.54 Q158.482 1050.45 152.509 1056.42 Q146.492 1062.35 137.665 1062.35 M134.81 1054.79 L134.81 1033.45 Q132.922 1033.45 130.814 1033.8 Q128.706 1034.11 125.807 1035.08 Q122.865 1036 121.02 1038.19 Q119.176 1040.39 119.176 1043.64 Q119.176 1045.09 119.791 1046.67 Q120.405 1048.21 121.899 1050.1 Q123.392 1051.98 126.773 1053.3 Q130.155 1054.62 134.81 1054.79 Z" fill="#000000" fill-rule="nonzero" fill-opacity="1" /><path clip-path="url(#clip220)" d="M157.471 1024.61 L154.705 1024.61 Q154.705 1019.82 154.134 1018.73 Q153.519 1017.58 150.62 1017.58 L126.51 1017.58 Q123.172 1017.58 122.338 1018.77 Q121.503 1019.91 121.503 1024.61 L118.693 1024.61 L117.726 1012.1 L127.608 1012.1 Q123.743 1010.82 120.757 1008.14 Q117.726 1005.42 117.726 1001.03 Q117.726 998.129 119.351 996.285 Q120.976 994.397 123.216 994.397 Q125.192 994.397 126.202 995.626 Q127.169 996.812 127.169 998.261 Q127.169 999.886 126.159 1001.03 Q125.105 1002.13 123.304 1002.13 Q122.206 1002.13 121.372 1001.64 Q120.493 1001.12 120.186 1000.72 Q119.878 1000.33 119.791 1000.06 Q119.703 1000.24 119.703 1001.03 Q119.703 1005.99 124.665 1008.85 Q129.584 1011.66 136.611 1011.66 L150.445 1011.66 Q153.036 1011.66 153.87 1010.6 Q154.705 1009.5 154.705 1004.8 L154.705 1002.92 L157.471 1002.92 Q157.208 1006.52 157.208 1014.33 Q157.208 1015.43 157.252 1017.15 Q157.296 1018.86 157.384 1021.1 Q157.471 1023.34 157.471 1024.61 Z" fill="#000000" fill-rule="nonzero" fill-opacity="1" /><path clip-path="url(#clip220)" d="M157.296 950.204 L139.29 950.204 Q138.28 950.204 137.928 950.16 Q137.577 950.116 137.314 949.853 Q137.05 949.589 137.05 949.062 Q137.05 948.052 137.972 947.964 Q146.887 947.701 151.806 942.387 Q156.681 937.161 156.681 928.202 Q156.681 922.8 152.816 919.462 Q148.908 916.124 143.813 916.124 Q138.938 916.124 135.513 918.935 Q133.976 920.121 133.01 921.614 Q132 923.063 131.692 923.985 Q131.385 924.864 130.946 926.577 Q128.267 937.732 127.959 938.434 Q126.159 943.748 121.635 946.998 Q117.068 950.204 111.49 950.204 Q104.288 950.204 99.1935 945.154 Q94.0552 940.059 94.0552 932.681 Q94.0552 928.992 95.2409 925.918 Q96.3828 922.8 97.4368 921.526 Q98.4908 920.253 100.379 918.276 L95.2409 915.158 Q94.0552 914.455 94.0552 913.797 Q94.0552 913.094 94.4943 912.962 Q94.8896 912.787 96.2071 912.787 L114.301 912.787 Q115.311 912.787 115.662 912.831 Q116.014 912.874 116.233 913.182 Q116.453 913.445 116.453 913.972 Q116.453 914.851 115.399 915.07 Q96.6024 917.574 96.6024 932.593 Q96.6024 937.732 100.072 941.113 Q103.497 944.451 108.372 944.451 Q112.325 944.451 115.575 941.991 Q118.78 939.532 119.791 935.36 L122.557 923.854 Q123.919 918.101 129.013 914.236 Q134.108 910.371 140.739 910.371 Q148.381 910.371 153.914 915.378 Q159.448 920.34 159.448 928.114 Q159.448 933.691 157.603 937.995 Q155.759 942.299 153.168 944.626 Q156.154 946.427 157.823 947.613 L158.262 947.876 Q159.448 948.579 159.448 949.238 Q159.448 949.94 159.009 950.072 Q158.569 950.204 157.296 950.204 Z" fill="#000000" fill-rule="nonzero" fill-opacity="1" /><path clip-path="url(#clip220)" d="M172.14 904.033 Q172.14 899.246 171.525 898.149 Q170.954 897.007 168.099 897.007 L125.983 897.007 Q122.997 897.007 122.25 898.149 Q121.503 899.246 121.503 904.033 L118.693 904.033 L117.726 891.078 L123.655 891.078 Q117.726 885.676 117.726 878.474 Q117.726 870.832 123.655 865.255 Q129.584 859.677 138.06 859.677 Q146.624 859.677 152.553 865.606 Q158.482 871.535 158.482 879.747 Q158.482 884.227 156.198 887.257 Q153.87 890.243 152.157 890.814 L152.992 890.814 L168.099 890.814 Q170.998 890.814 171.569 889.673 Q172.14 888.531 172.14 883.788 L174.907 883.788 Q174.643 893.23 174.643 893.933 Q174.643 894.811 174.907 904.033 L172.14 904.033 M147.239 890.814 Q148.6 890.814 149.083 890.639 Q149.566 890.419 151.016 889.541 Q156.461 885.984 156.461 880.186 Q156.461 880.143 156.461 880.099 Q156.461 874.96 151.235 871.052 Q145.965 867.143 138.06 867.143 Q130.506 867.143 125.236 870.7 Q119.966 874.258 119.966 879.176 Q119.966 882.69 121.855 885.764 Q123.743 888.838 127.169 890.814 L147.239 890.814 Z" fill="#000000" fill-rule="nonzero" fill-opacity="1" /><path clip-path="url(#clip220)" d="M137.665 847.423 Q129.189 847.423 123.172 841.977 Q117.156 836.531 117.156 828.714 Q117.156 820.809 122.294 816.725 Q127.432 812.597 134.81 812.597 Q136.172 812.597 136.435 812.948 Q136.699 813.299 136.699 814.836 L136.699 839.957 Q145.877 839.957 150.181 837.234 Q156.198 833.457 156.198 827.089 Q156.198 826.211 156.022 825.157 Q155.847 824.103 155.1 821.951 Q154.309 819.799 152.245 817.911 Q150.181 816.022 146.931 814.924 Q145.658 814.661 145.702 813.782 Q145.702 812.597 146.756 812.597 Q147.546 812.597 149.347 813.475 Q151.103 814.309 153.211 815.934 Q155.32 817.559 156.901 820.721 Q158.482 823.839 158.482 827.616 Q158.482 835.521 152.509 841.494 Q146.492 847.423 137.665 847.423 M134.81 839.869 L134.81 818.525 Q132.922 818.525 130.814 818.877 Q128.706 819.184 125.807 820.15 Q122.865 821.073 121.02 823.269 Q119.176 825.464 119.176 828.714 Q119.176 830.164 119.791 831.745 Q120.405 833.282 121.899 835.17 Q123.392 837.058 126.773 838.376 Q130.155 839.694 134.81 839.869 Z" fill="#000000" fill-rule="nonzero" fill-opacity="1" /><path clip-path="url(#clip220)" d="M152.553 802.177 Q146.58 807.886 138.06 807.886 Q129.496 807.886 123.348 802.264 Q117.156 796.643 117.156 788.387 Q117.156 782.897 119.791 778.769 Q122.382 774.641 126.817 774.641 Q128.794 774.641 129.935 775.826 Q131.033 776.968 131.033 778.769 Q131.033 780.657 129.892 781.799 Q128.706 782.897 126.905 782.897 Q126.115 782.897 125.324 782.633 Q124.534 782.37 123.699 781.404 Q122.865 780.394 122.733 778.681 Q119.439 781.887 119.439 788.123 Q119.439 788.211 119.439 788.299 Q119.439 792.866 123.743 796.643 Q128.047 800.42 137.884 800.42 Q143.023 800.42 146.8 799.19 Q150.533 797.917 152.465 795.853 Q154.397 793.788 155.32 791.768 Q156.198 789.748 156.198 787.772 Q156.198 778.944 146.756 775.958 Q145.877 775.695 145.877 774.816 Q145.877 773.63 146.756 773.63 Q147.195 773.63 148.337 773.982 Q149.479 774.333 151.279 775.431 Q153.08 776.529 154.661 778.11 Q156.198 779.647 157.34 782.414 Q158.482 785.137 158.482 788.562 Q158.482 796.467 152.553 802.177 Z" fill="#000000" fill-rule="nonzero" fill-opacity="1" /><path clip-path="url(#clip220)" d="M121.503 770.509 L119.527 770.509 Q119.351 766.38 116.453 763.658 Q113.51 760.891 109.909 759.969 Q106.308 759.002 102.136 758.915 L102.136 756.675 L118.693 756.675 L118.693 743.807 L121.503 743.807 L121.503 756.675 L146.492 756.675 Q156.198 756.675 156.198 750.614 Q156.198 748.023 153.563 746.31 Q150.884 744.598 146.141 744.598 L141.178 744.598 L141.178 742.358 L146.317 742.358 Q151.191 742.358 154.836 744.598 Q158.482 746.837 158.482 751.273 Q158.482 752.898 158.042 754.523 Q157.647 756.104 156.593 758.212 Q155.495 760.276 152.86 761.594 Q150.181 762.867 146.317 762.867 L121.503 762.867 L121.503 770.509 Z" fill="#000000" fill-rule="nonzero" fill-opacity="1" /><path clip-path="url(#clip220)" d="M157.471 737.054 L154.705 737.054 Q154.705 732.267 154.134 731.169 Q153.519 730.027 150.62 730.027 L126.51 730.027 Q123.172 730.027 122.338 731.213 Q121.503 732.354 121.503 737.054 L118.693 737.054 L117.726 724.537 L127.608 724.537 Q123.743 723.264 120.757 720.585 Q117.726 717.862 117.726 713.47 Q117.726 710.572 119.351 708.727 Q120.976 706.839 123.216 706.839 Q125.192 706.839 126.202 708.068 Q127.169 709.254 127.169 710.703 Q127.169 712.328 126.159 713.47 Q125.105 714.568 123.304 714.568 Q122.206 714.568 121.372 714.085 Q120.493 713.558 120.186 713.163 Q119.878 712.767 119.791 712.504 Q119.703 712.68 119.703 713.47 Q119.703 718.433 124.665 721.287 Q129.584 724.098 136.611 724.098 L150.445 724.098 Q153.036 724.098 153.87 723.044 Q154.705 721.946 154.705 717.247 L154.705 715.358 L157.471 715.358 Q157.208 718.96 157.208 726.777 Q157.208 727.875 157.252 729.588 Q157.296 731.3 157.384 733.54 Q157.471 735.78 157.471 737.054 Z" fill="#000000" fill-rule="nonzero" fill-opacity="1" /><path clip-path="url(#clip220)" d="M121.503 698.127 L118.693 698.127 L117.726 684.908 L147.59 684.908 Q149.742 684.908 151.016 684.733 Q152.245 684.557 153.695 683.854 Q155.144 683.108 155.803 681.439 Q156.461 679.726 156.461 677.003 Q156.461 672.128 152.465 669.142 Q148.468 666.112 142.54 666.112 L126.51 666.112 Q123.172 666.112 122.338 667.298 Q121.503 668.483 121.503 673.139 L118.693 673.139 L117.726 659.92 L149.654 659.92 Q152.992 659.92 153.87 658.778 Q154.705 657.592 154.705 652.893 L157.471 652.893 L158.482 665.848 L150.357 665.848 Q158.438 669.625 158.482 677.442 Q158.482 681.395 157.471 684.118 Q156.461 686.797 155.232 688.158 Q153.958 689.52 151.543 690.266 Q149.127 690.969 147.634 691.057 Q146.141 691.145 143.242 691.145 L129.76 691.145 Q123.655 691.145 122.601 692.023 Q121.503 692.901 121.503 698.127 Z" fill="#000000" fill-rule="nonzero" fill-opacity="1" /><path clip-path="url(#clip220)" d="M157.471 649.797 L154.705 649.797 Q154.705 645.01 154.134 643.912 Q153.519 642.814 150.62 642.814 L126.51 642.814 Q123.172 642.814 122.338 644 Q121.503 645.142 121.503 649.797 L118.693 649.797 L117.726 637.149 L127.169 637.149 Q117.726 632.933 117.726 623.842 Q117.726 613.302 126.51 611.853 Q123.084 610.315 120.405 607.109 Q117.726 603.86 117.726 598.809 Q117.726 592.046 121.064 589.367 Q123.304 587.391 125.807 586.995 Q128.311 586.6 134.81 586.6 L151.982 586.6 Q153.87 586.512 154.309 585.063 Q154.705 583.614 154.705 579.573 L157.471 579.573 Q157.208 588.752 157.208 589.63 Q157.208 590.333 157.471 599.819 L154.705 599.819 Q154.705 595.032 154.134 593.934 Q153.519 592.792 150.62 592.792 L129.672 592.792 Q125.105 592.792 122.426 594.198 Q119.703 595.603 119.703 599.468 Q119.703 604.123 123.611 607.856 Q127.52 611.589 134.108 611.589 L150.62 611.589 Q153.519 611.589 154.134 610.491 Q154.705 609.349 154.705 604.562 L157.471 604.562 Q157.208 613.741 157.208 614.663 Q157.208 615.366 157.471 624.808 L154.705 624.808 Q154.705 620.021 154.134 618.923 Q153.519 617.781 150.62 617.781 L129.672 617.781 Q125.105 617.781 122.426 619.187 Q119.703 620.592 119.703 624.457 Q119.703 629.112 123.611 632.845 Q127.52 636.578 134.108 636.578 L150.62 636.578 Q153.519 636.578 154.134 635.48 Q154.705 634.338 154.705 629.595 L157.471 629.595 Q157.208 638.774 157.208 639.652 Q157.208 640.355 157.471 649.797 Z" fill="#000000" fill-rule="nonzero" fill-opacity="1" /><path clip-path="url(#clip220)" d="M134.986 551.871 Q119.791 551.871 107.538 546.206 Q102.399 543.79 98.0955 540.409 Q93.7917 537.027 91.9032 534.787 Q90.0148 532.548 90.0148 531.933 Q90.0148 531.055 90.8931 531.011 Q91.3323 531.011 92.4302 532.196 Q107.186 546.689 134.986 546.645 Q162.873 546.645 177.058 532.548 Q178.596 531.011 179.079 531.011 Q179.957 531.011 179.957 531.933 Q179.957 532.548 178.156 534.7 Q176.356 536.852 172.228 540.189 Q168.099 543.527 163.049 545.942 Q150.796 551.871 134.986 551.871 Z" fill="#000000" fill-rule="nonzero" fill-opacity="1" /><path clip-path="url(#clip220)" d="M97.1294 453.217 Q98.7543 453.305 98.8421 454.403 Q98.93 456.072 99.1496 457.082 Q99.3252 458.092 99.984 459.673 Q100.643 461.254 102.224 462.791 Q103.805 464.328 106.308 465.909 L157.823 498.276 Q158.789 498.847 159.096 499.33 Q159.448 499.769 159.448 500.779 Q159.448 501.702 159.052 502.053 Q158.701 502.404 157.384 502.58 L101.872 509.694 Q100.862 509.826 100.423 509.958 Q99.984 510.09 99.5448 510.617 Q99.1056 511.1 98.9739 512.154 Q98.8421 513.208 98.8421 515.096 Q98.8421 515.975 98.7982 516.37 Q98.7543 516.721 98.5347 517.029 Q98.2712 517.336 97.7442 517.336 Q96.9537 517.336 96.5584 517.029 Q96.1193 516.677 96.0754 516.414 Q96.0314 516.106 96.0314 515.623 Q96.0314 514.877 96.1193 513.252 Q96.2071 511.627 96.2071 510.792 Q96.2071 510.002 96.251 508.333 Q96.2949 506.664 96.2949 505.83 Q96.2949 503.985 96.1632 500.252 Q96.0314 496.475 96.0314 494.675 Q96.0314 493.445 97.0415 493.445 Q98.2712 493.445 98.5786 493.972 Q98.8421 494.499 98.8421 495.685 Q98.8421 498.671 99.5887 500.296 Q100.335 501.877 101.521 501.877 L149.127 495.773 L105.21 468.149 Q103.146 466.787 101.785 466.787 Q99.1496 466.787 98.8421 470.96 Q98.8421 472.365 97.7442 472.365 Q96.9537 472.365 96.5584 472.014 Q96.1193 471.662 96.0754 471.399 Q96.0314 471.091 96.0314 470.652 Q96.0314 469.203 96.1632 466.26 Q96.2949 463.274 96.2949 461.781 Q96.2949 460.551 96.1632 458.048 Q96.0314 455.545 96.0314 454.403 Q96.0314 453.217 97.1294 453.217 Z" fill="#000000" fill-rule="nonzero" fill-opacity="1" /><path clip-path="url(#clip220)" d="M109.087 444.236 Q107.949 444.236 107.611 444.144 Q107.273 444.021 106.75 443.529 L93.2852 431.447 Q85.8457 424.838 79.3591 424.838 Q75.1475 424.838 72.1348 427.051 Q69.1221 429.234 69.1221 433.261 Q69.1221 436.028 70.8129 438.364 Q72.5037 440.701 75.5164 441.777 Q75.4549 441.592 75.4549 440.947 Q75.4549 439.379 76.4386 438.518 Q77.4224 437.627 78.7443 437.627 Q80.4351 437.627 81.2651 438.733 Q82.0644 439.809 82.0644 440.885 Q82.0644 441.316 81.9722 441.9 Q81.88 442.453 81.0192 443.345 Q80.1277 444.236 78.5598 444.236 Q74.1637 444.236 70.6592 440.916 Q67.1546 437.565 67.1546 432.462 Q67.1546 426.682 70.5977 422.901 Q74.01 419.089 79.3591 419.089 Q81.2344 419.089 82.9559 419.673 Q84.6467 420.227 85.9686 420.995 Q87.2906 421.733 89.4117 423.762 Q91.5329 425.791 93.0393 427.42 Q94.5457 429.05 97.7428 432.708 L104.229 439.379 L104.229 428.035 Q104.229 422.501 103.738 422.071 Q102.846 421.456 98.1425 420.688 L98.1425 419.089 L109.087 420.872 L109.087 444.236 Z" fill="#000000" fill-rule="nonzero" fill-opacity="1" /><path clip-path="url(#clip220)" d="M179.079 409.731 Q178.639 409.731 177.542 408.589 Q162.785 394.097 134.986 394.097 Q107.099 394.097 93.0012 408.019 Q91.3762 409.731 90.8931 409.731 Q90.0148 409.731 90.0148 408.853 Q90.0148 408.238 91.8154 406.086 Q93.616 403.89 97.7442 400.597 Q101.872 397.259 106.923 394.8 Q119.176 388.871 134.986 388.871 Q150.181 388.871 162.434 394.536 Q167.572 396.951 171.876 400.333 Q176.18 403.715 178.069 405.954 Q179.957 408.194 179.957 408.853 Q179.957 409.731 179.079 409.731 Z" fill="#000000" fill-rule="nonzero" fill-opacity="1" /><polyline clip-path="url(#clip222)" style="stroke:#009af9; stroke-linecap:round; stroke-linejoin:round; stroke-width:4; stroke-opacity:1; fill:none" points="586.151,470.696 587.248,777.666 588.344,773.882 589.44,763.46 590.536,741.121 591.632,762.166 592.728,785.088 593.824,718.645 594.92,753.501 596.016,781.4 597.112,727.234 598.208,694.503 599.304,738.626 600.401,830.229 601.497,687.735 602.593,720.695 603.689,796 604.785,724.33 605.881,676.454 606.977,726.219 608.073,745.147 609.169,878.839 610.265,709.618 611.361,831.014 612.457,752.011 613.554,728.203 614.65,719.75 615.746,649.057 616.842,1066.91 617.938,774.523 619.034,688.572 620.13,648.219 621.226,686.238 622.322,768.8 623.418,693.419 624.514,709.739 625.61,702.172 626.707,659.289 627.803,636.132 628.899,617.205 629.995,815.002 631.091,636.476 632.187,704.039 633.283,625.417 634.379,668.987 635.475,656.716 636.571,800.814 637.667,672.773 638.764,625.662 639.86,643.319 640.956,661.49 642.052,648.662 643.148,696.002 644.244,756.756 645.34,652.173 646.436,725.932 647.532,802.27 648.628,650.403 649.724,741.319 650.82,725.109 651.917,741.347 653.013,671.505 654.109,768.458 655.205,660.518 656.301,834.613 657.397,665.117 658.493,691.71 659.589,695.125 660.685,639.814 661.781,772.234 662.877,697.989 663.973,733.203 665.07,802.577 666.166,734.652 667.262,766.512 668.358,683.752 669.454,714.16 670.55,818.55 671.646,759.795 672.742,691.263 673.838,706.25 674.934,604.972 676.03,740.401 677.126,694.681 678.223,874.248 679.319,667.318 680.415,705.314 681.511,694.321 682.607,764.375 683.703,647.255 684.799,789.983 685.895,675.469 686.991,575.442 688.087,595.321 689.183,778.067 690.28,720.581 691.376,759.548 692.472,798.797 693.568,723.462 694.664,719.766 695.76,696.531 696.856,716.455 697.952,769.548 699.048,747.883 700.144,746.177 701.24,804.595 702.336,751.206 703.433,845.923 704.529,711.475 705.625,691.79 706.721,746.382 707.817,881.141 708.913,648.542 710.009,838.274 711.105,759.908 712.201,699.5 713.297,841.151 714.393,934.877 715.489,772.117 716.586,752.064 717.682,908.454 718.778,925.896 719.874,798.274 720.97,739.22 722.066,782.896 723.162,763.323 724.258,743.752 725.354,762.678 726.45,683.654 727.546,667.873 728.643,706.039 729.739,815.087 730.835,689.916 731.931,744.239 733.027,744.709 734.123,700.09 735.219,785.537 736.315,725.397 737.411,770.759 738.507,775.615 739.603,826.08 740.699,825.76 741.796,791.88 742.892,785.269 743.988,797.6 745.084,795.435 746.18,785.672 747.276,848.132 748.372,760.607 749.468,785.395 750.564,729.321 751.66,820.498 752.756,719.225 753.852,709.371 754.949,792.183 756.045,788.353 757.141,912.405 758.237,919.486 759.333,860.95 760.429,906.856 761.525,695.325 762.621,814.351 763.717,784.24 764.813,766.742 765.909,731.17 767.005,850.505 768.102,785.803 769.198,736.658 770.294,792.386 771.39,749.419 772.486,723.189 773.582,639.795 774.678,663.368 775.774,694.985 776.87,731.842 777.966,858.791 779.062,677.735 780.159,795.029 781.255,870.572 782.351,748.137 783.447,833.523 784.543,785.108 785.639,731.86 786.735,695.508 787.831,761.256 788.927,853.803 790.023,829.037 791.119,820.627 792.215,769.962 793.312,818.78 794.408,730.896 795.504,801.742 796.6,989.683 797.696,739.286 798.792,860.642 799.888,738.08 800.984,838.898 802.08,749.355 803.176,761.989 804.272,842.16 805.368,915.17 806.465,754.27 807.561,755.24 808.657,748.783 809.753,917.201 810.849,860.785 811.945,768.411 813.041,730.66 814.137,740.552 815.233,743.989 816.329,715.784 817.425,750.418 818.521,811.951 819.618,746.133 820.714,868.191 821.81,711.062 822.906,815.089 824.002,866.139 825.098,759.418 826.194,1053.3 827.29,724.213 828.386,901.742 829.482,811.656 830.578,881.163 831.675,850.602 832.771,808.287 833.867,742.573 834.963,803.463 836.059,821.593 837.155,897.455 838.251,757.659 839.347,823.762 840.443,769.295 841.539,748.739 842.635,856.89 843.731,815.438 844.828,802.415 845.924,874.67 847.02,1039.85 848.116,789.214 849.212,894.057 850.308,777.894 851.404,959.576 852.5,850.57 853.596,870.423 854.692,852.952 855.788,807.823 856.884,906.154 857.981,873.177 859.077,802.094 860.173,819.657 861.269,975.913 862.365,932.644 863.461,860.252 864.557,807.317 865.653,879.998 866.749,721.317 867.845,700.601 868.941,715.802 870.037,833.515 871.134,770.298 872.23,815.801 873.326,818.26 874.422,823.434 875.518,900.495 876.614,911.435 877.71,898.897 878.806,756.044 879.902,822.535 880.998,761.458 882.094,775.6 883.191,835.529 884.287,832.373 885.383,798.765 886.479,799.862 887.575,864.18 888.671,804.512 889.767,743.782 890.863,927.891 891.959,821.085 893.055,953.601 894.151,737.913 895.247,775.84 896.344,851.787 897.44,1126.12 898.536,824.164 899.632,848.158 900.728,741.832 901.824,794.022 902.92,937.301 904.016,717.133 905.112,800.652 906.208,876.271 907.304,1003.39 908.4,719.854 909.497,1076.36 910.593,903.972 911.689,844.748 912.785,737.85 913.881,732.684 914.977,781.272 916.073,896.437 917.169,828.367 918.265,842.502 919.361,747.897 920.457,1089.4 921.553,937.875 922.65,805.318 923.746,789.231 924.842,914.127 925.938,673.254 927.034,530.165 928.13,601.162 929.226,736.605 930.322,733.909 931.418,722.04 932.514,738.736 933.61,720.563 934.707,908.922 935.803,1050.32 936.899,838.597 937.995,813.953 939.091,781.31 940.187,877.084 941.283,882.518 942.379,856.5 943.475,862.373 944.571,808.079 945.667,802.214 946.763,766.908 947.86,864.883 948.956,769.705 950.052,785.595 951.148,849.896 952.244,835.563 953.34,751.669 954.436,855.314 955.532,991.125 956.628,947.324 957.724,855.405 958.82,878.935 959.916,790.795 961.013,787.184 962.109,709.005 963.205,771.891 964.301,974.814 965.397,874.851 966.493,1027.6 967.589,926.922 968.685,948.103 969.781,793.54 970.877,877.772 971.973,963.507 973.07,936.622 974.166,989.441 975.262,781.814 976.358,879.896 977.454,931.44 978.55,949.08 979.646,846.117 980.742,926.5 981.838,823.427 982.934,1000.38 984.03,860.169 985.126,855.654 986.223,826.495 987.319,820.13 988.415,856.065 989.511,1079.32 990.607,870.768 991.703,838.891 992.799,778.905 993.895,805.329 994.991,797.385 996.087,994.784 997.183,900.065 998.279,1129.07 999.376,816.834 1000.47,862.433 1001.57,1018.39 1002.66,764.561 1003.76,919.389 1004.86,887.632 1005.95,783.599 1007.05,950.237 1008.14,989.888 1009.24,769.065 1010.34,823.627 1011.43,851.742 1012.53,964.501 1013.62,920.055 1014.72,779.008 1015.82,944.615 1016.91,831.717 1018.01,927.55 1019.11,866.679 1020.2,910.926 1021.3,946.821 1022.39,937.92 1023.49,789.229 1024.59,787.763 1025.68,1029.37 1026.78,773.335 1027.87,896.142 1028.97,942.399 1030.07,988.686 1031.16,898.267 1032.26,904.178 1033.35,762.766 1034.45,783.244 1035.55,795.5 1036.64,1039.79 1037.74,807.046 1038.83,938.805 1039.93,819.613 1041.03,847.706 1042.12,1037.96 1043.22,819.868 1044.32,791.242 1045.41,824.87 1046.51,965.879 1047.6,973.132 1048.7,878.577 1049.8,836.957 1050.89,852.138 1051.99,934.73 1053.08,849.311 1054.18,995.54 1055.28,893.556 1056.37,781.182 1057.47,764.148 1058.56,850.699 1059.66,841.652 1060.76,937.272 1061.85,945.695 1062.95,889.877 1064.04,767.088 1065.14,943.738 1066.24,804.366 1067.33,822.529 1068.43,944.742 1069.53,812.157 1070.62,1176.25 1071.72,952.768 1072.81,902.822 1073.91,766.62 1075.01,788.975 1076.1,881.45 1077.2,802.645 1078.29,998.349 1079.39,844.598 1080.49,830.013 1081.58,793.874 1082.68,808.887 1083.77,923.297 1084.87,883.844 1085.97,863.683 1087.06,853.746 1088.16,832.462 1089.25,855.66 1090.35,914.444 1091.45,912.727 1092.54,786.294 1093.64,809.932 1094.73,778.699 1095.83,837.742 1096.93,816.045 1098.02,937.816 1099.12,790.77 1100.22,760.109 1101.31,864.236 1102.41,826.862 1103.5,765.518 1104.6,833.125 1105.7,853.835 1106.79,832.244 1107.89,941.28 1108.98,763.239 1110.08,823.962 1111.18,775.065 1112.27,739.328 1113.37,863.492 1114.46,830.567 1115.56,866.284 1116.66,1209.22 1117.75,841.784 1118.85,996.67 1119.94,837.626 1121.04,775.132 1122.14,955.235 1123.23,990.522 1124.33,873.183 1125.43,820.919 1126.52,1057.88 1127.62,834.207 1128.71,913.424 1129.81,854.935 1130.91,1032.08 1132,904.784 1133.1,834.655 1134.19,834.775 1135.29,828.413 1136.39,850.29 1137.48,945.366 1138.58,826.194 1139.67,1075.82 1140.77,885.343 1141.87,879.863 1142.96,1043.39 1144.06,904.665 1145.15,877.036 1146.25,949.256 1147.35,822.182 1148.44,798.687 1149.54,802.303 1150.64,743.079 1151.73,733.813 1152.83,836.988 1153.92,913.954 1155.02,941.149 1156.12,834.733 1157.21,753.096 1158.31,925.698 1159.4,1003.06 1160.5,938.274 1161.6,800.943 1162.69,821.334 1163.79,905.51 1164.88,804.827 1165.98,918.286 1167.08,805.706 1168.17,786.496 1169.27,1010.45 1170.36,755.438 1171.46,827.937 1172.56,1003.22 1173.65,808.652 1174.75,869.645 1175.85,788.81 1176.94,880.879 1178.04,905.133 1179.13,952.27 1180.23,825.291 1181.33,1067.2 1182.42,808.226 1183.52,901.864 1184.61,902.614 1185.71,922.412 1186.81,790.201 1187.9,862.683 1189,777.899 1190.09,804.916 1191.19,773.023 1192.29,822.903 1193.38,903.757 1194.48,877.968 1195.57,809.742 1196.67,738.331 1197.77,857.514 1198.86,1006.82 1199.96,857.15 1201.06,862.918 1202.15,900.694 1203.25,890.746 1204.34,778.893 1205.44,802.482 1206.54,877.433 1207.63,819.231 1208.73,875.182 1209.82,885.386 1210.92,822.236 1212.02,836.568 1213.11,856.407 1214.21,805.325 1215.3,749.659 1216.4,794.322 1217.5,857.262 1218.59,874.702 1219.69,905.703 1220.78,851.82 1221.88,786.076 1222.98,836.041 1224.07,849.086 1225.17,1049.36 1226.27,806.082 1227.36,913.745 1228.46,829.159 1229.55,990.717 1230.65,835.153 1231.75,964.46 1232.84,886.604 1233.94,811.536 1235.03,797.346 1236.13,922.681 1237.23,889.072 1238.32,869.646 1239.42,919.291 1240.51,789.37 1241.61,919.912 1242.71,929.333 1243.8,741.226 1244.9,753.799 1245.99,743.322 1247.09,850.898 1248.19,744.62 1249.28,806.696 1250.38,976.03 1251.48,860.28 1252.57,813.444 1253.67,768.654 1254.76,747.73 1255.86,728.644 1256.96,770.842 1258.05,719.477 1259.15,775.89 1260.24,711.846 1261.34,723.661 1262.44,761.484 1263.53,658.716 1264.63,653.658 1265.72,563.643 1266.82,426.031 1267.92,310.457 1269.01,315.501 1270.11,408.206 1271.2,490.711 1272.3,550.432 1273.4,588.321 1274.49,627.815 1275.59,653.473 1276.69,684.891 1277.78,683.818 1278.88,691.826 1279.97,665.459 1281.07,710.909 1282.17,799.016 1283.26,713.635 1284.36,987.403 1285.45,772.602 1286.55,788.644 1287.65,805.781 1288.74,782.558 1289.84,789.964 1290.93,756.145 1292.03,756.148 1293.13,768.698 1294.22,855.099 1295.32,1038.32 1296.41,834.647 1297.51,822.876 1298.61,937.218 1299.7,887.199 1300.8,847.239 1301.9,994.976 1302.99,816.11 1304.09,880.086 1305.18,946.473 1306.28,795.034 1307.38,799.711 1308.47,844.058 1309.57,838.167 1310.66,886.449 1311.76,885.418 1312.86,910.388 1313.95,864.483 1315.05,879.673 1316.14,772.048 1317.24,792.227 1318.34,1028.53 1319.43,859.285 1320.53,778.236 1321.62,913.724 1322.72,871.513 1323.82,1117.28 1324.91,996.367 1326.01,854.182 1327.11,1031.32 1328.2,1046.76 1329.3,877.291 1330.39,867.905 1331.49,866.162 1332.59,897.182 1333.68,961.254 1334.78,950.427 1335.87,1039.96 1336.97,842.675 1338.07,711.158 1339.16,757.369 1340.26,946.741 1341.35,835.282 1342.45,993.772 1343.55,822.954 1344.64,956.297 1345.74,830.125 1346.83,849.2 1347.93,841.451 1349.03,815.291 1350.12,958.891 1351.22,875.752 1352.31,823.885 1353.41,993.824 1354.51,865.476 1355.6,906.575 1356.7,897.729 1357.8,893.485 1358.89,840.198 1359.99,803.736 1361.08,1009.33 1362.18,1016.65 1363.28,993.197 1364.37,840.643 1365.47,866.58 1366.56,858.532 1367.66,869.754 1368.76,845.304 1369.85,854.557 1370.95,789.882 1372.04,812.122 1373.14,868.642 1374.24,933.441 1375.33,943.356 1376.43,940.802 1377.52,948.125 1378.62,1139.25 1379.72,946.299 1380.81,1013.79 1381.91,918.871 1383.01,944.537 1384.1,842.591 1385.2,860.302 1386.29,833.038 1387.39,986.526 1388.49,1060.93 1389.58,889.261 1390.68,867.393 1391.77,889.797 1392.87,981.656 1393.97,868.14 1395.06,1054.3 1396.16,848.255 1397.25,896.051 1398.35,1094.75 1399.45,861.397 1400.54,803.875 1401.64,1075.6 1402.73,935.623 1403.83,945.241 1404.93,978.088 1406.02,893.076 1407.12,869.839 1408.22,875.02 1409.31,867.362 1410.41,854.192 1411.5,808.395 1412.6,1006.39 1413.7,846.031 1414.79,863.448 1415.89,1004.85 1416.98,864.906 1418.08,1022.36 1419.18,954.053 1420.27,868.309 1421.37,844.534 1422.46,1110.01 1423.56,912.531 1424.66,1008.67 1425.75,857.395 1426.85,1016.24 1427.94,889.946 1429.04,831.327 1430.14,969.525 1431.23,743.764 1432.33,855.323 1433.43,1025.62 1434.52,884.304 1435.62,782.252 1436.71,1060.49 1437.81,1031.74 1438.91,961.059 1440,867.64 1441.1,930.04 1442.19,972.371 1443.29,841.9 1444.39,863.413 1445.48,818.505 1446.58,982.44 1447.67,967.852 1448.77,822.464 1449.87,900.176 1450.96,951.271 1452.06,875.387 1453.15,902.253 1454.25,849.216 1455.35,842.076 1456.44,918.996 1457.54,872.718 1458.64,858.689 1459.73,1052.97 1460.83,860.398 1461.92,883.766 1463.02,951.909 1464.12,879.654 1465.21,907.527 1466.31,846.752 1467.4,806.916 1468.5,1000.2 1469.6,961.773 1470.69,852.07 1471.79,902.905 1472.88,812.588 1473.98,959.097 1475.08,960.952 1476.17,829.999 1477.27,939.736 1478.36,865.614 1479.46,786.48 1480.56,893.02 1481.65,968.061 1482.75,868.601 1483.85,936.318 1484.94,865.03 1486.04,1000.02 1487.13,972.573 1488.23,872.81 1489.33,862.712 1490.42,875.9 1491.52,920.779 1492.61,883.136 1493.71,892.089 1494.81,926.848 1495.9,868.871 1497,862.298 1498.09,913.368 1499.19,1008.16 1500.29,1067.52 1501.38,951.98 1502.48,901.512 1503.57,998.578 1504.67,964.605 1505.77,951.568 1506.86,835.466 1507.96,961.406 1509.06,1120.63 1510.15,969.755 1511.25,870.551 1512.34,1052.78 1513.44,829.376 1514.54,1017.2 1515.63,910.834 1516.73,852.111 1517.82,1061.96 1518.92,906.578 1520.02,929.721 1521.11,837.423 1522.21,863.556 1523.3,975.473 1524.4,780.938 1525.5,968.482 1526.59,875.614 1527.69,863.319 1528.78,842.378 1529.88,896.954 1530.98,839.703 1532.07,874.342 1533.17,996.864 1534.27,978.345 1535.36,839.636 1536.46,912.351 1537.55,1031.14 1538.65,947.355 1539.75,889.34 1540.84,826.175 1541.94,940.162 1543.03,898.995 1544.13,891.195 1545.23,986.037 1546.32,850.075 1547.42,911.888 1548.51,1052.56 1549.61,918.725 1550.71,1026.91 1551.8,798.866 1552.9,830.063 1553.99,848.632 1555.09,1030.26 1556.19,793.156 1557.28,792.416 1558.38,998.349 1559.48,919.432 1560.57,819.251 1561.67,1170.17 1562.76,845.396 1563.86,1001.18 1564.96,801.78 1566.05,897.709 1567.15,850.299 1568.24,839.968 1569.34,1006.71 1570.44,936.201 1571.53,906.484 1572.63,787.087 1573.72,765.899 1574.82,930.925 1575.92,927.038 1577.01,867.692 1578.11,1017.43 1579.2,792.095 1580.3,939.124 1581.4,872.015 1582.49,831.694 1583.59,878.613 1584.69,792.027 1585.78,824.012 1586.88,832.232 1587.97,1072.82 1589.07,855.777 1590.17,917.109 1591.26,918.224 1592.36,825.55 1593.45,927.876 1594.55,931.08 1595.65,892.511 1596.74,1113.36 1597.84,1021.93 1598.93,948.227 1600.03,841.97 1601.13,927.732 1602.22,920.046 1603.32,808.207 1604.41,1054.43 1605.51,779.49 1606.61,654.694 1607.7,631.893 1608.8,579.641 1609.9,547.769 1610.99,581.1 1612.09,623.753 1613.18,691.746 1614.28,693.653 1615.38,722.923 1616.47,711.398 1617.57,720.956 1618.66,751.673 1619.76,731.148 1620.86,933.418 1621.95,766.595 1623.05,830.97 1624.14,828.552 1625.24,820.158 1626.34,849.871 1627.43,1060.73 1628.53,816.011 1629.62,910.026 1630.72,865.605 1631.82,797.082 1632.91,784.495 1634.01,898.696 1635.1,935.383 1636.2,857.494 1637.3,961.993 1638.39,845.398 1639.49,843.489 1640.59,868.871 1641.68,828.854 1642.78,760.605 1643.87,862.15 1644.97,964.186 1646.07,842.62 1647.16,1045.88 1648.26,812.467 1649.35,898.559 1650.45,830.658 1651.55,940.682 1652.64,865.486 1653.74,853.238 1654.83,896.009 1655.93,823.581 1657.03,852.409 1658.12,1079.54 1659.22,913.968 1660.31,932.22 1661.41,962.745 1662.51,961.238 1663.6,979.712 1664.7,934.172 1665.8,1001.54 1666.89,941.999 1667.99,805.375 1669.08,932.34 1670.18,835.772 1671.28,830.734 1672.37,811.104 1673.47,1051.31 1674.56,903.091 1675.66,959 1676.76,1015.95 1677.85,921.131 1678.95,969.688 1680.04,881.928 1681.14,880.515 1682.24,975.728 1683.33,1120.14 1684.43,780.575 1685.52,814.333 1686.62,1181.12 1687.72,903.534 1688.81,852.915 1689.91,810.843 1691.01,868.361 1692.1,1073.39 1693.2,814.485 1694.29,890.288 1695.39,1043.33 1696.49,926.594 1697.58,1002.96 1698.68,909.257 1699.77,854.19 1700.87,918.09 1701.97,809.222 1703.06,856.561 1704.16,1039.57 1705.25,936.631 1706.35,842.455 1707.45,962.082 1708.54,814.399 1709.64,889.704 1710.73,947.41 1711.83,837.805 1712.93,889.706 1714.02,804.69 1715.12,971.158 1716.22,799.081 1717.31,922.179 1718.41,814.496 1719.5,807.878 1720.6,1003.69 1721.7,912.593 1722.79,987.94 1723.89,866.687 1724.98,1019.62 1726.08,1020.55 1727.18,950.455 1728.27,866.043 1729.37,966.132 1730.46,812.403 1731.56,842.217 1732.66,1304.45 1733.75,762.223 1734.85,851.439 1735.94,971.605 1737.04,769.068 1738.14,930.629 1739.23,949.683 1740.33,1037.92 1741.43,924.679 1742.52,961.792 1743.62,813.183 1744.71,933.738 1745.81,904.578 1746.91,839.989 1748,955.657 1749.1,861.933 1750.19,944.565 1751.29,825.389 1752.39,909.189 1753.48,947.469 1754.58,968.985 1755.67,877.992 1756.77,844.135 1757.87,920.215 1758.96,838.378 1760.06,955.153 1761.15,982.004 1762.25,919.134 1763.35,1024.25 1764.44,952.955 1765.54,953.698 1766.64,862.17 1767.73,846.683 1768.83,906.066 1769.92,917.168 1771.02,827.026 1772.12,820.454 1773.21,1031.23 1774.31,949.25 1775.4,815.082 1776.5,937.152 1777.6,965.242 1778.69,911.222 1779.79,810.229 1780.88,890.954 1781.98,933.149 1783.08,872.243 1784.17,901.086 1785.27,891.782 1786.36,909.031 1787.46,845.282 1788.56,895.343 1789.65,1068.11 1790.75,831.731 1791.85,883.373 1792.94,856.955 1794.04,889.362 1795.13,833.065 1796.23,855.5 1797.33,1023.06 1798.42,800.726 1799.52,878.641 1800.61,838.244 1801.71,1020.59 1802.81,809.93 1803.9,834.599 1805,899.482 1806.09,873.525 1807.19,848.949 1808.29,779.166 1809.38,1002.54 1810.48,1031.03 1811.57,966.623 1812.67,886.256 1813.77,879.104 1814.86,920.571 1815.96,892.923 1817.06,1181.7 1818.15,946.731 1819.25,973.856 1820.34,1002.74 1821.44,946.533 1822.54,956.328 1823.63,914.925 1824.73,984.685 1825.82,936.863 1826.92,837.509 1828.02,1143.27 1829.11,815.302 1830.21,1104.3 1831.3,937.475 1832.4,1088.65 1833.5,803.539 1834.59,859.767 1835.69,899.269 1836.78,838.979 1837.88,1017.83 1838.98,1024.72 1840.07,950.795 1841.17,1039.31 1842.27,954.393 1843.36,863.335 1844.46,868.117 1845.55,981.872 1846.65,923.255 1847.75,913.352 1848.84,922.49 1849.94,1016.15 1851.03,1149.51 1852.13,904.921 1853.23,839.37 1854.32,900.452 1855.42,943.085 1856.51,925.015 1857.61,888.371 1858.71,1185.46 1859.8,977.577 1860.9,910.186 1861.99,895.194 1863.09,976.97 1864.19,982.376 1865.28,991.189 1866.38,903.956 1867.48,889.63 1868.57,965.934 1869.67,925.422 1870.76,838.725 1871.86,826.741 1872.96,847.47 1874.05,835.903 1875.15,869.779 1876.24,964.973 1877.34,880.522 1878.44,947.482 1879.53,1027.36 1880.63,860.732 1881.72,904.607 1882.82,878.693 1883.92,916.72 1885.01,869.924 1886.11,856.208 1887.2,901.297 1888.3,835.053 1889.4,896.441 1890.49,807.483 1891.59,966.314 1892.68,895.115 1893.78,960.069 1894.88,887.743 1895.97,1059.15 1897.07,834.765 1898.17,832.22 1899.26,809.228 1900.36,856.864 1901.45,838.395 1902.55,854.941 1903.65,828.598 1904.74,1044.45 1905.84,1057.25 1906.93,849.44 1908.03,868.042 1909.13,948.901 1910.22,930.225 1911.32,882.621 1912.41,945.977 1913.51,798.403 1914.61,1063.94 1915.7,830.611 1916.8,931.824 1917.89,896.424 1918.99,970.17 1920.09,882.607 1921.18,974.23 1922.28,920.135 1923.38,957.721 1924.47,803.015 1925.57,881.645 1926.66,871.09 1927.76,874.283 1928.86,845.701 1929.95,1093.75 1931.05,830.951 1932.14,991.19 1933.24,850.86 1934.34,805.789 1935.43,1086.12 1936.53,874.331 1937.62,861.366 1938.72,998.749 1939.82,839.33 1940.91,808.943 1942.01,866.221 1943.1,827.353 1944.2,787.516 1945.3,749.938 1946.39,697.13 1947.49,628.458 1948.59,562.441 1949.68,509.555 1950.78,501.705 1951.87,542.375 1952.97,591.105 1954.07,634.793 1955.16,676.641 1956.26,685.058 1957.35,821.983 1958.45,854.447 1959.55,791.726 1960.64,866.198 1961.74,765.356 1962.83,887.787 1963.93,900.271 1965.03,785.798 1966.12,910.243 1967.22,921.116 1968.31,918.449 1969.41,938.167 1970.51,844.526 1971.6,936.475 1972.7,843.995 1973.8,830.807 1974.89,870.878 1975.99,901.582 1977.08,887.853 1978.18,853.1 1979.28,899.682 1980.37,1091.98 1981.47,904.444 1982.56,1117.3 1983.66,925.301 1984.76,881.238 1985.85,1101.52 1986.95,1032.08 1988.04,842.518 1989.14,873.913 1990.24,878.561 1991.33,889.353 1992.43,904.885 1993.52,817.844 1994.62,1061.75 1995.72,787.144 1996.81,1032.19 1997.91,969.244 1999.01,866.544 2000.1,841.556 2001.2,867.445 2002.29,861.472 2003.39,979.475 2004.49,923.597 2005.58,811.975 2006.68,841.881 2007.77,1083.48 2008.87,814.236 2009.97,1057.26 2011.06,797.632 2012.16,791.187 2013.25,930.978 2014.35,825.465 2015.45,878.116 2016.54,1017.79 2017.64,869.275 2018.73,877.444 2019.83,844.645 2020.93,951.001 2022.02,892.073 2023.12,880.214 2024.22,792.951 2025.31,1019.72 2026.41,961.324 2027.5,884.591 2028.6,903.776 2029.7,869.245 2030.79,923.413 2031.89,931.523 2032.98,868.167 2034.08,926.153 2035.18,820.449 2036.27,862.9 2037.37,881.416 2038.46,847.512 2039.56,915.274 2040.66,1036.67 2041.75,845.346 2042.85,815.571 2043.94,926.258 2045.04,854.498 2046.14,874.359 2047.23,977.267 2048.33,882.541 2049.43,847.369 2050.52,915.691 2051.62,847.163 2052.71,920.088 2053.81,909.773 2054.91,841.047 2056,820.434 2057.1,905.21 2058.19,834.135 2059.29,881.591 2060.39,912.918 2061.48,930.191 2062.58,897.963 2063.67,875.54 2064.77,873.222 2065.87,823.138 2066.96,1046.62 2068.06,997.944 2069.15,896.061 2070.25,913.21 2071.35,985.993 2072.44,1077.23 2073.54,868.607 2074.64,896.077 2075.73,897.059 2076.83,951.899 2077.92,851.44 2079.02,935.425 2080.12,1090.66 2081.21,890.547 2082.31,1089.69 2083.4,855.806 2084.5,910.88 2085.6,1118.17 2086.69,903.847 2087.79,831.756 2088.88,1009.42 2089.98,792.77 2091.08,849.733 2092.17,995.908 2093.27,836.835 2094.36,870.028 2095.46,893.068 2096.56,922.978 2097.65,994.172 2098.75,1101.05 2099.85,964.253 2100.94,904.324 2102.04,943.962 2103.13,1058.19 2104.23,869.935 2105.33,955.373 2106.42,939.537 2107.52,937.032 2108.61,871.542 2109.71,1101.84 2110.81,941.858 2111.9,1103.09 2113,932.467 2114.09,977.102 2115.19,847.374 2116.29,940.025 2117.38,796.741 2118.48,896.02 2119.57,807.654 2120.67,940.697 2121.77,1232.9 2122.86,998.472 2123.96,1080.5 2125.06,948.038 2126.15,896.657 2127.25,940.542 2128.34,779.651 2129.44,895.302 2130.54,859.885 2131.63,936.649 2132.73,965.866 2133.82,890.627 2134.92,864.11 2136.02,914.079 2137.11,812.03 2138.21,1034.66 2139.3,857.107 2140.4,914.127 2141.5,873.012 2142.59,947.32 2143.69,836.602 2144.78,894.695 2145.88,1004.96 2146.98,918.147 2148.07,914.847 2149.17,826.42 2150.27,966.291 2151.36,892.407 2152.46,861.195 2153.55,868.554 2154.65,925.596 2155.75,848.275 2156.84,983.585 2157.94,774.22 2159.03,972.69 2160.13,813.291 2161.23,899.288 2162.32,851.633 2163.42,886.369 2164.51,908.725 2165.61,928.378 2166.71,843.064 2167.8,932.9 2168.9,931.614 2169.99,818.415 2171.09,891.662 2172.19,834.83 2173.28,856.513 2174.38,1006.46 2175.47,895.826 2176.57,876.109 2177.67,903.407 2178.76,833.032 2179.86,956.735 2180.96,1000.44 2182.05,906.434 2183.15,888.15 2184.24,790.602 2185.34,1151.12 2186.44,862.455 2187.53,848.733 2188.63,911.325 2189.72,984.139 2190.82,829.233 2191.92,923.673 2193.01,923.22 2194.11,882.189 2195.2,973.981 2196.3,848.064 2197.4,777.903 2198.49,820.3 2199.59,872.622 2200.68,821.157 2201.78,997.295 2202.88,930.67 2203.97,829.595 2205.07,770.253 2206.17,835.707 2207.26,956.518 2208.36,888.595 2209.45,897.376 2210.55,925.153 2211.65,841.884 2212.74,1012.31 2213.84,925.393 2214.93,1235.97 2216.03,871.855 2217.13,833.181 2218.22,901.957 2219.32,836.609 2220.41,939.297 2221.51,933.992 2222.61,936.124 2223.7,1007.9 2224.8,970.015 2225.89,909.685 2226.99,1043.03 2228.09,826.646 2229.18,963.491 2230.28,881.647 2231.38,784.409 2232.47,899.91 2233.57,900.266 2234.66,840.246 2235.76,858.471 2236.86,871.885 2237.95,919.9 2239.05,1031.31 2240.14,790.496 "/>
<circle clip-path="url(#clip222)" cx="927.034" cy="530.165" r="14.4" fill="#e26f46" fill-rule="evenodd" fill-opacity="1" stroke="#000000" stroke-opacity="1" stroke-width="3.2"/>
<circle clip-path="url(#clip222)" cx="1267.92" cy="310.457" r="14.4" fill="#e26f46" fill-rule="evenodd" fill-opacity="1" stroke="#000000" stroke-opacity="1" stroke-width="3.2"/>
<circle clip-path="url(#clip222)" cx="1609.9" cy="547.769" r="14.4" fill="#e26f46" fill-rule="evenodd" fill-opacity="1" stroke="#000000" stroke-opacity="1" stroke-width="3.2"/>
<circle clip-path="url(#clip222)" cx="1950.78" cy="501.705" r="14.4" fill="#e26f46" fill-rule="evenodd" fill-opacity="1" stroke="#000000" stroke-opacity="1" stroke-width="3.2"/>
<path clip-path="url(#clip220)" d="M1083.64 239.836 L1742.65 239.836 L1742.65 110.236 L1083.64 110.236  Z" fill="#ffffff" fill-rule="evenodd" fill-opacity="1"/>
<polyline clip-path="url(#clip220)" style="stroke:#000000; stroke-linecap:round; stroke-linejoin:round; stroke-width:4; stroke-opacity:1; fill:none" points="1083.64,239.836 1742.65,239.836 1742.65,110.236 1083.64,110.236 1083.64,239.836 "/>
<polyline clip-path="url(#clip220)" style="stroke:#009af9; stroke-linecap:round; stroke-linejoin:round; stroke-width:5; stroke-opacity:1; fill:none" points="1103.12,175.036 1220,175.036 "/>
<path clip-path="url(#clip220)" d="M1239.49 189.739 L1239.49 177.735 Q1239.49 177.062 1239.51 176.828 Q1239.54 176.594 1239.72 176.418 Q1239.9 176.242 1240.25 176.242 Q1240.92 176.242 1240.98 176.857 Q1241.15 182.801 1244.7 186.08 Q1248.18 189.33 1254.15 189.33 Q1257.75 189.33 1259.98 186.753 Q1262.2 184.147 1262.2 180.751 Q1262.2 177.501 1260.33 175.218 Q1259.54 174.193 1258.55 173.549 Q1257.58 172.875 1256.96 172.67 Q1256.38 172.465 1255.24 172.173 Q1247.8 170.387 1247.33 170.182 Q1243.79 168.981 1241.62 165.966 Q1239.49 162.921 1239.49 159.202 Q1239.49 154.401 1242.85 151.005 Q1246.25 147.579 1251.17 147.579 Q1253.63 147.579 1255.68 148.37 Q1257.75 149.131 1258.6 149.833 Q1259.45 150.536 1260.77 151.795 L1262.85 148.37 Q1263.32 147.579 1263.76 147.579 Q1264.23 147.579 1264.31 147.872 Q1264.43 148.135 1264.43 149.014 L1264.43 161.076 Q1264.43 161.75 1264.4 161.984 Q1264.37 162.218 1264.17 162.364 Q1263.99 162.511 1263.64 162.511 Q1263.05 162.511 1262.91 161.808 Q1261.24 149.277 1251.23 149.277 Q1247.8 149.277 1245.55 151.59 Q1243.32 153.874 1243.32 157.124 Q1243.32 159.759 1244.96 161.925 Q1246.6 164.063 1249.38 164.736 L1257.05 166.58 Q1260.89 167.488 1263.46 170.884 Q1266.04 174.281 1266.04 178.702 Q1266.04 183.796 1262.7 187.485 Q1259.39 191.174 1254.21 191.174 Q1250.49 191.174 1247.62 189.944 Q1244.76 188.715 1243.2 186.987 Q1242 188.978 1241.21 190.091 L1241.04 190.384 Q1240.57 191.174 1240.13 191.174 Q1239.66 191.174 1239.57 190.881 Q1239.49 190.588 1239.49 189.739 Z" fill="#000000" fill-rule="nonzero" fill-opacity="1" /><path clip-path="url(#clip220)" d="M1273.87 189.857 L1273.87 188.012 Q1277.06 188.012 1277.79 187.631 Q1278.52 187.222 1278.52 185.289 L1278.52 169.157 Q1278.52 166.932 1277.76 166.405 Q1277.03 165.878 1274.1 165.878 L1274.1 164.004 L1282.48 163.36 L1282.48 185.348 Q1282.48 187.134 1283.12 187.573 Q1283.76 188.012 1286.69 188.012 L1286.69 189.857 Q1280.57 189.681 1280.46 189.681 Q1279.64 189.681 1273.87 189.857 M1276.39 152.908 Q1276.39 151.707 1277.29 150.741 Q1278.23 149.746 1279.55 149.746 Q1280.87 149.746 1281.8 150.653 Q1282.74 151.532 1282.74 152.937 Q1282.74 154.313 1281.8 155.221 Q1280.87 156.099 1279.55 156.099 Q1278.17 156.099 1277.26 155.133 Q1276.39 154.167 1276.39 152.908 Z" fill="#000000" fill-rule="nonzero" fill-opacity="1" /><path clip-path="url(#clip220)" d="M1289.59 194.6 Q1289.59 192.667 1291.05 190.998 Q1292.55 189.33 1295.12 188.598 Q1292.49 186.929 1292.49 183.269 Q1292.49 180.458 1294.33 178.292 Q1291.52 175.949 1291.52 172.114 Q1291.52 168.571 1294.33 165.966 Q1297.14 163.36 1301.24 163.36 Q1304.84 163.36 1307.6 165.526 Q1310.47 162.716 1313.95 162.686 Q1315.5 162.686 1316.23 163.653 Q1317 164.619 1317 165.644 Q1317 166.551 1316.41 166.99 Q1315.85 167.43 1315.27 167.43 Q1314.54 167.43 1314.01 166.961 Q1313.51 166.463 1313.51 165.702 Q1313.51 164.443 1314.48 164.063 Q1314.3 164.004 1313.89 164.004 Q1310.96 164.004 1308.48 166.346 Q1310.93 168.63 1310.93 172.173 Q1310.93 175.715 1308.12 178.321 Q1305.31 180.927 1301.24 180.927 Q1297.88 180.927 1295.3 179.053 Q1294.28 180.253 1294.28 181.893 Q1294.28 183.386 1295.18 184.557 Q1296.09 185.728 1297.47 185.904 Q1297.88 185.963 1301.95 185.963 Q1304.35 185.963 1305.66 186.021 Q1306.98 186.08 1308.86 186.49 Q1310.76 186.87 1312.25 187.631 Q1316.15 189.798 1316.18 194.482 Q1316.18 197.908 1312.22 200.045 Q1308.3 202.212 1302.85 202.212 Q1297.35 202.212 1293.46 200.016 Q1289.59 197.849 1289.59 194.6 M1292.72 194.6 Q1292.72 197.059 1295.62 198.933 Q1298.52 200.836 1302.91 200.836 Q1307.22 200.836 1310.11 198.962 Q1313.04 197.117 1313.04 194.6 Q1313.04 192.814 1312.02 191.672 Q1310.99 190.53 1308.89 190.061 Q1306.81 189.622 1305.34 189.534 Q1303.88 189.447 1301.19 189.447 L1297.64 189.447 Q1295.59 189.564 1294.16 191.057 Q1292.72 192.55 1292.72 194.6 M1296 172.173 Q1296 179.551 1301.24 179.551 Q1303.88 179.551 1305.49 177.15 Q1306.46 175.54 1306.46 172.114 Q1306.46 164.736 1301.24 164.736 Q1298.61 164.736 1296.97 167.137 Q1296 168.747 1296 172.173 Z" fill="#000000" fill-rule="nonzero" fill-opacity="1" /><path clip-path="url(#clip220)" d="M1323.13 189.857 L1323.13 188.012 Q1326.32 188.012 1327.05 187.631 Q1327.78 187.222 1327.78 185.289 L1327.78 169.216 Q1327.78 166.99 1326.99 166.434 Q1326.23 165.878 1323.13 165.878 L1323.13 164.004 L1331.56 163.36 L1331.56 169.655 Q1334.37 163.36 1340.43 163.36 Q1344.94 163.36 1346.72 165.585 Q1348.04 167.078 1348.31 168.747 Q1348.6 170.416 1348.6 174.749 L1348.6 186.197 Q1348.66 187.456 1349.62 187.749 Q1350.59 188.012 1353.28 188.012 L1353.28 189.857 Q1347.16 189.681 1346.55 189.681 Q1346.08 189.681 1339.79 189.857 L1339.79 188.012 Q1342.98 188.012 1343.71 187.631 Q1344.47 187.222 1344.47 185.289 L1344.47 171.324 Q1344.47 168.279 1343.53 166.493 Q1342.6 164.677 1340.02 164.677 Q1336.92 164.677 1334.43 167.283 Q1331.94 169.889 1331.94 174.281 L1331.94 185.289 Q1331.94 187.222 1332.67 187.631 Q1333.43 188.012 1336.59 188.012 L1336.59 189.857 Q1330.48 189.681 1329.89 189.681 Q1329.42 189.681 1323.13 189.857 Z" fill="#000000" fill-rule="nonzero" fill-opacity="1" /><path clip-path="url(#clip220)" d="M1357.51 184.147 Q1357.51 179.053 1363.51 176.359 Q1367.11 174.632 1374.55 174.193 L1374.55 171.997 Q1374.55 168.279 1372.59 166.317 Q1370.66 164.326 1368.2 164.326 Q1363.8 164.326 1361.7 167.078 Q1363.48 167.137 1364.13 168.044 Q1364.77 168.923 1364.77 169.83 Q1364.77 171.031 1364.01 171.821 Q1363.28 172.582 1362.02 172.582 Q1360.82 172.582 1360.03 171.851 Q1359.24 171.089 1359.24 169.772 Q1359.24 166.844 1361.87 164.912 Q1364.54 162.979 1368.31 162.979 Q1373.23 162.979 1376.51 166.288 Q1377.54 167.312 1378.03 168.63 Q1378.56 169.947 1378.62 170.826 Q1378.68 171.675 1378.68 173.373 L1378.68 185.348 Q1378.68 185.699 1378.79 186.285 Q1378.91 186.87 1379.44 187.631 Q1380 188.363 1380.9 188.363 Q1383.07 188.363 1383.04 184.528 L1383.04 181.161 L1384.56 181.161 L1384.56 184.528 Q1384.56 187.719 1382.86 188.978 Q1381.2 190.208 1379.64 190.208 Q1377.65 190.208 1376.39 188.744 Q1375.13 187.28 1374.96 185.289 Q1374.05 187.573 1371.97 189.066 Q1369.92 190.53 1367.11 190.53 Q1364.95 190.53 1362.9 189.974 Q1360.88 189.447 1359.18 187.953 Q1357.51 186.431 1357.51 184.147 M1362.14 184.089 Q1362.14 186.314 1363.72 187.749 Q1365.3 189.183 1367.52 189.183 Q1370.04 189.183 1372.3 187.251 Q1374.55 185.289 1374.55 181.454 L1374.55 175.452 Q1367.9 175.686 1365 178.35 Q1362.14 180.985 1362.14 184.089 Z" fill="#000000" fill-rule="nonzero" fill-opacity="1" /><path clip-path="url(#clip220)" d="M1386.96 189.857 L1386.96 188.012 Q1390.16 188.012 1390.89 187.631 Q1391.62 187.222 1391.62 185.289 L1391.62 154.108 Q1391.62 151.883 1390.83 151.327 Q1390.07 150.77 1386.96 150.77 L1386.96 148.897 L1395.57 148.252 L1395.57 185.289 Q1395.57 187.222 1396.33 187.631 Q1397.1 188.012 1400.26 188.012 L1400.26 189.857 Q1399.53 189.857 1398 189.798 Q1396.48 189.739 1395.37 189.71 Q1394.26 189.681 1393.61 189.681 Q1392.91 189.681 1386.96 189.857 Z" fill="#000000" fill-rule="nonzero" fill-opacity="1" /><circle clip-path="url(#clip220)" cx="1481.33" cy="175.036" r="25.6" fill="#e26f46" fill-rule="evenodd" fill-opacity="1" stroke="#000000" stroke-opacity="1" stroke-width="5.68889"/>
<path clip-path="url(#clip220)" d="M1559.25 195.302 L1559.25 193.457 L1560.69 193.457 Q1563.93 193.457 1564.67 192.93 Q1565.43 192.374 1565.43 190.617 L1565.43 159.026 Q1565.43 157.299 1564.67 156.772 Q1563.91 156.216 1560.69 156.216 L1559.25 156.216 L1559.25 154.342 L1580.42 154.342 Q1586.48 154.342 1590.52 157.68 Q1594.56 161.017 1594.56 165.497 Q1594.56 169.947 1590.43 173.168 Q1586.33 176.359 1580.89 176.359 L1570.76 176.359 L1570.76 190.617 Q1570.76 192.345 1571.49 192.901 Q1572.25 193.457 1575.5 193.457 L1576.93 193.457 L1576.93 195.302 Q1574.83 195.126 1568.06 195.126 Q1561.36 195.126 1559.25 195.302 M1570.58 174.807 L1578.84 174.807 Q1581.53 174.807 1583.49 174.046 Q1585.45 173.285 1586.33 172.377 Q1587.24 171.44 1587.74 169.947 Q1588.26 168.425 1588.32 167.605 Q1588.38 166.756 1588.38 165.497 Q1588.38 164.179 1588.32 163.359 Q1588.26 162.51 1587.74 161.017 Q1587.24 159.495 1586.33 158.587 Q1585.45 157.65 1583.49 156.948 Q1581.56 156.216 1578.84 156.216 L1573.51 156.216 Q1571.46 156.216 1571.02 156.626 Q1570.58 157.035 1570.58 158.616 L1570.58 174.807 Z" fill="#000000" fill-rule="nonzero" fill-opacity="1" /><path clip-path="url(#clip220)" d="M1605.41 182.097 Q1605.41 176.447 1609.04 172.436 Q1612.67 168.425 1617.88 168.425 Q1623.15 168.425 1625.88 171.85 Q1628.63 175.276 1628.63 180.194 Q1628.63 181.102 1628.4 181.278 Q1628.16 181.453 1627.14 181.453 L1610.39 181.453 Q1610.39 187.572 1612.2 190.442 Q1614.72 194.453 1618.97 194.453 Q1619.55 194.453 1620.26 194.336 Q1620.96 194.219 1622.39 193.721 Q1623.83 193.194 1625.09 191.818 Q1626.35 190.442 1627.08 188.275 Q1627.25 187.426 1627.84 187.455 Q1628.63 187.455 1628.63 188.158 Q1628.63 188.685 1628.04 189.885 Q1627.49 191.057 1626.4 192.462 Q1625.32 193.867 1623.21 194.921 Q1621.13 195.975 1618.62 195.975 Q1613.35 195.975 1609.36 191.993 Q1605.41 187.982 1605.41 182.097 M1610.45 180.194 L1624.68 180.194 Q1624.68 178.935 1624.44 177.53 Q1624.24 176.125 1623.59 174.192 Q1622.98 172.231 1621.52 171.001 Q1620.05 169.771 1617.88 169.771 Q1616.92 169.771 1615.86 170.181 Q1614.84 170.591 1613.58 171.587 Q1612.32 172.582 1611.44 174.836 Q1610.57 177.091 1610.45 180.194 Z" fill="#000000" fill-rule="nonzero" fill-opacity="1" /><path clip-path="url(#clip220)" d="M1631.53 189.593 Q1631.53 184.498 1637.53 181.805 Q1641.14 180.077 1648.57 179.638 L1648.57 177.442 Q1648.57 173.724 1646.61 171.762 Q1644.68 169.771 1642.22 169.771 Q1637.83 169.771 1635.72 172.524 Q1637.51 172.582 1638.15 173.49 Q1638.79 174.368 1638.79 175.276 Q1638.79 176.476 1638.03 177.267 Q1637.3 178.028 1636.04 178.028 Q1634.84 178.028 1634.05 177.296 Q1633.26 176.535 1633.26 175.217 Q1633.26 172.289 1635.9 170.357 Q1638.56 168.425 1642.34 168.425 Q1647.26 168.425 1650.53 171.733 Q1651.56 172.758 1652.06 174.075 Q1652.58 175.393 1652.64 176.271 Q1652.7 177.12 1652.7 178.818 L1652.7 190.793 Q1652.7 191.144 1652.82 191.73 Q1652.94 192.315 1653.46 193.077 Q1654.02 193.809 1654.93 193.809 Q1657.09 193.809 1657.06 189.973 L1657.06 186.606 L1658.59 186.606 L1658.59 189.973 Q1658.59 193.165 1656.89 194.424 Q1655.22 195.653 1653.67 195.653 Q1651.68 195.653 1650.42 194.189 Q1649.16 192.725 1648.98 190.734 Q1648.07 193.018 1646 194.511 Q1643.95 195.975 1641.14 195.975 Q1638.97 195.975 1636.92 195.419 Q1634.9 194.892 1633.2 193.399 Q1631.53 191.876 1631.53 189.593 M1636.16 189.534 Q1636.16 191.759 1637.74 193.194 Q1639.32 194.628 1641.55 194.628 Q1644.06 194.628 1646.32 192.696 Q1648.57 190.734 1648.57 186.899 L1648.57 180.897 Q1641.93 181.131 1639.03 183.796 Q1636.16 186.431 1636.16 189.534 Z" fill="#000000" fill-rule="nonzero" fill-opacity="1" /><path clip-path="url(#clip220)" d="M1660.99 195.302 L1660.99 193.457 Q1664.18 193.457 1664.91 193.077 Q1665.67 192.667 1665.67 190.734 L1665.67 159.553 Q1665.67 157.328 1664.88 156.772 Q1664.12 156.216 1660.99 156.216 L1660.99 154.342 L1669.63 153.698 L1669.63 182.478 L1678.09 175.159 Q1679.4 174.017 1679.4 172.816 Q1679.4 171.44 1677.68 171.323 L1677.68 169.449 Q1680.19 169.625 1684.38 169.625 Q1686.84 169.625 1688.57 169.449 L1688.57 171.323 Q1684.79 171.499 1681.01 174.544 Q1680.17 175.217 1678.15 176.974 Q1676.15 178.701 1676.15 178.877 Q1676.15 178.935 1676.21 179.082 Q1676.3 179.228 1676.42 179.345 Q1676.53 179.462 1676.53 179.521 L1684.15 190.266 Q1685.7 192.433 1686.84 192.96 Q1687.98 193.457 1689.97 193.457 L1689.97 195.302 Q1687.4 195.126 1684.73 195.126 Q1683.3 195.126 1678.26 195.302 L1678.26 193.457 Q1680.43 193.457 1680.43 192.052 Q1680.43 191.086 1675.57 184.381 Q1675.22 183.913 1674.43 182.888 Q1673.69 181.805 1673.28 181.278 L1669.45 184.557 L1669.45 190.734 Q1669.45 192.667 1670.18 193.077 Q1670.94 193.457 1674.13 193.457 L1674.13 195.302 Q1670.53 195.126 1667.55 195.126 Q1666.93 195.126 1660.99 195.302 Z" fill="#000000" fill-rule="nonzero" fill-opacity="1" /><path clip-path="url(#clip220)" d="M1693.22 194.511 L1693.22 186.606 Q1693.22 185.933 1693.25 185.699 Q1693.28 185.464 1693.45 185.289 Q1693.63 185.113 1693.98 185.113 Q1694.39 185.113 1694.54 185.289 Q1694.71 185.464 1694.83 186.138 Q1695.74 190.266 1697.67 192.462 Q1699.63 194.628 1703.17 194.628 Q1706.54 194.628 1708.24 193.135 Q1709.94 191.642 1709.94 189.183 Q1709.94 184.791 1703.7 183.678 Q1700.1 182.947 1698.61 182.478 Q1697.11 181.98 1695.79 180.897 Q1693.22 178.789 1693.22 175.803 Q1693.22 172.816 1695.47 170.62 Q1697.76 168.425 1702.79 168.425 Q1706.16 168.425 1708.44 170.123 Q1709.12 169.596 1709.47 169.157 Q1710.26 168.425 1710.67 168.425 Q1711.14 168.425 1711.22 168.747 Q1711.31 169.039 1711.31 169.888 L1711.31 175.92 Q1711.31 176.593 1711.28 176.827 Q1711.25 177.062 1711.08 177.237 Q1710.9 177.384 1710.52 177.384 Q1709.85 177.384 1709.82 176.827 Q1709.35 169.566 1702.79 169.566 Q1699.25 169.566 1697.67 170.943 Q1696.09 172.289 1696.09 174.134 Q1696.09 175.159 1696.56 175.949 Q1697.05 176.71 1697.67 177.179 Q1698.31 177.618 1699.48 178.057 Q1700.66 178.467 1701.36 178.613 Q1702.09 178.76 1703.47 179.053 Q1708.27 179.96 1710.29 181.922 Q1712.81 184.44 1712.81 187.631 Q1712.81 191.174 1710.4 193.574 Q1708 195.975 1703.17 195.975 Q1699.28 195.975 1696.56 193.369 Q1696.2 193.721 1695.94 194.043 Q1695.68 194.336 1695.56 194.453 Q1695.47 194.57 1695.44 194.658 Q1695.41 194.716 1695.36 194.775 Q1694.16 195.975 1693.86 195.975 Q1693.39 195.975 1693.31 195.653 Q1693.22 195.36 1693.22 194.511 Z" fill="#000000" fill-rule="nonzero" fill-opacity="1" /></svg>
