<?xml version="1.0" encoding="utf-8"?>
<svg xmlns="http://www.w3.org/2000/svg" xmlns:xlink="http://www.w3.org/1999/xlink" width="600" height="400" viewBox="0 0 2400 1600">
<defs>
  <clipPath id="clip080">
    <rect x="0" y="0" width="2400" height="1600"/>
  </clipPath>
</defs>
<path clip-path="url(#clip080)" d="M0 1600 L2400 1600 L2400 0 L0 0  Z" fill="#ffffff" fill-rule="evenodd" fill-opacity="1"/>
<defs>
  <clipPath id="clip081">
    <rect x="498" y="280" width="1792" height="1055"/>
  </clipPath>
</defs>
<path clip-path="url(#clip080)" d="M497.623 1334.27 L2289.76 1334.27 L2289.76 280.637 L497.623 280.637  Z" fill="#ffffff" fill-rule="evenodd" fill-opacity="1"/>
<defs>
  <clipPath id="clip082">
    <rect x="497" y="280" width="1793" height="1055"/>
  </clipPath>
</defs>
<polyline clip-path="url(#clip080)" style="stroke:#000000; stroke-linecap:round; stroke-linejoin:round; stroke-width:4; stroke-opacity:1; fill:none" points="497.623,1334.27 2289.76,1334.27 "/>
<polyline clip-path="url(#clip080)" style="stroke:#000000; stroke-linecap:round; stroke-linejoin:round; stroke-width:4; stroke-opacity:1; fill:none" points="548.344,1334.27 548.344,1318 "/>
<polyline clip-path="url(#clip080)" style="stroke:#000000; stroke-linecap:round; stroke-linejoin:round; stroke-width:4; stroke-opacity:1; fill:none" points="933.823,1334.27 933.823,1318 "/>
<polyline clip-path="url(#clip080)" style="stroke:#000000; stroke-linecap:round; stroke-linejoin:round; stroke-width:4; stroke-opacity:1; fill:none" points="1319.3,1334.27 1319.3,1318 "/>
<polyline clip-path="url(#clip080)" style="stroke:#000000; stroke-linecap:round; stroke-linejoin:round; stroke-width:4; stroke-opacity:1; fill:none" points="1704.78,1334.27 1704.78,1318 "/>
<polyline clip-path="url(#clip080)" style="stroke:#000000; stroke-linecap:round; stroke-linejoin:round; stroke-width:4; stroke-opacity:1; fill:none" points="2090.26,1334.27 2090.26,1318 "/>
<path clip-path="url(#clip080)" d="M548.344 1368.12 Q543.83 1368.12 541.544 1372.57 Q539.287 1377 539.287 1385.91 Q539.287 1394.79 541.544 1399.25 Q543.83 1403.68 548.344 1403.68 Q552.887 1403.68 555.144 1399.25 Q557.43 1394.79 557.43 1385.91 Q557.43 1377 555.144 1372.57 Q552.887 1368.12 548.344 1368.12 M548.344 1363.49 Q555.607 1363.49 559.426 1369.24 Q563.275 1374.97 563.275 1385.91 Q563.275 1396.82 559.426 1402.58 Q555.607 1408.31 548.344 1408.31 Q541.081 1408.31 537.233 1402.58 Q533.414 1396.82 533.414 1385.91 Q533.414 1374.97 537.233 1369.24 Q541.081 1363.49 548.344 1363.49 Z" fill="#000000" fill-rule="nonzero" fill-opacity="1" /><path clip-path="url(#clip080)" d="M902.197 1364.27 L925.143 1364.27 L925.143 1369.19 L907.55 1369.19 L907.55 1379.78 Q908.823 1379.34 910.097 1379.14 Q911.37 1378.91 912.643 1378.91 Q919.877 1378.91 924.101 1382.87 Q928.326 1386.84 928.326 1393.61 Q928.326 1400.58 923.985 1404.46 Q919.645 1408.31 911.746 1408.31 Q909.026 1408.31 906.19 1407.84 Q903.384 1407.38 900.374 1406.45 L900.374 1400.58 Q902.979 1402 905.756 1402.69 Q908.534 1403.39 911.63 1403.39 Q916.636 1403.39 919.558 1400.75 Q922.481 1398.12 922.481 1393.61 Q922.481 1389.09 919.558 1386.46 Q916.636 1383.83 911.63 1383.83 Q909.286 1383.83 906.943 1384.35 Q904.628 1384.87 902.197 1385.97 L902.197 1364.27 Z" fill="#000000" fill-rule="nonzero" fill-opacity="1" /><path clip-path="url(#clip080)" d="M952.342 1368.12 Q947.828 1368.12 945.542 1372.57 Q943.285 1377 943.285 1385.91 Q943.285 1394.79 945.542 1399.25 Q947.828 1403.68 952.342 1403.68 Q956.885 1403.68 959.142 1399.25 Q961.427 1394.79 961.427 1385.91 Q961.427 1377 959.142 1372.57 Q956.885 1368.12 952.342 1368.12 M952.342 1363.49 Q959.604 1363.49 963.424 1369.24 Q967.272 1374.97 967.272 1385.91 Q967.272 1396.82 963.424 1402.58 Q959.604 1408.31 952.342 1408.31 Q945.079 1408.31 941.231 1402.58 Q937.411 1396.82 937.411 1385.91 Q937.411 1374.97 941.231 1369.24 Q945.079 1363.49 952.342 1363.49 Z" fill="#000000" fill-rule="nonzero" fill-opacity="1" /><path clip-path="url(#clip080)" d="M1268.81 1402.55 L1278.36 1402.55 L1278.36 1369.59 L1267.97 1371.68 L1267.97 1366.35 L1278.3 1364.27 L1284.15 1364.27 L1284.15 1402.55 L1293.7 1402.55 L1293.7 1407.47 L1268.81 1407.47 L1268.81 1402.55 Z" fill="#000000" fill-rule="nonzero" fill-opacity="1" /><path clip-path="url(#clip080)" d="M1318 1368.12 Q1313.49 1368.12 1311.2 1372.57 Q1308.94 1377 1308.94 1385.91 Q1308.94 1394.79 1311.2 1399.25 Q1313.49 1403.68 1318 1403.68 Q1322.54 1403.68 1324.8 1399.25 Q1327.09 1394.79 1327.09 1385.91 Q1327.09 1377 1324.8 1372.57 Q1322.54 1368.12 1318 1368.12 M1318 1363.49 Q1325.26 1363.49 1329.08 1369.24 Q1332.93 1374.97 1332.93 1385.91 Q1332.93 1396.82 1329.08 1402.58 Q1325.26 1408.31 1318 1408.31 Q1310.74 1408.31 1306.89 1402.58 Q1303.07 1396.82 1303.07 1385.91 Q1303.07 1374.97 1306.89 1369.24 Q1310.74 1363.49 1318 1363.49 Z" fill="#000000" fill-rule="nonzero" fill-opacity="1" /><path clip-path="url(#clip080)" d="M1355.7 1368.12 Q1351.19 1368.12 1348.9 1372.57 Q1346.65 1377 1346.65 1385.91 Q1346.65 1394.79 1348.9 1399.25 Q1351.19 1403.68 1355.7 1403.68 Q1360.25 1403.68 1362.5 1399.25 Q1364.79 1394.79 1364.79 1385.91 Q1364.79 1377 1362.5 1372.57 Q1360.25 1368.12 1355.7 1368.12 M1355.7 1363.49 Q1362.97 1363.49 1366.79 1369.24 Q1370.63 1374.97 1370.63 1385.91 Q1370.63 1396.82 1366.79 1402.58 Q1362.97 1408.31 1355.7 1408.31 Q1348.44 1408.31 1344.59 1402.58 Q1340.77 1396.82 1340.77 1385.91 Q1340.77 1374.97 1344.59 1369.24 Q1348.44 1363.49 1355.7 1363.49 Z" fill="#000000" fill-rule="nonzero" fill-opacity="1" /><path clip-path="url(#clip080)" d="M1654.29 1402.55 L1663.84 1402.55 L1663.84 1369.59 L1653.45 1371.68 L1653.45 1366.35 L1663.78 1364.27 L1669.63 1364.27 L1669.63 1402.55 L1679.17 1402.55 L1679.17 1407.47 L1654.29 1407.47 L1654.29 1402.55 Z" fill="#000000" fill-rule="nonzero" fill-opacity="1" /><path clip-path="url(#clip080)" d="M1691.04 1364.27 L1713.98 1364.27 L1713.98 1369.19 L1696.39 1369.19 L1696.39 1379.78 Q1697.66 1379.34 1698.94 1379.14 Q1700.21 1378.91 1701.48 1378.91 Q1708.72 1378.91 1712.94 1382.87 Q1717.17 1386.84 1717.17 1393.61 Q1717.17 1400.58 1712.83 1404.46 Q1708.49 1408.31 1700.59 1408.31 Q1697.87 1408.31 1695.03 1407.84 Q1692.22 1407.38 1689.21 1406.45 L1689.21 1400.58 Q1691.82 1402 1694.6 1402.69 Q1697.37 1403.39 1700.47 1403.39 Q1705.48 1403.39 1708.4 1400.75 Q1711.32 1398.12 1711.32 1393.61 Q1711.32 1389.09 1708.4 1386.46 Q1705.48 1383.83 1700.47 1383.83 Q1698.13 1383.83 1695.78 1384.35 Q1693.47 1384.87 1691.04 1385.97 L1691.04 1364.27 Z" fill="#000000" fill-rule="nonzero" fill-opacity="1" /><path clip-path="url(#clip080)" d="M1741.18 1368.12 Q1736.67 1368.12 1734.38 1372.57 Q1732.13 1377 1732.13 1385.91 Q1732.13 1394.79 1734.38 1399.25 Q1736.67 1403.68 1741.18 1403.68 Q1745.73 1403.68 1747.98 1399.25 Q1750.27 1394.79 1750.27 1385.91 Q1750.27 1377 1747.98 1372.57 Q1745.73 1368.12 1741.18 1368.12 M1741.18 1363.49 Q1748.44 1363.49 1752.26 1369.24 Q1756.11 1374.97 1756.11 1385.91 Q1756.11 1396.82 1752.26 1402.58 Q1748.44 1408.31 1741.18 1408.31 Q1733.92 1408.31 1730.07 1402.58 Q1726.25 1396.82 1726.25 1385.91 Q1726.25 1374.97 1730.07 1369.24 Q1733.92 1363.49 1741.18 1363.49 Z" fill="#000000" fill-rule="nonzero" fill-opacity="1" /><path clip-path="url(#clip080)" d="M2044.88 1402.55 L2065.28 1402.55 L2065.28 1407.47 L2037.85 1407.47 L2037.85 1402.55 Q2041.17 1399.11 2046.9 1393.32 Q2052.66 1387.5 2054.14 1385.82 Q2056.94 1382.67 2058.04 1380.5 Q2059.17 1378.3 2059.17 1376.19 Q2059.17 1372.75 2056.74 1370.58 Q2054.34 1368.41 2050.46 1368.41 Q2047.71 1368.41 2044.65 1369.36 Q2041.61 1370.32 2038.13 1372.25 L2038.13 1366.35 Q2041.66 1364.93 2044.73 1364.21 Q2047.8 1363.49 2050.35 1363.49 Q2057.06 1363.49 2061.05 1366.84 Q2065.04 1370.2 2065.04 1375.81 Q2065.04 1378.47 2064.03 1380.88 Q2063.05 1383.25 2060.41 1386.49 Q2059.69 1387.33 2055.81 1391.35 Q2051.94 1395.34 2044.88 1402.55 Z" fill="#000000" fill-rule="nonzero" fill-opacity="1" /><path clip-path="url(#clip080)" d="M2090.04 1368.12 Q2085.53 1368.12 2083.24 1372.57 Q2080.99 1377 2080.99 1385.91 Q2080.99 1394.79 2083.24 1399.25 Q2085.53 1403.68 2090.04 1403.68 Q2094.59 1403.68 2096.84 1399.25 Q2099.13 1394.79 2099.13 1385.91 Q2099.13 1377 2096.84 1372.57 Q2094.59 1368.12 2090.04 1368.12 M2090.04 1363.49 Q2097.31 1363.49 2101.13 1369.24 Q2104.97 1374.97 2104.97 1385.91 Q2104.97 1396.82 2101.13 1402.58 Q2097.31 1408.31 2090.04 1408.31 Q2082.78 1408.31 2078.93 1402.58 Q2075.11 1396.82 2075.11 1385.91 Q2075.11 1374.97 2078.93 1369.24 Q2082.78 1363.49 2090.04 1363.49 Z" fill="#000000" fill-rule="nonzero" fill-opacity="1" /><path clip-path="url(#clip080)" d="M2127.75 1368.12 Q2123.23 1368.12 2120.95 1372.57 Q2118.69 1377 2118.69 1385.91 Q2118.69 1394.79 2120.95 1399.25 Q2123.23 1403.68 2127.75 1403.68 Q2132.29 1403.68 2134.55 1399.25 Q2136.83 1394.79 2136.83 1385.91 Q2136.83 1377 2134.55 1372.57 Q2132.29 1368.12 2127.75 1368.12 M2127.75 1363.49 Q2135.01 1363.49 2138.83 1369.24 Q2142.68 1374.97 2142.68 1385.91 Q2142.68 1396.82 2138.83 1402.58 Q2135.01 1408.31 2127.75 1408.31 Q2120.48 1408.31 2116.64 1402.58 Q2112.82 1396.82 2112.82 1385.91 Q2112.82 1374.97 2116.64 1369.24 Q2120.48 1363.49 2127.75 1363.49 Z" fill="#000000" fill-rule="nonzero" fill-opacity="1" /><path clip-path="url(#clip080)" d="M1078.02 1496.22 L1078.02 1493.45 L1080.17 1493.45 Q1085.05 1493.45 1086.15 1492.66 Q1087.29 1491.83 1087.29 1489.19 L1087.29 1442.07 Q1087.29 1439.48 1086.15 1438.69 Q1085.01 1437.86 1080.17 1437.86 L1078.02 1437.86 L1078.02 1435.04 L1127.39 1435.04 L1129.89 1455.29 L1127.65 1455.29 Q1127.03 1450.15 1126.2 1447.25 Q1125.41 1444.31 1123.56 1441.98 Q1121.72 1439.66 1118.6 1438.78 Q1115.53 1437.86 1110.48 1437.86 L1099.67 1437.86 Q1096.6 1437.86 1095.94 1438.51 Q1095.28 1439.13 1095.28 1441.46 L1095.28 1464.21 L1103.01 1464.21 Q1109.12 1464.21 1110.83 1462.01 Q1112.54 1459.81 1112.54 1453.67 L1114.78 1453.67 L1114.78 1477.51 L1112.54 1477.51 Q1112.54 1471.32 1110.83 1469.17 Q1109.12 1466.97 1103.01 1466.97 L1095.28 1466.97 L1095.28 1489.11 Q1095.28 1491 1095.59 1491.74 Q1095.9 1492.44 1097.79 1492.97 Q1099.67 1493.45 1103.8 1493.45 L1106.79 1493.45 L1106.79 1496.22 Q1103.54 1495.96 1091.68 1495.96 Q1081.18 1495.96 1078.02 1496.22 Z" fill="#000000" fill-rule="nonzero" fill-opacity="1" /><path clip-path="url(#clip080)" d="M1143.67 1496.22 L1143.67 1493.45 Q1148.46 1493.45 1149.55 1492.88 Q1150.7 1492.27 1150.7 1489.37 L1150.7 1465.26 Q1150.7 1461.92 1149.51 1461.09 Q1148.37 1460.25 1143.67 1460.25 L1143.67 1457.44 L1156.19 1456.48 L1156.19 1466.36 Q1157.46 1462.49 1160.14 1459.51 Q1162.86 1456.48 1167.25 1456.48 Q1170.15 1456.48 1172 1458.1 Q1173.88 1459.73 1173.88 1461.97 Q1173.88 1463.94 1172.65 1464.95 Q1171.47 1465.92 1170.02 1465.92 Q1168.39 1465.92 1167.25 1464.91 Q1166.15 1463.85 1166.15 1462.05 Q1166.15 1460.96 1166.64 1460.12 Q1167.16 1459.24 1167.56 1458.94 Q1167.95 1458.63 1168.22 1458.54 Q1168.04 1458.45 1167.25 1458.45 Q1162.29 1458.45 1159.43 1463.42 Q1156.62 1468.33 1156.62 1475.36 L1156.62 1489.19 Q1156.62 1491.79 1157.68 1492.62 Q1158.78 1493.45 1163.48 1493.45 L1165.36 1493.45 L1165.36 1496.22 Q1161.76 1495.96 1153.95 1495.96 Q1152.85 1495.96 1151.13 1496 Q1149.42 1496.05 1147.18 1496.13 Q1144.94 1496.22 1143.67 1496.22 Z" fill="#000000" fill-rule="nonzero" fill-opacity="1" /><path clip-path="url(#clip080)" d="M1180.47 1476.41 Q1180.47 1467.94 1185.92 1461.92 Q1191.36 1455.91 1199.18 1455.91 Q1207.08 1455.91 1211.17 1461.04 Q1215.3 1466.18 1215.3 1473.56 Q1215.3 1474.92 1214.94 1475.18 Q1214.59 1475.45 1213.06 1475.45 L1187.94 1475.45 Q1187.94 1484.63 1190.66 1488.93 Q1194.44 1494.95 1200.8 1494.95 Q1201.68 1494.95 1202.74 1494.77 Q1203.79 1494.6 1205.94 1493.85 Q1208.09 1493.06 1209.98 1491 Q1211.87 1488.93 1212.97 1485.68 Q1213.23 1484.41 1214.11 1484.45 Q1215.3 1484.45 1215.3 1485.51 Q1215.3 1486.3 1214.42 1488.1 Q1213.58 1489.85 1211.96 1491.96 Q1210.33 1494.07 1207.17 1495.65 Q1204.05 1497.23 1200.28 1497.23 Q1192.37 1497.23 1186.4 1491.26 Q1180.47 1485.24 1180.47 1476.41 M1188.02 1473.56 L1209.37 1473.56 Q1209.37 1471.67 1209.02 1469.56 Q1208.71 1467.46 1207.74 1464.56 Q1206.82 1461.61 1204.62 1459.77 Q1202.43 1457.93 1199.18 1457.93 Q1197.73 1457.93 1196.15 1458.54 Q1194.61 1459.16 1192.72 1460.65 Q1190.83 1462.14 1189.52 1465.52 Q1188.2 1468.9 1188.02 1473.56 Z" fill="#000000" fill-rule="nonzero" fill-opacity="1" /><path clip-path="url(#clip080)" d="M1220.01 1476.9 Q1220.01 1468.25 1225.94 1462.36 Q1231.86 1456.48 1239.86 1456.48 Q1243.2 1456.48 1245.92 1458.1 Q1248.68 1459.73 1249.87 1461.35 Q1251.1 1462.93 1251.93 1464.64 L1255.32 1456.48 L1257.34 1456.48 L1257.34 1506.85 Q1257.34 1509.75 1258.43 1510.32 Q1259.58 1510.89 1264.32 1510.89 L1264.32 1513.66 Q1254.88 1513.39 1254.17 1513.39 Q1253.3 1513.39 1244.07 1513.66 L1244.07 1510.89 Q1248.86 1510.89 1249.96 1510.27 Q1251.1 1509.7 1251.1 1506.85 L1251.1 1490.73 Q1246.14 1497.19 1239.15 1497.23 Q1231.34 1497.23 1225.67 1491.26 Q1220.01 1485.24 1220.01 1476.9 M1227.47 1476.9 Q1227.47 1484.63 1230.99 1489.94 Q1234.54 1495.21 1239.51 1495.21 Q1244.38 1495.21 1247.76 1491.57 Q1251.36 1487.61 1251.36 1483.97 L1251.36 1471.32 Q1251.36 1467.1 1248.33 1462.93 Q1245.35 1458.72 1240.43 1458.72 Q1235.29 1458.72 1231.38 1463.9 Q1227.47 1469.08 1227.47 1476.9 Z" fill="#000000" fill-rule="nonzero" fill-opacity="1" /><path clip-path="url(#clip080)" d="M1271.99 1460.25 L1271.99 1457.44 L1285.21 1456.48 L1285.21 1486.34 Q1285.21 1488.49 1285.38 1489.77 Q1285.56 1491 1286.26 1492.44 Q1287.01 1493.89 1288.68 1494.55 Q1290.39 1495.21 1293.11 1495.21 Q1297.99 1495.21 1300.97 1491.21 Q1304 1487.22 1304 1481.29 L1304 1465.26 Q1304 1461.92 1302.82 1461.09 Q1301.63 1460.25 1296.98 1460.25 L1296.98 1457.44 L1310.2 1456.48 L1310.2 1488.4 Q1310.2 1491.74 1311.34 1492.62 Q1312.52 1493.45 1317.22 1493.45 L1317.22 1496.22 L1304.27 1497.23 L1304.27 1489.11 Q1300.49 1497.19 1292.67 1497.23 Q1288.72 1497.23 1286 1496.22 Q1283.32 1495.21 1281.96 1493.98 Q1280.6 1492.71 1279.85 1490.29 Q1279.15 1487.88 1279.06 1486.38 Q1278.97 1484.89 1278.97 1481.99 L1278.97 1468.51 Q1278.97 1462.4 1278.09 1461.35 Q1277.21 1460.25 1271.99 1460.25 Z" fill="#000000" fill-rule="nonzero" fill-opacity="1" /><path clip-path="url(#clip080)" d="M1322.12 1476.41 Q1322.12 1467.94 1327.56 1461.92 Q1333.01 1455.91 1340.83 1455.91 Q1348.73 1455.91 1352.82 1461.04 Q1356.94 1466.18 1356.94 1473.56 Q1356.94 1474.92 1356.59 1475.18 Q1356.24 1475.45 1354.71 1475.45 L1329.58 1475.45 Q1329.58 1484.63 1332.31 1488.93 Q1336.08 1494.95 1342.45 1494.95 Q1343.33 1494.95 1344.38 1494.77 Q1345.44 1494.6 1347.59 1493.85 Q1349.74 1493.06 1351.63 1491 Q1353.52 1488.93 1354.62 1485.68 Q1354.88 1484.41 1355.76 1484.45 Q1356.94 1484.45 1356.94 1485.51 Q1356.94 1486.3 1356.07 1488.1 Q1355.23 1489.85 1353.61 1491.96 Q1351.98 1494.07 1348.82 1495.65 Q1345.7 1497.23 1341.93 1497.23 Q1334.02 1497.23 1328.05 1491.26 Q1322.12 1485.24 1322.12 1476.41 M1329.67 1473.56 L1351.02 1473.56 Q1351.02 1471.67 1350.66 1469.56 Q1350.36 1467.46 1349.39 1464.56 Q1348.47 1461.61 1346.27 1459.77 Q1344.08 1457.93 1340.83 1457.93 Q1339.38 1457.93 1337.8 1458.54 Q1336.26 1459.16 1334.37 1460.65 Q1332.48 1462.14 1331.17 1465.52 Q1329.85 1468.9 1329.67 1473.56 Z" fill="#000000" fill-rule="nonzero" fill-opacity="1" /><path clip-path="url(#clip080)" d="M1359.86 1496.22 L1359.86 1493.45 Q1364.64 1493.45 1365.74 1492.88 Q1366.84 1492.27 1366.84 1489.37 L1366.84 1465.26 Q1366.84 1461.92 1365.65 1461.09 Q1364.51 1460.25 1359.86 1460.25 L1359.86 1457.44 L1372.5 1456.48 L1372.5 1465.92 Q1376.72 1456.48 1385.81 1456.48 Q1392.57 1456.48 1395.25 1459.81 Q1397.23 1462.05 1397.62 1464.56 Q1398.06 1467.06 1398.06 1473.56 L1398.06 1490.73 Q1398.15 1492.62 1399.6 1493.06 Q1401.05 1493.45 1405.09 1493.45 L1405.09 1496.22 Q1395.91 1495.96 1394.99 1495.96 Q1394.29 1495.96 1384.84 1496.22 L1384.84 1493.45 Q1389.63 1493.45 1390.73 1492.88 Q1391.87 1492.27 1391.87 1489.37 L1391.87 1468.42 Q1391.87 1463.85 1390.47 1461.18 Q1389.06 1458.45 1385.2 1458.45 Q1380.54 1458.45 1376.81 1462.36 Q1373.07 1466.27 1373.07 1472.86 L1373.07 1489.37 Q1373.07 1492.27 1374.17 1492.88 Q1375.31 1493.45 1380.06 1493.45 L1380.06 1496.22 Q1370.88 1495.96 1370 1495.96 Q1369.3 1495.96 1359.86 1496.22 Z" fill="#000000" fill-rule="nonzero" fill-opacity="1" /><path clip-path="url(#clip080)" d="M1417.14 1491.3 Q1411.43 1485.33 1411.43 1476.81 Q1411.43 1468.25 1417.05 1462.1 Q1422.67 1455.91 1430.93 1455.91 Q1436.42 1455.91 1440.54 1458.54 Q1444.67 1461.13 1444.67 1465.57 Q1444.67 1467.54 1443.49 1468.69 Q1442.34 1469.78 1440.54 1469.78 Q1438.65 1469.78 1437.51 1468.64 Q1436.42 1467.46 1436.42 1465.65 Q1436.42 1464.86 1436.68 1464.07 Q1436.94 1463.28 1437.91 1462.45 Q1438.92 1461.61 1440.63 1461.48 Q1437.43 1458.19 1431.19 1458.19 Q1431.1 1458.19 1431.01 1458.19 Q1426.45 1458.19 1422.67 1462.49 Q1418.89 1466.8 1418.89 1476.63 Q1418.89 1481.77 1420.12 1485.55 Q1421.4 1489.28 1423.46 1491.21 Q1425.52 1493.15 1427.54 1494.07 Q1429.56 1494.95 1431.54 1494.95 Q1440.37 1494.95 1443.35 1485.51 Q1443.62 1484.63 1444.5 1484.63 Q1445.68 1484.63 1445.68 1485.51 Q1445.68 1485.94 1445.33 1487.09 Q1444.98 1488.23 1443.88 1490.03 Q1442.78 1491.83 1441.2 1493.41 Q1439.67 1494.95 1436.9 1496.09 Q1434.18 1497.23 1430.75 1497.23 Q1422.84 1497.23 1417.14 1491.3 Z" fill="#000000" fill-rule="nonzero" fill-opacity="1" /><path clip-path="url(#clip080)" d="M1448.8 1507.38 Q1448.8 1505.49 1449.9 1504.48 Q1451.04 1503.51 1452.58 1503.51 Q1454.21 1503.51 1455.26 1504.52 Q1456.36 1505.58 1456.36 1507.29 Q1456.36 1510.63 1452.84 1511.07 Q1454.56 1512.69 1457.06 1512.69 Q1459.74 1512.69 1461.89 1510.71 Q1464.09 1508.74 1465.01 1506.85 Q1465.98 1504.96 1467.34 1501.54 Q1468.61 1498.86 1469.58 1496.22 L1456.09 1463.37 Q1455.22 1461.22 1453.85 1460.74 Q1452.49 1460.25 1448.8 1460.25 L1448.8 1457.44 Q1452.84 1457.71 1457.54 1457.71 Q1460.31 1457.71 1467.34 1457.44 L1467.34 1460.25 Q1462.29 1460.25 1462.29 1462.58 Q1462.29 1462.84 1462.81 1464.21 L1472.83 1488.4 L1481.92 1466.27 Q1482.44 1465 1482.44 1464.12 Q1482.44 1460.43 1478.23 1460.25 L1478.23 1457.44 Q1484.16 1457.71 1486.05 1457.71 Q1489.73 1457.71 1492.76 1457.44 L1492.76 1460.25 Q1486.75 1460.25 1484.42 1466.01 L1468.57 1504.39 Q1464.26 1514.62 1457.06 1514.67 Q1453.63 1514.67 1451.22 1512.56 Q1448.8 1510.45 1448.8 1507.38 Z" fill="#000000" fill-rule="nonzero" fill-opacity="1" /><path clip-path="url(#clip080)" d="M1519.5 1473.74 Q1519.5 1458.54 1525.17 1446.29 Q1527.58 1441.15 1530.96 1436.85 Q1534.35 1432.54 1536.58 1430.65 Q1538.82 1428.76 1539.44 1428.76 Q1540.32 1428.76 1540.36 1429.64 Q1540.36 1430.08 1539.18 1431.18 Q1524.68 1445.94 1524.73 1473.74 Q1524.73 1501.62 1538.82 1515.81 Q1540.36 1517.35 1540.36 1517.83 Q1540.36 1518.71 1539.44 1518.71 Q1538.82 1518.71 1536.67 1516.91 Q1534.52 1515.11 1531.18 1510.98 Q1527.85 1506.85 1525.43 1501.8 Q1519.5 1489.55 1519.5 1473.74 Z" fill="#000000" fill-rule="nonzero" fill-opacity="1" /><path clip-path="url(#clip080)" d="M1624.35 1435.79 Q1624.35 1437.06 1623.78 1437.33 Q1623.25 1437.59 1621.32 1437.59 Q1618.03 1437.59 1616.53 1438.03 Q1615.08 1438.43 1614.64 1439.13 Q1614.25 1439.79 1613.77 1441.72 L1601.6 1490.29 Q1601.6 1490.34 1601.47 1490.95 Q1601.34 1491.52 1601.34 1491.83 Q1601.34 1492.4 1601.69 1492.75 Q1602.08 1493.1 1603.05 1493.28 Q1604.02 1493.41 1604.76 1493.45 Q1605.55 1493.45 1607.18 1493.45 Q1609.2 1493.45 1609.51 1493.81 Q1609.68 1494.03 1609.68 1494.42 Q1609.68 1495.25 1609.33 1495.69 Q1609.02 1496.09 1608.71 1496.18 Q1608.45 1496.22 1607.92 1496.22 Q1607 1496.22 1605.03 1496.13 Q1603.05 1496.05 1602.04 1496.05 L1596.29 1495.96 L1584.87 1496.22 Q1583.64 1496.22 1583.64 1495.21 Q1583.64 1494.33 1583.95 1493.94 Q1584.25 1493.54 1584.56 1493.5 Q1584.91 1493.45 1585.79 1493.45 Q1590.31 1493.45 1591.81 1493.02 Q1593.34 1492.53 1593.96 1490.47 L1600.15 1465.65 L1572.75 1465.65 L1566.6 1490.29 Q1566.6 1490.34 1566.47 1490.95 Q1566.33 1491.52 1566.33 1491.83 Q1566.33 1492.4 1566.69 1492.75 Q1567.08 1493.1 1568.05 1493.28 Q1569.01 1493.41 1569.76 1493.45 Q1570.55 1493.45 1572.18 1493.45 Q1574.2 1493.45 1574.55 1493.81 Q1574.72 1494.03 1574.72 1494.42 Q1574.72 1495.04 1574.55 1495.47 Q1574.42 1495.87 1574.06 1496 Q1573.76 1496.13 1573.54 1496.18 Q1573.32 1496.22 1572.92 1496.22 Q1572 1496.22 1570.02 1496.13 Q1568.09 1496.05 1567.08 1496.05 L1561.33 1495.96 L1549.91 1496.22 Q1548.64 1496.22 1548.64 1495.21 Q1548.64 1494.33 1548.94 1493.98 Q1549.25 1493.59 1549.65 1493.54 Q1550.04 1493.45 1551.05 1493.45 Q1553.25 1493.45 1554.57 1493.32 Q1555.88 1493.19 1556.72 1493.02 Q1557.6 1492.8 1558.03 1492.18 Q1558.52 1491.57 1558.74 1491.04 Q1558.96 1490.47 1559.26 1489.19 L1571.3 1440.89 Q1571.65 1439.44 1571.65 1439.22 Q1571.65 1438.38 1571.12 1438.16 Q1570.64 1437.9 1569.23 1437.77 L1565.81 1437.59 Q1564.75 1437.59 1564.31 1437.55 Q1563.92 1437.5 1563.61 1437.28 Q1563.3 1437.06 1563.3 1436.58 Q1563.3 1435.97 1563.44 1435.57 Q1563.61 1435.13 1563.92 1435 Q1564.23 1434.87 1564.45 1434.83 Q1564.67 1434.78 1565.02 1434.78 L1576.61 1435.04 L1588.12 1434.78 Q1589.39 1434.78 1589.39 1435.79 Q1589.39 1437.06 1588.82 1437.33 Q1588.25 1437.59 1586.32 1437.59 Q1583.11 1437.59 1581.62 1438.03 Q1580.12 1438.43 1579.64 1439.13 Q1579.2 1439.83 1578.76 1441.72 L1573.45 1462.84 L1600.9 1462.84 L1606.3 1440.89 Q1606.65 1439.3 1606.65 1439.22 Q1606.65 1438.38 1606.12 1438.16 Q1605.64 1437.9 1604.24 1437.77 L1600.81 1437.59 Q1599.76 1437.59 1599.32 1437.55 Q1598.92 1437.5 1598.57 1437.28 Q1598.26 1437.06 1598.26 1436.58 Q1598.26 1435.97 1598.39 1435.57 Q1598.57 1435.13 1598.88 1435 Q1599.18 1434.87 1599.4 1434.83 Q1599.62 1434.78 1599.98 1434.78 L1611.57 1435.04 L1623.12 1434.78 Q1624.35 1434.78 1624.35 1435.79 Z" fill="#000000" fill-rule="nonzero" fill-opacity="1" /><path clip-path="url(#clip080)" d="M1666.14 1457.35 Q1666.14 1457.66 1665.4 1458.98 Q1664.69 1460.25 1662.1 1463.46 Q1659.51 1466.66 1655.65 1470.4 Q1654.2 1471.85 1652 1473.87 Q1649.8 1475.89 1648.31 1477.21 L1646.82 1478.52 Q1641.11 1483.35 1636.1 1488.76 Q1636.45 1488.62 1637.07 1488.58 Q1637.68 1488.49 1638.12 1488.49 L1638.56 1488.49 Q1640.85 1488.49 1644.84 1490.03 Q1648.36 1491.17 1650.16 1491.17 Q1651.91 1491.17 1653.84 1490.56 Q1655.78 1489.94 1657.89 1488.14 Q1659.99 1486.34 1660.96 1483.62 Q1661.14 1483.18 1661.22 1483.05 Q1661.31 1482.87 1661.57 1482.69 Q1661.84 1482.48 1662.19 1482.48 Q1662.67 1482.48 1662.98 1482.74 Q1663.29 1483 1663.29 1483.35 Q1663.29 1484.14 1662.67 1485.72 Q1662.1 1487.31 1660.83 1489.28 Q1659.6 1491.26 1657.97 1493.06 Q1656.39 1494.82 1654.02 1496.05 Q1651.65 1497.23 1649.15 1497.23 Q1647.35 1497.23 1646.03 1496.35 Q1644.71 1495.52 1643.39 1493.89 Q1641.59 1491.83 1640.63 1491.17 Q1639.66 1490.47 1638.17 1490.47 Q1634.17 1490.47 1630.52 1496.05 Q1630.13 1496.84 1629.87 1497.01 Q1629.65 1497.23 1629.12 1497.23 Q1628.02 1497.19 1628.02 1496.31 Q1628.02 1495.96 1628.99 1494.42 Q1630 1492.84 1632.24 1490.07 Q1634.52 1487.31 1637.29 1484.54 L1645.37 1476.99 Q1654.33 1469.43 1657.89 1465.17 Q1656.39 1465.17 1655.73 1465.13 Q1655.12 1465.08 1653.89 1464.82 Q1652.66 1464.51 1650.95 1463.85 Q1646.95 1462.49 1645.28 1462.49 Q1644.84 1462.49 1644.36 1462.54 Q1643.88 1462.58 1642.78 1462.8 Q1641.72 1463.02 1640.85 1463.46 Q1639.97 1463.85 1639.04 1464.73 Q1638.12 1465.57 1637.64 1466.71 Q1637.51 1467.06 1637.42 1467.24 Q1637.33 1467.41 1637.07 1467.59 Q1636.85 1467.72 1636.5 1467.72 Q1635.97 1467.72 1635.66 1467.41 Q1635.4 1467.1 1635.4 1466.71 Q1635.4 1465.92 1636.19 1464.29 Q1636.98 1462.67 1638.3 1460.91 Q1639.62 1459.11 1641.77 1457.79 Q1643.92 1456.48 1646.29 1456.48 Q1647.7 1456.48 1648.88 1457.09 Q1650.11 1457.71 1650.73 1458.36 Q1651.39 1458.98 1652.48 1460.34 Q1653.41 1461.39 1653.84 1461.83 Q1654.28 1462.27 1655.16 1462.76 Q1656.08 1463.2 1657.09 1463.2 Q1658.76 1463.2 1660.3 1461.92 Q1661.84 1460.6 1663.81 1457.44 Q1664.34 1456.48 1665.18 1456.48 Q1666.14 1456.48 1666.14 1457.35 Z" fill="#000000" fill-rule="nonzero" fill-opacity="1" /><path clip-path="url(#clip080)" d="M1674.83 1517.83 Q1674.83 1517.39 1675.97 1516.29 Q1690.46 1501.54 1690.46 1473.74 Q1690.46 1445.85 1676.54 1431.75 Q1674.83 1430.13 1674.83 1429.64 Q1674.83 1428.76 1675.71 1428.76 Q1676.32 1428.76 1678.47 1430.57 Q1680.67 1432.37 1683.96 1436.49 Q1687.3 1440.62 1689.76 1445.67 Q1695.69 1457.93 1695.69 1473.74 Q1695.69 1488.93 1690.02 1501.18 Q1687.61 1506.32 1684.23 1510.63 Q1680.85 1514.93 1678.61 1516.82 Q1676.37 1518.71 1675.71 1518.71 Q1674.83 1518.71 1674.83 1517.83 Z" fill="#000000" fill-rule="nonzero" fill-opacity="1" /><polyline clip-path="url(#clip080)" style="stroke:#000000; stroke-linecap:round; stroke-linejoin:round; stroke-width:4; stroke-opacity:1; fill:none" points="497.623,1334.27 497.623,280.637 "/>
<polyline clip-path="url(#clip080)" style="stroke:#000000; stroke-linecap:round; stroke-linejoin:round; stroke-width:4; stroke-opacity:1; fill:none" points="497.623,1153.27 516.521,1153.27 "/>
<polyline clip-path="url(#clip080)" style="stroke:#000000; stroke-linecap:round; stroke-linejoin:round; stroke-width:4; stroke-opacity:1; fill:none" points="497.623,692.527 516.521,692.527 "/>
<path clip-path="url(#clip080)" d="M373.241 1178.01 L382.79 1178.01 L382.79 1145.06 L372.402 1147.14 L372.402 1141.82 L382.732 1139.73 L388.577 1139.73 L388.577 1178.01 L398.125 1178.01 L398.125 1182.93 L373.241 1182.93 L373.241 1178.01 Z" fill="#000000" fill-rule="nonzero" fill-opacity="1" /><path clip-path="url(#clip080)" d="M422.431 1143.58 Q417.917 1143.58 415.631 1148.04 Q413.374 1152.46 413.374 1161.38 Q413.374 1170.26 415.631 1174.71 Q417.917 1179.14 422.431 1179.14 Q426.973 1179.14 429.23 1174.71 Q431.516 1170.26 431.516 1161.38 Q431.516 1152.46 429.23 1148.04 Q426.973 1143.58 422.431 1143.58 M422.431 1138.95 Q429.693 1138.95 433.513 1144.71 Q437.361 1150.44 437.361 1161.38 Q437.361 1172.28 433.513 1178.04 Q429.693 1183.77 422.431 1183.77 Q415.168 1183.77 411.32 1178.04 Q407.5 1172.28 407.5 1161.38 Q407.5 1150.44 411.32 1144.71 Q415.168 1138.95 422.431 1138.95 Z" fill="#000000" fill-rule="nonzero" fill-opacity="1" /><path clip-path="url(#clip080)" d="M449.492 1116.7 Q445.825 1116.7 443.967 1120.32 Q442.134 1123.91 442.134 1131.15 Q442.134 1138.37 443.967 1141.99 Q445.825 1145.59 449.492 1145.59 Q453.183 1145.59 455.017 1141.99 Q456.874 1138.37 456.874 1131.15 Q456.874 1123.91 455.017 1120.32 Q453.183 1116.7 449.492 1116.7 M449.492 1112.93 Q455.393 1112.93 458.496 1117.61 Q461.623 1122.27 461.623 1131.15 Q461.623 1140.02 458.496 1144.7 Q455.393 1149.35 449.492 1149.35 Q443.591 1149.35 440.464 1144.7 Q437.361 1140.02 437.361 1131.15 Q437.361 1122.27 440.464 1117.61 Q443.591 1112.93 449.492 1112.93 Z" fill="#000000" fill-rule="nonzero" fill-opacity="1" /><path clip-path="url(#clip080)" d="M205.358 717.267 L214.907 717.267 L214.907 684.31 L204.519 686.394 L204.519 681.07 L214.849 678.986 L220.694 678.986 L220.694 717.267 L230.242 717.267 L230.242 722.186 L205.358 722.186 L205.358 717.267 Z" fill="#000000" fill-rule="nonzero" fill-opacity="1" /><path clip-path="url(#clip080)" d="M254.548 682.835 Q250.034 682.835 247.748 687.291 Q245.491 691.718 245.491 700.63 Q245.491 709.513 247.748 713.969 Q250.034 718.396 254.548 718.396 Q259.091 718.396 261.347 713.969 Q263.633 709.513 263.633 700.63 Q263.633 691.718 261.347 687.291 Q259.091 682.835 254.548 682.835 M254.548 678.205 Q261.81 678.205 265.63 683.963 Q269.478 689.692 269.478 700.63 Q269.478 711.538 265.63 717.296 Q261.81 723.025 254.548 723.025 Q247.285 723.025 243.437 717.296 Q239.617 711.538 239.617 700.63 Q239.617 689.692 243.437 683.963 Q247.285 678.205 254.548 678.205 Z" fill="#000000" fill-rule="nonzero" fill-opacity="1" /><path clip-path="url(#clip080)" d="M285.347 668.998 Q288.756 669.727 290.66 672.031 Q292.588 674.335 292.588 677.72 Q292.588 682.916 289.015 685.76 Q285.441 688.605 278.859 688.605 Q276.649 688.605 274.298 688.158 Q271.97 687.735 269.478 686.865 L269.478 682.281 Q271.453 683.433 273.804 684.021 Q276.155 684.608 278.718 684.608 Q283.184 684.608 285.512 682.845 Q287.863 681.082 287.863 677.72 Q287.863 674.617 285.676 672.877 Q283.513 671.114 279.634 671.114 L275.544 671.114 L275.544 667.211 L279.822 667.211 Q283.325 667.211 285.183 665.824 Q287.04 664.414 287.04 661.781 Q287.04 659.077 285.112 657.643 Q283.208 656.185 279.634 656.185 Q277.683 656.185 275.45 656.608 Q273.216 657.032 270.536 657.925 L270.536 653.693 Q273.24 652.941 275.591 652.565 Q277.965 652.189 280.058 652.189 Q285.465 652.189 288.615 654.657 Q291.765 657.102 291.765 661.287 Q291.765 664.202 290.096 666.224 Q288.427 668.222 285.347 668.998 Z" fill="#000000" fill-rule="nonzero" fill-opacity="1" /><path clip-path="url(#clip080)" d="M301.592 681.952 L306.553 681.952 L306.553 687.923 L301.592 687.923 L301.592 681.952 Z" fill="#000000" fill-rule="nonzero" fill-opacity="1" /><path clip-path="url(#clip080)" d="M327.053 655.95 Q323.386 655.95 321.529 659.571 Q319.695 663.168 319.695 670.409 Q319.695 677.626 321.529 681.247 Q323.386 684.844 327.053 684.844 Q330.745 684.844 332.578 681.247 Q334.436 677.626 334.436 670.409 Q334.436 663.168 332.578 659.571 Q330.745 655.95 327.053 655.95 M327.053 652.189 Q332.954 652.189 336.058 656.867 Q339.184 661.522 339.184 670.409 Q339.184 679.272 336.058 683.95 Q332.954 688.605 327.053 688.605 Q321.153 688.605 318.026 683.95 Q314.922 679.272 314.922 670.409 Q314.922 661.522 318.026 656.867 Q321.153 652.189 327.053 652.189 Z" fill="#000000" fill-rule="nonzero" fill-opacity="1" /><path clip-path="url(#clip080)" d="M376.142 662.063 L365.398 672.854 L376.142 683.598 L373.344 686.442 L362.553 675.651 L351.762 686.442 L348.988 683.598 L359.708 672.854 L348.988 662.063 L351.762 659.218 L362.553 670.009 L373.344 659.218 L376.142 662.063 Z" fill="#000000" fill-rule="nonzero" fill-opacity="1" /><path clip-path="url(#clip080)" d="M388.696 683.927 L396.454 683.927 L396.454 657.149 L388.014 658.842 L388.014 654.516 L396.407 652.823 L401.156 652.823 L401.156 683.927 L408.914 683.927 L408.914 687.923 L388.696 687.923 L388.696 683.927 Z" fill="#000000" fill-rule="nonzero" fill-opacity="1" /><path clip-path="url(#clip080)" d="M428.662 655.95 Q424.995 655.95 423.138 659.571 Q421.304 663.168 421.304 670.409 Q421.304 677.626 423.138 681.247 Q424.995 684.844 428.662 684.844 Q432.353 684.844 434.187 681.247 Q436.045 677.626 436.045 670.409 Q436.045 663.168 434.187 659.571 Q432.353 655.95 428.662 655.95 M428.662 652.189 Q434.563 652.189 437.667 656.867 Q440.793 661.522 440.793 670.409 Q440.793 679.272 437.667 683.95 Q434.563 688.605 428.662 688.605 Q422.762 688.605 419.635 683.95 Q416.531 679.272 416.531 670.409 Q416.531 661.522 419.635 656.867 Q422.762 652.189 428.662 652.189 Z" fill="#000000" fill-rule="nonzero" fill-opacity="1" /><path clip-path="url(#clip080)" d="M457.391 656.303 Q456.216 654.281 453.841 654.281 Q451.467 654.281 450.291 656.303 Q449.092 658.325 449.092 662.368 Q449.092 666.435 450.291 668.457 Q451.467 670.479 453.841 670.479 Q456.216 670.479 457.391 668.457 Q458.59 666.435 458.59 662.368 Q458.59 658.325 457.391 656.303 M453.841 652.189 Q457.626 652.189 459.625 654.798 Q461.623 657.408 461.623 662.368 Q461.623 667.352 459.625 669.962 Q457.626 672.572 453.841 672.572 Q450.033 672.572 448.034 669.962 Q446.036 667.352 446.036 662.368 Q446.036 657.408 448.034 654.798 Q450.033 652.189 453.841 652.189 Z" fill="#000000" fill-rule="nonzero" fill-opacity="1" /><path clip-path="url(#clip080)" d="M157.471 1239.71 L154.705 1239.71 L154.705 1237.56 Q154.705 1232.68 153.914 1231.58 Q153.08 1230.44 150.445 1230.44 L103.058 1230.44 Q100.467 1230.44 99.6766 1231.58 Q98.8421 1232.73 98.8421 1237.56 L98.8421 1239.71 L96.0314 1239.71 L96.0314 1207.96 Q96.0314 1198.87 101.038 1192.81 Q106.045 1186.74 112.764 1186.74 Q119.439 1186.74 124.27 1192.94 Q129.057 1199.09 129.057 1207.25 L129.057 1222.45 L150.445 1222.45 Q153.036 1222.45 153.87 1221.35 Q154.705 1220.21 154.705 1215.33 L154.705 1213.18 L157.471 1213.18 Q157.208 1216.34 157.208 1226.49 Q157.208 1236.55 157.471 1239.71 M126.729 1222.71 L126.729 1210.33 Q126.729 1206.29 125.588 1203.35 Q124.446 1200.4 123.084 1199.09 Q121.679 1197.72 119.439 1196.98 Q117.156 1196.19 115.926 1196.1 Q114.652 1196.01 112.764 1196.01 Q110.788 1196.01 109.558 1196.1 Q108.284 1196.19 106.045 1196.98 Q103.761 1197.72 102.399 1199.09 Q100.994 1200.4 99.9401 1203.35 Q98.8421 1206.24 98.8421 1210.33 L98.8421 1218.32 Q98.8421 1221.4 99.457 1222.05 Q100.072 1222.71 102.443 1222.71 L126.729 1222.71 Z" fill="#000000" fill-rule="nonzero" fill-opacity="1" /><path clip-path="url(#clip080)" d="M152.641 1166.78 Q146.756 1172.71 138.236 1172.71 Q129.672 1172.71 123.436 1166.91 Q117.156 1161.07 117.156 1152.73 Q117.156 1144.56 123.392 1138.72 Q129.584 1132.83 138.236 1132.83 Q146.712 1132.83 152.597 1138.76 Q158.482 1144.65 158.482 1152.81 Q158.482 1160.81 152.641 1166.78 M137.489 1165.24 Q146.229 1165.24 150.181 1162.96 Q156.198 1159.45 156.198 1152.73 Q156.198 1149.39 154.397 1146.62 Q152.597 1143.81 149.566 1142.27 Q145.614 1140.3 137.489 1140.3 Q128.838 1140.3 125.017 1142.67 Q119.176 1146.18 119.176 1152.81 Q119.176 1155.71 120.713 1158.57 Q122.206 1161.38 125.192 1163.09 Q129.145 1165.24 137.489 1165.24 Z" fill="#000000" fill-rule="nonzero" fill-opacity="1" /><path clip-path="url(#clip080)" d="M121.503 1130.11 L118.693 1130.11 Q118.956 1125.23 118.956 1121.77 Q118.956 1120.05 118.693 1111.93 L121.503 1111.93 Q121.503 1117.24 123.919 1117.24 Q124.446 1117.24 125.544 1116.8 L149.566 1108.24 L127.783 1100.51 Q123.392 1102.13 122.865 1102.57 Q121.503 1103.67 121.503 1108.24 L118.693 1108.24 Q118.956 1104.2 118.956 1100.25 Q118.956 1098.71 118.693 1090.89 L121.503 1090.89 Q121.503 1096.21 123.919 1096.21 Q124.27 1096.21 125.632 1095.77 L150.708 1086.85 L127.696 1078.68 Q126.51 1078.24 125.807 1078.2 Q123.831 1078.2 122.733 1079.6 Q121.591 1081.01 121.503 1083.43 L118.693 1083.43 Q118.956 1078.29 118.956 1075.08 Q118.956 1071.48 118.693 1068.49 L121.503 1068.49 Q121.679 1074.07 127.256 1076.05 L156.769 1086.59 Q158.394 1087.6 158.482 1088.39 Q158.482 1089.57 156.769 1090.19 L131.209 1099.37 L156.681 1108.46 Q157.779 1108.81 158.13 1109.12 Q158.482 1109.42 158.482 1110.26 Q158.482 1111.05 157.998 1111.4 Q157.559 1111.75 156.461 1112.15 L124.621 1123.48 Q122.557 1124.27 122.03 1125.45 Q121.503 1126.6 121.503 1130.11 Z" fill="#000000" fill-rule="nonzero" fill-opacity="1" /><path clip-path="url(#clip080)" d="M137.665 1062.35 Q129.189 1062.35 123.172 1056.9 Q117.156 1051.46 117.156 1043.64 Q117.156 1035.73 122.294 1031.65 Q127.432 1027.52 134.81 1027.52 Q136.172 1027.52 136.435 1027.87 Q136.699 1028.23 136.699 1029.76 L136.699 1054.88 Q145.877 1054.88 150.181 1052.16 Q156.198 1048.38 156.198 1042.01 Q156.198 1041.14 156.022 1040.08 Q155.847 1039.03 155.1 1036.88 Q154.309 1034.72 152.245 1032.84 Q150.181 1030.95 146.931 1029.85 Q145.658 1029.59 145.702 1028.71 Q145.702 1027.52 146.756 1027.52 Q147.546 1027.52 149.347 1028.4 Q151.103 1029.24 153.211 1030.86 Q155.32 1032.48 156.901 1035.65 Q158.482 1038.77 158.482 1042.54 Q158.482 1050.45 152.509 1056.42 Q146.492 1062.35 137.665 1062.35 M134.81 1054.79 L134.81 1033.45 Q132.922 1033.45 130.814 1033.8 Q128.706 1034.11 125.807 1035.08 Q122.865 1036 121.02 1038.19 Q119.176 1040.39 119.176 1043.64 Q119.176 1045.09 119.791 1046.67 Q120.405 1048.21 121.899 1050.1 Q123.392 1051.98 126.773 1053.3 Q130.155 1054.62 134.81 1054.79 Z" fill="#000000" fill-rule="nonzero" fill-opacity="1" /><path clip-path="url(#clip080)" d="M157.471 1024.61 L154.705 1024.61 Q154.705 1019.82 154.134 1018.73 Q153.519 1017.58 150.62 1017.58 L126.51 1017.58 Q123.172 1017.58 122.338 1018.77 Q121.503 1019.91 121.503 1024.61 L118.693 1024.61 L117.726 1012.1 L127.608 1012.1 Q123.743 1010.82 120.757 1008.14 Q117.726 1005.42 117.726 1001.03 Q117.726 998.129 119.351 996.285 Q120.976 994.397 123.216 994.397 Q125.192 994.397 126.202 995.626 Q127.169 996.812 127.169 998.261 Q127.169 999.886 126.159 1001.03 Q125.105 1002.13 123.304 1002.13 Q122.206 1002.13 121.372 1001.64 Q120.493 1001.12 120.186 1000.72 Q119.878 1000.33 119.791 1000.06 Q119.703 1000.24 119.703 1001.03 Q119.703 1005.99 124.665 1008.85 Q129.584 1011.66 136.611 1011.66 L150.445 1011.66 Q153.036 1011.66 153.87 1010.6 Q154.705 1009.5 154.705 1004.8 L154.705 1002.92 L157.471 1002.92 Q157.208 1006.52 157.208 1014.33 Q157.208 1015.43 157.252 1017.15 Q157.296 1018.86 157.384 1021.1 Q157.471 1023.34 157.471 1024.61 Z" fill="#000000" fill-rule="nonzero" fill-opacity="1" /><path clip-path="url(#clip080)" d="M157.296 950.204 L139.29 950.204 Q138.28 950.204 137.928 950.16 Q137.577 950.116 137.314 949.853 Q137.05 949.589 137.05 949.062 Q137.05 948.052 137.972 947.964 Q146.887 947.701 151.806 942.387 Q156.681 937.161 156.681 928.202 Q156.681 922.8 152.816 919.462 Q148.908 916.124 143.813 916.124 Q138.938 916.124 135.513 918.935 Q133.976 920.121 133.01 921.614 Q132 923.063 131.692 923.985 Q131.385 924.864 130.946 926.577 Q128.267 937.732 127.959 938.434 Q126.159 943.748 121.635 946.998 Q117.068 950.204 111.49 950.204 Q104.288 950.204 99.1935 945.154 Q94.0552 940.059 94.0552 932.681 Q94.0552 928.992 95.2409 925.918 Q96.3828 922.8 97.4368 921.526 Q98.4908 920.253 100.379 918.276 L95.2409 915.158 Q94.0552 914.455 94.0552 913.797 Q94.0552 913.094 94.4943 912.962 Q94.8896 912.787 96.2071 912.787 L114.301 912.787 Q115.311 912.787 115.662 912.831 Q116.014 912.874 116.233 913.182 Q116.453 913.445 116.453 913.972 Q116.453 914.851 115.399 915.07 Q96.6024 917.574 96.6024 932.593 Q96.6024 937.732 100.072 941.113 Q103.497 944.451 108.372 944.451 Q112.325 944.451 115.575 941.991 Q118.78 939.532 119.791 935.36 L122.557 923.854 Q123.919 918.101 129.013 914.236 Q134.108 910.371 140.739 910.371 Q148.381 910.371 153.914 915.378 Q159.448 920.34 159.448 928.114 Q159.448 933.691 157.603 937.995 Q155.759 942.299 153.168 944.626 Q156.154 946.427 157.823 947.613 L158.262 947.876 Q159.448 948.579 159.448 949.238 Q159.448 949.94 159.009 950.072 Q158.569 950.204 157.296 950.204 Z" fill="#000000" fill-rule="nonzero" fill-opacity="1" /><path clip-path="url(#clip080)" d="M172.14 904.033 Q172.14 899.246 171.525 898.149 Q170.954 897.007 168.099 897.007 L125.983 897.007 Q122.997 897.007 122.25 898.149 Q121.503 899.246 121.503 904.033 L118.693 904.033 L117.726 891.078 L123.655 891.078 Q117.726 885.676 117.726 878.474 Q117.726 870.832 123.655 865.255 Q129.584 859.677 138.06 859.677 Q146.624 859.677 152.553 865.606 Q158.482 871.535 158.482 879.747 Q158.482 884.227 156.198 887.257 Q153.87 890.243 152.157 890.814 L152.992 890.814 L168.099 890.814 Q170.998 890.814 171.569 889.673 Q172.14 888.531 172.14 883.788 L174.907 883.788 Q174.643 893.23 174.643 893.933 Q174.643 894.811 174.907 904.033 L172.14 904.033 M147.239 890.814 Q148.6 890.814 149.083 890.639 Q149.566 890.419 151.016 889.541 Q156.461 885.984 156.461 880.186 Q156.461 880.143 156.461 880.099 Q156.461 874.96 151.235 871.052 Q145.965 867.143 138.06 867.143 Q130.506 867.143 125.236 870.7 Q119.966 874.258 119.966 879.176 Q119.966 882.69 121.855 885.764 Q123.743 888.838 127.169 890.814 L147.239 890.814 Z" fill="#000000" fill-rule="nonzero" fill-opacity="1" /><path clip-path="url(#clip080)" d="M137.665 847.423 Q129.189 847.423 123.172 841.977 Q117.156 836.531 117.156 828.714 Q117.156 820.809 122.294 816.725 Q127.432 812.597 134.81 812.597 Q136.172 812.597 136.435 812.948 Q136.699 813.299 136.699 814.836 L136.699 839.957 Q145.877 839.957 150.181 837.234 Q156.198 833.457 156.198 827.089 Q156.198 826.211 156.022 825.157 Q155.847 824.103 155.1 821.951 Q154.309 819.799 152.245 817.911 Q150.181 816.022 146.931 814.924 Q145.658 814.661 145.702 813.782 Q145.702 812.597 146.756 812.597 Q147.546 812.597 149.347 813.475 Q151.103 814.309 153.211 815.934 Q155.32 817.559 156.901 820.721 Q158.482 823.839 158.482 827.616 Q158.482 835.521 152.509 841.494 Q146.492 847.423 137.665 847.423 M134.81 839.869 L134.81 818.525 Q132.922 818.525 130.814 818.877 Q128.706 819.184 125.807 820.15 Q122.865 821.073 121.02 823.269 Q119.176 825.464 119.176 828.714 Q119.176 830.164 119.791 831.745 Q120.405 833.282 121.899 835.17 Q123.392 837.058 126.773 838.376 Q130.155 839.694 134.81 839.869 Z" fill="#000000" fill-rule="nonzero" fill-opacity="1" /><path clip-path="url(#clip080)" d="M152.553 802.177 Q146.58 807.886 138.06 807.886 Q129.496 807.886 123.348 802.264 Q117.156 796.643 117.156 788.387 Q117.156 782.897 119.791 778.769 Q122.382 774.641 126.817 774.641 Q128.794 774.641 129.935 775.826 Q131.033 776.968 131.033 778.769 Q131.033 780.657 129.892 781.799 Q128.706 782.897 126.905 782.897 Q126.115 782.897 125.324 782.633 Q124.534 782.37 123.699 781.404 Q122.865 780.394 122.733 778.681 Q119.439 781.887 119.439 788.123 Q119.439 788.211 119.439 788.299 Q119.439 792.866 123.743 796.643 Q128.047 800.42 137.884 800.42 Q143.023 800.42 146.8 799.19 Q150.533 797.917 152.465 795.853 Q154.397 793.788 155.32 791.768 Q156.198 789.748 156.198 787.772 Q156.198 778.944 146.756 775.958 Q145.877 775.695 145.877 774.816 Q145.877 773.63 146.756 773.63 Q147.195 773.63 148.337 773.982 Q149.479 774.333 151.279 775.431 Q153.08 776.529 154.661 778.11 Q156.198 779.647 157.34 782.414 Q158.482 785.137 158.482 788.562 Q158.482 796.467 152.553 802.177 Z" fill="#000000" fill-rule="nonzero" fill-opacity="1" /><path clip-path="url(#clip080)" d="M121.503 770.509 L119.527 770.509 Q119.351 766.38 116.453 763.658 Q113.51 760.891 109.909 759.969 Q106.308 759.002 102.136 758.915 L102.136 756.675 L118.693 756.675 L118.693 743.807 L121.503 743.807 L121.503 756.675 L146.492 756.675 Q156.198 756.675 156.198 750.614 Q156.198 748.023 153.563 746.31 Q150.884 744.598 146.141 744.598 L141.178 744.598 L141.178 742.358 L146.317 742.358 Q151.191 742.358 154.836 744.598 Q158.482 746.837 158.482 751.273 Q158.482 752.898 158.042 754.523 Q157.647 756.104 156.593 758.212 Q155.495 760.276 152.86 761.594 Q150.181 762.867 146.317 762.867 L121.503 762.867 L121.503 770.509 Z" fill="#000000" fill-rule="nonzero" fill-opacity="1" /><path clip-path="url(#clip080)" d="M157.471 737.054 L154.705 737.054 Q154.705 732.267 154.134 731.169 Q153.519 730.027 150.62 730.027 L126.51 730.027 Q123.172 730.027 122.338 731.213 Q121.503 732.354 121.503 737.054 L118.693 737.054 L117.726 724.537 L127.608 724.537 Q123.743 723.264 120.757 720.585 Q117.726 717.862 117.726 713.47 Q117.726 710.572 119.351 708.727 Q120.976 706.839 123.216 706.839 Q125.192 706.839 126.202 708.068 Q127.169 709.254 127.169 710.703 Q127.169 712.328 126.159 713.47 Q125.105 714.568 123.304 714.568 Q122.206 714.568 121.372 714.085 Q120.493 713.558 120.186 713.163 Q119.878 712.767 119.791 712.504 Q119.703 712.68 119.703 713.47 Q119.703 718.433 124.665 721.287 Q129.584 724.098 136.611 724.098 L150.445 724.098 Q153.036 724.098 153.87 723.044 Q154.705 721.946 154.705 717.247 L154.705 715.358 L157.471 715.358 Q157.208 718.96 157.208 726.777 Q157.208 727.875 157.252 729.588 Q157.296 731.3 157.384 733.54 Q157.471 735.78 157.471 737.054 Z" fill="#000000" fill-rule="nonzero" fill-opacity="1" /><path clip-path="url(#clip080)" d="M121.503 698.127 L118.693 698.127 L117.726 684.908 L147.59 684.908 Q149.742 684.908 151.016 684.733 Q152.245 684.557 153.695 683.854 Q155.144 683.108 155.803 681.439 Q156.461 679.726 156.461 677.003 Q156.461 672.128 152.465 669.142 Q148.468 666.112 142.54 666.112 L126.51 666.112 Q123.172 666.112 122.338 667.298 Q121.503 668.483 121.503 673.139 L118.693 673.139 L117.726 659.92 L149.654 659.92 Q152.992 659.92 153.87 658.778 Q154.705 657.592 154.705 652.893 L157.471 652.893 L158.482 665.848 L150.357 665.848 Q158.438 669.625 158.482 677.442 Q158.482 681.395 157.471 684.118 Q156.461 686.797 155.232 688.158 Q153.958 689.52 151.543 690.266 Q149.127 690.969 147.634 691.057 Q146.141 691.145 143.242 691.145 L129.76 691.145 Q123.655 691.145 122.601 692.023 Q121.503 692.901 121.503 698.127 Z" fill="#000000" fill-rule="nonzero" fill-opacity="1" /><path clip-path="url(#clip080)" d="M157.471 649.797 L154.705 649.797 Q154.705 645.01 154.134 643.912 Q153.519 642.814 150.62 642.814 L126.51 642.814 Q123.172 642.814 122.338 644 Q121.503 645.142 121.503 649.797 L118.693 649.797 L117.726 637.149 L127.169 637.149 Q117.726 632.933 117.726 623.842 Q117.726 613.302 126.51 611.853 Q123.084 610.315 120.405 607.109 Q117.726 603.86 117.726 598.809 Q117.726 592.046 121.064 589.367 Q123.304 587.391 125.807 586.995 Q128.311 586.6 134.81 586.6 L151.982 586.6 Q153.87 586.512 154.309 585.063 Q154.705 583.614 154.705 579.573 L157.471 579.573 Q157.208 588.752 157.208 589.63 Q157.208 590.333 157.471 599.819 L154.705 599.819 Q154.705 595.032 154.134 593.934 Q153.519 592.792 150.62 592.792 L129.672 592.792 Q125.105 592.792 122.426 594.198 Q119.703 595.603 119.703 599.468 Q119.703 604.123 123.611 607.856 Q127.52 611.589 134.108 611.589 L150.62 611.589 Q153.519 611.589 154.134 610.491 Q154.705 609.349 154.705 604.562 L157.471 604.562 Q157.208 613.741 157.208 614.663 Q157.208 615.366 157.471 624.808 L154.705 624.808 Q154.705 620.021 154.134 618.923 Q153.519 617.781 150.62 617.781 L129.672 617.781 Q125.105 617.781 122.426 619.187 Q119.703 620.592 119.703 624.457 Q119.703 629.112 123.611 632.845 Q127.52 636.578 134.108 636.578 L150.62 636.578 Q153.519 636.578 154.134 635.48 Q154.705 634.338 154.705 629.595 L157.471 629.595 Q157.208 638.774 157.208 639.652 Q157.208 640.355 157.471 649.797 Z" fill="#000000" fill-rule="nonzero" fill-opacity="1" /><path clip-path="url(#clip080)" d="M134.986 551.871 Q119.791 551.871 107.538 546.206 Q102.399 543.79 98.0955 540.409 Q93.7917 537.027 91.9032 534.787 Q90.0148 532.548 90.0148 531.933 Q90.0148 531.055 90.8931 531.011 Q91.3323 531.011 92.4302 532.196 Q107.186 546.689 134.986 546.645 Q162.873 546.645 177.058 532.548 Q178.596 531.011 179.079 531.011 Q179.957 531.011 179.957 531.933 Q179.957 532.548 178.156 534.7 Q176.356 536.852 172.228 540.189 Q168.099 543.527 163.049 545.942 Q150.796 551.871 134.986 551.871 Z" fill="#000000" fill-rule="nonzero" fill-opacity="1" /><path clip-path="url(#clip080)" d="M97.1294 453.217 Q98.7543 453.305 98.8421 454.403 Q98.93 456.072 99.1496 457.082 Q99.3252 458.092 99.984 459.673 Q100.643 461.254 102.224 462.791 Q103.805 464.328 106.308 465.909 L157.823 498.276 Q158.789 498.847 159.096 499.33 Q159.448 499.769 159.448 500.779 Q159.448 501.702 159.052 502.053 Q158.701 502.404 157.384 502.58 L101.872 509.694 Q100.862 509.826 100.423 509.958 Q99.984 510.09 99.5448 510.617 Q99.1056 511.1 98.9739 512.154 Q98.8421 513.208 98.8421 515.096 Q98.8421 515.975 98.7982 516.37 Q98.7543 516.721 98.5347 517.029 Q98.2712 517.336 97.7442 517.336 Q96.9537 517.336 96.5584 517.029 Q96.1193 516.677 96.0754 516.414 Q96.0314 516.106 96.0314 515.623 Q96.0314 514.877 96.1193 513.252 Q96.2071 511.627 96.2071 510.792 Q96.2071 510.002 96.251 508.333 Q96.2949 506.664 96.2949 505.83 Q96.2949 503.985 96.1632 500.252 Q96.0314 496.475 96.0314 494.675 Q96.0314 493.445 97.0415 493.445 Q98.2712 493.445 98.5786 493.972 Q98.8421 494.499 98.8421 495.685 Q98.8421 498.671 99.5887 500.296 Q100.335 501.877 101.521 501.877 L149.127 495.773 L105.21 468.149 Q103.146 466.787 101.785 466.787 Q99.1496 466.787 98.8421 470.96 Q98.8421 472.365 97.7442 472.365 Q96.9537 472.365 96.5584 472.014 Q96.1193 471.662 96.0754 471.399 Q96.0314 471.091 96.0314 470.652 Q96.0314 469.203 96.1632 466.26 Q96.2949 463.274 96.2949 461.781 Q96.2949 460.551 96.1632 458.048 Q96.0314 455.545 96.0314 454.403 Q96.0314 453.217 97.1294 453.217 Z" fill="#000000" fill-rule="nonzero" fill-opacity="1" /><path clip-path="url(#clip080)" d="M109.087 444.236 Q107.949 444.236 107.611 444.144 Q107.273 444.021 106.75 443.529 L93.2852 431.447 Q85.8457 424.838 79.3591 424.838 Q75.1475 424.838 72.1348 427.051 Q69.1221 429.234 69.1221 433.261 Q69.1221 436.028 70.8129 438.364 Q72.5037 440.701 75.5164 441.777 Q75.4549 441.592 75.4549 440.947 Q75.4549 439.379 76.4386 438.518 Q77.4224 437.627 78.7443 437.627 Q80.4351 437.627 81.2651 438.733 Q82.0644 439.809 82.0644 440.885 Q82.0644 441.316 81.9722 441.9 Q81.88 442.453 81.0192 443.345 Q80.1277 444.236 78.5598 444.236 Q74.1637 444.236 70.6592 440.916 Q67.1546 437.565 67.1546 432.462 Q67.1546 426.682 70.5977 422.901 Q74.01 419.089 79.3591 419.089 Q81.2344 419.089 82.9559 419.673 Q84.6467 420.227 85.9686 420.995 Q87.2906 421.733 89.4117 423.762 Q91.5329 425.791 93.0393 427.42 Q94.5457 429.05 97.7428 432.708 L104.229 439.379 L104.229 428.035 Q104.229 422.501 103.738 422.071 Q102.846 421.456 98.1425 420.688 L98.1425 419.089 L109.087 420.872 L109.087 444.236 Z" fill="#000000" fill-rule="nonzero" fill-opacity="1" /><path clip-path="url(#clip080)" d="M179.079 409.731 Q178.639 409.731 177.542 408.589 Q162.785 394.097 134.986 394.097 Q107.099 394.097 93.0012 408.019 Q91.3762 409.731 90.8931 409.731 Q90.0148 409.731 90.0148 408.853 Q90.0148 408.238 91.8154 406.086 Q93.616 403.89 97.7442 400.597 Q101.872 397.259 106.923 394.8 Q119.176 388.871 134.986 388.871 Q150.181 388.871 162.434 394.536 Q167.572 396.951 171.876 400.333 Q176.18 403.715 178.069 405.954 Q179.957 408.194 179.957 408.853 Q179.957 409.731 179.079 409.731 Z" fill="#000000" fill-rule="nonzero" fill-opacity="1" /><polyline clip-path="url(#clip082)" style="stroke:#009af9; stroke-linecap:round; stroke-linejoin:round; stroke-width:4; stroke-opacity:1; fill:none" points="548.344,438.98 570.887,518.309 593.429,561.808 615.972,601.395 638.515,726.827 661.057,594.62 683.6,647.676 706.143,686.892 728.685,686.392 751.228,761.262 773.771,716.466 796.313,723.154 818.856,734.668 841.398,725.165 863.941,727.218 886.484,706.189 909.026,698.684 931.569,750.307 954.112,782.706 976.654,762.862 999.197,743.873 1021.74,730.04 1044.28,719.454 1066.82,700.451 1089.37,686.251 1111.91,675.6 1134.45,661.233 1157,641.789 1179.54,612.554 1202.08,552.82 1224.62,485.42 1247.17,428.356 1269.71,310.457 1292.25,400.412 1314.79,482.375 1337.34,608.447 1359.88,614.17 1382.42,657.695 1404.96,686.39 1427.51,715.564 1450.05,737.891 1472.59,751.371 1495.14,767.428 1517.68,788.399 1540.22,806.535 1562.76,818.28 1585.31,888.501 1607.85,667.48 1630.39,930.43 1652.93,921.151 1675.48,850.266 1698.02,831.093 1720.56,893.226 1743.1,911.622 1765.65,899.946 1788.19,917.17 1810.73,926.321 1833.28,938.832 1855.82,909.524 1878.36,875.793 1900.9,887.414 1923.45,1023.84 1945.99,909.778 1968.53,524.88 1991.07,708.19 2013.62,865.839 2036.16,825.152 2058.7,1304.45 2081.24,1003.36 2103.79,1021.08 2126.33,987.848 2148.87,983.649 2171.41,992.075 2193.96,965.107 2216.5,976.68 2239.04,935.905 "/>
<circle clip-path="url(#clip082)" cx="909.026" cy="698.684" r="14.4" fill="#e26f46" fill-rule="evenodd" fill-opacity="1" stroke="#000000" stroke-opacity="1" stroke-width="3.2"/>
<circle clip-path="url(#clip082)" cx="1269.71" cy="310.457" r="14.4" fill="#e26f46" fill-rule="evenodd" fill-opacity="1" stroke="#000000" stroke-opacity="1" stroke-width="3.2"/>
<circle clip-path="url(#clip082)" cx="1607.85" cy="667.48" r="14.4" fill="#e26f46" fill-rule="evenodd" fill-opacity="1" stroke="#000000" stroke-opacity="1" stroke-width="3.2"/>
<circle clip-path="url(#clip082)" cx="1968.53" cy="524.88" r="14.4" fill="#e26f46" fill-rule="evenodd" fill-opacity="1" stroke="#000000" stroke-opacity="1" stroke-width="3.2"/>
<path clip-path="url(#clip080)" d="M1060.51 239.836 L1726.87 239.836 L1726.87 110.236 L1060.51 110.236  Z" fill="#ffffff" fill-rule="evenodd" fill-opacity="1"/>
<polyline clip-path="url(#clip080)" style="stroke:#000000; stroke-linecap:round; stroke-linejoin:round; stroke-width:4; stroke-opacity:1; fill:none" points="1060.51,239.836 1726.87,239.836 1726.87,110.236 1060.51,110.236 1060.51,239.836 "/>
<polyline clip-path="url(#clip080)" style="stroke:#009af9; stroke-linecap:round; stroke-linejoin:round; stroke-width:5; stroke-opacity:1; fill:none" points="1080.43,175.036 1199.9,175.036 "/>
<path clip-path="url(#clip080)" d="M1219.81 189.739 L1219.81 177.735 Q1219.81 177.062 1219.84 176.828 Q1219.87 176.594 1220.05 176.418 Q1220.22 176.242 1220.58 176.242 Q1221.25 176.242 1221.31 176.857 Q1221.48 182.801 1225.03 186.08 Q1228.51 189.33 1234.48 189.33 Q1238.08 189.33 1240.31 186.753 Q1242.53 184.147 1242.53 180.751 Q1242.53 177.501 1240.66 175.218 Q1239.87 174.193 1238.87 173.549 Q1237.91 172.875 1237.29 172.67 Q1236.71 172.465 1235.57 172.173 Q1228.13 170.387 1227.66 170.182 Q1224.12 168.981 1221.95 165.966 Q1219.81 162.921 1219.81 159.202 Q1219.81 154.401 1223.18 151.005 Q1226.58 147.579 1231.5 147.579 Q1233.96 147.579 1236.01 148.37 Q1238.08 149.131 1238.93 149.833 Q1239.78 150.536 1241.1 151.795 L1243.18 148.37 Q1243.65 147.579 1244.09 147.579 Q1244.55 147.579 1244.64 147.872 Q1244.76 148.135 1244.76 149.014 L1244.76 161.076 Q1244.76 161.75 1244.73 161.984 Q1244.7 162.218 1244.5 162.364 Q1244.32 162.511 1243.97 162.511 Q1243.38 162.511 1243.24 161.808 Q1241.57 149.277 1231.56 149.277 Q1228.13 149.277 1225.88 151.59 Q1223.65 153.874 1223.65 157.124 Q1223.65 159.759 1225.29 161.925 Q1226.93 164.063 1229.71 164.736 L1237.38 166.58 Q1241.22 167.488 1243.79 170.884 Q1246.37 174.281 1246.37 178.702 Q1246.37 183.796 1243.03 187.485 Q1239.72 191.174 1234.54 191.174 Q1230.82 191.174 1227.95 189.944 Q1225.08 188.715 1223.53 186.987 Q1222.33 188.978 1221.54 190.091 L1221.37 190.384 Q1220.9 191.174 1220.46 191.174 Q1219.99 191.174 1219.9 190.881 Q1219.81 190.588 1219.81 189.739 Z" fill="#000000" fill-rule="nonzero" fill-opacity="1" /><path clip-path="url(#clip080)" d="M1254.2 189.857 L1254.2 188.012 Q1257.39 188.012 1258.12 187.631 Q1258.85 187.222 1258.85 185.289 L1258.85 169.157 Q1258.85 166.932 1258.09 166.405 Q1257.36 165.878 1254.43 165.878 L1254.43 164.004 L1262.81 163.36 L1262.81 185.348 Q1262.81 187.134 1263.45 187.573 Q1264.09 188.012 1267.02 188.012 L1267.02 189.857 Q1260.9 189.681 1260.79 189.681 Q1259.97 189.681 1254.2 189.857 M1256.72 152.908 Q1256.72 151.707 1257.62 150.741 Q1258.56 149.746 1259.88 149.746 Q1261.2 149.746 1262.13 150.653 Q1263.07 151.532 1263.07 152.937 Q1263.07 154.313 1262.13 155.221 Q1261.2 156.099 1259.88 156.099 Q1258.5 156.099 1257.59 155.133 Q1256.72 154.167 1256.72 152.908 Z" fill="#000000" fill-rule="nonzero" fill-opacity="1" /><path clip-path="url(#clip080)" d="M1269.92 194.6 Q1269.92 192.667 1271.38 190.998 Q1272.88 189.33 1275.45 188.598 Q1272.82 186.929 1272.82 183.269 Q1272.82 180.458 1274.66 178.292 Q1271.85 175.949 1271.85 172.114 Q1271.85 168.571 1274.66 165.966 Q1277.47 163.36 1281.57 163.36 Q1285.17 163.36 1287.93 165.526 Q1290.8 162.716 1294.28 162.686 Q1295.83 162.686 1296.56 163.653 Q1297.32 164.619 1297.32 165.644 Q1297.32 166.551 1296.74 166.99 Q1296.18 167.43 1295.6 167.43 Q1294.87 167.43 1294.34 166.961 Q1293.84 166.463 1293.84 165.702 Q1293.84 164.443 1294.81 164.063 Q1294.63 164.004 1294.22 164.004 Q1291.29 164.004 1288.8 166.346 Q1291.26 168.63 1291.26 172.173 Q1291.26 175.715 1288.45 178.321 Q1285.64 180.927 1281.57 180.927 Q1278.21 180.927 1275.63 179.053 Q1274.61 180.253 1274.61 181.893 Q1274.61 183.386 1275.51 184.557 Q1276.42 185.728 1277.8 185.904 Q1278.21 185.963 1282.28 185.963 Q1284.68 185.963 1285.99 186.021 Q1287.31 186.08 1289.19 186.49 Q1291.09 186.87 1292.58 187.631 Q1296.48 189.798 1296.51 194.482 Q1296.51 197.908 1292.55 200.045 Q1288.63 202.212 1283.18 202.212 Q1277.68 202.212 1273.79 200.016 Q1269.92 197.849 1269.92 194.6 M1273.05 194.6 Q1273.05 197.059 1275.95 198.933 Q1278.85 200.836 1283.24 200.836 Q1287.55 200.836 1290.44 198.962 Q1293.37 197.117 1293.37 194.6 Q1293.37 192.814 1292.35 191.672 Q1291.32 190.53 1289.21 190.061 Q1287.14 189.622 1285.67 189.534 Q1284.21 189.447 1281.51 189.447 L1277.97 189.447 Q1275.92 189.564 1274.49 191.057 Q1273.05 192.55 1273.05 194.6 M1276.33 172.173 Q1276.33 179.551 1281.57 179.551 Q1284.21 179.551 1285.82 177.15 Q1286.78 175.54 1286.78 172.114 Q1286.78 164.736 1281.57 164.736 Q1278.94 164.736 1277.3 167.137 Q1276.33 168.747 1276.33 172.173 Z" fill="#000000" fill-rule="nonzero" fill-opacity="1" /><path clip-path="url(#clip080)" d="M1303.46 189.857 L1303.46 188.012 Q1306.65 188.012 1307.38 187.631 Q1308.11 187.222 1308.11 185.289 L1308.11 169.216 Q1308.11 166.99 1307.32 166.434 Q1306.56 165.878 1303.46 165.878 L1303.46 164.004 L1311.89 163.36 L1311.89 169.655 Q1314.7 163.36 1320.76 163.36 Q1325.27 163.36 1327.05 165.585 Q1328.37 167.078 1328.64 168.747 Q1328.93 170.416 1328.93 174.749 L1328.93 186.197 Q1328.99 187.456 1329.95 187.749 Q1330.92 188.012 1333.61 188.012 L1333.61 189.857 Q1327.49 189.681 1326.88 189.681 Q1326.41 189.681 1320.12 189.857 L1320.12 188.012 Q1323.31 188.012 1324.04 187.631 Q1324.8 187.222 1324.8 185.289 L1324.8 171.324 Q1324.8 168.279 1323.86 166.493 Q1322.93 164.677 1320.35 164.677 Q1317.25 164.677 1314.76 167.283 Q1312.27 169.889 1312.27 174.281 L1312.27 185.289 Q1312.27 187.222 1313 187.631 Q1313.76 188.012 1316.92 188.012 L1316.92 189.857 Q1310.8 189.681 1310.22 189.681 Q1309.75 189.681 1303.46 189.857 Z" fill="#000000" fill-rule="nonzero" fill-opacity="1" /><path clip-path="url(#clip080)" d="M1337.84 184.147 Q1337.84 179.053 1343.84 176.359 Q1347.44 174.632 1354.88 174.193 L1354.88 171.997 Q1354.88 168.279 1352.92 166.317 Q1350.99 164.326 1348.53 164.326 Q1344.13 164.326 1342.03 167.078 Q1343.81 167.137 1344.46 168.044 Q1345.1 168.923 1345.1 169.83 Q1345.1 171.031 1344.34 171.821 Q1343.61 172.582 1342.35 172.582 Q1341.15 172.582 1340.36 171.851 Q1339.57 171.089 1339.57 169.772 Q1339.57 166.844 1342.2 164.912 Q1344.87 162.979 1348.64 162.979 Q1353.56 162.979 1356.84 166.288 Q1357.87 167.312 1358.36 168.63 Q1358.89 169.947 1358.95 170.826 Q1359.01 171.675 1359.01 173.373 L1359.01 185.348 Q1359.01 185.699 1359.12 186.285 Q1359.24 186.87 1359.77 187.631 Q1360.32 188.363 1361.23 188.363 Q1363.4 188.363 1363.37 184.528 L1363.37 181.161 L1364.89 181.161 L1364.89 184.528 Q1364.89 187.719 1363.19 188.978 Q1361.53 190.208 1359.97 190.208 Q1357.98 190.208 1356.72 188.744 Q1355.46 187.28 1355.29 185.289 Q1354.38 187.573 1352.3 189.066 Q1350.25 190.53 1347.44 190.53 Q1345.28 190.53 1343.23 189.974 Q1341.21 189.447 1339.51 187.953 Q1337.84 186.431 1337.84 184.147 M1342.47 184.089 Q1342.47 186.314 1344.05 187.749 Q1345.63 189.183 1347.85 189.183 Q1350.37 189.183 1352.62 187.251 Q1354.88 185.289 1354.88 181.454 L1354.88 175.452 Q1348.23 175.686 1345.33 178.35 Q1342.47 180.985 1342.47 184.089 Z" fill="#000000" fill-rule="nonzero" fill-opacity="1" /><path clip-path="url(#clip080)" d="M1367.29 189.857 L1367.29 188.012 Q1370.49 188.012 1371.22 187.631 Q1371.95 187.222 1371.95 185.289 L1371.95 154.108 Q1371.95 151.883 1371.16 151.327 Q1370.4 150.77 1367.29 150.77 L1367.29 148.897 L1375.9 148.252 L1375.9 185.289 Q1375.9 187.222 1376.66 187.631 Q1377.42 188.012 1380.59 188.012 L1380.59 189.857 Q1379.85 189.857 1378.33 189.798 Q1376.81 189.739 1375.7 189.71 Q1374.58 189.681 1373.94 189.681 Q1373.24 189.681 1367.29 189.857 Z" fill="#000000" fill-rule="nonzero" fill-opacity="1" /><circle clip-path="url(#clip080)" cx="1463.39" cy="175.036" r="25.6" fill="#e26f46" fill-rule="evenodd" fill-opacity="1" stroke="#000000" stroke-opacity="1" stroke-width="5.68889"/>
<path clip-path="url(#clip080)" d="M1543.04 195.302 L1543.04 193.457 L1544.47 193.457 Q1547.72 193.457 1548.45 192.93 Q1549.22 192.374 1549.22 190.617 L1549.22 159.026 Q1549.22 157.299 1548.45 156.772 Q1547.69 156.216 1544.47 156.216 L1543.04 156.216 L1543.04 154.342 L1564.21 154.342 Q1570.27 154.342 1574.31 157.68 Q1578.35 161.017 1578.35 165.497 Q1578.35 169.947 1574.22 173.168 Q1570.12 176.359 1564.67 176.359 L1554.54 176.359 L1554.54 190.617 Q1554.54 192.345 1555.28 192.901 Q1556.04 193.457 1559.29 193.457 L1560.72 193.457 L1560.72 195.302 Q1558.61 195.126 1551.85 195.126 Q1545.15 195.126 1543.04 195.302 M1554.37 174.807 L1562.63 174.807 Q1565.32 174.807 1567.28 174.046 Q1569.24 173.285 1570.12 172.377 Q1571.03 171.44 1571.53 169.947 Q1572.05 168.425 1572.11 167.605 Q1572.17 166.756 1572.17 165.497 Q1572.17 164.179 1572.11 163.359 Q1572.05 162.51 1571.53 161.017 Q1571.03 159.495 1570.12 158.587 Q1569.24 157.65 1567.28 156.948 Q1565.35 156.216 1562.63 156.216 L1557.3 156.216 Q1555.25 156.216 1554.81 156.626 Q1554.37 157.035 1554.37 158.616 L1554.37 174.807 Z" fill="#000000" fill-rule="nonzero" fill-opacity="1" /><path clip-path="url(#clip080)" d="M1589.2 182.097 Q1589.2 176.447 1592.83 172.436 Q1596.46 168.425 1601.67 168.425 Q1606.94 168.425 1609.67 171.85 Q1612.42 175.276 1612.42 180.194 Q1612.42 181.102 1612.18 181.278 Q1611.95 181.453 1610.92 181.453 L1594.18 181.453 Q1594.18 187.572 1595.99 190.442 Q1598.51 194.453 1602.76 194.453 Q1603.34 194.453 1604.04 194.336 Q1604.75 194.219 1606.18 193.721 Q1607.62 193.194 1608.88 191.818 Q1610.13 190.442 1610.87 188.275 Q1611.04 187.426 1611.63 187.455 Q1612.42 187.455 1612.42 188.158 Q1612.42 188.685 1611.83 189.885 Q1611.28 191.057 1610.19 192.462 Q1609.11 193.867 1607 194.921 Q1604.92 195.975 1602.4 195.975 Q1597.13 195.975 1593.15 191.993 Q1589.2 187.982 1589.2 182.097 M1594.24 180.194 L1608.47 180.194 Q1608.47 178.935 1608.23 177.53 Q1608.03 176.125 1607.38 174.192 Q1606.77 172.231 1605.3 171.001 Q1603.84 169.771 1601.67 169.771 Q1600.71 169.771 1599.65 170.181 Q1598.63 170.591 1597.37 171.587 Q1596.11 172.582 1595.23 174.836 Q1594.35 177.091 1594.24 180.194 Z" fill="#000000" fill-rule="nonzero" fill-opacity="1" /><path clip-path="url(#clip080)" d="M1615.32 189.593 Q1615.32 184.498 1621.32 181.805 Q1624.92 180.077 1632.36 179.638 L1632.36 177.442 Q1632.36 173.724 1630.4 171.762 Q1628.47 169.771 1626.01 169.771 Q1621.62 169.771 1619.51 172.524 Q1621.29 172.582 1621.94 173.49 Q1622.58 174.368 1622.58 175.276 Q1622.58 176.476 1621.82 177.267 Q1621.09 178.028 1619.83 178.028 Q1618.63 178.028 1617.84 177.296 Q1617.05 176.535 1617.05 175.217 Q1617.05 172.289 1619.68 170.357 Q1622.35 168.425 1626.12 168.425 Q1631.04 168.425 1634.32 171.733 Q1635.35 172.758 1635.84 174.075 Q1636.37 175.393 1636.43 176.271 Q1636.49 177.12 1636.49 178.818 L1636.49 190.793 Q1636.49 191.144 1636.61 191.73 Q1636.72 192.315 1637.25 193.077 Q1637.81 193.809 1638.71 193.809 Q1640.88 193.809 1640.85 189.973 L1640.85 186.606 L1642.37 186.606 L1642.37 189.973 Q1642.37 193.165 1640.68 194.424 Q1639.01 195.653 1637.46 195.653 Q1635.46 195.653 1634.21 194.189 Q1632.95 192.725 1632.77 190.734 Q1631.86 193.018 1629.78 194.511 Q1627.73 195.975 1624.92 195.975 Q1622.76 195.975 1620.71 195.419 Q1618.69 194.892 1616.99 193.399 Q1615.32 191.876 1615.32 189.593 M1619.95 189.534 Q1619.95 191.759 1621.53 193.194 Q1623.11 194.628 1625.33 194.628 Q1627.85 194.628 1630.11 192.696 Q1632.36 190.734 1632.36 186.899 L1632.36 180.897 Q1625.71 181.131 1622.82 183.796 Q1619.95 186.431 1619.95 189.534 Z" fill="#000000" fill-rule="nonzero" fill-opacity="1" /><path clip-path="url(#clip080)" d="M1644.78 195.302 L1644.78 193.457 Q1647.97 193.457 1648.7 193.077 Q1649.46 192.667 1649.46 190.734 L1649.46 159.553 Q1649.46 157.328 1648.67 156.772 Q1647.91 156.216 1644.78 156.216 L1644.78 154.342 L1653.41 153.698 L1653.41 182.478 L1661.87 175.159 Q1663.19 174.017 1663.19 172.816 Q1663.19 171.44 1661.46 171.323 L1661.46 169.449 Q1663.98 169.625 1668.17 169.625 Q1670.63 169.625 1672.36 169.449 L1672.36 171.323 Q1668.58 171.499 1664.8 174.544 Q1663.95 175.217 1661.93 176.974 Q1659.94 178.701 1659.94 178.877 Q1659.94 178.935 1660 179.082 Q1660.09 179.228 1660.21 179.345 Q1660.32 179.462 1660.32 179.521 L1667.94 190.266 Q1669.49 192.433 1670.63 192.96 Q1671.77 193.457 1673.76 193.457 L1673.76 195.302 Q1671.19 195.126 1668.52 195.126 Q1667.09 195.126 1662.05 195.302 L1662.05 193.457 Q1664.22 193.457 1664.22 192.052 Q1664.22 191.086 1659.36 184.381 Q1659.01 183.913 1658.21 182.888 Q1657.48 181.805 1657.07 181.278 L1653.24 184.557 L1653.24 190.734 Q1653.24 192.667 1653.97 193.077 Q1654.73 193.457 1657.92 193.457 L1657.92 195.302 Q1654.32 195.126 1651.33 195.126 Q1650.72 195.126 1644.78 195.302 Z" fill="#000000" fill-rule="nonzero" fill-opacity="1" /><path clip-path="url(#clip080)" d="M1677.01 194.511 L1677.01 186.606 Q1677.01 185.933 1677.04 185.699 Q1677.07 185.464 1677.24 185.289 Q1677.42 185.113 1677.77 185.113 Q1678.18 185.113 1678.32 185.289 Q1678.5 185.464 1678.62 186.138 Q1679.52 190.266 1681.46 192.462 Q1683.42 194.628 1686.96 194.628 Q1690.33 194.628 1692.03 193.135 Q1693.72 191.642 1693.72 189.183 Q1693.72 184.791 1687.49 183.678 Q1683.89 182.947 1682.39 182.478 Q1680.9 181.98 1679.58 180.897 Q1677.01 178.789 1677.01 175.803 Q1677.01 172.816 1679.26 170.62 Q1681.54 168.425 1686.58 168.425 Q1689.95 168.425 1692.23 170.123 Q1692.9 169.596 1693.26 169.157 Q1694.05 168.425 1694.46 168.425 Q1694.92 168.425 1695.01 168.747 Q1695.1 169.039 1695.1 169.888 L1695.1 175.92 Q1695.1 176.593 1695.07 176.827 Q1695.04 177.062 1694.87 177.237 Q1694.69 177.384 1694.31 177.384 Q1693.64 177.384 1693.61 176.827 Q1693.14 169.566 1686.58 169.566 Q1683.04 169.566 1681.46 170.943 Q1679.88 172.289 1679.88 174.134 Q1679.88 175.159 1680.34 175.949 Q1680.84 176.71 1681.46 177.179 Q1682.1 177.618 1683.27 178.057 Q1684.44 178.467 1685.15 178.613 Q1685.88 178.76 1687.25 179.053 Q1692.06 179.96 1694.08 181.922 Q1696.59 184.44 1696.59 187.631 Q1696.59 191.174 1694.19 193.574 Q1691.79 195.975 1686.96 195.975 Q1683.07 195.975 1680.34 193.369 Q1679.99 193.721 1679.73 194.043 Q1679.47 194.336 1679.35 194.453 Q1679.26 194.57 1679.23 194.658 Q1679.2 194.716 1679.14 194.775 Q1677.94 195.975 1677.65 195.975 Q1677.18 195.975 1677.09 195.653 Q1677.01 195.36 1677.01 194.511 Z" fill="#000000" fill-rule="nonzero" fill-opacity="1" /></svg>
