<?xml version="1.0" encoding="utf-8"?>
<svg xmlns="http://www.w3.org/2000/svg" xmlns:xlink="http://www.w3.org/1999/xlink" width="600" height="400" viewBox="0 0 2400 1600">
<defs>
  <clipPath id="clip130">
    <rect x="0" y="0" width="2400" height="1600"/>
  </clipPath>
</defs>
<path clip-path="url(#clip130)" d="M0 1600 L2400 1600 L2400 0 L0 0  Z" fill="#ffffff" fill-rule="evenodd" fill-opacity="1"/>
<defs>
  <clipPath id="clip131">
    <rect x="497" y="280" width="1793" height="1055"/>
  </clipPath>
</defs>
<path clip-path="url(#clip130)" d="M498.94 1334.27 L2289.76 1334.27 L2289.76 280.637 L498.94 280.637  Z" fill="#ffffff" fill-rule="evenodd" fill-opacity="1"/>
<defs>
  <clipPath id="clip132">
    <rect x="498" y="280" width="1792" height="1055"/>
  </clipPath>
</defs>
<polyline clip-path="url(#clip130)" style="stroke:#000000; stroke-linecap:round; stroke-linejoin:round; stroke-width:4; stroke-opacity:1; fill:none" points="498.94,1334.27 2289.76,1334.27 "/>
<polyline clip-path="url(#clip130)" style="stroke:#000000; stroke-linecap:round; stroke-linejoin:round; stroke-width:4; stroke-opacity:1; fill:none" points="549.623,1334.27 549.623,1318 "/>
<polyline clip-path="url(#clip130)" style="stroke:#000000; stroke-linecap:round; stroke-linejoin:round; stroke-width:4; stroke-opacity:1; fill:none" points="934.819,1334.27 934.819,1318 "/>
<polyline clip-path="url(#clip130)" style="stroke:#000000; stroke-linecap:round; stroke-linejoin:round; stroke-width:4; stroke-opacity:1; fill:none" points="1320.02,1334.27 1320.02,1318 "/>
<polyline clip-path="url(#clip130)" style="stroke:#000000; stroke-linecap:round; stroke-linejoin:round; stroke-width:4; stroke-opacity:1; fill:none" points="1705.21,1334.27 1705.21,1318 "/>
<polyline clip-path="url(#clip130)" style="stroke:#000000; stroke-linecap:round; stroke-linejoin:round; stroke-width:4; stroke-opacity:1; fill:none" points="2090.41,1334.27 2090.41,1318 "/>
<path clip-path="url(#clip130)" d="M549.623 1368.12 Q545.109 1368.12 542.824 1372.57 Q540.567 1377 540.567 1385.91 Q540.567 1394.79 542.824 1399.25 Q545.109 1403.68 549.623 1403.68 Q554.166 1403.68 556.423 1399.25 Q558.709 1394.79 558.709 1385.91 Q558.709 1377 556.423 1372.57 Q554.166 1368.12 549.623 1368.12 M549.623 1363.49 Q556.886 1363.49 560.705 1369.24 Q564.554 1374.97 564.554 1385.91 Q564.554 1396.82 560.705 1402.58 Q556.886 1408.31 549.623 1408.31 Q542.361 1408.31 538.512 1402.58 Q534.693 1396.82 534.693 1385.91 Q534.693 1374.97 538.512 1369.24 Q542.361 1363.49 549.623 1363.49 Z" fill="#000000" fill-rule="nonzero" fill-opacity="1" /><path clip-path="url(#clip130)" d="M903.193 1364.27 L926.139 1364.27 L926.139 1369.19 L908.546 1369.19 L908.546 1379.78 Q909.82 1379.34 911.093 1379.14 Q912.366 1378.91 913.639 1378.91 Q920.873 1378.91 925.097 1382.87 Q929.322 1386.84 929.322 1393.61 Q929.322 1400.58 924.982 1404.46 Q920.641 1408.31 912.742 1408.31 Q910.022 1408.31 907.187 1407.84 Q904.38 1407.38 901.371 1406.45 L901.371 1400.58 Q903.975 1402 906.752 1402.69 Q909.53 1403.39 912.626 1403.39 Q917.632 1403.39 920.554 1400.75 Q923.477 1398.12 923.477 1393.61 Q923.477 1389.09 920.554 1386.46 Q917.632 1383.83 912.626 1383.83 Q910.283 1383.83 907.939 1384.35 Q905.624 1384.87 903.193 1385.97 L903.193 1364.27 Z" fill="#000000" fill-rule="nonzero" fill-opacity="1" /><path clip-path="url(#clip130)" d="M953.338 1368.12 Q948.824 1368.12 946.538 1372.57 Q944.281 1377 944.281 1385.91 Q944.281 1394.79 946.538 1399.25 Q948.824 1403.68 953.338 1403.68 Q957.881 1403.68 960.138 1399.25 Q962.423 1394.79 962.423 1385.91 Q962.423 1377 960.138 1372.57 Q957.881 1368.12 953.338 1368.12 M953.338 1363.49 Q960.601 1363.49 964.42 1369.24 Q968.268 1374.97 968.268 1385.91 Q968.268 1396.82 964.42 1402.58 Q960.601 1408.31 953.338 1408.31 Q946.075 1408.31 942.227 1402.58 Q938.407 1396.82 938.407 1385.91 Q938.407 1374.97 942.227 1369.24 Q946.075 1363.49 953.338 1363.49 Z" fill="#000000" fill-rule="nonzero" fill-opacity="1" /><path clip-path="url(#clip130)" d="M1269.52 1402.55 L1279.07 1402.55 L1279.07 1369.59 L1268.68 1371.68 L1268.68 1366.35 L1279.01 1364.27 L1284.86 1364.27 L1284.86 1402.55 L1294.41 1402.55 L1294.41 1407.47 L1269.52 1407.47 L1269.52 1402.55 Z" fill="#000000" fill-rule="nonzero" fill-opacity="1" /><path clip-path="url(#clip130)" d="M1318.71 1368.12 Q1314.2 1368.12 1311.91 1372.57 Q1309.66 1377 1309.66 1385.91 Q1309.66 1394.79 1311.91 1399.25 Q1314.2 1403.68 1318.71 1403.68 Q1323.26 1403.68 1325.51 1399.25 Q1327.8 1394.79 1327.8 1385.91 Q1327.8 1377 1325.51 1372.57 Q1323.26 1368.12 1318.71 1368.12 M1318.71 1363.49 Q1325.98 1363.49 1329.8 1369.24 Q1333.64 1374.97 1333.64 1385.91 Q1333.64 1396.82 1329.8 1402.58 Q1325.98 1408.31 1318.71 1408.31 Q1311.45 1408.31 1307.6 1402.58 Q1303.78 1396.82 1303.78 1385.91 Q1303.78 1374.97 1307.6 1369.24 Q1311.45 1363.49 1318.71 1363.49 Z" fill="#000000" fill-rule="nonzero" fill-opacity="1" /><path clip-path="url(#clip130)" d="M1356.42 1368.12 Q1351.9 1368.12 1349.62 1372.57 Q1347.36 1377 1347.36 1385.91 Q1347.36 1394.79 1349.62 1399.25 Q1351.9 1403.68 1356.42 1403.68 Q1360.96 1403.68 1363.22 1399.25 Q1365.5 1394.79 1365.5 1385.91 Q1365.5 1377 1363.22 1372.57 Q1360.96 1368.12 1356.42 1368.12 M1356.42 1363.49 Q1363.68 1363.49 1367.5 1369.24 Q1371.35 1374.97 1371.35 1385.91 Q1371.35 1396.82 1367.5 1402.58 Q1363.68 1408.31 1356.42 1408.31 Q1349.15 1408.31 1345.3 1402.58 Q1341.49 1396.82 1341.49 1385.91 Q1341.49 1374.97 1345.3 1369.24 Q1349.15 1363.49 1356.42 1363.49 Z" fill="#000000" fill-rule="nonzero" fill-opacity="1" /><path clip-path="url(#clip130)" d="M1654.72 1402.55 L1664.27 1402.55 L1664.27 1369.59 L1653.88 1371.68 L1653.88 1366.35 L1664.21 1364.27 L1670.06 1364.27 L1670.06 1402.55 L1679.6 1402.55 L1679.6 1407.47 L1654.72 1407.47 L1654.72 1402.55 Z" fill="#000000" fill-rule="nonzero" fill-opacity="1" /><path clip-path="url(#clip130)" d="M1691.47 1364.27 L1714.41 1364.27 L1714.41 1369.19 L1696.82 1369.19 L1696.82 1379.78 Q1698.09 1379.34 1699.37 1379.14 Q1700.64 1378.91 1701.91 1378.91 Q1709.15 1378.91 1713.37 1382.87 Q1717.6 1386.84 1717.6 1393.61 Q1717.6 1400.58 1713.26 1404.46 Q1708.92 1408.31 1701.02 1408.31 Q1698.3 1408.31 1695.46 1407.84 Q1692.65 1407.38 1689.64 1406.45 L1689.64 1400.58 Q1692.25 1402 1695.03 1402.69 Q1697.8 1403.39 1700.9 1403.39 Q1705.91 1403.39 1708.83 1400.75 Q1711.75 1398.12 1711.75 1393.61 Q1711.75 1389.09 1708.83 1386.46 Q1705.91 1383.83 1700.9 1383.83 Q1698.56 1383.83 1696.21 1384.35 Q1693.9 1384.87 1691.47 1385.97 L1691.47 1364.27 Z" fill="#000000" fill-rule="nonzero" fill-opacity="1" /><path clip-path="url(#clip130)" d="M1741.61 1368.12 Q1737.1 1368.12 1734.81 1372.57 Q1732.56 1377 1732.56 1385.91 Q1732.56 1394.79 1734.81 1399.25 Q1737.1 1403.68 1741.61 1403.68 Q1746.15 1403.68 1748.41 1399.25 Q1750.7 1394.79 1750.7 1385.91 Q1750.7 1377 1748.41 1372.57 Q1746.15 1368.12 1741.61 1368.12 M1741.61 1363.49 Q1748.87 1363.49 1752.69 1369.24 Q1756.54 1374.97 1756.54 1385.91 Q1756.54 1396.82 1752.69 1402.58 Q1748.87 1408.31 1741.61 1408.31 Q1734.35 1408.31 1730.5 1402.58 Q1726.68 1396.82 1726.68 1385.91 Q1726.68 1374.97 1730.5 1369.24 Q1734.35 1363.49 1741.61 1363.49 Z" fill="#000000" fill-rule="nonzero" fill-opacity="1" /><path clip-path="url(#clip130)" d="M2045.02 1402.55 L2065.42 1402.55 L2065.42 1407.47 L2037.99 1407.47 L2037.99 1402.55 Q2041.32 1399.11 2047.05 1393.32 Q2052.81 1387.5 2054.28 1385.82 Q2057.09 1382.67 2058.19 1380.5 Q2059.32 1378.3 2059.32 1376.19 Q2059.32 1372.75 2056.89 1370.58 Q2054.49 1368.41 2050.61 1368.41 Q2047.86 1368.41 2044.79 1369.36 Q2041.75 1370.32 2038.28 1372.25 L2038.28 1366.35 Q2041.81 1364.93 2044.88 1364.21 Q2047.95 1363.49 2050.49 1363.49 Q2057.2 1363.49 2061.2 1366.84 Q2065.19 1370.2 2065.19 1375.81 Q2065.19 1378.47 2064.18 1380.88 Q2063.19 1383.25 2060.56 1386.49 Q2059.84 1387.33 2055.96 1391.35 Q2052.08 1395.34 2045.02 1402.55 Z" fill="#000000" fill-rule="nonzero" fill-opacity="1" /><path clip-path="url(#clip130)" d="M2090.19 1368.12 Q2085.68 1368.12 2083.39 1372.57 Q2081.13 1377 2081.13 1385.91 Q2081.13 1394.79 2083.39 1399.25 Q2085.68 1403.68 2090.19 1403.68 Q2094.73 1403.68 2096.99 1399.25 Q2099.28 1394.79 2099.28 1385.91 Q2099.28 1377 2096.99 1372.57 Q2094.73 1368.12 2090.19 1368.12 M2090.19 1363.49 Q2097.45 1363.49 2101.27 1369.24 Q2105.12 1374.97 2105.12 1385.91 Q2105.12 1396.82 2101.27 1402.58 Q2097.45 1408.31 2090.19 1408.31 Q2082.93 1408.31 2079.08 1402.58 Q2075.26 1396.82 2075.26 1385.91 Q2075.26 1374.97 2079.08 1369.24 Q2082.93 1363.49 2090.19 1363.49 Z" fill="#000000" fill-rule="nonzero" fill-opacity="1" /><path clip-path="url(#clip130)" d="M2127.89 1368.12 Q2123.38 1368.12 2121.09 1372.57 Q2118.84 1377 2118.84 1385.91 Q2118.84 1394.79 2121.09 1399.25 Q2123.38 1403.68 2127.89 1403.68 Q2132.44 1403.68 2134.69 1399.25 Q2136.98 1394.79 2136.98 1385.91 Q2136.98 1377 2134.69 1372.57 Q2132.44 1368.12 2127.89 1368.12 M2127.89 1363.49 Q2135.16 1363.49 2138.98 1369.24 Q2142.82 1374.97 2142.82 1385.91 Q2142.82 1396.82 2138.98 1402.58 Q2135.16 1408.31 2127.89 1408.31 Q2120.63 1408.31 2116.78 1402.58 Q2112.96 1396.82 2112.96 1385.91 Q2112.96 1374.97 2116.78 1369.24 Q2120.63 1363.49 2127.89 1363.49 Z" fill="#000000" fill-rule="nonzero" fill-opacity="1" /><path clip-path="url(#clip130)" d="M1078.68 1496.22 L1078.68 1493.45 L1080.83 1493.45 Q1085.71 1493.45 1086.81 1492.66 Q1087.95 1491.83 1087.95 1489.19 L1087.95 1442.07 Q1087.95 1439.48 1086.81 1438.69 Q1085.66 1437.86 1080.83 1437.86 L1078.68 1437.86 L1078.68 1435.04 L1128.04 1435.04 L1130.55 1455.29 L1128.31 1455.29 Q1127.69 1450.15 1126.86 1447.25 Q1126.07 1444.31 1124.22 1441.98 Q1122.38 1439.66 1119.26 1438.78 Q1116.19 1437.86 1111.14 1437.86 L1100.33 1437.86 Q1097.26 1437.86 1096.6 1438.51 Q1095.94 1439.13 1095.94 1441.46 L1095.94 1464.21 L1103.67 1464.21 Q1109.77 1464.21 1111.49 1462.01 Q1113.2 1459.81 1113.2 1453.67 L1115.44 1453.67 L1115.44 1477.51 L1113.2 1477.51 Q1113.2 1471.32 1111.49 1469.17 Q1109.77 1466.97 1103.67 1466.97 L1095.94 1466.97 L1095.94 1489.11 Q1095.94 1491 1096.25 1491.74 Q1096.56 1492.44 1098.44 1492.97 Q1100.33 1493.45 1104.46 1493.45 L1107.45 1493.45 L1107.45 1496.22 Q1104.2 1495.96 1092.34 1495.96 Q1081.84 1495.96 1078.68 1496.22 Z" fill="#000000" fill-rule="nonzero" fill-opacity="1" /><path clip-path="url(#clip130)" d="M1144.33 1496.22 L1144.33 1493.45 Q1149.11 1493.45 1150.21 1492.88 Q1151.35 1492.27 1151.35 1489.37 L1151.35 1465.26 Q1151.35 1461.92 1150.17 1461.09 Q1149.03 1460.25 1144.33 1460.25 L1144.33 1457.44 L1156.84 1456.48 L1156.84 1466.36 Q1158.12 1462.49 1160.8 1459.51 Q1163.52 1456.48 1167.91 1456.48 Q1170.81 1456.48 1172.65 1458.1 Q1174.54 1459.73 1174.54 1461.97 Q1174.54 1463.94 1173.31 1464.95 Q1172.13 1465.92 1170.68 1465.92 Q1169.05 1465.92 1167.91 1464.91 Q1166.81 1463.85 1166.81 1462.05 Q1166.81 1460.96 1167.3 1460.12 Q1167.82 1459.24 1168.22 1458.94 Q1168.61 1458.63 1168.88 1458.54 Q1168.7 1458.45 1167.91 1458.45 Q1162.95 1458.45 1160.09 1463.42 Q1157.28 1468.33 1157.28 1475.36 L1157.28 1489.19 Q1157.28 1491.79 1158.34 1492.62 Q1159.43 1493.45 1164.13 1493.45 L1166.02 1493.45 L1166.02 1496.22 Q1162.42 1495.96 1154.6 1495.96 Q1153.51 1495.96 1151.79 1496 Q1150.08 1496.05 1147.84 1496.13 Q1145.6 1496.22 1144.33 1496.22 Z" fill="#000000" fill-rule="nonzero" fill-opacity="1" /><path clip-path="url(#clip130)" d="M1181.13 1476.41 Q1181.13 1467.94 1186.57 1461.92 Q1192.02 1455.91 1199.84 1455.91 Q1207.74 1455.91 1211.83 1461.04 Q1215.95 1466.18 1215.95 1473.56 Q1215.95 1474.92 1215.6 1475.18 Q1215.25 1475.45 1213.71 1475.45 L1188.59 1475.45 Q1188.59 1484.63 1191.32 1488.93 Q1195.09 1494.95 1201.46 1494.95 Q1202.34 1494.95 1203.39 1494.77 Q1204.45 1494.6 1206.6 1493.85 Q1208.75 1493.06 1210.64 1491 Q1212.53 1488.93 1213.63 1485.68 Q1213.89 1484.41 1214.77 1484.45 Q1215.95 1484.45 1215.95 1485.51 Q1215.95 1486.3 1215.08 1488.1 Q1214.24 1489.85 1212.62 1491.96 Q1210.99 1494.07 1207.83 1495.65 Q1204.71 1497.23 1200.93 1497.23 Q1193.03 1497.23 1187.06 1491.26 Q1181.13 1485.24 1181.13 1476.41 M1188.68 1473.56 L1210.03 1473.56 Q1210.03 1471.67 1209.67 1469.56 Q1209.37 1467.46 1208.4 1464.56 Q1207.48 1461.61 1205.28 1459.77 Q1203.09 1457.93 1199.84 1457.93 Q1198.39 1457.93 1196.81 1458.54 Q1195.27 1459.16 1193.38 1460.65 Q1191.49 1462.14 1190.18 1465.52 Q1188.86 1468.9 1188.68 1473.56 Z" fill="#000000" fill-rule="nonzero" fill-opacity="1" /><path clip-path="url(#clip130)" d="M1220.67 1476.9 Q1220.67 1468.25 1226.59 1462.36 Q1232.52 1456.48 1240.52 1456.48 Q1243.85 1456.48 1246.58 1458.1 Q1249.34 1459.73 1250.53 1461.35 Q1251.76 1462.93 1252.59 1464.64 L1255.97 1456.48 L1257.99 1456.48 L1257.99 1506.85 Q1257.99 1509.75 1259.09 1510.32 Q1260.23 1510.89 1264.98 1510.89 L1264.98 1513.66 Q1255.54 1513.39 1254.83 1513.39 Q1253.95 1513.39 1244.73 1513.66 L1244.73 1510.89 Q1249.52 1510.89 1250.62 1510.27 Q1251.76 1509.7 1251.76 1506.85 L1251.76 1490.73 Q1246.8 1497.19 1239.81 1497.23 Q1232 1497.23 1226.33 1491.26 Q1220.67 1485.24 1220.67 1476.9 M1228.13 1476.9 Q1228.13 1484.63 1231.64 1489.94 Q1235.2 1495.21 1240.16 1495.21 Q1245.04 1495.21 1248.42 1491.57 Q1252.02 1487.61 1252.02 1483.97 L1252.02 1471.32 Q1252.02 1467.1 1248.99 1462.93 Q1246.01 1458.72 1241.09 1458.72 Q1235.95 1458.72 1232.04 1463.9 Q1228.13 1469.08 1228.13 1476.9 Z" fill="#000000" fill-rule="nonzero" fill-opacity="1" /><path clip-path="url(#clip130)" d="M1272.65 1460.25 L1272.65 1457.44 L1285.87 1456.48 L1285.87 1486.34 Q1285.87 1488.49 1286.04 1489.77 Q1286.22 1491 1286.92 1492.44 Q1287.67 1493.89 1289.33 1494.55 Q1291.05 1495.21 1293.77 1495.21 Q1298.65 1495.21 1301.63 1491.21 Q1304.66 1487.22 1304.66 1481.29 L1304.66 1465.26 Q1304.66 1461.92 1303.48 1461.09 Q1302.29 1460.25 1297.64 1460.25 L1297.64 1457.44 L1310.85 1456.48 L1310.85 1488.4 Q1310.85 1491.74 1312 1492.62 Q1313.18 1493.45 1317.88 1493.45 L1317.88 1496.22 L1304.93 1497.23 L1304.93 1489.11 Q1301.15 1497.19 1293.33 1497.23 Q1289.38 1497.23 1286.66 1496.22 Q1283.98 1495.21 1282.62 1493.98 Q1281.25 1492.71 1280.51 1490.29 Q1279.8 1487.88 1279.72 1486.38 Q1279.63 1484.89 1279.63 1481.99 L1279.63 1468.51 Q1279.63 1462.4 1278.75 1461.35 Q1277.87 1460.25 1272.65 1460.25 Z" fill="#000000" fill-rule="nonzero" fill-opacity="1" /><path clip-path="url(#clip130)" d="M1322.78 1476.41 Q1322.78 1467.94 1328.22 1461.92 Q1333.67 1455.91 1341.49 1455.91 Q1349.39 1455.91 1353.48 1461.04 Q1357.6 1466.18 1357.6 1473.56 Q1357.6 1474.92 1357.25 1475.18 Q1356.9 1475.45 1355.36 1475.45 L1330.24 1475.45 Q1330.24 1484.63 1332.97 1488.93 Q1336.74 1494.95 1343.11 1494.95 Q1343.99 1494.95 1345.04 1494.77 Q1346.1 1494.6 1348.25 1493.85 Q1350.4 1493.06 1352.29 1491 Q1354.18 1488.93 1355.28 1485.68 Q1355.54 1484.41 1356.42 1484.45 Q1357.6 1484.45 1357.6 1485.51 Q1357.6 1486.3 1356.72 1488.1 Q1355.89 1489.85 1354.27 1491.96 Q1352.64 1494.07 1349.48 1495.65 Q1346.36 1497.23 1342.58 1497.23 Q1334.68 1497.23 1328.71 1491.26 Q1322.78 1485.24 1322.78 1476.41 M1330.33 1473.56 L1351.67 1473.56 Q1351.67 1471.67 1351.32 1469.56 Q1351.02 1467.46 1350.05 1464.56 Q1349.13 1461.61 1346.93 1459.77 Q1344.74 1457.93 1341.49 1457.93 Q1340.04 1457.93 1338.46 1458.54 Q1336.92 1459.16 1335.03 1460.65 Q1333.14 1462.14 1331.82 1465.52 Q1330.51 1468.9 1330.33 1473.56 Z" fill="#000000" fill-rule="nonzero" fill-opacity="1" /><path clip-path="url(#clip130)" d="M1360.51 1496.22 L1360.51 1493.45 Q1365.3 1493.45 1366.4 1492.88 Q1367.5 1492.27 1367.5 1489.37 L1367.5 1465.26 Q1367.5 1461.92 1366.31 1461.09 Q1365.17 1460.25 1360.51 1460.25 L1360.51 1457.44 L1373.16 1456.48 L1373.16 1465.92 Q1377.38 1456.48 1386.47 1456.48 Q1393.23 1456.48 1395.91 1459.81 Q1397.89 1462.05 1398.28 1464.56 Q1398.72 1467.06 1398.72 1473.56 L1398.72 1490.73 Q1398.81 1492.62 1400.26 1493.06 Q1401.71 1493.45 1405.75 1493.45 L1405.75 1496.22 Q1396.57 1495.96 1395.65 1495.96 Q1394.95 1495.96 1385.5 1496.22 L1385.5 1493.45 Q1390.29 1493.45 1391.39 1492.88 Q1392.53 1492.27 1392.53 1489.37 L1392.53 1468.42 Q1392.53 1463.85 1391.12 1461.18 Q1389.72 1458.45 1385.85 1458.45 Q1381.2 1458.45 1377.47 1462.36 Q1373.73 1466.27 1373.73 1472.86 L1373.73 1489.37 Q1373.73 1492.27 1374.83 1492.88 Q1375.97 1493.45 1380.72 1493.45 L1380.72 1496.22 Q1371.54 1495.96 1370.66 1495.96 Q1369.96 1495.96 1360.51 1496.22 Z" fill="#000000" fill-rule="nonzero" fill-opacity="1" /><path clip-path="url(#clip130)" d="M1417.79 1491.3 Q1412.08 1485.33 1412.08 1476.81 Q1412.08 1468.25 1417.71 1462.1 Q1423.33 1455.91 1431.58 1455.91 Q1437.07 1455.91 1441.2 1458.54 Q1445.33 1461.13 1445.33 1465.57 Q1445.33 1467.54 1444.14 1468.69 Q1443 1469.78 1441.2 1469.78 Q1439.31 1469.78 1438.17 1468.64 Q1437.07 1467.46 1437.07 1465.65 Q1437.07 1464.86 1437.34 1464.07 Q1437.6 1463.28 1438.57 1462.45 Q1439.58 1461.61 1441.29 1461.48 Q1438.08 1458.19 1431.85 1458.19 Q1431.76 1458.19 1431.67 1458.19 Q1427.1 1458.19 1423.33 1462.49 Q1419.55 1466.8 1419.55 1476.63 Q1419.55 1481.77 1420.78 1485.55 Q1422.05 1489.28 1424.12 1491.21 Q1426.18 1493.15 1428.2 1494.07 Q1430.22 1494.95 1432.2 1494.95 Q1441.03 1494.95 1444.01 1485.51 Q1444.28 1484.63 1445.15 1484.63 Q1446.34 1484.63 1446.34 1485.51 Q1446.34 1485.94 1445.99 1487.09 Q1445.64 1488.23 1444.54 1490.03 Q1443.44 1491.83 1441.86 1493.41 Q1440.32 1494.95 1437.56 1496.09 Q1434.83 1497.23 1431.41 1497.23 Q1423.5 1497.23 1417.79 1491.3 Z" fill="#000000" fill-rule="nonzero" fill-opacity="1" /><path clip-path="url(#clip130)" d="M1449.46 1507.38 Q1449.46 1505.49 1450.56 1504.48 Q1451.7 1503.51 1453.24 1503.51 Q1454.86 1503.51 1455.92 1504.52 Q1457.02 1505.58 1457.02 1507.29 Q1457.02 1510.63 1453.5 1511.07 Q1455.21 1512.69 1457.72 1512.69 Q1460.4 1512.69 1462.55 1510.71 Q1464.74 1508.74 1465.67 1506.85 Q1466.63 1504.96 1467.99 1501.54 Q1469.27 1498.86 1470.23 1496.22 L1456.75 1463.37 Q1455.87 1461.22 1454.51 1460.74 Q1453.15 1460.25 1449.46 1460.25 L1449.46 1457.44 Q1453.5 1457.71 1458.2 1457.71 Q1460.97 1457.71 1467.99 1457.44 L1467.99 1460.25 Q1462.94 1460.25 1462.94 1462.58 Q1462.94 1462.84 1463.47 1464.21 L1473.48 1488.4 L1482.58 1466.27 Q1483.1 1465 1483.1 1464.12 Q1483.1 1460.43 1478.89 1460.25 L1478.89 1457.44 Q1484.82 1457.71 1486.7 1457.71 Q1490.39 1457.71 1493.42 1457.44 L1493.42 1460.25 Q1487.41 1460.25 1485.08 1466.01 L1469.22 1504.39 Q1464.92 1514.62 1457.72 1514.67 Q1454.29 1514.67 1451.88 1512.56 Q1449.46 1510.45 1449.46 1507.38 Z" fill="#000000" fill-rule="nonzero" fill-opacity="1" /><path clip-path="url(#clip130)" d="M1520.16 1473.74 Q1520.16 1458.54 1525.82 1446.29 Q1528.24 1441.15 1531.62 1436.85 Q1535 1432.54 1537.24 1430.65 Q1539.48 1428.76 1540.1 1428.76 Q1540.98 1428.76 1541.02 1429.64 Q1541.02 1430.08 1539.83 1431.18 Q1525.34 1445.94 1525.39 1473.74 Q1525.39 1501.62 1539.48 1515.81 Q1541.02 1517.35 1541.02 1517.83 Q1541.02 1518.71 1540.1 1518.71 Q1539.48 1518.71 1537.33 1516.91 Q1535.18 1515.11 1531.84 1510.98 Q1528.5 1506.85 1526.09 1501.8 Q1520.16 1489.55 1520.16 1473.74 Z" fill="#000000" fill-rule="nonzero" fill-opacity="1" /><path clip-path="url(#clip130)" d="M1625.01 1435.79 Q1625.01 1437.06 1624.44 1437.33 Q1623.91 1437.59 1621.98 1437.59 Q1618.68 1437.59 1617.19 1438.03 Q1615.74 1438.43 1615.3 1439.13 Q1614.91 1439.79 1614.42 1441.72 L1602.26 1490.29 Q1602.26 1490.34 1602.13 1490.95 Q1602 1491.52 1602 1491.83 Q1602 1492.4 1602.35 1492.75 Q1602.74 1493.1 1603.71 1493.28 Q1604.67 1493.41 1605.42 1493.45 Q1606.21 1493.45 1607.84 1493.45 Q1609.86 1493.45 1610.16 1493.81 Q1610.34 1494.03 1610.34 1494.42 Q1610.34 1495.25 1609.99 1495.69 Q1609.68 1496.09 1609.37 1496.18 Q1609.11 1496.22 1608.58 1496.22 Q1607.66 1496.22 1605.68 1496.13 Q1603.71 1496.05 1602.7 1496.05 L1596.94 1495.96 L1585.53 1496.22 Q1584.3 1496.22 1584.3 1495.21 Q1584.3 1494.33 1584.6 1493.94 Q1584.91 1493.54 1585.22 1493.5 Q1585.57 1493.45 1586.45 1493.45 Q1590.97 1493.45 1592.47 1493.02 Q1594 1492.53 1594.62 1490.47 L1600.81 1465.65 L1573.41 1465.65 L1567.26 1490.29 Q1567.26 1490.34 1567.12 1490.95 Q1566.99 1491.52 1566.99 1491.83 Q1566.99 1492.4 1567.34 1492.75 Q1567.74 1493.1 1568.71 1493.28 Q1569.67 1493.41 1570.42 1493.45 Q1571.21 1493.45 1572.83 1493.45 Q1574.85 1493.45 1575.21 1493.81 Q1575.38 1494.03 1575.38 1494.42 Q1575.38 1495.04 1575.21 1495.47 Q1575.07 1495.87 1574.72 1496 Q1574.42 1496.13 1574.2 1496.18 Q1573.98 1496.22 1573.58 1496.22 Q1572.66 1496.22 1570.68 1496.13 Q1568.75 1496.05 1567.74 1496.05 L1561.99 1495.96 L1550.57 1496.22 Q1549.29 1496.22 1549.29 1495.21 Q1549.29 1494.33 1549.6 1493.98 Q1549.91 1493.59 1550.3 1493.54 Q1550.7 1493.45 1551.71 1493.45 Q1553.91 1493.45 1555.22 1493.32 Q1556.54 1493.19 1557.38 1493.02 Q1558.25 1492.8 1558.69 1492.18 Q1559.18 1491.57 1559.4 1491.04 Q1559.62 1490.47 1559.92 1489.19 L1571.96 1440.89 Q1572.31 1439.44 1572.31 1439.22 Q1572.31 1438.38 1571.78 1438.16 Q1571.3 1437.9 1569.89 1437.77 L1566.47 1437.59 Q1565.41 1437.59 1564.97 1437.55 Q1564.58 1437.5 1564.27 1437.28 Q1563.96 1437.06 1563.96 1436.58 Q1563.96 1435.97 1564.09 1435.57 Q1564.27 1435.13 1564.58 1435 Q1564.89 1434.87 1565.1 1434.83 Q1565.32 1434.78 1565.68 1434.78 L1577.27 1435.04 L1588.78 1434.78 Q1590.05 1434.78 1590.05 1435.79 Q1590.05 1437.06 1589.48 1437.33 Q1588.91 1437.59 1586.98 1437.59 Q1583.77 1437.59 1582.28 1438.03 Q1580.78 1438.43 1580.3 1439.13 Q1579.86 1439.83 1579.42 1441.72 L1574.11 1462.84 L1601.56 1462.84 L1606.96 1440.89 Q1607.31 1439.3 1607.31 1439.22 Q1607.31 1438.38 1606.78 1438.16 Q1606.3 1437.9 1604.89 1437.77 L1601.47 1437.59 Q1600.41 1437.59 1599.97 1437.55 Q1599.58 1437.5 1599.23 1437.28 Q1598.92 1437.06 1598.92 1436.58 Q1598.92 1435.97 1599.05 1435.57 Q1599.23 1435.13 1599.54 1435 Q1599.84 1434.87 1600.06 1434.83 Q1600.28 1434.78 1600.63 1434.78 L1612.23 1435.04 L1623.78 1434.78 Q1625.01 1434.78 1625.01 1435.79 Z" fill="#000000" fill-rule="nonzero" fill-opacity="1" /><path clip-path="url(#clip130)" d="M1666.8 1457.35 Q1666.8 1457.66 1666.05 1458.98 Q1665.35 1460.25 1662.76 1463.46 Q1660.17 1466.66 1656.3 1470.4 Q1654.85 1471.85 1652.66 1473.87 Q1650.46 1475.89 1648.97 1477.21 L1647.48 1478.52 Q1641.77 1483.35 1636.76 1488.76 Q1637.11 1488.62 1637.73 1488.58 Q1638.34 1488.49 1638.78 1488.49 L1639.22 1488.49 Q1641.5 1488.49 1645.5 1490.03 Q1649.01 1491.17 1650.81 1491.17 Q1652.57 1491.17 1654.5 1490.56 Q1656.44 1489.94 1658.54 1488.14 Q1660.65 1486.34 1661.62 1483.62 Q1661.79 1483.18 1661.88 1483.05 Q1661.97 1482.87 1662.23 1482.69 Q1662.5 1482.48 1662.85 1482.48 Q1663.33 1482.48 1663.64 1482.74 Q1663.95 1483 1663.95 1483.35 Q1663.95 1484.14 1663.33 1485.72 Q1662.76 1487.31 1661.49 1489.28 Q1660.26 1491.26 1658.63 1493.06 Q1657.05 1494.82 1654.68 1496.05 Q1652.31 1497.23 1649.8 1497.23 Q1648 1497.23 1646.69 1496.35 Q1645.37 1495.52 1644.05 1493.89 Q1642.25 1491.83 1641.28 1491.17 Q1640.32 1490.47 1638.82 1490.47 Q1634.83 1490.47 1631.18 1496.05 Q1630.79 1496.84 1630.52 1497.01 Q1630.3 1497.23 1629.78 1497.23 Q1628.68 1497.19 1628.68 1496.31 Q1628.68 1495.96 1629.65 1494.42 Q1630.66 1492.84 1632.9 1490.07 Q1635.18 1487.31 1637.95 1484.54 L1646.03 1476.99 Q1654.99 1469.43 1658.54 1465.17 Q1657.05 1465.17 1656.39 1465.13 Q1655.78 1465.08 1654.55 1464.82 Q1653.32 1464.51 1651.6 1463.85 Q1647.61 1462.49 1645.94 1462.49 Q1645.5 1462.49 1645.02 1462.54 Q1644.53 1462.58 1643.44 1462.8 Q1642.38 1463.02 1641.5 1463.46 Q1640.63 1463.85 1639.7 1464.73 Q1638.78 1465.57 1638.3 1466.71 Q1638.17 1467.06 1638.08 1467.24 Q1637.99 1467.41 1637.73 1467.59 Q1637.51 1467.72 1637.16 1467.72 Q1636.63 1467.72 1636.32 1467.41 Q1636.06 1467.1 1636.06 1466.71 Q1636.06 1465.92 1636.85 1464.29 Q1637.64 1462.67 1638.96 1460.91 Q1640.27 1459.11 1642.43 1457.79 Q1644.58 1456.48 1646.95 1456.48 Q1648.35 1456.48 1649.54 1457.09 Q1650.77 1457.71 1651.39 1458.36 Q1652.04 1458.98 1653.14 1460.34 Q1654.06 1461.39 1654.5 1461.83 Q1654.94 1462.27 1655.82 1462.76 Q1656.74 1463.2 1657.75 1463.2 Q1659.42 1463.2 1660.96 1461.92 Q1662.5 1460.6 1664.47 1457.44 Q1665 1456.48 1665.83 1456.48 Q1666.8 1456.48 1666.8 1457.35 Z" fill="#000000" fill-rule="nonzero" fill-opacity="1" /><path clip-path="url(#clip130)" d="M1675.49 1517.83 Q1675.49 1517.39 1676.63 1516.29 Q1691.12 1501.54 1691.12 1473.74 Q1691.12 1445.85 1677.2 1431.75 Q1675.49 1430.13 1675.49 1429.64 Q1675.49 1428.76 1676.37 1428.76 Q1676.98 1428.76 1679.13 1430.57 Q1681.33 1432.37 1684.62 1436.49 Q1687.96 1440.62 1690.42 1445.67 Q1696.35 1457.93 1696.35 1473.74 Q1696.35 1488.93 1690.68 1501.18 Q1688.27 1506.32 1684.89 1510.63 Q1681.5 1514.93 1679.26 1516.82 Q1677.02 1518.71 1676.37 1518.71 Q1675.49 1518.71 1675.49 1517.83 Z" fill="#000000" fill-rule="nonzero" fill-opacity="1" /><polyline clip-path="url(#clip130)" style="stroke:#000000; stroke-linecap:round; stroke-linejoin:round; stroke-width:4; stroke-opacity:1; fill:none" points="498.94,1334.27 498.94,280.637 "/>
<polyline clip-path="url(#clip130)" style="stroke:#000000; stroke-linecap:round; stroke-linejoin:round; stroke-width:4; stroke-opacity:1; fill:none" points="498.94,1150.79 517.837,1150.79 "/>
<polyline clip-path="url(#clip130)" style="stroke:#000000; stroke-linecap:round; stroke-linejoin:round; stroke-width:4; stroke-opacity:1; fill:none" points="498.94,949.447 517.837,949.447 "/>
<polyline clip-path="url(#clip130)" style="stroke:#000000; stroke-linecap:round; stroke-linejoin:round; stroke-width:4; stroke-opacity:1; fill:none" points="498.94,748.105 517.837,748.105 "/>
<polyline clip-path="url(#clip130)" style="stroke:#000000; stroke-linecap:round; stroke-linejoin:round; stroke-width:4; stroke-opacity:1; fill:none" points="498.94,546.763 517.837,546.763 "/>
<polyline clip-path="url(#clip130)" style="stroke:#000000; stroke-linecap:round; stroke-linejoin:round; stroke-width:4; stroke-opacity:1; fill:none" points="498.94,345.421 517.837,345.421 "/>
<path clip-path="url(#clip130)" d="M205.358 1175.53 L214.907 1175.53 L214.907 1142.57 L204.519 1144.66 L204.519 1139.33 L214.849 1137.25 L220.694 1137.25 L220.694 1175.53 L230.242 1175.53 L230.242 1180.45 L205.358 1180.45 L205.358 1175.53 Z" fill="#000000" fill-rule="nonzero" fill-opacity="1" /><path clip-path="url(#clip130)" d="M254.548 1141.1 Q250.034 1141.1 247.748 1145.55 Q245.491 1149.98 245.491 1158.89 Q245.491 1167.78 247.748 1172.23 Q250.034 1176.66 254.548 1176.66 Q259.091 1176.66 261.347 1172.23 Q263.633 1167.78 263.633 1158.89 Q263.633 1149.98 261.347 1145.55 Q259.091 1141.1 254.548 1141.1 M254.548 1136.47 Q261.81 1136.47 265.63 1142.23 Q269.478 1147.95 269.478 1158.89 Q269.478 1169.8 265.63 1175.56 Q261.81 1181.29 254.548 1181.29 Q247.285 1181.29 243.437 1175.56 Q239.617 1169.8 239.617 1158.89 Q239.617 1147.95 243.437 1142.23 Q247.285 1136.47 254.548 1136.47 Z" fill="#000000" fill-rule="nonzero" fill-opacity="1" /><path clip-path="url(#clip130)" d="M285.324 1115.22 L273.334 1133.96 L285.324 1133.96 L285.324 1115.22 M284.078 1111.09 L290.049 1111.09 L290.049 1133.96 L295.057 1133.96 L295.057 1137.91 L290.049 1137.91 L290.049 1146.19 L285.324 1146.19 L285.324 1137.91 L269.478 1137.91 L269.478 1133.33 L284.078 1111.09 Z" fill="#000000" fill-rule="nonzero" fill-opacity="1" /><path clip-path="url(#clip130)" d="M302.909 1140.21 L307.87 1140.21 L307.87 1146.19 L302.909 1146.19 L302.909 1140.21 Z" fill="#000000" fill-rule="nonzero" fill-opacity="1" /><path clip-path="url(#clip130)" d="M328.37 1114.21 Q324.703 1114.21 322.845 1117.83 Q321.011 1121.43 321.011 1128.67 Q321.011 1135.89 322.845 1139.51 Q324.703 1143.11 328.37 1143.11 Q332.061 1143.11 333.895 1139.51 Q335.752 1135.89 335.752 1128.67 Q335.752 1121.43 333.895 1117.83 Q332.061 1114.21 328.37 1114.21 M328.37 1110.45 Q334.271 1110.45 337.374 1115.13 Q340.501 1119.78 340.501 1128.67 Q340.501 1137.53 337.374 1142.21 Q334.271 1146.87 328.37 1146.87 Q322.469 1146.87 319.342 1142.21 Q316.239 1137.53 316.239 1128.67 Q316.239 1119.78 319.342 1115.13 Q322.469 1110.45 328.37 1110.45 Z" fill="#000000" fill-rule="nonzero" fill-opacity="1" /><path clip-path="url(#clip130)" d="M377.458 1120.33 L366.714 1131.12 L377.458 1141.86 L374.661 1144.7 L363.87 1133.91 L353.079 1144.7 L350.305 1141.86 L361.025 1131.12 L350.305 1120.33 L353.079 1117.48 L363.87 1128.27 L374.661 1117.48 L377.458 1120.33 Z" fill="#000000" fill-rule="nonzero" fill-opacity="1" /><path clip-path="url(#clip130)" d="M390.012 1142.19 L397.771 1142.19 L397.771 1115.41 L389.331 1117.1 L389.331 1112.78 L397.724 1111.09 L402.473 1111.09 L402.473 1142.19 L410.231 1142.19 L410.231 1146.19 L390.012 1146.19 L390.012 1142.19 Z" fill="#000000" fill-rule="nonzero" fill-opacity="1" /><path clip-path="url(#clip130)" d="M429.979 1114.21 Q426.311 1114.21 424.454 1117.83 Q422.62 1121.43 422.62 1128.67 Q422.62 1135.89 424.454 1139.51 Q426.311 1143.11 429.979 1143.11 Q433.67 1143.11 435.504 1139.51 Q437.361 1135.89 437.361 1128.67 Q437.361 1121.43 435.504 1117.83 Q433.67 1114.21 429.979 1114.21 M429.979 1110.45 Q435.88 1110.45 438.983 1115.13 Q442.11 1119.78 442.11 1128.67 Q442.11 1137.53 438.983 1142.21 Q435.88 1146.87 429.979 1146.87 Q424.078 1146.87 420.951 1142.21 Q417.848 1137.53 417.848 1128.67 Q417.848 1119.78 420.951 1115.13 Q424.078 1110.45 429.979 1110.45 Z" fill="#000000" fill-rule="nonzero" fill-opacity="1" /><path clip-path="url(#clip130)" d="M458.708 1114.57 Q457.532 1112.54 455.158 1112.54 Q452.783 1112.54 451.608 1114.57 Q450.409 1116.59 450.409 1120.63 Q450.409 1124.7 451.608 1126.72 Q452.783 1128.74 455.158 1128.74 Q457.532 1128.74 458.708 1126.72 Q459.907 1124.7 459.907 1120.63 Q459.907 1116.59 458.708 1114.57 M455.158 1110.45 Q458.943 1110.45 460.941 1113.06 Q462.94 1115.67 462.94 1120.63 Q462.94 1125.61 460.941 1128.22 Q458.943 1130.83 455.158 1130.83 Q451.349 1130.83 449.351 1128.22 Q447.353 1125.61 447.353 1120.63 Q447.353 1115.67 449.351 1113.06 Q451.349 1110.45 455.158 1110.45 Z" fill="#000000" fill-rule="nonzero" fill-opacity="1" /><path clip-path="url(#clip130)" d="M206.722 974.188 L216.27 974.188 L216.27 941.231 L205.883 943.314 L205.883 937.99 L216.212 935.907 L222.057 935.907 L222.057 974.188 L231.606 974.188 L231.606 979.107 L206.722 979.107 L206.722 974.188 Z" fill="#000000" fill-rule="nonzero" fill-opacity="1" /><path clip-path="url(#clip130)" d="M255.911 939.755 Q251.397 939.755 249.112 944.211 Q246.855 948.638 246.855 957.55 Q246.855 966.433 249.112 970.889 Q251.397 975.316 255.911 975.316 Q260.454 975.316 262.711 970.889 Q264.997 966.433 264.997 957.55 Q264.997 948.638 262.711 944.211 Q260.454 939.755 255.911 939.755 M255.911 935.125 Q263.174 935.125 266.993 940.884 Q270.842 946.613 270.842 957.55 Q270.842 968.459 266.993 974.217 Q263.174 979.946 255.911 979.946 Q248.649 979.946 244.8 974.217 Q240.981 968.459 240.981 957.55 Q240.981 946.613 244.8 940.884 Q248.649 935.125 255.911 935.125 Z" fill="#000000" fill-rule="nonzero" fill-opacity="1" /><path clip-path="url(#clip130)" d="M272.323 909.744 L290.966 909.744 L290.966 913.74 L276.672 913.74 L276.672 922.345 Q277.707 921.992 278.741 921.828 Q279.775 921.64 280.81 921.64 Q286.687 921.64 290.12 924.86 Q293.552 928.081 293.552 933.583 Q293.552 939.248 290.026 942.399 Q286.499 945.526 280.081 945.526 Q277.871 945.526 275.567 945.149 Q273.287 944.773 270.842 944.021 L270.842 939.248 Q272.958 940.4 275.215 940.965 Q277.471 941.529 279.987 941.529 Q284.054 941.529 286.429 939.389 Q288.803 937.25 288.803 933.583 Q288.803 929.915 286.429 927.776 Q284.054 925.636 279.987 925.636 Q278.083 925.636 276.178 926.059 Q274.298 926.483 272.323 927.376 L272.323 909.744 Z" fill="#000000" fill-rule="nonzero" fill-opacity="1" /><path clip-path="url(#clip130)" d="M302.909 938.872 L307.87 938.872 L307.87 944.844 L302.909 944.844 L302.909 938.872 Z" fill="#000000" fill-rule="nonzero" fill-opacity="1" /><path clip-path="url(#clip130)" d="M328.37 912.871 Q324.703 912.871 322.845 916.491 Q321.011 920.088 321.011 927.329 Q321.011 934.546 322.845 938.167 Q324.703 941.764 328.37 941.764 Q332.061 941.764 333.895 938.167 Q335.752 934.546 335.752 927.329 Q335.752 920.088 333.895 916.491 Q332.061 912.871 328.37 912.871 M328.37 909.109 Q334.271 909.109 337.374 913.787 Q340.501 918.442 340.501 927.329 Q340.501 936.192 337.374 940.871 Q334.271 945.526 328.37 945.526 Q322.469 945.526 319.342 940.871 Q316.239 936.192 316.239 927.329 Q316.239 918.442 319.342 913.787 Q322.469 909.109 328.37 909.109 Z" fill="#000000" fill-rule="nonzero" fill-opacity="1" /><path clip-path="url(#clip130)" d="M377.458 918.983 L366.714 929.774 L377.458 940.518 L374.661 943.363 L363.87 932.572 L353.079 943.363 L350.305 940.518 L361.025 929.774 L350.305 918.983 L353.079 916.138 L363.87 926.929 L374.661 916.138 L377.458 918.983 Z" fill="#000000" fill-rule="nonzero" fill-opacity="1" /><path clip-path="url(#clip130)" d="M390.012 940.847 L397.771 940.847 L397.771 914.07 L389.331 915.762 L389.331 911.436 L397.724 909.744 L402.473 909.744 L402.473 940.847 L410.231 940.847 L410.231 944.844 L390.012 944.844 L390.012 940.847 Z" fill="#000000" fill-rule="nonzero" fill-opacity="1" /><path clip-path="url(#clip130)" d="M429.979 912.871 Q426.311 912.871 424.454 916.491 Q422.62 920.088 422.62 927.329 Q422.62 934.546 424.454 938.167 Q426.311 941.764 429.979 941.764 Q433.67 941.764 435.504 938.167 Q437.361 934.546 437.361 927.329 Q437.361 920.088 435.504 916.491 Q433.67 912.871 429.979 912.871 M429.979 909.109 Q435.88 909.109 438.983 913.787 Q442.11 918.442 442.11 927.329 Q442.11 936.192 438.983 940.871 Q435.88 945.526 429.979 945.526 Q424.078 945.526 420.951 940.871 Q417.848 936.192 417.848 927.329 Q417.848 918.442 420.951 913.787 Q424.078 909.109 429.979 909.109 Z" fill="#000000" fill-rule="nonzero" fill-opacity="1" /><path clip-path="url(#clip130)" d="M458.708 913.223 Q457.532 911.201 455.158 911.201 Q452.783 911.201 451.608 913.223 Q450.409 915.245 450.409 919.289 Q450.409 923.356 451.608 925.378 Q452.783 927.4 455.158 927.4 Q457.532 927.4 458.708 925.378 Q459.907 923.356 459.907 919.289 Q459.907 915.245 458.708 913.223 M455.158 909.109 Q458.943 909.109 460.941 911.719 Q462.94 914.328 462.94 919.289 Q462.94 924.273 460.941 926.882 Q458.943 929.492 455.158 929.492 Q451.349 929.492 449.351 926.882 Q447.353 924.273 447.353 919.289 Q447.353 914.328 449.351 911.719 Q451.349 909.109 455.158 909.109 Z" fill="#000000" fill-rule="nonzero" fill-opacity="1" /><path clip-path="url(#clip130)" d="M206.369 772.846 L215.918 772.846 L215.918 739.889 L205.53 741.972 L205.53 736.648 L215.86 734.565 L221.705 734.565 L221.705 772.846 L231.253 772.846 L231.253 777.765 L206.369 777.765 L206.369 772.846 Z" fill="#000000" fill-rule="nonzero" fill-opacity="1" /><path clip-path="url(#clip130)" d="M255.559 738.413 Q251.045 738.413 248.759 742.869 Q246.502 747.296 246.502 756.208 Q246.502 765.091 248.759 769.547 Q251.045 773.974 255.559 773.974 Q260.101 773.974 262.358 769.547 Q264.644 765.091 264.644 756.208 Q264.644 747.296 262.358 742.869 Q260.101 738.413 255.559 738.413 M255.559 733.783 Q262.821 733.783 266.641 739.541 Q270.489 745.271 270.489 756.208 Q270.489 767.117 266.641 772.875 Q262.821 778.604 255.559 778.604 Q248.296 778.604 244.448 772.875 Q240.628 767.117 240.628 756.208 Q240.628 745.271 244.448 739.541 Q248.296 733.783 255.559 733.783 Z" fill="#000000" fill-rule="nonzero" fill-opacity="1" /><path clip-path="url(#clip130)" d="M283.02 724.059 Q279.822 724.059 277.942 726.246 Q276.084 728.432 276.084 732.24 Q276.084 736.026 277.942 738.235 Q279.822 740.422 283.02 740.422 Q286.217 740.422 288.074 738.235 Q289.955 736.026 289.955 732.24 Q289.955 728.432 288.074 726.246 Q286.217 724.059 283.02 724.059 M292.447 709.177 L292.447 713.503 Q290.66 712.657 288.827 712.21 Q287.016 711.764 285.23 711.764 Q280.528 711.764 278.036 714.937 Q275.567 718.111 275.215 724.529 Q276.602 722.484 278.694 721.402 Q280.786 720.298 283.302 720.298 Q288.592 720.298 291.648 723.518 Q294.728 726.716 294.728 732.24 Q294.728 737.648 291.53 740.916 Q288.333 744.183 283.02 744.183 Q276.931 744.183 273.71 739.528 Q270.489 734.85 270.489 725.987 Q270.489 717.664 274.439 712.727 Q278.388 707.767 285.042 707.767 Q286.828 707.767 288.639 708.12 Q290.472 708.472 292.447 709.177 Z" fill="#000000" fill-rule="nonzero" fill-opacity="1" /><path clip-path="url(#clip130)" d="M302.909 737.53 L307.87 737.53 L307.87 743.502 L302.909 743.502 L302.909 737.53 Z" fill="#000000" fill-rule="nonzero" fill-opacity="1" /><path clip-path="url(#clip130)" d="M328.37 711.528 Q324.703 711.528 322.845 715.149 Q321.011 718.746 321.011 725.987 Q321.011 733.204 322.845 736.825 Q324.703 740.422 328.37 740.422 Q332.061 740.422 333.895 736.825 Q335.752 733.204 335.752 725.987 Q335.752 718.746 333.895 715.149 Q332.061 711.528 328.37 711.528 M328.37 707.767 Q334.271 707.767 337.374 712.445 Q340.501 717.1 340.501 725.987 Q340.501 734.85 337.374 739.528 Q334.271 744.183 328.37 744.183 Q322.469 744.183 319.342 739.528 Q316.239 734.85 316.239 725.987 Q316.239 717.1 319.342 712.445 Q322.469 707.767 328.37 707.767 Z" fill="#000000" fill-rule="nonzero" fill-opacity="1" /><path clip-path="url(#clip130)" d="M377.458 717.641 L366.714 728.432 L377.458 739.176 L374.661 742.021 L363.87 731.23 L353.079 742.021 L350.305 739.176 L361.025 728.432 L350.305 717.641 L353.079 714.796 L363.87 725.587 L374.661 714.796 L377.458 717.641 Z" fill="#000000" fill-rule="nonzero" fill-opacity="1" /><path clip-path="url(#clip130)" d="M390.012 739.505 L397.771 739.505 L397.771 712.727 L389.331 714.42 L389.331 710.094 L397.724 708.402 L402.473 708.402 L402.473 739.505 L410.231 739.505 L410.231 743.502 L390.012 743.502 L390.012 739.505 Z" fill="#000000" fill-rule="nonzero" fill-opacity="1" /><path clip-path="url(#clip130)" d="M429.979 711.528 Q426.311 711.528 424.454 715.149 Q422.62 718.746 422.62 725.987 Q422.62 733.204 424.454 736.825 Q426.311 740.422 429.979 740.422 Q433.67 740.422 435.504 736.825 Q437.361 733.204 437.361 725.987 Q437.361 718.746 435.504 715.149 Q433.67 711.528 429.979 711.528 M429.979 707.767 Q435.88 707.767 438.983 712.445 Q442.11 717.1 442.11 725.987 Q442.11 734.85 438.983 739.528 Q435.88 744.183 429.979 744.183 Q424.078 744.183 420.951 739.528 Q417.848 734.85 417.848 725.987 Q417.848 717.1 420.951 712.445 Q424.078 707.767 429.979 707.767 Z" fill="#000000" fill-rule="nonzero" fill-opacity="1" /><path clip-path="url(#clip130)" d="M458.708 711.881 Q457.532 709.859 455.158 709.859 Q452.783 709.859 451.608 711.881 Q450.409 713.903 450.409 717.947 Q450.409 722.014 451.608 724.036 Q452.783 726.057 455.158 726.057 Q457.532 726.057 458.708 724.036 Q459.907 722.014 459.907 717.947 Q459.907 713.903 458.708 711.881 M455.158 707.767 Q458.943 707.767 460.941 710.376 Q462.94 712.986 462.94 717.947 Q462.94 722.931 460.941 725.54 Q458.943 728.15 455.158 728.15 Q451.349 728.15 449.351 725.54 Q447.353 722.931 447.353 717.947 Q447.353 712.986 449.351 710.376 Q451.349 707.767 455.158 707.767 Z" fill="#000000" fill-rule="nonzero" fill-opacity="1" /><path clip-path="url(#clip130)" d="M206.957 571.504 L216.505 571.504 L216.505 538.547 L206.118 540.63 L206.118 535.306 L216.448 533.223 L222.292 533.223 L222.292 571.504 L231.841 571.504 L231.841 576.423 L206.957 576.423 L206.957 571.504 Z" fill="#000000" fill-rule="nonzero" fill-opacity="1" /><path clip-path="url(#clip130)" d="M256.146 537.071 Q251.633 537.071 249.347 541.527 Q247.09 545.954 247.09 554.866 Q247.09 563.749 249.347 568.205 Q251.633 572.632 256.146 572.632 Q260.689 572.632 262.946 568.205 Q265.232 563.749 265.232 554.866 Q265.232 545.954 262.946 541.527 Q260.689 537.071 256.146 537.071 M256.146 532.441 Q263.409 532.441 267.228 538.199 Q271.077 543.928 271.077 554.866 Q271.077 565.774 267.228 571.533 Q263.409 577.262 256.146 577.262 Q248.884 577.262 245.035 571.533 Q241.216 565.774 241.216 554.866 Q241.216 543.928 245.035 538.199 Q248.884 532.441 256.146 532.441 Z" fill="#000000" fill-rule="nonzero" fill-opacity="1" /><path clip-path="url(#clip130)" d="M271.077 507.06 L293.646 507.06 L293.646 509.081 L280.904 542.16 L275.943 542.16 L287.933 511.056 L271.077 511.056 L271.077 507.06 Z" fill="#000000" fill-rule="nonzero" fill-opacity="1" /><path clip-path="url(#clip130)" d="M302.909 536.188 L307.87 536.188 L307.87 542.16 L302.909 542.16 L302.909 536.188 Z" fill="#000000" fill-rule="nonzero" fill-opacity="1" /><path clip-path="url(#clip130)" d="M328.37 510.186 Q324.703 510.186 322.845 513.807 Q321.011 517.404 321.011 524.645 Q321.011 531.862 322.845 535.483 Q324.703 539.08 328.37 539.08 Q332.061 539.08 333.895 535.483 Q335.752 531.862 335.752 524.645 Q335.752 517.404 333.895 513.807 Q332.061 510.186 328.37 510.186 M328.37 506.425 Q334.271 506.425 337.374 511.103 Q340.501 515.758 340.501 524.645 Q340.501 533.508 337.374 538.186 Q334.271 542.841 328.37 542.841 Q322.469 542.841 319.342 538.186 Q316.239 533.508 316.239 524.645 Q316.239 515.758 319.342 511.103 Q322.469 506.425 328.37 506.425 Z" fill="#000000" fill-rule="nonzero" fill-opacity="1" /><path clip-path="url(#clip130)" d="M377.458 516.299 L366.714 527.09 L377.458 537.834 L374.661 540.678 L363.87 529.887 L353.079 540.678 L350.305 537.834 L361.025 527.09 L350.305 516.299 L353.079 513.454 L363.87 524.245 L374.661 513.454 L377.458 516.299 Z" fill="#000000" fill-rule="nonzero" fill-opacity="1" /><path clip-path="url(#clip130)" d="M390.012 538.163 L397.771 538.163 L397.771 511.385 L389.331 513.078 L389.331 508.752 L397.724 507.06 L402.473 507.06 L402.473 538.163 L410.231 538.163 L410.231 542.16 L390.012 542.16 L390.012 538.163 Z" fill="#000000" fill-rule="nonzero" fill-opacity="1" /><path clip-path="url(#clip130)" d="M429.979 510.186 Q426.311 510.186 424.454 513.807 Q422.62 517.404 422.62 524.645 Q422.62 531.862 424.454 535.483 Q426.311 539.08 429.979 539.08 Q433.67 539.08 435.504 535.483 Q437.361 531.862 437.361 524.645 Q437.361 517.404 435.504 513.807 Q433.67 510.186 429.979 510.186 M429.979 506.425 Q435.88 506.425 438.983 511.103 Q442.11 515.758 442.11 524.645 Q442.11 533.508 438.983 538.186 Q435.88 542.841 429.979 542.841 Q424.078 542.841 420.951 538.186 Q417.848 533.508 417.848 524.645 Q417.848 515.758 420.951 511.103 Q424.078 506.425 429.979 506.425 Z" fill="#000000" fill-rule="nonzero" fill-opacity="1" /><path clip-path="url(#clip130)" d="M458.708 510.539 Q457.532 508.517 455.158 508.517 Q452.783 508.517 451.608 510.539 Q450.409 512.561 450.409 516.604 Q450.409 520.672 451.608 522.693 Q452.783 524.715 455.158 524.715 Q457.532 524.715 458.708 522.693 Q459.907 520.672 459.907 516.604 Q459.907 512.561 458.708 510.539 M455.158 506.425 Q458.943 506.425 460.941 509.034 Q462.94 511.644 462.94 516.604 Q462.94 521.589 460.941 524.198 Q458.943 526.808 455.158 526.808 Q451.349 526.808 449.351 524.198 Q447.353 521.589 447.353 516.604 Q447.353 511.644 449.351 509.034 Q451.349 506.425 455.158 506.425 Z" fill="#000000" fill-rule="nonzero" fill-opacity="1" /><path clip-path="url(#clip130)" d="M206.275 370.161 L215.824 370.161 L215.824 337.204 L205.436 339.288 L205.436 333.964 L215.766 331.88 L221.611 331.88 L221.611 370.161 L231.159 370.161 L231.159 375.08 L206.275 375.08 L206.275 370.161 Z" fill="#000000" fill-rule="nonzero" fill-opacity="1" /><path clip-path="url(#clip130)" d="M255.465 335.729 Q250.951 335.729 248.665 340.185 Q246.408 344.612 246.408 353.524 Q246.408 362.407 248.665 366.863 Q250.951 371.29 255.465 371.29 Q260.007 371.29 262.264 366.863 Q264.55 362.407 264.55 353.524 Q264.55 344.612 262.264 340.185 Q260.007 335.729 255.465 335.729 M255.465 331.099 Q262.727 331.099 266.547 336.857 Q270.395 342.586 270.395 353.524 Q270.395 364.432 266.547 370.19 Q262.727 375.92 255.465 375.92 Q248.202 375.92 244.354 370.19 Q240.534 364.432 240.534 353.524 Q240.534 342.586 244.354 336.857 Q248.202 331.099 255.465 331.099 Z" fill="#000000" fill-rule="nonzero" fill-opacity="1" /><path clip-path="url(#clip130)" d="M282.432 324.149 Q279.047 324.149 277.095 325.959 Q275.168 327.77 275.168 330.943 Q275.168 334.117 277.095 335.927 Q279.047 337.738 282.432 337.738 Q285.817 337.738 287.769 335.927 Q289.72 334.094 289.72 330.943 Q289.72 327.77 287.769 325.959 Q285.841 324.149 282.432 324.149 M277.683 322.127 Q274.627 321.375 272.911 319.283 Q271.218 317.19 271.218 314.181 Q271.218 309.973 274.204 307.528 Q277.213 305.083 282.432 305.083 Q287.675 305.083 290.66 307.528 Q293.646 309.973 293.646 314.181 Q293.646 317.19 291.93 319.283 Q290.237 321.375 287.205 322.127 Q290.637 322.927 292.541 325.254 Q294.469 327.581 294.469 330.943 Q294.469 336.045 291.342 338.772 Q288.239 341.499 282.432 341.499 Q276.625 341.499 273.498 338.772 Q270.395 336.045 270.395 330.943 Q270.395 327.581 272.323 325.254 Q274.251 322.927 277.683 322.127 M275.943 314.628 Q275.943 317.355 277.636 318.883 Q279.352 320.411 282.432 320.411 Q285.488 320.411 287.205 318.883 Q288.944 317.355 288.944 314.628 Q288.944 311.9 287.205 310.372 Q285.488 308.844 282.432 308.844 Q279.352 308.844 277.636 310.372 Q275.943 311.9 275.943 314.628 Z" fill="#000000" fill-rule="nonzero" fill-opacity="1" /><path clip-path="url(#clip130)" d="M302.909 334.846 L307.87 334.846 L307.87 340.817 L302.909 340.817 L302.909 334.846 Z" fill="#000000" fill-rule="nonzero" fill-opacity="1" /><path clip-path="url(#clip130)" d="M328.37 308.844 Q324.703 308.844 322.845 312.465 Q321.011 316.062 321.011 323.303 Q321.011 330.52 322.845 334.141 Q324.703 337.738 328.37 337.738 Q332.061 337.738 333.895 334.141 Q335.752 330.52 335.752 323.303 Q335.752 316.062 333.895 312.465 Q332.061 308.844 328.37 308.844 M328.37 305.083 Q334.271 305.083 337.374 309.761 Q340.501 314.416 340.501 323.303 Q340.501 332.166 337.374 336.844 Q334.271 341.499 328.37 341.499 Q322.469 341.499 319.342 336.844 Q316.239 332.166 316.239 323.303 Q316.239 314.416 319.342 309.761 Q322.469 305.083 328.37 305.083 Z" fill="#000000" fill-rule="nonzero" fill-opacity="1" /><path clip-path="url(#clip130)" d="M377.458 314.957 L366.714 325.748 L377.458 336.492 L374.661 339.336 L363.87 328.545 L353.079 339.336 L350.305 336.492 L361.025 325.748 L350.305 314.957 L353.079 312.112 L363.87 322.903 L374.661 312.112 L377.458 314.957 Z" fill="#000000" fill-rule="nonzero" fill-opacity="1" /><path clip-path="url(#clip130)" d="M390.012 336.821 L397.771 336.821 L397.771 310.043 L389.331 311.736 L389.331 307.41 L397.724 305.717 L402.473 305.717 L402.473 336.821 L410.231 336.821 L410.231 340.817 L390.012 340.817 L390.012 336.821 Z" fill="#000000" fill-rule="nonzero" fill-opacity="1" /><path clip-path="url(#clip130)" d="M429.979 308.844 Q426.311 308.844 424.454 312.465 Q422.62 316.062 422.62 323.303 Q422.62 330.52 424.454 334.141 Q426.311 337.738 429.979 337.738 Q433.67 337.738 435.504 334.141 Q437.361 330.52 437.361 323.303 Q437.361 316.062 435.504 312.465 Q433.67 308.844 429.979 308.844 M429.979 305.083 Q435.88 305.083 438.983 309.761 Q442.11 314.416 442.11 323.303 Q442.11 332.166 438.983 336.844 Q435.88 341.499 429.979 341.499 Q424.078 341.499 420.951 336.844 Q417.848 332.166 417.848 323.303 Q417.848 314.416 420.951 309.761 Q424.078 305.083 429.979 305.083 Z" fill="#000000" fill-rule="nonzero" fill-opacity="1" /><path clip-path="url(#clip130)" d="M458.708 309.197 Q457.532 307.175 455.158 307.175 Q452.783 307.175 451.608 309.197 Q450.409 311.219 450.409 315.262 Q450.409 319.33 451.608 321.351 Q452.783 323.373 455.158 323.373 Q457.532 323.373 458.708 321.351 Q459.907 319.33 459.907 315.262 Q459.907 311.219 458.708 309.197 M455.158 305.083 Q458.943 305.083 460.941 307.692 Q462.94 310.302 462.94 315.262 Q462.94 320.246 460.941 322.856 Q458.943 325.466 455.158 325.466 Q451.349 325.466 449.351 322.856 Q447.353 320.246 447.353 315.262 Q447.353 310.302 449.351 307.692 Q451.349 305.083 455.158 305.083 Z" fill="#000000" fill-rule="nonzero" fill-opacity="1" /><path clip-path="url(#clip130)" d="M157.471 1239.71 L154.705 1239.71 L154.705 1237.56 Q154.705 1232.68 153.914 1231.58 Q153.08 1230.44 150.445 1230.44 L103.058 1230.44 Q100.467 1230.44 99.6766 1231.58 Q98.8421 1232.73 98.8421 1237.56 L98.8421 1239.71 L96.0314 1239.71 L96.0314 1207.96 Q96.0314 1198.87 101.038 1192.81 Q106.045 1186.74 112.764 1186.74 Q119.439 1186.74 124.27 1192.94 Q129.057 1199.09 129.057 1207.25 L129.057 1222.45 L150.445 1222.45 Q153.036 1222.45 153.87 1221.35 Q154.705 1220.21 154.705 1215.33 L154.705 1213.18 L157.471 1213.18 Q157.208 1216.34 157.208 1226.49 Q157.208 1236.55 157.471 1239.71 M126.729 1222.71 L126.729 1210.33 Q126.729 1206.29 125.588 1203.35 Q124.446 1200.4 123.084 1199.09 Q121.679 1197.72 119.439 1196.98 Q117.156 1196.19 115.926 1196.1 Q114.652 1196.01 112.764 1196.01 Q110.788 1196.01 109.558 1196.1 Q108.284 1196.19 106.045 1196.98 Q103.761 1197.72 102.399 1199.09 Q100.994 1200.4 99.9401 1203.35 Q98.8421 1206.24 98.8421 1210.33 L98.8421 1218.32 Q98.8421 1221.4 99.457 1222.05 Q100.072 1222.71 102.443 1222.71 L126.729 1222.71 Z" fill="#000000" fill-rule="nonzero" fill-opacity="1" /><path clip-path="url(#clip130)" d="M152.641 1166.78 Q146.756 1172.71 138.236 1172.71 Q129.672 1172.71 123.436 1166.91 Q117.156 1161.07 117.156 1152.73 Q117.156 1144.56 123.392 1138.72 Q129.584 1132.83 138.236 1132.83 Q146.712 1132.83 152.597 1138.76 Q158.482 1144.65 158.482 1152.81 Q158.482 1160.81 152.641 1166.78 M137.489 1165.24 Q146.229 1165.24 150.181 1162.96 Q156.198 1159.45 156.198 1152.73 Q156.198 1149.39 154.397 1146.62 Q152.597 1143.81 149.566 1142.27 Q145.614 1140.3 137.489 1140.3 Q128.838 1140.3 125.017 1142.67 Q119.176 1146.18 119.176 1152.81 Q119.176 1155.71 120.713 1158.57 Q122.206 1161.38 125.192 1163.09 Q129.145 1165.24 137.489 1165.24 Z" fill="#000000" fill-rule="nonzero" fill-opacity="1" /><path clip-path="url(#clip130)" d="M121.503 1130.11 L118.693 1130.11 Q118.956 1125.23 118.956 1121.77 Q118.956 1120.05 118.693 1111.93 L121.503 1111.93 Q121.503 1117.24 123.919 1117.24 Q124.446 1117.24 125.544 1116.8 L149.566 1108.24 L127.783 1100.51 Q123.392 1102.13 122.865 1102.57 Q121.503 1103.67 121.503 1108.24 L118.693 1108.24 Q118.956 1104.2 118.956 1100.25 Q118.956 1098.71 118.693 1090.89 L121.503 1090.89 Q121.503 1096.21 123.919 1096.21 Q124.27 1096.21 125.632 1095.77 L150.708 1086.85 L127.696 1078.68 Q126.51 1078.24 125.807 1078.2 Q123.831 1078.2 122.733 1079.6 Q121.591 1081.01 121.503 1083.43 L118.693 1083.43 Q118.956 1078.29 118.956 1075.08 Q118.956 1071.48 118.693 1068.49 L121.503 1068.49 Q121.679 1074.07 127.256 1076.05 L156.769 1086.59 Q158.394 1087.6 158.482 1088.39 Q158.482 1089.57 156.769 1090.19 L131.209 1099.37 L156.681 1108.46 Q157.779 1108.81 158.13 1109.12 Q158.482 1109.42 158.482 1110.26 Q158.482 1111.05 157.998 1111.4 Q157.559 1111.75 156.461 1112.15 L124.621 1123.48 Q122.557 1124.27 122.03 1125.45 Q121.503 1126.6 121.503 1130.11 Z" fill="#000000" fill-rule="nonzero" fill-opacity="1" /><path clip-path="url(#clip130)" d="M137.665 1062.35 Q129.189 1062.35 123.172 1056.9 Q117.156 1051.46 117.156 1043.64 Q117.156 1035.73 122.294 1031.65 Q127.432 1027.52 134.81 1027.52 Q136.172 1027.52 136.435 1027.87 Q136.699 1028.23 136.699 1029.76 L136.699 1054.88 Q145.877 1054.88 150.181 1052.16 Q156.198 1048.38 156.198 1042.01 Q156.198 1041.14 156.022 1040.08 Q155.847 1039.03 155.1 1036.88 Q154.309 1034.72 152.245 1032.84 Q150.181 1030.95 146.931 1029.85 Q145.658 1029.59 145.702 1028.71 Q145.702 1027.52 146.756 1027.52 Q147.546 1027.52 149.347 1028.4 Q151.103 1029.24 153.211 1030.86 Q155.32 1032.48 156.901 1035.65 Q158.482 1038.77 158.482 1042.54 Q158.482 1050.45 152.509 1056.42 Q146.492 1062.35 137.665 1062.35 M134.81 1054.79 L134.81 1033.45 Q132.922 1033.45 130.814 1033.8 Q128.706 1034.11 125.807 1035.08 Q122.865 1036 121.02 1038.19 Q119.176 1040.39 119.176 1043.64 Q119.176 1045.09 119.791 1046.67 Q120.405 1048.21 121.899 1050.1 Q123.392 1051.98 126.773 1053.3 Q130.155 1054.62 134.81 1054.79 Z" fill="#000000" fill-rule="nonzero" fill-opacity="1" /><path clip-path="url(#clip130)" d="M157.471 1024.61 L154.705 1024.61 Q154.705 1019.82 154.134 1018.73 Q153.519 1017.58 150.62 1017.58 L126.51 1017.58 Q123.172 1017.58 122.338 1018.77 Q121.503 1019.91 121.503 1024.61 L118.693 1024.61 L117.726 1012.1 L127.608 1012.1 Q123.743 1010.82 120.757 1008.14 Q117.726 1005.42 117.726 1001.03 Q117.726 998.129 119.351 996.285 Q120.976 994.397 123.216 994.397 Q125.192 994.397 126.202 995.626 Q127.169 996.812 127.169 998.261 Q127.169 999.886 126.159 1001.03 Q125.105 1002.13 123.304 1002.13 Q122.206 1002.13 121.372 1001.64 Q120.493 1001.12 120.186 1000.72 Q119.878 1000.33 119.791 1000.06 Q119.703 1000.24 119.703 1001.03 Q119.703 1005.99 124.665 1008.85 Q129.584 1011.66 136.611 1011.66 L150.445 1011.66 Q153.036 1011.66 153.87 1010.6 Q154.705 1009.5 154.705 1004.8 L154.705 1002.92 L157.471 1002.92 Q157.208 1006.52 157.208 1014.33 Q157.208 1015.43 157.252 1017.15 Q157.296 1018.86 157.384 1021.1 Q157.471 1023.34 157.471 1024.61 Z" fill="#000000" fill-rule="nonzero" fill-opacity="1" /><path clip-path="url(#clip130)" d="M157.296 950.204 L139.29 950.204 Q138.28 950.204 137.928 950.16 Q137.577 950.116 137.314 949.853 Q137.05 949.589 137.05 949.062 Q137.05 948.052 137.972 947.964 Q146.887 947.701 151.806 942.387 Q156.681 937.161 156.681 928.202 Q156.681 922.8 152.816 919.462 Q148.908 916.124 143.813 916.124 Q138.938 916.124 135.513 918.935 Q133.976 920.121 133.01 921.614 Q132 923.063 131.692 923.985 Q131.385 924.864 130.946 926.577 Q128.267 937.732 127.959 938.434 Q126.159 943.748 121.635 946.998 Q117.068 950.204 111.49 950.204 Q104.288 950.204 99.1935 945.154 Q94.0552 940.059 94.0552 932.681 Q94.0552 928.992 95.2409 925.918 Q96.3828 922.8 97.4368 921.526 Q98.4908 920.253 100.379 918.276 L95.2409 915.158 Q94.0552 914.455 94.0552 913.797 Q94.0552 913.094 94.4943 912.962 Q94.8896 912.787 96.2071 912.787 L114.301 912.787 Q115.311 912.787 115.662 912.831 Q116.014 912.874 116.233 913.182 Q116.453 913.445 116.453 913.972 Q116.453 914.851 115.399 915.07 Q96.6024 917.574 96.6024 932.593 Q96.6024 937.732 100.072 941.113 Q103.497 944.451 108.372 944.451 Q112.325 944.451 115.575 941.991 Q118.78 939.532 119.791 935.36 L122.557 923.854 Q123.919 918.101 129.013 914.236 Q134.108 910.371 140.739 910.371 Q148.381 910.371 153.914 915.378 Q159.448 920.34 159.448 928.114 Q159.448 933.691 157.603 937.995 Q155.759 942.299 153.168 944.626 Q156.154 946.427 157.823 947.613 L158.262 947.876 Q159.448 948.579 159.448 949.238 Q159.448 949.94 159.009 950.072 Q158.569 950.204 157.296 950.204 Z" fill="#000000" fill-rule="nonzero" fill-opacity="1" /><path clip-path="url(#clip130)" d="M172.14 904.033 Q172.14 899.246 171.525 898.149 Q170.954 897.007 168.099 897.007 L125.983 897.007 Q122.997 897.007 122.25 898.149 Q121.503 899.246 121.503 904.033 L118.693 904.033 L117.726 891.078 L123.655 891.078 Q117.726 885.676 117.726 878.474 Q117.726 870.832 123.655 865.255 Q129.584 859.677 138.06 859.677 Q146.624 859.677 152.553 865.606 Q158.482 871.535 158.482 879.747 Q158.482 884.227 156.198 887.257 Q153.87 890.243 152.157 890.814 L152.992 890.814 L168.099 890.814 Q170.998 890.814 171.569 889.673 Q172.14 888.531 172.14 883.788 L174.907 883.788 Q174.643 893.23 174.643 893.933 Q174.643 894.811 174.907 904.033 L172.14 904.033 M147.239 890.814 Q148.6 890.814 149.083 890.639 Q149.566 890.419 151.016 889.541 Q156.461 885.984 156.461 880.186 Q156.461 880.143 156.461 880.099 Q156.461 874.96 151.235 871.052 Q145.965 867.143 138.06 867.143 Q130.506 867.143 125.236 870.7 Q119.966 874.258 119.966 879.176 Q119.966 882.69 121.855 885.764 Q123.743 888.838 127.169 890.814 L147.239 890.814 Z" fill="#000000" fill-rule="nonzero" fill-opacity="1" /><path clip-path="url(#clip130)" d="M137.665 847.423 Q129.189 847.423 123.172 841.977 Q117.156 836.531 117.156 828.714 Q117.156 820.809 122.294 816.725 Q127.432 812.597 134.81 812.597 Q136.172 812.597 136.435 812.948 Q136.699 813.299 136.699 814.836 L136.699 839.957 Q145.877 839.957 150.181 837.234 Q156.198 833.457 156.198 827.089 Q156.198 826.211 156.022 825.157 Q155.847 824.103 155.1 821.951 Q154.309 819.799 152.245 817.911 Q150.181 816.022 146.931 814.924 Q145.658 814.661 145.702 813.782 Q145.702 812.597 146.756 812.597 Q147.546 812.597 149.347 813.475 Q151.103 814.309 153.211 815.934 Q155.32 817.559 156.901 820.721 Q158.482 823.839 158.482 827.616 Q158.482 835.521 152.509 841.494 Q146.492 847.423 137.665 847.423 M134.81 839.869 L134.81 818.525 Q132.922 818.525 130.814 818.877 Q128.706 819.184 125.807 820.15 Q122.865 821.073 121.02 823.269 Q119.176 825.464 119.176 828.714 Q119.176 830.164 119.791 831.745 Q120.405 833.282 121.899 835.17 Q123.392 837.058 126.773 838.376 Q130.155 839.694 134.81 839.869 Z" fill="#000000" fill-rule="nonzero" fill-opacity="1" /><path clip-path="url(#clip130)" d="M152.553 802.177 Q146.58 807.886 138.06 807.886 Q129.496 807.886 123.348 802.264 Q117.156 796.643 117.156 788.387 Q117.156 782.897 119.791 778.769 Q122.382 774.641 126.817 774.641 Q128.794 774.641 129.935 775.826 Q131.033 776.968 131.033 778.769 Q131.033 780.657 129.892 781.799 Q128.706 782.897 126.905 782.897 Q126.115 782.897 125.324 782.633 Q124.534 782.37 123.699 781.404 Q122.865 780.394 122.733 778.681 Q119.439 781.887 119.439 788.123 Q119.439 788.211 119.439 788.299 Q119.439 792.866 123.743 796.643 Q128.047 800.42 137.884 800.42 Q143.023 800.42 146.8 799.19 Q150.533 797.917 152.465 795.853 Q154.397 793.788 155.32 791.768 Q156.198 789.748 156.198 787.772 Q156.198 778.944 146.756 775.958 Q145.877 775.695 145.877 774.816 Q145.877 773.63 146.756 773.63 Q147.195 773.63 148.337 773.982 Q149.479 774.333 151.279 775.431 Q153.08 776.529 154.661 778.11 Q156.198 779.647 157.34 782.414 Q158.482 785.137 158.482 788.562 Q158.482 796.467 152.553 802.177 Z" fill="#000000" fill-rule="nonzero" fill-opacity="1" /><path clip-path="url(#clip130)" d="M121.503 770.509 L119.527 770.509 Q119.351 766.38 116.453 763.658 Q113.51 760.891 109.909 759.969 Q106.308 759.002 102.136 758.915 L102.136 756.675 L118.693 756.675 L118.693 743.807 L121.503 743.807 L121.503 756.675 L146.492 756.675 Q156.198 756.675 156.198 750.614 Q156.198 748.023 153.563 746.31 Q150.884 744.598 146.141 744.598 L141.178 744.598 L141.178 742.358 L146.317 742.358 Q151.191 742.358 154.836 744.598 Q158.482 746.837 158.482 751.273 Q158.482 752.898 158.042 754.523 Q157.647 756.104 156.593 758.212 Q155.495 760.276 152.86 761.594 Q150.181 762.867 146.317 762.867 L121.503 762.867 L121.503 770.509 Z" fill="#000000" fill-rule="nonzero" fill-opacity="1" /><path clip-path="url(#clip130)" d="M157.471 737.054 L154.705 737.054 Q154.705 732.267 154.134 731.169 Q153.519 730.027 150.62 730.027 L126.51 730.027 Q123.172 730.027 122.338 731.213 Q121.503 732.354 121.503 737.054 L118.693 737.054 L117.726 724.537 L127.608 724.537 Q123.743 723.264 120.757 720.585 Q117.726 717.862 117.726 713.47 Q117.726 710.572 119.351 708.727 Q120.976 706.839 123.216 706.839 Q125.192 706.839 126.202 708.068 Q127.169 709.254 127.169 710.703 Q127.169 712.328 126.159 713.47 Q125.105 714.568 123.304 714.568 Q122.206 714.568 121.372 714.085 Q120.493 713.558 120.186 713.163 Q119.878 712.767 119.791 712.504 Q119.703 712.68 119.703 713.47 Q119.703 718.433 124.665 721.287 Q129.584 724.098 136.611 724.098 L150.445 724.098 Q153.036 724.098 153.87 723.044 Q154.705 721.946 154.705 717.247 L154.705 715.358 L157.471 715.358 Q157.208 718.96 157.208 726.777 Q157.208 727.875 157.252 729.588 Q157.296 731.3 157.384 733.54 Q157.471 735.78 157.471 737.054 Z" fill="#000000" fill-rule="nonzero" fill-opacity="1" /><path clip-path="url(#clip130)" d="M121.503 698.127 L118.693 698.127 L117.726 684.908 L147.59 684.908 Q149.742 684.908 151.016 684.733 Q152.245 684.557 153.695 683.854 Q155.144 683.108 155.803 681.439 Q156.461 679.726 156.461 677.003 Q156.461 672.128 152.465 669.142 Q148.468 666.112 142.54 666.112 L126.51 666.112 Q123.172 666.112 122.338 667.298 Q121.503 668.483 121.503 673.139 L118.693 673.139 L117.726 659.92 L149.654 659.92 Q152.992 659.92 153.87 658.778 Q154.705 657.592 154.705 652.893 L157.471 652.893 L158.482 665.848 L150.357 665.848 Q158.438 669.625 158.482 677.442 Q158.482 681.395 157.471 684.118 Q156.461 686.797 155.232 688.158 Q153.958 689.52 151.543 690.266 Q149.127 690.969 147.634 691.057 Q146.141 691.145 143.242 691.145 L129.76 691.145 Q123.655 691.145 122.601 692.023 Q121.503 692.901 121.503 698.127 Z" fill="#000000" fill-rule="nonzero" fill-opacity="1" /><path clip-path="url(#clip130)" d="M157.471 649.797 L154.705 649.797 Q154.705 645.01 154.134 643.912 Q153.519 642.814 150.62 642.814 L126.51 642.814 Q123.172 642.814 122.338 644 Q121.503 645.142 121.503 649.797 L118.693 649.797 L117.726 637.149 L127.169 637.149 Q117.726 632.933 117.726 623.842 Q117.726 613.302 126.51 611.853 Q123.084 610.315 120.405 607.109 Q117.726 603.86 117.726 598.809 Q117.726 592.046 121.064 589.367 Q123.304 587.391 125.807 586.995 Q128.311 586.6 134.81 586.6 L151.982 586.6 Q153.87 586.512 154.309 585.063 Q154.705 583.614 154.705 579.573 L157.471 579.573 Q157.208 588.752 157.208 589.63 Q157.208 590.333 157.471 599.819 L154.705 599.819 Q154.705 595.032 154.134 593.934 Q153.519 592.792 150.62 592.792 L129.672 592.792 Q125.105 592.792 122.426 594.198 Q119.703 595.603 119.703 599.468 Q119.703 604.123 123.611 607.856 Q127.52 611.589 134.108 611.589 L150.62 611.589 Q153.519 611.589 154.134 610.491 Q154.705 609.349 154.705 604.562 L157.471 604.562 Q157.208 613.741 157.208 614.663 Q157.208 615.366 157.471 624.808 L154.705 624.808 Q154.705 620.021 154.134 618.923 Q153.519 617.781 150.62 617.781 L129.672 617.781 Q125.105 617.781 122.426 619.187 Q119.703 620.592 119.703 624.457 Q119.703 629.112 123.611 632.845 Q127.52 636.578 134.108 636.578 L150.62 636.578 Q153.519 636.578 154.134 635.48 Q154.705 634.338 154.705 629.595 L157.471 629.595 Q157.208 638.774 157.208 639.652 Q157.208 640.355 157.471 649.797 Z" fill="#000000" fill-rule="nonzero" fill-opacity="1" /><path clip-path="url(#clip130)" d="M134.986 551.871 Q119.791 551.871 107.538 546.206 Q102.399 543.79 98.0955 540.409 Q93.7917 537.027 91.9032 534.787 Q90.0148 532.548 90.0148 531.933 Q90.0148 531.055 90.8931 531.011 Q91.3323 531.011 92.4302 532.196 Q107.186 546.689 134.986 546.645 Q162.873 546.645 177.058 532.548 Q178.596 531.011 179.079 531.011 Q179.957 531.011 179.957 531.933 Q179.957 532.548 178.156 534.7 Q176.356 536.852 172.228 540.189 Q168.099 543.527 163.049 545.942 Q150.796 551.871 134.986 551.871 Z" fill="#000000" fill-rule="nonzero" fill-opacity="1" /><path clip-path="url(#clip130)" d="M97.1294 453.217 Q98.7543 453.305 98.8421 454.403 Q98.93 456.072 99.1496 457.082 Q99.3252 458.092 99.984 459.673 Q100.643 461.254 102.224 462.791 Q103.805 464.328 106.308 465.909 L157.823 498.276 Q158.789 498.847 159.096 499.33 Q159.448 499.769 159.448 500.779 Q159.448 501.702 159.052 502.053 Q158.701 502.404 157.384 502.58 L101.872 509.694 Q100.862 509.826 100.423 509.958 Q99.984 510.09 99.5448 510.617 Q99.1056 511.1 98.9739 512.154 Q98.8421 513.208 98.8421 515.096 Q98.8421 515.975 98.7982 516.37 Q98.7543 516.721 98.5347 517.029 Q98.2712 517.336 97.7442 517.336 Q96.9537 517.336 96.5584 517.029 Q96.1193 516.677 96.0754 516.414 Q96.0314 516.106 96.0314 515.623 Q96.0314 514.877 96.1193 513.252 Q96.2071 511.627 96.2071 510.792 Q96.2071 510.002 96.251 508.333 Q96.2949 506.664 96.2949 505.83 Q96.2949 503.985 96.1632 500.252 Q96.0314 496.475 96.0314 494.675 Q96.0314 493.445 97.0415 493.445 Q98.2712 493.445 98.5786 493.972 Q98.8421 494.499 98.8421 495.685 Q98.8421 498.671 99.5887 500.296 Q100.335 501.877 101.521 501.877 L149.127 495.773 L105.21 468.149 Q103.146 466.787 101.785 466.787 Q99.1496 466.787 98.8421 470.96 Q98.8421 472.365 97.7442 472.365 Q96.9537 472.365 96.5584 472.014 Q96.1193 471.662 96.0754 471.399 Q96.0314 471.091 96.0314 470.652 Q96.0314 469.203 96.1632 466.26 Q96.2949 463.274 96.2949 461.781 Q96.2949 460.551 96.1632 458.048 Q96.0314 455.545 96.0314 454.403 Q96.0314 453.217 97.1294 453.217 Z" fill="#000000" fill-rule="nonzero" fill-opacity="1" /><path clip-path="url(#clip130)" d="M109.087 444.236 Q107.949 444.236 107.611 444.144 Q107.273 444.021 106.75 443.529 L93.2852 431.447 Q85.8457 424.838 79.3591 424.838 Q75.1475 424.838 72.1348 427.051 Q69.1221 429.234 69.1221 433.261 Q69.1221 436.028 70.8129 438.364 Q72.5037 440.701 75.5164 441.777 Q75.4549 441.592 75.4549 440.947 Q75.4549 439.379 76.4386 438.518 Q77.4224 437.627 78.7443 437.627 Q80.4351 437.627 81.2651 438.733 Q82.0644 439.809 82.0644 440.885 Q82.0644 441.316 81.9722 441.9 Q81.88 442.453 81.0192 443.345 Q80.1277 444.236 78.5598 444.236 Q74.1637 444.236 70.6592 440.916 Q67.1546 437.565 67.1546 432.462 Q67.1546 426.682 70.5977 422.901 Q74.01 419.089 79.3591 419.089 Q81.2344 419.089 82.9559 419.673 Q84.6467 420.227 85.9686 420.995 Q87.2906 421.733 89.4117 423.762 Q91.5329 425.791 93.0393 427.42 Q94.5457 429.05 97.7428 432.708 L104.229 439.379 L104.229 428.035 Q104.229 422.501 103.738 422.071 Q102.846 421.456 98.1425 420.688 L98.1425 419.089 L109.087 420.872 L109.087 444.236 Z" fill="#000000" fill-rule="nonzero" fill-opacity="1" /><path clip-path="url(#clip130)" d="M179.079 409.731 Q178.639 409.731 177.542 408.589 Q162.785 394.097 134.986 394.097 Q107.099 394.097 93.0012 408.019 Q91.3762 409.731 90.8931 409.731 Q90.0148 409.731 90.0148 408.853 Q90.0148 408.238 91.8154 406.086 Q93.616 403.89 97.7442 400.597 Q101.872 397.259 106.923 394.8 Q119.176 388.871 134.986 388.871 Q150.181 388.871 162.434 394.536 Q167.572 396.951 171.876 400.333 Q176.18 403.715 178.069 405.954 Q179.957 408.194 179.957 408.853 Q179.957 409.731 179.079 409.731 Z" fill="#000000" fill-rule="nonzero" fill-opacity="1" /><polyline clip-path="url(#clip132)" style="stroke:#009af9; stroke-linecap:round; stroke-linejoin:round; stroke-width:4; stroke-opacity:1; fill:none" points="549.623,529.869 572.149,633.068 594.675,802.715 617.202,1052.22 639.728,867.556 662.254,801.404 684.78,823.955 707.306,847.69 729.832,876.242 752.358,923.895 774.884,921.118 797.41,915.479 819.936,888.733 842.462,852.338 864.989,763.742 887.515,578.526 910.041,310.457 932.567,526.662 955.093,636.804 977.619,720.988 1000.15,741.528 1022.67,778.983 1045.2,793.091 1067.72,788.511 1090.25,769.42 1112.78,746.032 1135.3,718.251 1157.83,678.564 1180.35,652.804 1202.88,632.595 1225.41,618.338 1247.93,474.673 1270.46,380.434 1292.98,540.831 1315.51,893.671 1338.04,777.313 1360.56,869.257 1383.09,940.376 1405.61,1007.11 1428.14,1071.2 1450.67,1135.07 1473.19,1273.79 1495.72,1237.66 1518.25,1152.91 1540.77,1127.37 1563.3,1145.57 1585.82,885.343 1608.35,488.989 1630.88,832.592 1653.4,1130.04 1675.93,848.873 1698.45,908.735 1720.98,1175.91 1743.51,1162.85 1766.03,1174.41 1788.56,1093.11 1811.08,1304.45 1833.61,1273.26 1856.14,1208.4 1878.66,1105.54 1901.19,989.633 1923.71,857.827 1946.24,726.799 1968.77,594.889 1991.29,831.962 2013.82,832.419 2036.35,860.132 2058.87,930.955 2081.4,1026 2103.92,1078.02 2126.45,1045.2 2148.98,1093.29 2171.5,1056.44 2194.03,1086.13 2216.55,1126.77 2239.08,1060.03 "/>
<circle clip-path="url(#clip132)" cx="910.041" cy="310.457" r="14.4" fill="#e26f46" fill-rule="evenodd" fill-opacity="1" stroke="#000000" stroke-opacity="1" stroke-width="3.2"/>
<circle clip-path="url(#clip132)" cx="1270.46" cy="380.434" r="14.4" fill="#e26f46" fill-rule="evenodd" fill-opacity="1" stroke="#000000" stroke-opacity="1" stroke-width="3.2"/>
<circle clip-path="url(#clip132)" cx="1608.35" cy="488.989" r="14.4" fill="#e26f46" fill-rule="evenodd" fill-opacity="1" stroke="#000000" stroke-opacity="1" stroke-width="3.2"/>
<circle clip-path="url(#clip132)" cx="1968.77" cy="594.889" r="14.4" fill="#e26f46" fill-rule="evenodd" fill-opacity="1" stroke="#000000" stroke-opacity="1" stroke-width="3.2"/>
<path clip-path="url(#clip130)" d="M1061.3 239.836 L1727.41 239.836 L1727.41 110.236 L1061.3 110.236  Z" fill="#ffffff" fill-rule="evenodd" fill-opacity="1"/>
<polyline clip-path="url(#clip130)" style="stroke:#000000; stroke-linecap:round; stroke-linejoin:round; stroke-width:4; stroke-opacity:1; fill:none" points="1061.3,239.836 1727.41,239.836 1727.41,110.236 1061.3,110.236 1061.3,239.836 "/>
<polyline clip-path="url(#clip130)" style="stroke:#009af9; stroke-linecap:round; stroke-linejoin:round; stroke-width:5; stroke-opacity:1; fill:none" points="1081.19,175.036 1200.58,175.036 "/>
<path clip-path="url(#clip130)" d="M1220.48 189.739 L1220.48 177.735 Q1220.48 177.062 1220.51 176.828 Q1220.54 176.594 1220.71 176.418 Q1220.89 176.242 1221.24 176.242 Q1221.91 176.242 1221.97 176.857 Q1222.15 182.801 1225.69 186.08 Q1229.18 189.33 1235.15 189.33 Q1238.75 189.33 1240.97 186.753 Q1243.2 184.147 1243.2 180.751 Q1243.2 177.501 1241.33 175.218 Q1240.54 174.193 1239.54 173.549 Q1238.57 172.875 1237.96 172.67 Q1237.37 172.465 1236.23 172.173 Q1228.8 170.387 1228.33 170.182 Q1224.78 168.981 1222.62 165.966 Q1220.48 162.921 1220.48 159.202 Q1220.48 154.401 1223.85 151.005 Q1227.24 147.579 1232.16 147.579 Q1234.62 147.579 1236.67 148.37 Q1238.75 149.131 1239.6 149.833 Q1240.45 150.536 1241.77 151.795 L1243.84 148.37 Q1244.31 147.579 1244.75 147.579 Q1245.22 147.579 1245.31 147.872 Q1245.43 148.135 1245.43 149.014 L1245.43 161.076 Q1245.43 161.75 1245.4 161.984 Q1245.37 162.218 1245.16 162.364 Q1244.99 162.511 1244.63 162.511 Q1244.05 162.511 1243.9 161.808 Q1242.23 149.277 1232.22 149.277 Q1228.8 149.277 1226.54 151.59 Q1224.32 153.874 1224.32 157.124 Q1224.32 159.759 1225.96 161.925 Q1227.59 164.063 1230.38 164.736 L1238.05 166.58 Q1241.88 167.488 1244.46 170.884 Q1247.04 174.281 1247.04 178.702 Q1247.04 183.796 1243.7 187.485 Q1240.39 191.174 1235.21 191.174 Q1231.49 191.174 1228.62 189.944 Q1225.75 188.715 1224.2 186.987 Q1223 188.978 1222.21 190.091 L1222.03 190.384 Q1221.56 191.174 1221.12 191.174 Q1220.66 191.174 1220.57 190.881 Q1220.48 190.588 1220.48 189.739 Z" fill="#000000" fill-rule="nonzero" fill-opacity="1" /><path clip-path="url(#clip130)" d="M1254.86 189.857 L1254.86 188.012 Q1258.05 188.012 1258.79 187.631 Q1259.52 187.222 1259.52 185.289 L1259.52 169.157 Q1259.52 166.932 1258.76 166.405 Q1258.03 165.878 1255.1 165.878 L1255.1 164.004 L1263.47 163.36 L1263.47 185.348 Q1263.47 187.134 1264.12 187.573 Q1264.76 188.012 1267.69 188.012 L1267.69 189.857 Q1261.57 189.681 1261.45 189.681 Q1260.63 189.681 1254.86 189.857 M1257.38 152.908 Q1257.38 151.707 1258.29 150.741 Q1259.23 149.746 1260.54 149.746 Q1261.86 149.746 1262.8 150.653 Q1263.73 151.532 1263.73 152.937 Q1263.73 154.313 1262.8 155.221 Q1261.86 156.099 1260.54 156.099 Q1259.17 156.099 1258.26 155.133 Q1257.38 154.167 1257.38 152.908 Z" fill="#000000" fill-rule="nonzero" fill-opacity="1" /><path clip-path="url(#clip130)" d="M1270.59 194.6 Q1270.59 192.667 1272.05 190.998 Q1273.54 189.33 1276.12 188.598 Q1273.48 186.929 1273.48 183.269 Q1273.48 180.458 1275.33 178.292 Q1272.52 175.949 1272.52 172.114 Q1272.52 168.571 1275.33 165.966 Q1278.14 163.36 1282.24 163.36 Q1285.84 163.36 1288.59 165.526 Q1291.46 162.716 1294.95 162.686 Q1296.5 162.686 1297.23 163.653 Q1297.99 164.619 1297.99 165.644 Q1297.99 166.551 1297.4 166.99 Q1296.85 167.43 1296.26 167.43 Q1295.53 167.43 1295 166.961 Q1294.51 166.463 1294.51 165.702 Q1294.51 164.443 1295.47 164.063 Q1295.3 164.004 1294.89 164.004 Q1291.96 164.004 1289.47 166.346 Q1291.93 168.63 1291.93 172.173 Q1291.93 175.715 1289.12 178.321 Q1286.31 180.927 1282.24 180.927 Q1278.87 180.927 1276.3 179.053 Q1275.27 180.253 1275.27 181.893 Q1275.27 183.386 1276.18 184.557 Q1277.09 185.728 1278.46 185.904 Q1278.87 185.963 1282.94 185.963 Q1285.34 185.963 1286.66 186.021 Q1287.98 186.08 1289.85 186.49 Q1291.75 186.87 1293.25 187.631 Q1297.14 189.798 1297.17 194.482 Q1297.17 197.908 1293.22 200.045 Q1289.29 202.212 1283.85 202.212 Q1278.34 202.212 1274.45 200.016 Q1270.59 197.849 1270.59 194.6 M1273.72 194.6 Q1273.72 197.059 1276.62 198.933 Q1279.52 200.836 1283.91 200.836 Q1288.21 200.836 1291.11 198.962 Q1294.04 197.117 1294.04 194.6 Q1294.04 192.814 1293.01 191.672 Q1291.99 190.53 1289.88 190.061 Q1287.8 189.622 1286.34 189.534 Q1284.87 189.447 1282.18 189.447 L1278.64 189.447 Q1276.59 189.564 1275.15 191.057 Q1273.72 192.55 1273.72 194.6 M1277 172.173 Q1277 179.551 1282.24 179.551 Q1284.87 179.551 1286.48 177.15 Q1287.45 175.54 1287.45 172.114 Q1287.45 164.736 1282.24 164.736 Q1279.6 164.736 1277.96 167.137 Q1277 168.747 1277 172.173 Z" fill="#000000" fill-rule="nonzero" fill-opacity="1" /><path clip-path="url(#clip130)" d="M1304.12 189.857 L1304.12 188.012 Q1307.31 188.012 1308.04 187.631 Q1308.78 187.222 1308.78 185.289 L1308.78 169.216 Q1308.78 166.99 1307.99 166.434 Q1307.22 165.878 1304.12 165.878 L1304.12 164.004 L1312.55 163.36 L1312.55 169.655 Q1315.36 163.36 1321.42 163.36 Q1325.93 163.36 1327.72 165.585 Q1329.04 167.078 1329.3 168.747 Q1329.59 170.416 1329.59 174.749 L1329.59 186.197 Q1329.65 187.456 1330.62 187.749 Q1331.58 188.012 1334.28 188.012 L1334.28 189.857 Q1328.16 189.681 1327.54 189.681 Q1327.08 189.681 1320.78 189.857 L1320.78 188.012 Q1323.97 188.012 1324.7 187.631 Q1325.47 187.222 1325.47 185.289 L1325.47 171.324 Q1325.47 168.279 1324.53 166.493 Q1323.59 164.677 1321.01 164.677 Q1317.91 164.677 1315.42 167.283 Q1312.93 169.889 1312.93 174.281 L1312.93 185.289 Q1312.93 187.222 1313.67 187.631 Q1314.43 188.012 1317.59 188.012 L1317.59 189.857 Q1311.47 189.681 1310.88 189.681 Q1310.42 189.681 1304.12 189.857 Z" fill="#000000" fill-rule="nonzero" fill-opacity="1" /><path clip-path="url(#clip130)" d="M1338.5 184.147 Q1338.5 179.053 1344.51 176.359 Q1348.11 174.632 1355.54 174.193 L1355.54 171.997 Q1355.54 168.279 1353.58 166.317 Q1351.65 164.326 1349.19 164.326 Q1344.8 164.326 1342.69 167.078 Q1344.48 167.137 1345.12 168.044 Q1345.77 168.923 1345.77 169.83 Q1345.77 171.031 1345 171.821 Q1344.27 172.582 1343.01 172.582 Q1341.81 172.582 1341.02 171.851 Q1340.23 171.089 1340.23 169.772 Q1340.23 166.844 1342.87 164.912 Q1345.53 162.979 1349.31 162.979 Q1354.23 162.979 1357.51 166.288 Q1358.53 167.312 1359.03 168.63 Q1359.56 169.947 1359.61 170.826 Q1359.67 171.675 1359.67 173.373 L1359.67 185.348 Q1359.67 185.699 1359.79 186.285 Q1359.91 186.87 1360.43 187.631 Q1360.99 188.363 1361.9 188.363 Q1364.06 188.363 1364.04 184.528 L1364.04 181.161 L1365.56 181.161 L1365.56 184.528 Q1365.56 187.719 1363.86 188.978 Q1362.19 190.208 1360.64 190.208 Q1358.65 190.208 1357.39 188.744 Q1356.13 187.28 1355.95 185.289 Q1355.05 187.573 1352.97 189.066 Q1350.92 190.53 1348.11 190.53 Q1345.94 190.53 1343.89 189.974 Q1341.87 189.447 1340.17 187.953 Q1338.5 186.431 1338.5 184.147 M1343.13 184.089 Q1343.13 186.314 1344.71 187.749 Q1346.29 189.183 1348.52 189.183 Q1351.04 189.183 1353.29 187.251 Q1355.54 185.289 1355.54 181.454 L1355.54 175.452 Q1348.9 175.686 1346 178.35 Q1343.13 180.985 1343.13 184.089 Z" fill="#000000" fill-rule="nonzero" fill-opacity="1" /><path clip-path="url(#clip130)" d="M1367.96 189.857 L1367.96 188.012 Q1371.15 188.012 1371.88 187.631 Q1372.62 187.222 1372.62 185.289 L1372.62 154.108 Q1372.62 151.883 1371.82 151.327 Q1371.06 150.77 1367.96 150.77 L1367.96 148.897 L1376.57 148.252 L1376.57 185.289 Q1376.57 187.222 1377.33 187.631 Q1378.09 188.012 1381.25 188.012 L1381.25 189.857 Q1380.52 189.857 1379 189.798 Q1377.48 189.739 1376.36 189.71 Q1375.25 189.681 1374.61 189.681 Q1373.9 189.681 1367.96 189.857 Z" fill="#000000" fill-rule="nonzero" fill-opacity="1" /><circle clip-path="url(#clip130)" cx="1463.99" cy="175.036" r="25.6" fill="#e26f46" fill-rule="evenodd" fill-opacity="1" stroke="#000000" stroke-opacity="1" stroke-width="5.68889"/>
<path clip-path="url(#clip130)" d="M1543.59 195.302 L1543.59 193.457 L1545.02 193.457 Q1548.27 193.457 1549 192.93 Q1549.76 192.374 1549.76 190.617 L1549.76 159.026 Q1549.76 157.299 1549 156.772 Q1548.24 156.216 1545.02 156.216 L1543.59 156.216 L1543.59 154.342 L1564.76 154.342 Q1570.82 154.342 1574.86 157.68 Q1578.9 161.017 1578.9 165.497 Q1578.9 169.947 1574.77 173.168 Q1570.67 176.359 1565.22 176.359 L1555.09 176.359 L1555.09 190.617 Q1555.09 192.345 1555.83 192.901 Q1556.59 193.457 1559.84 193.457 L1561.27 193.457 L1561.27 195.302 Q1559.16 195.126 1552.4 195.126 Q1545.7 195.126 1543.59 195.302 M1554.92 174.807 L1563.17 174.807 Q1565.87 174.807 1567.83 174.046 Q1569.79 173.285 1570.67 172.377 Q1571.58 171.44 1572.07 169.947 Q1572.6 168.425 1572.66 167.605 Q1572.72 166.756 1572.72 165.497 Q1572.72 164.179 1572.66 163.359 Q1572.6 162.51 1572.07 161.017 Q1571.58 159.495 1570.67 158.587 Q1569.79 157.65 1567.83 156.948 Q1565.9 156.216 1563.17 156.216 L1557.85 156.216 Q1555.8 156.216 1555.36 156.626 Q1554.92 157.035 1554.92 158.616 L1554.92 174.807 Z" fill="#000000" fill-rule="nonzero" fill-opacity="1" /><path clip-path="url(#clip130)" d="M1589.75 182.097 Q1589.75 176.447 1593.38 172.436 Q1597.01 168.425 1602.22 168.425 Q1607.49 168.425 1610.21 171.85 Q1612.97 175.276 1612.97 180.194 Q1612.97 181.102 1612.73 181.278 Q1612.5 181.453 1611.47 181.453 L1594.73 181.453 Q1594.73 187.572 1596.54 190.442 Q1599.06 194.453 1603.3 194.453 Q1603.89 194.453 1604.59 194.336 Q1605.3 194.219 1606.73 193.721 Q1608.17 193.194 1609.42 191.818 Q1610.68 190.442 1611.41 188.275 Q1611.59 187.426 1612.18 187.455 Q1612.97 187.455 1612.97 188.158 Q1612.97 188.685 1612.38 189.885 Q1611.82 191.057 1610.74 192.462 Q1609.66 193.867 1607.55 194.921 Q1605.47 195.975 1602.95 195.975 Q1597.68 195.975 1593.7 191.993 Q1589.75 187.982 1589.75 182.097 M1594.78 180.194 L1609.01 180.194 Q1609.01 178.935 1608.78 177.53 Q1608.57 176.125 1607.93 174.192 Q1607.32 172.231 1605.85 171.001 Q1604.39 169.771 1602.22 169.771 Q1601.26 169.771 1600.2 170.181 Q1599.18 170.591 1597.92 171.587 Q1596.66 172.582 1595.78 174.836 Q1594.9 177.091 1594.78 180.194 Z" fill="#000000" fill-rule="nonzero" fill-opacity="1" /><path clip-path="url(#clip130)" d="M1615.87 189.593 Q1615.87 184.498 1621.87 181.805 Q1625.47 180.077 1632.91 179.638 L1632.91 177.442 Q1632.91 173.724 1630.95 171.762 Q1629.02 169.771 1626.56 169.771 Q1622.16 169.771 1620.06 172.524 Q1621.84 172.582 1622.49 173.49 Q1623.13 174.368 1623.13 175.276 Q1623.13 176.476 1622.37 177.267 Q1621.64 178.028 1620.38 178.028 Q1619.18 178.028 1618.39 177.296 Q1617.6 176.535 1617.6 175.217 Q1617.6 172.289 1620.23 170.357 Q1622.9 168.425 1626.67 168.425 Q1631.59 168.425 1634.87 171.733 Q1635.9 172.758 1636.39 174.075 Q1636.92 175.393 1636.98 176.271 Q1637.04 177.12 1637.04 178.818 L1637.04 190.793 Q1637.04 191.144 1637.15 191.73 Q1637.27 192.315 1637.8 193.077 Q1638.36 193.809 1639.26 193.809 Q1641.43 193.809 1641.4 189.973 L1641.4 186.606 L1642.92 186.606 L1642.92 189.973 Q1642.92 193.165 1641.22 194.424 Q1639.56 195.653 1638 195.653 Q1636.01 195.653 1634.75 194.189 Q1633.49 192.725 1633.32 190.734 Q1632.41 193.018 1630.33 194.511 Q1628.28 195.975 1625.47 195.975 Q1623.31 195.975 1621.26 195.419 Q1619.24 194.892 1617.54 193.399 Q1615.87 191.876 1615.87 189.593 M1620.5 189.534 Q1620.5 191.759 1622.08 193.194 Q1623.66 194.628 1625.88 194.628 Q1628.4 194.628 1630.65 192.696 Q1632.91 190.734 1632.91 186.899 L1632.91 180.897 Q1626.26 181.131 1623.36 183.796 Q1620.5 186.431 1620.5 189.534 Z" fill="#000000" fill-rule="nonzero" fill-opacity="1" /><path clip-path="url(#clip130)" d="M1645.32 195.302 L1645.32 193.457 Q1648.52 193.457 1649.25 193.077 Q1650.01 192.667 1650.01 190.734 L1650.01 159.553 Q1650.01 157.328 1649.22 156.772 Q1648.46 156.216 1645.32 156.216 L1645.32 154.342 L1653.96 153.698 L1653.96 182.478 L1662.42 175.159 Q1663.74 174.017 1663.74 172.816 Q1663.74 171.44 1662.01 171.323 L1662.01 169.449 Q1664.53 169.625 1668.72 169.625 Q1671.18 169.625 1672.9 169.449 L1672.9 171.323 Q1669.13 171.499 1665.35 174.544 Q1664.5 175.217 1662.48 176.974 Q1660.49 178.701 1660.49 178.877 Q1660.49 178.935 1660.55 179.082 Q1660.64 179.228 1660.75 179.345 Q1660.87 179.462 1660.87 179.521 L1668.48 190.266 Q1670.04 192.433 1671.18 192.96 Q1672.32 193.457 1674.31 193.457 L1674.31 195.302 Q1671.73 195.126 1669.07 195.126 Q1667.63 195.126 1662.6 195.302 L1662.6 193.457 Q1664.77 193.457 1664.77 192.052 Q1664.77 191.086 1659.91 184.381 Q1659.55 183.913 1658.76 182.888 Q1658.03 181.805 1657.62 181.278 L1653.79 184.557 L1653.79 190.734 Q1653.79 192.667 1654.52 193.077 Q1655.28 193.457 1658.47 193.457 L1658.47 195.302 Q1654.87 195.126 1651.88 195.126 Q1651.27 195.126 1645.32 195.302 Z" fill="#000000" fill-rule="nonzero" fill-opacity="1" /><path clip-path="url(#clip130)" d="M1677.56 194.511 L1677.56 186.606 Q1677.56 185.933 1677.58 185.699 Q1677.61 185.464 1677.79 185.289 Q1677.96 185.113 1678.32 185.113 Q1678.73 185.113 1678.87 185.289 Q1679.05 185.464 1679.17 186.138 Q1680.07 190.266 1682.01 192.462 Q1683.97 194.628 1687.51 194.628 Q1690.88 194.628 1692.57 193.135 Q1694.27 191.642 1694.27 189.183 Q1694.27 184.791 1688.04 183.678 Q1684.44 182.947 1682.94 182.478 Q1681.45 181.98 1680.13 180.897 Q1677.56 178.789 1677.56 175.803 Q1677.56 172.816 1679.81 170.62 Q1682.09 168.425 1687.13 168.425 Q1690.5 168.425 1692.78 170.123 Q1693.45 169.596 1693.8 169.157 Q1694.59 168.425 1695 168.425 Q1695.47 168.425 1695.56 168.747 Q1695.65 169.039 1695.65 169.888 L1695.65 175.92 Q1695.65 176.593 1695.62 176.827 Q1695.59 177.062 1695.41 177.237 Q1695.24 177.384 1694.86 177.384 Q1694.19 177.384 1694.16 176.827 Q1693.69 169.566 1687.13 169.566 Q1683.59 169.566 1682.01 170.943 Q1680.42 172.289 1680.42 174.134 Q1680.42 175.159 1680.89 175.949 Q1681.39 176.71 1682.01 177.179 Q1682.65 177.618 1683.82 178.057 Q1684.99 178.467 1685.69 178.613 Q1686.43 178.76 1687.8 179.053 Q1692.6 179.96 1694.62 181.922 Q1697.14 184.44 1697.14 187.631 Q1697.14 191.174 1694.74 193.574 Q1692.34 195.975 1687.51 195.975 Q1683.62 195.975 1680.89 193.369 Q1680.54 193.721 1680.28 194.043 Q1680.01 194.336 1679.9 194.453 Q1679.81 194.57 1679.78 194.658 Q1679.75 194.716 1679.69 194.775 Q1678.49 195.975 1678.2 195.975 Q1677.73 195.975 1677.64 195.653 Q1677.56 195.36 1677.56 194.511 Z" fill="#000000" fill-rule="nonzero" fill-opacity="1" /></svg>
