<?xml version="1.0" encoding="utf-8"?>
<svg xmlns="http://www.w3.org/2000/svg" xmlns:xlink="http://www.w3.org/1999/xlink" width="600" height="400" viewBox="0 0 2400 1600">
<defs>
  <clipPath id="clip270">
    <rect x="0" y="0" width="2400" height="1600"/>
  </clipPath>
</defs>
<path clip-path="url(#clip270)" d="M0 1600 L2400 1600 L2400 0 L0 0  Z" fill="#ffffff" fill-rule="evenodd" fill-opacity="1"/>
<defs>
  <clipPath id="clip271">
    <rect x="536" y="280" width="1754" height="1055"/>
  </clipPath>
</defs>
<path clip-path="url(#clip270)" d="M497.576 1334.27 L2289.76 1334.27 L2289.76 280.637 L497.576 280.637  Z" fill="#ffffff" fill-rule="evenodd" fill-opacity="1"/>
<defs>
  <clipPath id="clip272">
    <rect x="497" y="280" width="1793" height="1055"/>
  </clipPath>
</defs>
<polyline clip-path="url(#clip270)" style="stroke:#000000; stroke-linecap:round; stroke-linejoin:round; stroke-width:4; stroke-opacity:1; fill:none" points="497.576,1334.27 2289.76,1334.27 "/>
<polyline clip-path="url(#clip270)" style="stroke:#000000; stroke-linecap:round; stroke-linejoin:round; stroke-width:4; stroke-opacity:1; fill:none" points="548.298,1334.27 548.298,1318 "/>
<polyline clip-path="url(#clip270)" style="stroke:#000000; stroke-linecap:round; stroke-linejoin:round; stroke-width:4; stroke-opacity:1; fill:none" points="932.609,1334.27 932.609,1318 "/>
<polyline clip-path="url(#clip270)" style="stroke:#000000; stroke-linecap:round; stroke-linejoin:round; stroke-width:4; stroke-opacity:1; fill:none" points="1316.92,1334.27 1316.92,1318 "/>
<polyline clip-path="url(#clip270)" style="stroke:#000000; stroke-linecap:round; stroke-linejoin:round; stroke-width:4; stroke-opacity:1; fill:none" points="1701.23,1334.27 1701.23,1318 "/>
<polyline clip-path="url(#clip270)" style="stroke:#000000; stroke-linecap:round; stroke-linejoin:round; stroke-width:4; stroke-opacity:1; fill:none" points="2085.54,1334.27 2085.54,1318 "/>
<path clip-path="url(#clip270)" d="M548.298 1368.12 Q543.784 1368.12 541.499 1372.57 Q539.242 1377 539.242 1385.91 Q539.242 1394.79 541.499 1399.25 Q543.784 1403.68 548.298 1403.68 Q552.841 1403.68 555.098 1399.25 Q557.384 1394.79 557.384 1385.91 Q557.384 1377 555.098 1372.57 Q552.841 1368.12 548.298 1368.12 M548.298 1363.49 Q555.561 1363.49 559.38 1369.24 Q563.229 1374.97 563.229 1385.91 Q563.229 1396.82 559.38 1402.58 Q555.561 1408.31 548.298 1408.31 Q541.036 1408.31 537.187 1402.58 Q533.368 1396.82 533.368 1385.91 Q533.368 1374.97 537.187 1369.24 Q541.036 1363.49 548.298 1363.49 Z" fill="#000000" fill-rule="nonzero" fill-opacity="1" /><path clip-path="url(#clip270)" d="M900.983 1364.27 L923.929 1364.27 L923.929 1369.19 L906.336 1369.19 L906.336 1379.78 Q907.609 1379.34 908.882 1379.14 Q910.155 1378.91 911.429 1378.91 Q918.662 1378.91 922.887 1382.87 Q927.111 1386.84 927.111 1393.61 Q927.111 1400.58 922.771 1404.46 Q918.431 1408.31 910.532 1408.31 Q907.812 1408.31 904.976 1407.84 Q902.169 1407.38 899.16 1406.45 L899.16 1400.58 Q901.764 1402 904.542 1402.69 Q907.32 1403.39 910.416 1403.39 Q915.422 1403.39 918.344 1400.75 Q921.267 1398.12 921.267 1393.61 Q921.267 1389.09 918.344 1386.46 Q915.422 1383.83 910.416 1383.83 Q908.072 1383.83 905.728 1384.35 Q903.414 1384.87 900.983 1385.97 L900.983 1364.27 Z" fill="#000000" fill-rule="nonzero" fill-opacity="1" /><path clip-path="url(#clip270)" d="M951.128 1368.12 Q946.614 1368.12 944.328 1372.57 Q942.071 1377 942.071 1385.91 Q942.071 1394.79 944.328 1399.25 Q946.614 1403.68 951.128 1403.68 Q955.67 1403.68 957.927 1399.25 Q960.213 1394.79 960.213 1385.91 Q960.213 1377 957.927 1372.57 Q955.67 1368.12 951.128 1368.12 M951.128 1363.49 Q958.39 1363.49 962.21 1369.24 Q966.058 1374.97 966.058 1385.91 Q966.058 1396.82 962.21 1402.58 Q958.39 1408.31 951.128 1408.31 Q943.865 1408.31 940.016 1402.58 Q936.197 1396.82 936.197 1385.91 Q936.197 1374.97 940.016 1369.24 Q943.865 1363.49 951.128 1363.49 Z" fill="#000000" fill-rule="nonzero" fill-opacity="1" /><path clip-path="url(#clip270)" d="M1266.43 1402.55 L1275.98 1402.55 L1275.98 1369.59 L1265.59 1371.68 L1265.59 1366.35 L1275.92 1364.27 L1281.76 1364.27 L1281.76 1402.55 L1291.31 1402.55 L1291.31 1407.47 L1266.43 1407.47 L1266.43 1402.55 Z" fill="#000000" fill-rule="nonzero" fill-opacity="1" /><path clip-path="url(#clip270)" d="M1315.62 1368.12 Q1311.1 1368.12 1308.82 1372.57 Q1306.56 1377 1306.56 1385.91 Q1306.56 1394.79 1308.82 1399.25 Q1311.1 1403.68 1315.62 1403.68 Q1320.16 1403.68 1322.42 1399.25 Q1324.7 1394.79 1324.7 1385.91 Q1324.7 1377 1322.42 1372.57 Q1320.16 1368.12 1315.62 1368.12 M1315.62 1363.49 Q1322.88 1363.49 1326.7 1369.24 Q1330.55 1374.97 1330.55 1385.91 Q1330.55 1396.82 1326.7 1402.58 Q1322.88 1408.31 1315.62 1408.31 Q1308.36 1408.31 1304.51 1402.58 Q1300.69 1396.82 1300.69 1385.91 Q1300.69 1374.97 1304.51 1369.24 Q1308.36 1363.49 1315.62 1363.49 Z" fill="#000000" fill-rule="nonzero" fill-opacity="1" /><path clip-path="url(#clip270)" d="M1353.32 1368.12 Q1348.81 1368.12 1346.52 1372.57 Q1344.26 1377 1344.26 1385.91 Q1344.26 1394.79 1346.52 1399.25 Q1348.81 1403.68 1353.32 1403.68 Q1357.86 1403.68 1360.12 1399.25 Q1362.41 1394.79 1362.41 1385.91 Q1362.41 1377 1360.12 1372.57 Q1357.86 1368.12 1353.32 1368.12 M1353.32 1363.49 Q1360.58 1363.49 1364.4 1369.24 Q1368.25 1374.97 1368.25 1385.91 Q1368.25 1396.82 1364.4 1402.58 Q1360.58 1408.31 1353.32 1408.31 Q1346.06 1408.31 1342.21 1402.58 Q1338.39 1396.82 1338.39 1385.91 Q1338.39 1374.97 1342.21 1369.24 Q1346.06 1363.49 1353.32 1363.49 Z" fill="#000000" fill-rule="nonzero" fill-opacity="1" /><path clip-path="url(#clip270)" d="M1650.74 1402.55 L1660.29 1402.55 L1660.29 1369.59 L1649.9 1371.68 L1649.9 1366.35 L1660.23 1364.27 L1666.07 1364.27 L1666.07 1402.55 L1675.62 1402.55 L1675.62 1407.47 L1650.74 1407.47 L1650.74 1402.55 Z" fill="#000000" fill-rule="nonzero" fill-opacity="1" /><path clip-path="url(#clip270)" d="M1687.49 1364.27 L1710.43 1364.27 L1710.43 1369.19 L1692.84 1369.19 L1692.84 1379.78 Q1694.11 1379.34 1695.39 1379.14 Q1696.66 1378.91 1697.93 1378.91 Q1705.17 1378.91 1709.39 1382.87 Q1713.61 1386.84 1713.61 1393.61 Q1713.61 1400.58 1709.27 1404.46 Q1704.93 1408.31 1697.03 1408.31 Q1694.32 1408.31 1691.48 1407.84 Q1688.67 1407.38 1685.66 1406.45 L1685.66 1400.58 Q1688.27 1402 1691.05 1402.69 Q1693.82 1403.39 1696.92 1403.39 Q1701.92 1403.39 1704.85 1400.75 Q1707.77 1398.12 1707.77 1393.61 Q1707.77 1389.09 1704.85 1386.46 Q1701.92 1383.83 1696.92 1383.83 Q1694.58 1383.83 1692.23 1384.35 Q1689.92 1384.87 1687.49 1385.97 L1687.49 1364.27 Z" fill="#000000" fill-rule="nonzero" fill-opacity="1" /><path clip-path="url(#clip270)" d="M1737.63 1368.12 Q1733.12 1368.12 1730.83 1372.57 Q1728.57 1377 1728.57 1385.91 Q1728.57 1394.79 1730.83 1399.25 Q1733.12 1403.68 1737.63 1403.68 Q1742.17 1403.68 1744.43 1399.25 Q1746.72 1394.79 1746.72 1385.91 Q1746.72 1377 1744.43 1372.57 Q1742.17 1368.12 1737.63 1368.12 M1737.63 1363.49 Q1744.89 1363.49 1748.71 1369.24 Q1752.56 1374.97 1752.56 1385.91 Q1752.56 1396.82 1748.71 1402.58 Q1744.89 1408.31 1737.63 1408.31 Q1730.37 1408.31 1726.52 1402.58 Q1722.7 1396.82 1722.7 1385.91 Q1722.7 1374.97 1726.52 1369.24 Q1730.37 1363.49 1737.63 1363.49 Z" fill="#000000" fill-rule="nonzero" fill-opacity="1" /><path clip-path="url(#clip270)" d="M2040.16 1402.55 L2060.56 1402.55 L2060.56 1407.47 L2033.13 1407.47 L2033.13 1402.55 Q2036.45 1399.11 2042.18 1393.32 Q2047.94 1387.5 2049.42 1385.82 Q2052.22 1382.67 2053.32 1380.5 Q2054.45 1378.3 2054.45 1376.19 Q2054.45 1372.75 2052.02 1370.58 Q2049.62 1368.41 2045.74 1368.41 Q2042.99 1368.41 2039.93 1369.36 Q2036.89 1370.32 2033.41 1372.25 L2033.41 1366.35 Q2036.94 1364.93 2040.01 1364.21 Q2043.08 1363.49 2045.63 1363.49 Q2052.34 1363.49 2056.33 1366.84 Q2060.32 1370.2 2060.32 1375.81 Q2060.32 1378.47 2059.31 1380.88 Q2058.33 1383.25 2055.69 1386.49 Q2054.97 1387.33 2051.09 1391.35 Q2047.22 1395.34 2040.16 1402.55 Z" fill="#000000" fill-rule="nonzero" fill-opacity="1" /><path clip-path="url(#clip270)" d="M2085.32 1368.12 Q2080.81 1368.12 2078.52 1372.57 Q2076.27 1377 2076.27 1385.91 Q2076.27 1394.79 2078.52 1399.25 Q2080.81 1403.68 2085.32 1403.68 Q2089.87 1403.68 2092.12 1399.25 Q2094.41 1394.79 2094.41 1385.91 Q2094.41 1377 2092.12 1372.57 Q2089.87 1368.12 2085.32 1368.12 M2085.32 1363.49 Q2092.59 1363.49 2096.41 1369.24 Q2100.25 1374.97 2100.25 1385.91 Q2100.25 1396.82 2096.41 1402.58 Q2092.59 1408.31 2085.32 1408.31 Q2078.06 1408.31 2074.21 1402.58 Q2070.39 1396.82 2070.39 1385.91 Q2070.39 1374.97 2074.21 1369.24 Q2078.06 1363.49 2085.32 1363.49 Z" fill="#000000" fill-rule="nonzero" fill-opacity="1" /><path clip-path="url(#clip270)" d="M2123.03 1368.12 Q2118.51 1368.12 2116.23 1372.57 Q2113.97 1377 2113.97 1385.91 Q2113.97 1394.79 2116.23 1399.25 Q2118.51 1403.68 2123.03 1403.68 Q2127.57 1403.68 2129.83 1399.25 Q2132.11 1394.79 2132.11 1385.91 Q2132.11 1377 2129.83 1372.57 Q2127.57 1368.12 2123.03 1368.12 M2123.03 1363.49 Q2130.29 1363.49 2134.11 1369.24 Q2137.96 1374.97 2137.96 1385.91 Q2137.96 1396.82 2134.11 1402.58 Q2130.29 1408.31 2123.03 1408.31 Q2115.76 1408.31 2111.92 1402.58 Q2108.1 1396.82 2108.1 1385.91 Q2108.1 1374.97 2111.92 1369.24 Q2115.76 1363.49 2123.03 1363.49 Z" fill="#000000" fill-rule="nonzero" fill-opacity="1" /><path clip-path="url(#clip270)" d="M1078 1496.22 L1078 1493.45 L1080.15 1493.45 Q1085.03 1493.45 1086.12 1492.66 Q1087.27 1491.83 1087.27 1489.19 L1087.27 1442.07 Q1087.27 1439.48 1086.12 1438.69 Q1084.98 1437.86 1080.15 1437.86 L1078 1437.86 L1078 1435.04 L1127.36 1435.04 L1129.87 1455.29 L1127.63 1455.29 Q1127.01 1450.15 1126.18 1447.25 Q1125.39 1444.31 1123.54 1441.98 Q1121.7 1439.66 1118.58 1438.78 Q1115.5 1437.86 1110.45 1437.86 L1099.65 1437.86 Q1096.58 1437.86 1095.92 1438.51 Q1095.26 1439.13 1095.26 1441.46 L1095.26 1464.21 L1102.99 1464.21 Q1109.09 1464.21 1110.81 1462.01 Q1112.52 1459.81 1112.52 1453.67 L1114.76 1453.67 L1114.76 1477.51 L1112.52 1477.51 Q1112.52 1471.32 1110.81 1469.17 Q1109.09 1466.97 1102.99 1466.97 L1095.26 1466.97 L1095.26 1489.11 Q1095.26 1491 1095.57 1491.74 Q1095.87 1492.44 1097.76 1492.97 Q1099.65 1493.45 1103.78 1493.45 L1106.76 1493.45 L1106.76 1496.22 Q1103.51 1495.96 1091.66 1495.96 Q1081.16 1495.96 1078 1496.22 Z" fill="#000000" fill-rule="nonzero" fill-opacity="1" /><path clip-path="url(#clip270)" d="M1143.65 1496.22 L1143.65 1493.45 Q1148.43 1493.45 1149.53 1492.88 Q1150.67 1492.27 1150.67 1489.37 L1150.67 1465.26 Q1150.67 1461.92 1149.49 1461.09 Q1148.34 1460.25 1143.65 1460.25 L1143.65 1457.44 L1156.16 1456.48 L1156.16 1466.36 Q1157.44 1462.49 1160.11 1459.51 Q1162.84 1456.48 1167.23 1456.48 Q1170.13 1456.48 1171.97 1458.1 Q1173.86 1459.73 1173.86 1461.97 Q1173.86 1463.94 1172.63 1464.95 Q1171.44 1465.92 1170 1465.92 Q1168.37 1465.92 1167.23 1464.91 Q1166.13 1463.85 1166.13 1462.05 Q1166.13 1460.96 1166.61 1460.12 Q1167.14 1459.24 1167.54 1458.94 Q1167.93 1458.63 1168.19 1458.54 Q1168.02 1458.45 1167.23 1458.45 Q1162.27 1458.45 1159.41 1463.42 Q1156.6 1468.33 1156.6 1475.36 L1156.6 1489.19 Q1156.6 1491.79 1157.65 1492.62 Q1158.75 1493.45 1163.45 1493.45 L1165.34 1493.45 L1165.34 1496.22 Q1161.74 1495.96 1153.92 1495.96 Q1152.82 1495.96 1151.11 1496 Q1149.4 1496.05 1147.16 1496.13 Q1144.92 1496.22 1143.65 1496.22 Z" fill="#000000" fill-rule="nonzero" fill-opacity="1" /><path clip-path="url(#clip270)" d="M1180.45 1476.41 Q1180.45 1467.94 1185.89 1461.92 Q1191.34 1455.91 1199.15 1455.91 Q1207.06 1455.91 1211.14 1461.04 Q1215.27 1466.18 1215.27 1473.56 Q1215.27 1474.92 1214.92 1475.18 Q1214.57 1475.45 1213.03 1475.45 L1187.91 1475.45 Q1187.91 1484.63 1190.64 1488.93 Q1194.41 1494.95 1200.78 1494.95 Q1201.66 1494.95 1202.71 1494.77 Q1203.77 1494.6 1205.92 1493.85 Q1208.07 1493.06 1209.96 1491 Q1211.85 1488.93 1212.94 1485.68 Q1213.21 1484.41 1214.09 1484.45 Q1215.27 1484.45 1215.27 1485.51 Q1215.27 1486.3 1214.39 1488.1 Q1213.56 1489.85 1211.93 1491.96 Q1210.31 1494.07 1207.15 1495.65 Q1204.03 1497.23 1200.25 1497.23 Q1192.35 1497.23 1186.38 1491.26 Q1180.45 1485.24 1180.45 1476.41 M1188 1473.56 L1209.34 1473.56 Q1209.34 1471.67 1208.99 1469.56 Q1208.69 1467.46 1207.72 1464.56 Q1206.8 1461.61 1204.6 1459.77 Q1202.4 1457.93 1199.15 1457.93 Q1197.71 1457.93 1196.12 1458.54 Q1194.59 1459.16 1192.7 1460.65 Q1190.81 1462.14 1189.49 1465.52 Q1188.18 1468.9 1188 1473.56 Z" fill="#000000" fill-rule="nonzero" fill-opacity="1" /><path clip-path="url(#clip270)" d="M1219.98 1476.9 Q1219.98 1468.25 1225.91 1462.36 Q1231.84 1456.48 1239.83 1456.48 Q1243.17 1456.48 1245.89 1458.1 Q1248.66 1459.73 1249.85 1461.35 Q1251.08 1462.93 1251.91 1464.64 L1255.29 1456.48 L1257.31 1456.48 L1257.31 1506.85 Q1257.31 1509.75 1258.41 1510.32 Q1259.55 1510.89 1264.3 1510.89 L1264.3 1513.66 Q1254.85 1513.39 1254.15 1513.39 Q1253.27 1513.39 1244.05 1513.66 L1244.05 1510.89 Q1248.84 1510.89 1249.93 1510.27 Q1251.08 1509.7 1251.08 1506.85 L1251.08 1490.73 Q1246.11 1497.19 1239.13 1497.23 Q1231.31 1497.23 1225.65 1491.26 Q1219.98 1485.24 1219.98 1476.9 M1227.45 1476.9 Q1227.45 1484.63 1230.96 1489.94 Q1234.52 1495.21 1239.48 1495.21 Q1244.36 1495.21 1247.74 1491.57 Q1251.34 1487.61 1251.34 1483.97 L1251.34 1471.32 Q1251.34 1467.1 1248.31 1462.93 Q1245.32 1458.72 1240.4 1458.72 Q1235.27 1458.72 1231.36 1463.9 Q1227.45 1469.08 1227.45 1476.9 Z" fill="#000000" fill-rule="nonzero" fill-opacity="1" /><path clip-path="url(#clip270)" d="M1271.96 1460.25 L1271.96 1457.44 L1285.18 1456.48 L1285.18 1486.34 Q1285.18 1488.49 1285.36 1489.77 Q1285.54 1491 1286.24 1492.44 Q1286.98 1493.89 1288.65 1494.55 Q1290.37 1495.21 1293.09 1495.21 Q1297.96 1495.21 1300.95 1491.21 Q1303.98 1487.22 1303.98 1481.29 L1303.98 1465.26 Q1303.98 1461.92 1302.79 1461.09 Q1301.61 1460.25 1296.95 1460.25 L1296.95 1457.44 L1310.17 1456.48 L1310.17 1488.4 Q1310.17 1491.74 1311.31 1492.62 Q1312.5 1493.45 1317.2 1493.45 L1317.2 1496.22 L1304.24 1497.23 L1304.24 1489.11 Q1300.47 1497.19 1292.65 1497.23 Q1288.7 1497.23 1285.97 1496.22 Q1283.3 1495.21 1281.93 1493.98 Q1280.57 1492.71 1279.83 1490.29 Q1279.12 1487.88 1279.04 1486.38 Q1278.95 1484.89 1278.95 1481.99 L1278.95 1468.51 Q1278.95 1462.4 1278.07 1461.35 Q1277.19 1460.25 1271.96 1460.25 Z" fill="#000000" fill-rule="nonzero" fill-opacity="1" /><path clip-path="url(#clip270)" d="M1322.1 1476.41 Q1322.1 1467.94 1327.54 1461.92 Q1332.99 1455.91 1340.8 1455.91 Q1348.71 1455.91 1352.79 1461.04 Q1356.92 1466.18 1356.92 1473.56 Q1356.92 1474.92 1356.57 1475.18 Q1356.22 1475.45 1354.68 1475.45 L1329.56 1475.45 Q1329.56 1484.63 1332.28 1488.93 Q1336.06 1494.95 1342.43 1494.95 Q1343.31 1494.95 1344.36 1494.77 Q1345.42 1494.6 1347.57 1493.85 Q1349.72 1493.06 1351.61 1491 Q1353.5 1488.93 1354.59 1485.68 Q1354.86 1484.41 1355.74 1484.45 Q1356.92 1484.45 1356.92 1485.51 Q1356.92 1486.3 1356.04 1488.1 Q1355.21 1489.85 1353.58 1491.96 Q1351.96 1494.07 1348.8 1495.65 Q1345.68 1497.23 1341.9 1497.23 Q1334 1497.23 1328.02 1491.26 Q1322.1 1485.24 1322.1 1476.41 M1329.65 1473.56 L1350.99 1473.56 Q1350.99 1471.67 1350.64 1469.56 Q1350.33 1467.46 1349.37 1464.56 Q1348.45 1461.61 1346.25 1459.77 Q1344.05 1457.93 1340.8 1457.93 Q1339.35 1457.93 1337.77 1458.54 Q1336.24 1459.16 1334.35 1460.65 Q1332.46 1462.14 1331.14 1465.52 Q1329.82 1468.9 1329.65 1473.56 Z" fill="#000000" fill-rule="nonzero" fill-opacity="1" /><path clip-path="url(#clip270)" d="M1359.83 1496.22 L1359.83 1493.45 Q1364.62 1493.45 1365.72 1492.88 Q1366.82 1492.27 1366.82 1489.37 L1366.82 1465.26 Q1366.82 1461.92 1365.63 1461.09 Q1364.49 1460.25 1359.83 1460.25 L1359.83 1457.44 L1372.48 1456.48 L1372.48 1465.92 Q1376.7 1456.48 1385.79 1456.48 Q1392.55 1456.48 1395.23 1459.81 Q1397.21 1462.05 1397.6 1464.56 Q1398.04 1467.06 1398.04 1473.56 L1398.04 1490.73 Q1398.13 1492.62 1399.58 1493.06 Q1401.03 1493.45 1405.07 1493.45 L1405.07 1496.22 Q1395.89 1495.96 1394.97 1495.96 Q1394.26 1495.96 1384.82 1496.22 L1384.82 1493.45 Q1389.61 1493.45 1390.71 1492.88 Q1391.85 1492.27 1391.85 1489.37 L1391.85 1468.42 Q1391.85 1463.85 1390.44 1461.18 Q1389.04 1458.45 1385.17 1458.45 Q1380.52 1458.45 1376.78 1462.36 Q1373.05 1466.27 1373.05 1472.86 L1373.05 1489.37 Q1373.05 1492.27 1374.15 1492.88 Q1375.29 1493.45 1380.03 1493.45 L1380.03 1496.22 Q1370.86 1495.96 1369.98 1495.96 Q1369.27 1495.96 1359.83 1496.22 Z" fill="#000000" fill-rule="nonzero" fill-opacity="1" /><path clip-path="url(#clip270)" d="M1417.11 1491.3 Q1411.4 1485.33 1411.4 1476.81 Q1411.4 1468.25 1417.02 1462.1 Q1422.65 1455.91 1430.9 1455.91 Q1436.39 1455.91 1440.52 1458.54 Q1444.65 1461.13 1444.65 1465.57 Q1444.65 1467.54 1443.46 1468.69 Q1442.32 1469.78 1440.52 1469.78 Q1438.63 1469.78 1437.49 1468.64 Q1436.39 1467.46 1436.39 1465.65 Q1436.39 1464.86 1436.66 1464.07 Q1436.92 1463.28 1437.88 1462.45 Q1438.89 1461.61 1440.61 1461.48 Q1437.4 1458.19 1431.17 1458.19 Q1431.08 1458.19 1430.99 1458.19 Q1426.42 1458.19 1422.65 1462.49 Q1418.87 1466.8 1418.87 1476.63 Q1418.87 1481.77 1420.1 1485.55 Q1421.37 1489.28 1423.44 1491.21 Q1425.5 1493.15 1427.52 1494.07 Q1429.54 1494.95 1431.52 1494.95 Q1440.34 1494.95 1443.33 1485.51 Q1443.59 1484.63 1444.47 1484.63 Q1445.66 1484.63 1445.66 1485.51 Q1445.66 1485.94 1445.31 1487.09 Q1444.96 1488.23 1443.86 1490.03 Q1442.76 1491.83 1441.18 1493.41 Q1439.64 1494.95 1436.87 1496.09 Q1434.15 1497.23 1430.73 1497.23 Q1422.82 1497.23 1417.11 1491.3 Z" fill="#000000" fill-rule="nonzero" fill-opacity="1" /><path clip-path="url(#clip270)" d="M1448.78 1507.38 Q1448.78 1505.49 1449.88 1504.48 Q1451.02 1503.51 1452.56 1503.51 Q1454.18 1503.51 1455.24 1504.52 Q1456.33 1505.58 1456.33 1507.29 Q1456.33 1510.63 1452.82 1511.07 Q1454.53 1512.69 1457.04 1512.69 Q1459.72 1512.69 1461.87 1510.71 Q1464.06 1508.74 1464.99 1506.85 Q1465.95 1504.96 1467.31 1501.54 Q1468.59 1498.86 1469.55 1496.22 L1456.07 1463.37 Q1455.19 1461.22 1453.83 1460.74 Q1452.47 1460.25 1448.78 1460.25 L1448.78 1457.44 Q1452.82 1457.71 1457.52 1457.71 Q1460.29 1457.71 1467.31 1457.44 L1467.31 1460.25 Q1462.26 1460.25 1462.26 1462.58 Q1462.26 1462.84 1462.79 1464.21 L1472.8 1488.4 L1481.89 1466.27 Q1482.42 1465 1482.42 1464.12 Q1482.42 1460.43 1478.2 1460.25 L1478.2 1457.44 Q1484.13 1457.71 1486.02 1457.71 Q1489.71 1457.71 1492.74 1457.44 L1492.74 1460.25 Q1486.72 1460.25 1484.4 1466.01 L1468.54 1504.39 Q1464.24 1514.62 1457.04 1514.67 Q1453.61 1514.67 1451.2 1512.56 Q1448.78 1510.45 1448.78 1507.38 Z" fill="#000000" fill-rule="nonzero" fill-opacity="1" /><path clip-path="url(#clip270)" d="M1519.48 1473.74 Q1519.48 1458.54 1525.14 1446.29 Q1527.56 1441.15 1530.94 1436.85 Q1534.32 1432.54 1536.56 1430.65 Q1538.8 1428.76 1539.42 1428.76 Q1540.29 1428.76 1540.34 1429.64 Q1540.34 1430.08 1539.15 1431.18 Q1524.66 1445.94 1524.7 1473.74 Q1524.7 1501.62 1538.8 1515.81 Q1540.34 1517.35 1540.34 1517.83 Q1540.34 1518.71 1539.42 1518.71 Q1538.8 1518.71 1536.65 1516.91 Q1534.5 1515.11 1531.16 1510.98 Q1527.82 1506.85 1525.41 1501.8 Q1519.48 1489.55 1519.48 1473.74 Z" fill="#000000" fill-rule="nonzero" fill-opacity="1" /><path clip-path="url(#clip270)" d="M1624.33 1435.79 Q1624.33 1437.06 1623.75 1437.33 Q1623.23 1437.59 1621.3 1437.59 Q1618 1437.59 1616.51 1438.03 Q1615.06 1438.43 1614.62 1439.13 Q1614.22 1439.79 1613.74 1441.72 L1601.58 1490.29 Q1601.58 1490.34 1601.45 1490.95 Q1601.31 1491.52 1601.31 1491.83 Q1601.31 1492.4 1601.66 1492.75 Q1602.06 1493.1 1603.03 1493.28 Q1603.99 1493.41 1604.74 1493.45 Q1605.53 1493.45 1607.15 1493.45 Q1609.17 1493.45 1609.48 1493.81 Q1609.66 1494.03 1609.66 1494.42 Q1609.66 1495.25 1609.31 1495.69 Q1609 1496.09 1608.69 1496.18 Q1608.43 1496.22 1607.9 1496.22 Q1606.98 1496.22 1605 1496.13 Q1603.03 1496.05 1602.02 1496.05 L1596.26 1495.96 L1584.84 1496.22 Q1583.61 1496.22 1583.61 1495.21 Q1583.61 1494.33 1583.92 1493.94 Q1584.23 1493.54 1584.54 1493.5 Q1584.89 1493.45 1585.77 1493.45 Q1590.29 1493.45 1591.78 1493.02 Q1593.32 1492.53 1593.94 1490.47 L1600.13 1465.65 L1572.72 1465.65 L1566.57 1490.29 Q1566.57 1490.34 1566.44 1490.95 Q1566.31 1491.52 1566.31 1491.83 Q1566.31 1492.4 1566.66 1492.75 Q1567.06 1493.1 1568.02 1493.28 Q1568.99 1493.41 1569.74 1493.45 Q1570.53 1493.45 1572.15 1493.45 Q1574.17 1493.45 1574.52 1493.81 Q1574.7 1494.03 1574.7 1494.42 Q1574.7 1495.04 1574.52 1495.47 Q1574.39 1495.87 1574.04 1496 Q1573.73 1496.13 1573.51 1496.18 Q1573.29 1496.22 1572.9 1496.22 Q1571.98 1496.22 1570 1496.13 Q1568.07 1496.05 1567.06 1496.05 L1561.3 1495.96 L1549.89 1496.22 Q1548.61 1496.22 1548.61 1495.21 Q1548.61 1494.33 1548.92 1493.98 Q1549.23 1493.59 1549.62 1493.54 Q1550.02 1493.45 1551.03 1493.45 Q1553.22 1493.45 1554.54 1493.32 Q1555.86 1493.19 1556.69 1493.02 Q1557.57 1492.8 1558.01 1492.18 Q1558.49 1491.57 1558.71 1491.04 Q1558.93 1490.47 1559.24 1489.19 L1571.27 1440.89 Q1571.63 1439.44 1571.63 1439.22 Q1571.63 1438.38 1571.1 1438.16 Q1570.62 1437.9 1569.21 1437.77 L1565.78 1437.59 Q1564.73 1437.59 1564.29 1437.55 Q1563.9 1437.5 1563.59 1437.28 Q1563.28 1437.06 1563.28 1436.58 Q1563.28 1435.97 1563.41 1435.57 Q1563.59 1435.13 1563.9 1435 Q1564.2 1434.87 1564.42 1434.83 Q1564.64 1434.78 1564.99 1434.78 L1576.59 1435.04 L1588.09 1434.78 Q1589.37 1434.78 1589.37 1435.79 Q1589.37 1437.06 1588.8 1437.33 Q1588.23 1437.59 1586.29 1437.59 Q1583.09 1437.59 1581.59 1438.03 Q1580.1 1438.43 1579.62 1439.13 Q1579.18 1439.83 1578.74 1441.72 L1573.43 1462.84 L1600.87 1462.84 L1606.28 1440.89 Q1606.63 1439.3 1606.63 1439.22 Q1606.63 1438.38 1606.1 1438.16 Q1605.62 1437.9 1604.21 1437.77 L1600.79 1437.59 Q1599.73 1437.59 1599.29 1437.55 Q1598.9 1437.5 1598.55 1437.28 Q1598.24 1437.06 1598.24 1436.58 Q1598.24 1435.97 1598.37 1435.57 Q1598.55 1435.13 1598.85 1435 Q1599.16 1434.87 1599.38 1434.83 Q1599.6 1434.78 1599.95 1434.78 L1611.55 1435.04 L1623.1 1434.78 Q1624.33 1434.78 1624.33 1435.79 Z" fill="#000000" fill-rule="nonzero" fill-opacity="1" /><path clip-path="url(#clip270)" d="M1666.12 1457.35 Q1666.12 1457.66 1665.37 1458.98 Q1664.67 1460.25 1662.08 1463.46 Q1659.49 1466.66 1655.62 1470.4 Q1654.17 1471.85 1651.98 1473.87 Q1649.78 1475.89 1648.29 1477.21 L1646.79 1478.52 Q1641.09 1483.35 1636.08 1488.76 Q1636.43 1488.62 1637.05 1488.58 Q1637.66 1488.49 1638.1 1488.49 L1638.54 1488.49 Q1640.82 1488.49 1644.82 1490.03 Q1648.33 1491.17 1650.13 1491.17 Q1651.89 1491.17 1653.82 1490.56 Q1655.75 1489.94 1657.86 1488.14 Q1659.97 1486.34 1660.94 1483.62 Q1661.11 1483.18 1661.2 1483.05 Q1661.29 1482.87 1661.55 1482.69 Q1661.81 1482.48 1662.17 1482.48 Q1662.65 1482.48 1662.96 1482.74 Q1663.26 1483 1663.26 1483.35 Q1663.26 1484.14 1662.65 1485.72 Q1662.08 1487.31 1660.8 1489.28 Q1659.57 1491.26 1657.95 1493.06 Q1656.37 1494.82 1654 1496.05 Q1651.63 1497.23 1649.12 1497.23 Q1647.32 1497.23 1646 1496.35 Q1644.69 1495.52 1643.37 1493.89 Q1641.57 1491.83 1640.6 1491.17 Q1639.64 1490.47 1638.14 1490.47 Q1634.15 1490.47 1630.5 1496.05 Q1630.11 1496.84 1629.84 1497.01 Q1629.62 1497.23 1629.1 1497.23 Q1628 1497.19 1628 1496.31 Q1628 1495.96 1628.96 1494.42 Q1629.97 1492.84 1632.21 1490.07 Q1634.5 1487.31 1637.26 1484.54 L1645.35 1476.99 Q1654.3 1469.43 1657.86 1465.17 Q1656.37 1465.17 1655.71 1465.13 Q1655.09 1465.08 1653.87 1464.82 Q1652.64 1464.51 1650.92 1463.85 Q1646.93 1462.49 1645.26 1462.49 Q1644.82 1462.49 1644.34 1462.54 Q1643.85 1462.58 1642.75 1462.8 Q1641.7 1463.02 1640.82 1463.46 Q1639.94 1463.85 1639.02 1464.73 Q1638.1 1465.57 1637.62 1466.71 Q1637.48 1467.06 1637.4 1467.24 Q1637.31 1467.41 1637.05 1467.59 Q1636.83 1467.72 1636.47 1467.72 Q1635.95 1467.72 1635.64 1467.41 Q1635.38 1467.1 1635.38 1466.71 Q1635.38 1465.92 1636.17 1464.29 Q1636.96 1462.67 1638.27 1460.91 Q1639.59 1459.11 1641.74 1457.79 Q1643.9 1456.48 1646.27 1456.48 Q1647.67 1456.48 1648.86 1457.09 Q1650.09 1457.71 1650.7 1458.36 Q1651.36 1458.98 1652.46 1460.34 Q1653.38 1461.39 1653.82 1461.83 Q1654.26 1462.27 1655.14 1462.76 Q1656.06 1463.2 1657.07 1463.2 Q1658.74 1463.2 1660.28 1461.92 Q1661.81 1460.6 1663.79 1457.44 Q1664.32 1456.48 1665.15 1456.48 Q1666.12 1456.48 1666.12 1457.35 Z" fill="#000000" fill-rule="nonzero" fill-opacity="1" /><path clip-path="url(#clip270)" d="M1674.81 1517.83 Q1674.81 1517.39 1675.95 1516.29 Q1690.44 1501.54 1690.44 1473.74 Q1690.44 1445.85 1676.52 1431.75 Q1674.81 1430.13 1674.81 1429.64 Q1674.81 1428.76 1675.68 1428.76 Q1676.3 1428.76 1678.45 1430.57 Q1680.65 1432.37 1683.94 1436.49 Q1687.28 1440.62 1689.74 1445.67 Q1695.67 1457.93 1695.67 1473.74 Q1695.67 1488.93 1690 1501.18 Q1687.59 1506.32 1684.2 1510.63 Q1680.82 1514.93 1678.58 1516.82 Q1676.34 1518.71 1675.68 1518.71 Q1674.81 1518.71 1674.81 1517.83 Z" fill="#000000" fill-rule="nonzero" fill-opacity="1" /><polyline clip-path="url(#clip270)" style="stroke:#000000; stroke-linecap:round; stroke-linejoin:round; stroke-width:4; stroke-opacity:1; fill:none" points="497.576,1334.27 497.576,280.637 "/>
<polyline clip-path="url(#clip270)" style="stroke:#000000; stroke-linecap:round; stroke-linejoin:round; stroke-width:4; stroke-opacity:1; fill:none" points="497.576,959.957 516.474,959.957 "/>
<polyline clip-path="url(#clip270)" style="stroke:#000000; stroke-linecap:round; stroke-linejoin:round; stroke-width:4; stroke-opacity:1; fill:none" points="497.576,505.827 516.474,505.827 "/>
<path clip-path="url(#clip270)" d="M373.194 984.698 L382.743 984.698 L382.743 951.741 L372.355 953.824 L372.355 948.5 L382.685 946.417 L388.53 946.417 L388.53 984.698 L398.078 984.698 L398.078 989.617 L373.194 989.617 L373.194 984.698 Z" fill="#000000" fill-rule="nonzero" fill-opacity="1" /><path clip-path="url(#clip270)" d="M422.384 950.265 Q417.87 950.265 415.584 954.721 Q413.327 959.148 413.327 968.06 Q413.327 976.943 415.584 981.399 Q417.87 985.826 422.384 985.826 Q426.926 985.826 429.183 981.399 Q431.469 976.943 431.469 968.06 Q431.469 959.148 429.183 954.721 Q426.926 950.265 422.384 950.265 M422.384 945.635 Q429.646 945.635 433.466 951.393 Q437.314 957.123 437.314 968.06 Q437.314 978.969 433.466 984.727 Q429.646 990.456 422.384 990.456 Q415.121 990.456 411.273 984.727 Q407.453 978.969 407.453 968.06 Q407.453 957.123 411.273 951.393 Q415.121 945.635 422.384 945.635 Z" fill="#000000" fill-rule="nonzero" fill-opacity="1" /><path clip-path="url(#clip270)" d="M449.445 923.38 Q445.778 923.38 443.92 927.001 Q442.087 930.598 442.087 937.839 Q442.087 945.056 443.92 948.677 Q445.778 952.274 449.445 952.274 Q453.136 952.274 454.97 948.677 Q456.827 945.056 456.827 937.839 Q456.827 930.598 454.97 927.001 Q453.136 923.38 449.445 923.38 M449.445 919.619 Q455.346 919.619 458.449 924.297 Q461.576 928.952 461.576 937.839 Q461.576 946.702 458.449 951.38 Q455.346 956.035 449.445 956.035 Q443.544 956.035 440.417 951.38 Q437.314 946.702 437.314 937.839 Q437.314 928.952 440.417 924.297 Q443.544 919.619 449.445 919.619 Z" fill="#000000" fill-rule="nonzero" fill-opacity="1" /><path clip-path="url(#clip270)" d="M205.358 530.568 L214.907 530.568 L214.907 497.611 L204.519 499.694 L204.519 494.37 L214.849 492.287 L220.694 492.287 L220.694 530.568 L230.242 530.568 L230.242 535.487 L205.358 535.487 L205.358 530.568 Z" fill="#000000" fill-rule="nonzero" fill-opacity="1" /><path clip-path="url(#clip270)" d="M254.548 496.135 Q250.034 496.135 247.748 500.591 Q245.491 505.018 245.491 513.93 Q245.491 522.813 247.748 527.269 Q250.034 531.696 254.548 531.696 Q259.091 531.696 261.347 527.269 Q263.633 522.813 263.633 513.93 Q263.633 505.018 261.347 500.591 Q259.091 496.135 254.548 496.135 M254.548 491.505 Q261.81 491.505 265.63 497.264 Q269.478 502.993 269.478 513.93 Q269.478 524.839 265.63 530.597 Q261.81 536.326 254.548 536.326 Q247.285 536.326 243.437 530.597 Q239.617 524.839 239.617 513.93 Q239.617 502.993 243.437 497.264 Q247.285 491.505 254.548 491.505 Z" fill="#000000" fill-rule="nonzero" fill-opacity="1" /><path clip-path="url(#clip270)" d="M270.959 466.124 L289.603 466.124 L289.603 470.12 L275.309 470.12 L275.309 478.725 Q276.343 478.372 277.377 478.208 Q278.412 478.02 279.446 478.02 Q285.324 478.02 288.756 481.24 Q292.189 484.461 292.189 489.963 Q292.189 495.628 288.662 498.779 Q285.136 501.905 278.718 501.905 Q276.508 501.905 274.204 501.529 Q271.923 501.153 269.478 500.401 L269.478 495.628 Q271.594 496.78 273.851 497.345 Q276.108 497.909 278.623 497.909 Q282.691 497.909 285.065 495.769 Q287.44 493.63 287.44 489.963 Q287.44 486.295 285.065 484.156 Q282.691 482.016 278.623 482.016 Q276.719 482.016 274.815 482.439 Q272.934 482.863 270.959 483.756 L270.959 466.124 Z" fill="#000000" fill-rule="nonzero" fill-opacity="1" /><path clip-path="url(#clip270)" d="M301.545 495.252 L306.506 495.252 L306.506 501.224 L301.545 501.224 L301.545 495.252 Z" fill="#000000" fill-rule="nonzero" fill-opacity="1" /><path clip-path="url(#clip270)" d="M327.006 469.25 Q323.339 469.25 321.482 472.871 Q319.648 476.468 319.648 483.709 Q319.648 490.926 321.482 494.547 Q323.339 498.144 327.006 498.144 Q330.697 498.144 332.531 494.547 Q334.389 490.926 334.389 483.709 Q334.389 476.468 332.531 472.871 Q330.697 469.25 327.006 469.25 M327.006 465.489 Q332.907 465.489 336.011 470.167 Q339.137 474.822 339.137 483.709 Q339.137 492.572 336.011 497.251 Q332.907 501.905 327.006 501.905 Q321.106 501.905 317.979 497.251 Q314.875 492.572 314.875 483.709 Q314.875 474.822 317.979 470.167 Q321.106 465.489 327.006 465.489 Z" fill="#000000" fill-rule="nonzero" fill-opacity="1" /><path clip-path="url(#clip270)" d="M376.095 475.363 L365.351 486.154 L376.095 496.898 L373.297 499.743 L362.506 488.952 L351.715 499.743 L348.941 496.898 L359.661 486.154 L348.941 475.363 L351.715 472.518 L362.506 483.309 L373.297 472.518 L376.095 475.363 Z" fill="#000000" fill-rule="nonzero" fill-opacity="1" /><path clip-path="url(#clip270)" d="M388.649 497.227 L396.407 497.227 L396.407 470.449 L387.967 472.142 L387.967 467.816 L396.36 466.124 L401.109 466.124 L401.109 497.227 L408.867 497.227 L408.867 501.224 L388.649 501.224 L388.649 497.227 Z" fill="#000000" fill-rule="nonzero" fill-opacity="1" /><path clip-path="url(#clip270)" d="M428.615 469.25 Q424.948 469.25 423.091 472.871 Q421.257 476.468 421.257 483.709 Q421.257 490.926 423.091 494.547 Q424.948 498.144 428.615 498.144 Q432.306 498.144 434.14 494.547 Q435.997 490.926 435.997 483.709 Q435.997 476.468 434.14 472.871 Q432.306 469.25 428.615 469.25 M428.615 465.489 Q434.516 465.489 437.62 470.167 Q440.746 474.822 440.746 483.709 Q440.746 492.572 437.62 497.251 Q434.516 501.905 428.615 501.905 Q422.714 501.905 419.588 497.251 Q416.484 492.572 416.484 483.709 Q416.484 474.822 419.588 470.167 Q422.714 465.489 428.615 465.489 Z" fill="#000000" fill-rule="nonzero" fill-opacity="1" /><path clip-path="url(#clip270)" d="M457.344 469.603 Q456.169 467.581 453.794 467.581 Q451.42 467.581 450.244 469.603 Q449.045 471.625 449.045 475.669 Q449.045 479.736 450.244 481.758 Q451.42 483.779 453.794 483.779 Q456.169 483.779 457.344 481.758 Q458.543 479.736 458.543 475.669 Q458.543 471.625 457.344 469.603 M453.794 465.489 Q457.579 465.489 459.578 468.098 Q461.576 470.708 461.576 475.669 Q461.576 480.653 459.578 483.262 Q457.579 485.872 453.794 485.872 Q449.986 485.872 447.987 483.262 Q445.989 480.653 445.989 475.669 Q445.989 470.708 447.987 468.098 Q449.986 465.489 453.794 465.489 Z" fill="#000000" fill-rule="nonzero" fill-opacity="1" /><path clip-path="url(#clip270)" d="M157.471 1239.71 L154.705 1239.71 L154.705 1237.56 Q154.705 1232.68 153.914 1231.58 Q153.08 1230.44 150.445 1230.44 L103.058 1230.44 Q100.467 1230.44 99.6766 1231.58 Q98.8421 1232.73 98.8421 1237.56 L98.8421 1239.71 L96.0314 1239.71 L96.0314 1207.96 Q96.0314 1198.87 101.038 1192.81 Q106.045 1186.74 112.764 1186.74 Q119.439 1186.74 124.27 1192.94 Q129.057 1199.09 129.057 1207.25 L129.057 1222.45 L150.445 1222.45 Q153.036 1222.45 153.87 1221.35 Q154.705 1220.21 154.705 1215.33 L154.705 1213.18 L157.471 1213.18 Q157.208 1216.34 157.208 1226.49 Q157.208 1236.55 157.471 1239.71 M126.729 1222.71 L126.729 1210.33 Q126.729 1206.29 125.588 1203.35 Q124.446 1200.4 123.084 1199.09 Q121.679 1197.72 119.439 1196.98 Q117.156 1196.19 115.926 1196.1 Q114.652 1196.01 112.764 1196.01 Q110.788 1196.01 109.558 1196.1 Q108.284 1196.19 106.045 1196.98 Q103.761 1197.72 102.399 1199.09 Q100.994 1200.4 99.9401 1203.35 Q98.8421 1206.24 98.8421 1210.33 L98.8421 1218.32 Q98.8421 1221.4 99.457 1222.05 Q100.072 1222.71 102.443 1222.71 L126.729 1222.71 Z" fill="#000000" fill-rule="nonzero" fill-opacity="1" /><path clip-path="url(#clip270)" d="M152.641 1166.78 Q146.756 1172.71 138.236 1172.71 Q129.672 1172.71 123.436 1166.91 Q117.156 1161.07 117.156 1152.73 Q117.156 1144.56 123.392 1138.72 Q129.584 1132.83 138.236 1132.83 Q146.712 1132.83 152.597 1138.76 Q158.482 1144.65 158.482 1152.81 Q158.482 1160.81 152.641 1166.78 M137.489 1165.24 Q146.229 1165.24 150.181 1162.96 Q156.198 1159.45 156.198 1152.73 Q156.198 1149.39 154.397 1146.62 Q152.597 1143.81 149.566 1142.27 Q145.614 1140.3 137.489 1140.3 Q128.838 1140.3 125.017 1142.67 Q119.176 1146.18 119.176 1152.81 Q119.176 1155.71 120.713 1158.57 Q122.206 1161.38 125.192 1163.09 Q129.145 1165.24 137.489 1165.24 Z" fill="#000000" fill-rule="nonzero" fill-opacity="1" /><path clip-path="url(#clip270)" d="M121.503 1130.11 L118.693 1130.11 Q118.956 1125.23 118.956 1121.77 Q118.956 1120.05 118.693 1111.93 L121.503 1111.93 Q121.503 1117.24 123.919 1117.24 Q124.446 1117.24 125.544 1116.8 L149.566 1108.24 L127.783 1100.51 Q123.392 1102.13 122.865 1102.57 Q121.503 1103.67 121.503 1108.24 L118.693 1108.24 Q118.956 1104.2 118.956 1100.25 Q118.956 1098.71 118.693 1090.89 L121.503 1090.89 Q121.503 1096.21 123.919 1096.21 Q124.27 1096.21 125.632 1095.77 L150.708 1086.85 L127.696 1078.68 Q126.51 1078.24 125.807 1078.2 Q123.831 1078.2 122.733 1079.6 Q121.591 1081.01 121.503 1083.43 L118.693 1083.43 Q118.956 1078.29 118.956 1075.08 Q118.956 1071.48 118.693 1068.49 L121.503 1068.49 Q121.679 1074.07 127.256 1076.05 L156.769 1086.59 Q158.394 1087.6 158.482 1088.39 Q158.482 1089.57 156.769 1090.19 L131.209 1099.37 L156.681 1108.46 Q157.779 1108.81 158.13 1109.12 Q158.482 1109.42 158.482 1110.26 Q158.482 1111.05 157.998 1111.4 Q157.559 1111.75 156.461 1112.15 L124.621 1123.48 Q122.557 1124.27 122.03 1125.45 Q121.503 1126.6 121.503 1130.11 Z" fill="#000000" fill-rule="nonzero" fill-opacity="1" /><path clip-path="url(#clip270)" d="M137.665 1062.35 Q129.189 1062.35 123.172 1056.9 Q117.156 1051.46 117.156 1043.64 Q117.156 1035.73 122.294 1031.65 Q127.432 1027.52 134.81 1027.52 Q136.172 1027.52 136.435 1027.87 Q136.699 1028.23 136.699 1029.76 L136.699 1054.88 Q145.877 1054.88 150.181 1052.16 Q156.198 1048.38 156.198 1042.01 Q156.198 1041.14 156.022 1040.08 Q155.847 1039.03 155.1 1036.88 Q154.309 1034.72 152.245 1032.84 Q150.181 1030.95 146.931 1029.85 Q145.658 1029.59 145.702 1028.71 Q145.702 1027.52 146.756 1027.52 Q147.546 1027.52 149.347 1028.4 Q151.103 1029.24 153.211 1030.86 Q155.32 1032.48 156.901 1035.65 Q158.482 1038.77 158.482 1042.54 Q158.482 1050.45 152.509 1056.42 Q146.492 1062.35 137.665 1062.35 M134.81 1054.79 L134.81 1033.45 Q132.922 1033.45 130.814 1033.8 Q128.706 1034.11 125.807 1035.08 Q122.865 1036 121.02 1038.19 Q119.176 1040.39 119.176 1043.64 Q119.176 1045.09 119.791 1046.67 Q120.405 1048.21 121.899 1050.1 Q123.392 1051.98 126.773 1053.3 Q130.155 1054.62 134.81 1054.79 Z" fill="#000000" fill-rule="nonzero" fill-opacity="1" /><path clip-path="url(#clip270)" d="M157.471 1024.61 L154.705 1024.61 Q154.705 1019.82 154.134 1018.73 Q153.519 1017.58 150.62 1017.58 L126.51 1017.58 Q123.172 1017.58 122.338 1018.77 Q121.503 1019.91 121.503 1024.61 L118.693 1024.61 L117.726 1012.1 L127.608 1012.1 Q123.743 1010.82 120.757 1008.14 Q117.726 1005.42 117.726 1001.03 Q117.726 998.129 119.351 996.285 Q120.976 994.397 123.216 994.397 Q125.192 994.397 126.202 995.626 Q127.169 996.812 127.169 998.261 Q127.169 999.886 126.159 1001.03 Q125.105 1002.13 123.304 1002.13 Q122.206 1002.13 121.372 1001.64 Q120.493 1001.12 120.186 1000.72 Q119.878 1000.33 119.791 1000.06 Q119.703 1000.24 119.703 1001.03 Q119.703 1005.99 124.665 1008.85 Q129.584 1011.66 136.611 1011.66 L150.445 1011.66 Q153.036 1011.66 153.87 1010.6 Q154.705 1009.5 154.705 1004.8 L154.705 1002.92 L157.471 1002.92 Q157.208 1006.52 157.208 1014.33 Q157.208 1015.43 157.252 1017.15 Q157.296 1018.86 157.384 1021.1 Q157.471 1023.34 157.471 1024.61 Z" fill="#000000" fill-rule="nonzero" fill-opacity="1" /><path clip-path="url(#clip270)" d="M157.296 950.204 L139.29 950.204 Q138.28 950.204 137.928 950.16 Q137.577 950.116 137.314 949.853 Q137.05 949.589 137.05 949.062 Q137.05 948.052 137.972 947.964 Q146.887 947.701 151.806 942.387 Q156.681 937.161 156.681 928.202 Q156.681 922.8 152.816 919.462 Q148.908 916.124 143.813 916.124 Q138.938 916.124 135.513 918.935 Q133.976 920.121 133.01 921.614 Q132 923.063 131.692 923.985 Q131.385 924.864 130.946 926.577 Q128.267 937.732 127.959 938.434 Q126.159 943.748 121.635 946.998 Q117.068 950.204 111.49 950.204 Q104.288 950.204 99.1935 945.154 Q94.0552 940.059 94.0552 932.681 Q94.0552 928.992 95.2409 925.918 Q96.3828 922.8 97.4368 921.526 Q98.4908 920.253 100.379 918.276 L95.2409 915.158 Q94.0552 914.455 94.0552 913.797 Q94.0552 913.094 94.4943 912.962 Q94.8896 912.787 96.2071 912.787 L114.301 912.787 Q115.311 912.787 115.662 912.831 Q116.014 912.874 116.233 913.182 Q116.453 913.445 116.453 913.972 Q116.453 914.851 115.399 915.07 Q96.6024 917.574 96.6024 932.593 Q96.6024 937.732 100.072 941.113 Q103.497 944.451 108.372 944.451 Q112.325 944.451 115.575 941.991 Q118.78 939.532 119.791 935.36 L122.557 923.854 Q123.919 918.101 129.013 914.236 Q134.108 910.371 140.739 910.371 Q148.381 910.371 153.914 915.378 Q159.448 920.34 159.448 928.114 Q159.448 933.691 157.603 937.995 Q155.759 942.299 153.168 944.626 Q156.154 946.427 157.823 947.613 L158.262 947.876 Q159.448 948.579 159.448 949.238 Q159.448 949.94 159.009 950.072 Q158.569 950.204 157.296 950.204 Z" fill="#000000" fill-rule="nonzero" fill-opacity="1" /><path clip-path="url(#clip270)" d="M172.14 904.033 Q172.14 899.246 171.525 898.149 Q170.954 897.007 168.099 897.007 L125.983 897.007 Q122.997 897.007 122.25 898.149 Q121.503 899.246 121.503 904.033 L118.693 904.033 L117.726 891.078 L123.655 891.078 Q117.726 885.676 117.726 878.474 Q117.726 870.832 123.655 865.255 Q129.584 859.677 138.06 859.677 Q146.624 859.677 152.553 865.606 Q158.482 871.535 158.482 879.747 Q158.482 884.227 156.198 887.257 Q153.87 890.243 152.157 890.814 L152.992 890.814 L168.099 890.814 Q170.998 890.814 171.569 889.673 Q172.14 888.531 172.14 883.788 L174.907 883.788 Q174.643 893.23 174.643 893.933 Q174.643 894.811 174.907 904.033 L172.14 904.033 M147.239 890.814 Q148.6 890.814 149.083 890.639 Q149.566 890.419 151.016 889.541 Q156.461 885.984 156.461 880.186 Q156.461 880.143 156.461 880.099 Q156.461 874.96 151.235 871.052 Q145.965 867.143 138.06 867.143 Q130.506 867.143 125.236 870.7 Q119.966 874.258 119.966 879.176 Q119.966 882.69 121.855 885.764 Q123.743 888.838 127.169 890.814 L147.239 890.814 Z" fill="#000000" fill-rule="nonzero" fill-opacity="1" /><path clip-path="url(#clip270)" d="M137.665 847.423 Q129.189 847.423 123.172 841.977 Q117.156 836.531 117.156 828.714 Q117.156 820.809 122.294 816.725 Q127.432 812.597 134.81 812.597 Q136.172 812.597 136.435 812.948 Q136.699 813.299 136.699 814.836 L136.699 839.957 Q145.877 839.957 150.181 837.234 Q156.198 833.457 156.198 827.089 Q156.198 826.211 156.022 825.157 Q155.847 824.103 155.1 821.951 Q154.309 819.799 152.245 817.911 Q150.181 816.022 146.931 814.924 Q145.658 814.661 145.702 813.782 Q145.702 812.597 146.756 812.597 Q147.546 812.597 149.347 813.475 Q151.103 814.309 153.211 815.934 Q155.32 817.559 156.901 820.721 Q158.482 823.839 158.482 827.616 Q158.482 835.521 152.509 841.494 Q146.492 847.423 137.665 847.423 M134.81 839.869 L134.81 818.525 Q132.922 818.525 130.814 818.877 Q128.706 819.184 125.807 820.15 Q122.865 821.073 121.02 823.269 Q119.176 825.464 119.176 828.714 Q119.176 830.164 119.791 831.745 Q120.405 833.282 121.899 835.17 Q123.392 837.058 126.773 838.376 Q130.155 839.694 134.81 839.869 Z" fill="#000000" fill-rule="nonzero" fill-opacity="1" /><path clip-path="url(#clip270)" d="M152.553 802.177 Q146.58 807.886 138.06 807.886 Q129.496 807.886 123.348 802.264 Q117.156 796.643 117.156 788.387 Q117.156 782.897 119.791 778.769 Q122.382 774.641 126.817 774.641 Q128.794 774.641 129.935 775.826 Q131.033 776.968 131.033 778.769 Q131.033 780.657 129.892 781.799 Q128.706 782.897 126.905 782.897 Q126.115 782.897 125.324 782.633 Q124.534 782.37 123.699 781.404 Q122.865 780.394 122.733 778.681 Q119.439 781.887 119.439 788.123 Q119.439 788.211 119.439 788.299 Q119.439 792.866 123.743 796.643 Q128.047 800.42 137.884 800.42 Q143.023 800.42 146.8 799.19 Q150.533 797.917 152.465 795.853 Q154.397 793.788 155.32 791.768 Q156.198 789.748 156.198 787.772 Q156.198 778.944 146.756 775.958 Q145.877 775.695 145.877 774.816 Q145.877 773.63 146.756 773.63 Q147.195 773.63 148.337 773.982 Q149.479 774.333 151.279 775.431 Q153.08 776.529 154.661 778.11 Q156.198 779.647 157.34 782.414 Q158.482 785.137 158.482 788.562 Q158.482 796.467 152.553 802.177 Z" fill="#000000" fill-rule="nonzero" fill-opacity="1" /><path clip-path="url(#clip270)" d="M121.503 770.509 L119.527 770.509 Q119.351 766.38 116.453 763.658 Q113.51 760.891 109.909 759.969 Q106.308 759.002 102.136 758.915 L102.136 756.675 L118.693 756.675 L118.693 743.807 L121.503 743.807 L121.503 756.675 L146.492 756.675 Q156.198 756.675 156.198 750.614 Q156.198 748.023 153.563 746.31 Q150.884 744.598 146.141 744.598 L141.178 744.598 L141.178 742.358 L146.317 742.358 Q151.191 742.358 154.836 744.598 Q158.482 746.837 158.482 751.273 Q158.482 752.898 158.042 754.523 Q157.647 756.104 156.593 758.212 Q155.495 760.276 152.86 761.594 Q150.181 762.867 146.317 762.867 L121.503 762.867 L121.503 770.509 Z" fill="#000000" fill-rule="nonzero" fill-opacity="1" /><path clip-path="url(#clip270)" d="M157.471 737.054 L154.705 737.054 Q154.705 732.267 154.134 731.169 Q153.519 730.027 150.62 730.027 L126.51 730.027 Q123.172 730.027 122.338 731.213 Q121.503 732.354 121.503 737.054 L118.693 737.054 L117.726 724.537 L127.608 724.537 Q123.743 723.264 120.757 720.585 Q117.726 717.862 117.726 713.47 Q117.726 710.572 119.351 708.727 Q120.976 706.839 123.216 706.839 Q125.192 706.839 126.202 708.068 Q127.169 709.254 127.169 710.703 Q127.169 712.328 126.159 713.47 Q125.105 714.568 123.304 714.568 Q122.206 714.568 121.372 714.085 Q120.493 713.558 120.186 713.163 Q119.878 712.767 119.791 712.504 Q119.703 712.68 119.703 713.47 Q119.703 718.433 124.665 721.287 Q129.584 724.098 136.611 724.098 L150.445 724.098 Q153.036 724.098 153.87 723.044 Q154.705 721.946 154.705 717.247 L154.705 715.358 L157.471 715.358 Q157.208 718.96 157.208 726.777 Q157.208 727.875 157.252 729.588 Q157.296 731.3 157.384 733.54 Q157.471 735.78 157.471 737.054 Z" fill="#000000" fill-rule="nonzero" fill-opacity="1" /><path clip-path="url(#clip270)" d="M121.503 698.127 L118.693 698.127 L117.726 684.908 L147.59 684.908 Q149.742 684.908 151.016 684.733 Q152.245 684.557 153.695 683.854 Q155.144 683.108 155.803 681.439 Q156.461 679.726 156.461 677.003 Q156.461 672.128 152.465 669.142 Q148.468 666.112 142.54 666.112 L126.51 666.112 Q123.172 666.112 122.338 667.298 Q121.503 668.483 121.503 673.139 L118.693 673.139 L117.726 659.92 L149.654 659.92 Q152.992 659.92 153.87 658.778 Q154.705 657.592 154.705 652.893 L157.471 652.893 L158.482 665.848 L150.357 665.848 Q158.438 669.625 158.482 677.442 Q158.482 681.395 157.471 684.118 Q156.461 686.797 155.232 688.158 Q153.958 689.52 151.543 690.266 Q149.127 690.969 147.634 691.057 Q146.141 691.145 143.242 691.145 L129.76 691.145 Q123.655 691.145 122.601 692.023 Q121.503 692.901 121.503 698.127 Z" fill="#000000" fill-rule="nonzero" fill-opacity="1" /><path clip-path="url(#clip270)" d="M157.471 649.797 L154.705 649.797 Q154.705 645.01 154.134 643.912 Q153.519 642.814 150.62 642.814 L126.51 642.814 Q123.172 642.814 122.338 644 Q121.503 645.142 121.503 649.797 L118.693 649.797 L117.726 637.149 L127.169 637.149 Q117.726 632.933 117.726 623.842 Q117.726 613.302 126.51 611.853 Q123.084 610.315 120.405 607.109 Q117.726 603.86 117.726 598.809 Q117.726 592.046 121.064 589.367 Q123.304 587.391 125.807 586.995 Q128.311 586.6 134.81 586.6 L151.982 586.6 Q153.87 586.512 154.309 585.063 Q154.705 583.614 154.705 579.573 L157.471 579.573 Q157.208 588.752 157.208 589.63 Q157.208 590.333 157.471 599.819 L154.705 599.819 Q154.705 595.032 154.134 593.934 Q153.519 592.792 150.62 592.792 L129.672 592.792 Q125.105 592.792 122.426 594.198 Q119.703 595.603 119.703 599.468 Q119.703 604.123 123.611 607.856 Q127.52 611.589 134.108 611.589 L150.62 611.589 Q153.519 611.589 154.134 610.491 Q154.705 609.349 154.705 604.562 L157.471 604.562 Q157.208 613.741 157.208 614.663 Q157.208 615.366 157.471 624.808 L154.705 624.808 Q154.705 620.021 154.134 618.923 Q153.519 617.781 150.62 617.781 L129.672 617.781 Q125.105 617.781 122.426 619.187 Q119.703 620.592 119.703 624.457 Q119.703 629.112 123.611 632.845 Q127.52 636.578 134.108 636.578 L150.62 636.578 Q153.519 636.578 154.134 635.48 Q154.705 634.338 154.705 629.595 L157.471 629.595 Q157.208 638.774 157.208 639.652 Q157.208 640.355 157.471 649.797 Z" fill="#000000" fill-rule="nonzero" fill-opacity="1" /><path clip-path="url(#clip270)" d="M134.986 551.871 Q119.791 551.871 107.538 546.206 Q102.399 543.79 98.0955 540.409 Q93.7917 537.027 91.9032 534.787 Q90.0148 532.548 90.0148 531.933 Q90.0148 531.055 90.8931 531.011 Q91.3323 531.011 92.4302 532.196 Q107.186 546.689 134.986 546.645 Q162.873 546.645 177.058 532.548 Q178.596 531.011 179.079 531.011 Q179.957 531.011 179.957 531.933 Q179.957 532.548 178.156 534.7 Q176.356 536.852 172.228 540.189 Q168.099 543.527 163.049 545.942 Q150.796 551.871 134.986 551.871 Z" fill="#000000" fill-rule="nonzero" fill-opacity="1" /><path clip-path="url(#clip270)" d="M97.1294 453.217 Q98.7543 453.305 98.8421 454.403 Q98.93 456.072 99.1496 457.082 Q99.3252 458.092 99.984 459.673 Q100.643 461.254 102.224 462.791 Q103.805 464.328 106.308 465.909 L157.823 498.276 Q158.789 498.847 159.096 499.33 Q159.448 499.769 159.448 500.779 Q159.448 501.702 159.052 502.053 Q158.701 502.404 157.384 502.58 L101.872 509.694 Q100.862 509.826 100.423 509.958 Q99.984 510.09 99.5448 510.617 Q99.1056 511.1 98.9739 512.154 Q98.8421 513.208 98.8421 515.096 Q98.8421 515.975 98.7982 516.37 Q98.7543 516.721 98.5347 517.029 Q98.2712 517.336 97.7442 517.336 Q96.9537 517.336 96.5584 517.029 Q96.1193 516.677 96.0754 516.414 Q96.0314 516.106 96.0314 515.623 Q96.0314 514.877 96.1193 513.252 Q96.2071 511.627 96.2071 510.792 Q96.2071 510.002 96.251 508.333 Q96.2949 506.664 96.2949 505.83 Q96.2949 503.985 96.1632 500.252 Q96.0314 496.475 96.0314 494.675 Q96.0314 493.445 97.0415 493.445 Q98.2712 493.445 98.5786 493.972 Q98.8421 494.499 98.8421 495.685 Q98.8421 498.671 99.5887 500.296 Q100.335 501.877 101.521 501.877 L149.127 495.773 L105.21 468.149 Q103.146 466.787 101.785 466.787 Q99.1496 466.787 98.8421 470.96 Q98.8421 472.365 97.7442 472.365 Q96.9537 472.365 96.5584 472.014 Q96.1193 471.662 96.0754 471.399 Q96.0314 471.091 96.0314 470.652 Q96.0314 469.203 96.1632 466.26 Q96.2949 463.274 96.2949 461.781 Q96.2949 460.551 96.1632 458.048 Q96.0314 455.545 96.0314 454.403 Q96.0314 453.217 97.1294 453.217 Z" fill="#000000" fill-rule="nonzero" fill-opacity="1" /><path clip-path="url(#clip270)" d="M109.087 444.236 Q107.949 444.236 107.611 444.144 Q107.273 444.021 106.75 443.529 L93.2852 431.447 Q85.8457 424.838 79.3591 424.838 Q75.1475 424.838 72.1348 427.051 Q69.1221 429.234 69.1221 433.261 Q69.1221 436.028 70.8129 438.364 Q72.5037 440.701 75.5164 441.777 Q75.4549 441.592 75.4549 440.947 Q75.4549 439.379 76.4386 438.518 Q77.4224 437.627 78.7443 437.627 Q80.4351 437.627 81.2651 438.733 Q82.0644 439.809 82.0644 440.885 Q82.0644 441.316 81.9722 441.9 Q81.88 442.453 81.0192 443.345 Q80.1277 444.236 78.5598 444.236 Q74.1637 444.236 70.6592 440.916 Q67.1546 437.565 67.1546 432.462 Q67.1546 426.682 70.5977 422.901 Q74.01 419.089 79.3591 419.089 Q81.2344 419.089 82.9559 419.673 Q84.6467 420.227 85.9686 420.995 Q87.2906 421.733 89.4117 423.762 Q91.5329 425.791 93.0393 427.42 Q94.5457 429.05 97.7428 432.708 L104.229 439.379 L104.229 428.035 Q104.229 422.501 103.738 422.071 Q102.846 421.456 98.1425 420.688 L98.1425 419.089 L109.087 420.872 L109.087 444.236 Z" fill="#000000" fill-rule="nonzero" fill-opacity="1" /><path clip-path="url(#clip270)" d="M179.079 409.731 Q178.639 409.731 177.542 408.589 Q162.785 394.097 134.986 394.097 Q107.099 394.097 93.0012 408.019 Q91.3762 409.731 90.8931 409.731 Q90.0148 409.731 90.0148 408.853 Q90.0148 408.238 91.8154 406.086 Q93.616 403.89 97.7442 400.597 Q101.872 397.259 106.923 394.8 Q119.176 388.871 134.986 388.871 Q150.181 388.871 162.434 394.536 Q167.572 396.951 171.876 400.333 Q176.18 403.715 178.069 405.954 Q179.957 408.194 179.957 408.853 Q179.957 409.731 179.079 409.731 Z" fill="#000000" fill-rule="nonzero" fill-opacity="1" /><polyline clip-path="url(#clip272)" style="stroke:#009af9; stroke-linecap:round; stroke-linejoin:round; stroke-width:4; stroke-opacity:1; fill:none" points="548.298,550.669 549.419,816.422 550.539,814.952 551.66,876.536 552.78,855.252 553.901,800.905 555.021,846.845 556.141,802.595 557.262,840.082 558.382,816.926 559.503,822.369 560.623,809.784 561.744,821.499 562.864,807.306 563.985,842.606 565.105,830.999 566.225,810.481 567.346,789.173 568.466,843.794 569.587,823.14 570.707,847.048 571.828,845.071 572.948,818.609 574.068,853.929 575.189,839.439 576.309,806.725 577.43,804.472 578.55,823.716 579.671,858.299 580.791,831.071 581.912,803.317 583.032,827.368 584.152,805.256 585.273,816.918 586.393,833.606 587.514,825.812 588.634,805.596 589.755,796.218 590.875,823.38 591.995,811.038 593.116,822.679 594.236,831.985 595.357,815.969 596.477,807.538 597.598,896.097 598.718,843.593 599.839,822.754 600.959,820.407 602.079,825.477 603.2,818.74 604.32,815.856 605.441,855.589 606.561,847.627 607.682,826.105 608.802,803.365 609.923,826.844 611.043,773.406 612.163,821.882 613.284,845.126 614.404,843.337 615.525,819.318 616.645,831.108 617.766,849.256 618.886,811.028 620.006,811.253 621.127,826.908 622.247,817.375 623.368,809.341 624.488,892.297 625.609,836.003 626.729,843.676 627.85,806.793 628.97,811.987 630.09,797.783 631.211,808.941 632.331,855.779 633.452,822.081 634.572,848.112 635.693,824.679 636.813,810.177 637.934,799.656 639.054,815.423 640.174,845.187 641.295,894.414 642.415,777.942 643.536,870.714 644.656,802.053 645.777,778.154 646.897,799.394 648.017,806.729 649.138,755.277 650.258,727.455 651.379,755.28 652.499,730.374 653.62,783.789 654.74,840.342 655.861,834.383 656.981,789.9 658.101,763.422 659.222,791.416 660.342,784.932 661.463,770.386 662.583,777.541 663.704,820.521 664.824,782.209 665.944,802.968 667.065,838.368 668.185,824.24 669.306,791.701 670.426,801.733 671.547,799.179 672.667,795.82 673.788,826.366 674.908,806.252 676.028,835.029 677.149,811.554 678.269,792.986 679.39,815.508 680.51,821.998 681.631,826.056 682.751,816.429 683.872,805.959 684.992,817.583 686.112,794.878 687.233,803.528 688.353,798.62 689.474,801.91 690.594,800.745 691.715,814.167 692.835,792.66 693.955,801.762 695.076,852.808 696.196,796.113 697.317,820.584 698.437,800.414 699.558,803.65 700.678,779.355 701.799,808.033 702.919,828.905 704.039,803.465 705.16,835.356 706.28,807.676 707.401,821.145 708.521,811.945 709.642,819.255 710.762,792.234 711.883,800.357 713.003,790.288 714.123,808.17 715.244,809.809 716.364,822.753 717.485,800.667 718.605,791.855 719.726,808.289 720.846,803.389 721.966,804.527 723.087,820.767 724.207,822.22 725.328,804.767 726.448,794.083 727.569,798.771 728.689,791.946 729.81,789.195 730.93,819.41 732.05,781.935 733.171,785.747 734.291,786.093 735.412,810.969 736.532,775.616 737.653,803.16 738.773,804.482 739.893,802.823 741.014,823.323 742.134,798.163 743.255,801.55 744.375,787.159 745.496,790.418 746.616,792.562 747.737,811.272 748.857,824.752 749.977,796.008 751.098,842.494 752.218,816.246 753.339,810.374 754.459,805.022 755.58,788.184 756.7,781.213 757.821,805.034 758.941,779.541 760.061,792.702 761.182,794.091 762.302,765.35 763.423,779.594 764.543,813.13 765.664,784.694 766.784,823.087 767.904,788.835 769.025,778.928 770.145,806.215 771.266,758.748 772.386,786.995 773.507,771.7 774.627,793.724 775.748,766.445 776.868,788.176 777.988,763.152 779.109,788.642 780.229,781.737 781.35,785.067 782.47,788.965 783.591,773.689 784.711,795.027 785.832,780.013 786.952,775.058 788.072,785.923 789.193,785.719 790.313,777.105 791.434,786.741 792.554,789.078 793.675,778.403 794.795,795.668 795.915,772.358 797.036,760.537 798.156,785.167 799.277,758.238 800.397,779.744 801.518,776.147 802.638,752.226 803.759,779.724 804.879,756.014 805.999,766.422 807.12,775.586 808.24,749.403 809.361,757.107 810.481,755.294 811.602,757.473 812.722,765.789 813.842,754.476 814.963,768.494 816.083,768.422 817.204,745.917 818.324,747.987 819.445,780.706 820.565,752.371 821.686,743.674 822.806,748.128 823.926,766.272 825.047,751.047 826.167,746.213 827.288,754.682 828.408,753.39 829.529,751.369 830.649,749.558 831.77,742.586 832.89,755.045 834.01,738.555 835.131,754.908 836.251,747.797 837.372,750.868 838.492,739.004 839.613,743.772 840.733,731.6 841.853,725.77 842.974,727.66 844.094,723.09 845.215,728.805 846.335,722.239 847.456,734.643 848.576,711.87 849.697,722.346 850.817,723.115 851.937,717.751 853.058,714.87 854.178,717.574 855.299,706.954 856.419,711.836 857.54,706.244 858.66,696.482 859.781,710.623 860.901,702.474 862.021,694.511 863.142,699.069 864.262,690.87 865.383,698.703 866.503,687.874 867.624,693.7 868.744,690.208 869.864,685.278 870.985,675.994 872.105,674.739 873.226,674.258 874.346,668.096 875.467,667.387 876.587,662.099 877.708,660.564 878.828,654.414 879.948,649.779 881.069,645.868 882.189,641.909 883.31,636.578 884.43,627.845 885.551,622.124 886.671,614.509 887.792,608.106 888.912,600.051 890.032,593.353 891.153,583.285 892.273,572.674 893.394,561.538 894.514,552.93 895.635,485.024 896.755,310.457 897.875,366.209 898.996,430.621 900.116,473.979 901.237,505.135 902.357,528.062 903.478,546.324 904.598,562.674 905.719,576.96 906.839,584.873 907.959,597.837 909.08,605.767 910.2,614.069 911.321,619.921 912.441,631.159 913.562,634.795 914.682,641.301 915.802,650.296 916.923,653 918.043,656.724 919.164,660.042 920.284,664.339 921.405,669.18 922.525,668.132 923.646,669.527 924.766,678.202 925.886,681.461 927.007,682.857 928.127,686.815 929.248,696.214 930.368,692.249 931.489,705.102 932.609,696.532 933.73,696.52 934.85,705.825 935.97,706.712 937.091,708.701 938.211,713.102 939.332,714.78 940.452,718.087 941.573,723.627 942.693,728.963 943.813,736.086 944.934,721.85 946.054,744.256 947.175,726.254 948.295,728.43 949.416,735.043 950.536,735.23 951.657,739.929 952.777,747.895 953.897,759.435 955.018,743.054 956.138,745.397 957.259,748.036 958.379,753.224 959.5,741.401 960.62,756.397 961.741,741.067 962.861,768.02 963.981,755.838 965.102,767.149 966.222,761.587 967.343,768.288 968.463,754.757 969.584,755.665 970.704,757.665 971.824,768.869 972.945,774.467 974.065,776.258 975.186,774.707 976.306,778.905 977.427,762.553 978.547,755.973 979.668,755.305 980.788,782.662 981.908,778.444 983.029,785.808 984.149,791.533 985.27,763.728 986.39,800.701 987.511,771.046 988.631,785.054 989.751,782.807 990.872,779.154 991.992,779.405 993.113,792.134 994.233,783.023 995.354,777.306 996.474,809.972 997.595,813.609 998.715,777.827 999.835,796.856 1000.96,785.568 1002.08,787.502 1003.2,829.193 1004.32,784.895 1005.44,779.424 1006.56,807.565 1007.68,802.462 1008.8,833.614 1009.92,783.619 1011.04,804.584 1012.16,813.271 1013.28,802.196 1014.4,809.037 1015.52,804.719 1016.64,791.872 1017.76,775.2 1018.88,783.787 1020,793.917 1021.12,790.593 1022.24,813.896 1023.36,817.478 1024.49,777.4 1025.61,816.515 1026.73,830.347 1027.85,822.087 1028.97,813.004 1030.09,816.015 1031.21,856.247 1032.33,809.322 1033.45,831.594 1034.57,799.436 1035.69,812.694 1036.81,833.227 1037.93,855.209 1039.05,879.74 1040.17,814.952 1041.29,815.695 1042.41,842.595 1043.53,873.243 1044.65,821.774 1045.77,877.91 1046.89,829.995 1048.01,818.877 1049.13,815.844 1050.26,825.213 1051.38,833.264 1052.5,801.636 1053.62,806.967 1054.74,804.375 1055.86,789.859 1056.98,798.76 1058.1,864.16 1059.22,812.037 1060.34,843.914 1061.46,832.203 1062.58,827.85 1063.7,842.698 1064.82,887.182 1065.94,836.226 1067.06,820.811 1068.18,817.739 1069.3,836.199 1070.42,835.546 1071.54,846.49 1072.66,815.165 1073.78,922.524 1074.9,841.412 1076.03,881.313 1077.15,864.814 1078.27,851.846 1079.39,841.456 1080.51,813.62 1081.63,856.628 1082.75,856.723 1083.87,895.878 1084.99,837.499 1086.11,835.586 1087.23,847.813 1088.35,842.369 1089.47,824.379 1090.59,812.873 1091.71,826.302 1092.83,832.957 1093.95,844.393 1095.07,827.751 1096.19,868.805 1097.31,871.778 1098.43,818.37 1099.55,904.014 1100.67,835.466 1101.8,841.004 1102.92,855.723 1104.04,889.692 1105.16,848.743 1106.28,872.776 1107.4,843.909 1108.52,816.897 1109.64,827.346 1110.76,845.874 1111.88,822.225 1113,869.382 1114.12,880.054 1115.24,903.398 1116.36,881.974 1117.48,833.592 1118.6,866.456 1119.72,827.395 1120.84,849.472 1121.96,844.524 1123.08,843.63 1124.2,837.029 1125.32,847.344 1126.45,869.506 1127.57,859.908 1128.69,864.359 1129.81,854.246 1130.93,880.551 1132.05,810.931 1133.17,824.545 1134.29,849.432 1135.41,861.8 1136.53,837.18 1137.65,844.147 1138.77,861.006 1139.89,853.82 1141.01,845.435 1142.13,856.655 1143.25,903.435 1144.37,834.4 1145.49,856.574 1146.61,831.459 1147.73,835.155 1148.85,884.68 1149.97,863.147 1151.09,877.434 1152.22,883.419 1153.34,853.482 1154.46,889.919 1155.58,906.282 1156.7,870.096 1157.82,865.403 1158.94,942.185 1160.06,849.862 1161.18,870.157 1162.3,825.489 1163.42,813.509 1164.54,893.857 1165.66,833.743 1166.78,842.989 1167.9,921.13 1169.02,861.473 1170.14,818.802 1171.26,810.943 1172.38,833.42 1173.5,849.904 1174.62,833.864 1175.74,813.194 1176.86,855.316 1177.99,842.419 1179.11,826.956 1180.23,839.751 1181.35,879.279 1182.47,800.755 1183.59,833.175 1184.71,848.225 1185.83,854.839 1186.95,831.968 1188.07,830.088 1189.19,841.608 1190.31,849.435 1191.43,858.764 1192.55,814.29 1193.67,792.353 1194.79,810.437 1195.91,901.706 1197.03,834.316 1198.15,838.508 1199.27,819.844 1200.39,810.162 1201.51,836.261 1202.63,805.902 1203.76,791.679 1204.88,790.575 1206,800.536 1207.12,806.244 1208.24,794.624 1209.36,784.433 1210.48,779.092 1211.6,778.092 1212.72,780.986 1213.84,773.404 1214.96,778.549 1216.08,772.961 1217.2,761.595 1218.32,778.639 1219.44,772.021 1220.56,752.655 1221.68,748.448 1222.8,775.804 1223.92,744.542 1225.04,743.882 1226.16,739.394 1227.28,734.225 1228.41,748.036 1229.53,722.908 1230.65,720.778 1231.77,713.653 1232.89,708.259 1234.01,709.545 1235.13,695.11 1236.25,690.444 1237.37,683.763 1238.49,672.548 1239.61,653.984 1240.73,639.521 1241.85,611.517 1242.97,546.729 1244.09,447.682 1245.21,385.177 1246.33,415.703 1247.45,475.372 1248.57,524.268 1249.69,560.193 1250.81,586.628 1251.93,607.913 1253.05,622.94 1254.18,636.987 1255.3,651.703 1256.42,660.914 1257.54,668.386 1258.66,680.133 1259.78,686.076 1260.9,685.761 1262.02,703.233 1263.14,701.754 1264.26,709.206 1265.38,716.986 1266.5,715.063 1267.62,721.03 1268.74,723.835 1269.86,725.133 1270.98,736.861 1272.1,734.52 1273.22,734.003 1274.34,742.574 1275.46,745.762 1276.58,746.841 1277.7,750.042 1278.82,751.677 1279.95,767.802 1281.07,759.995 1282.19,759.976 1283.31,758.297 1284.43,777.413 1285.55,758.381 1286.67,761.298 1287.79,778.793 1288.91,774.457 1290.03,779.762 1291.15,758.004 1292.27,775.011 1293.39,780.317 1294.51,798.961 1295.63,790.346 1296.75,782.583 1297.87,781.905 1298.99,786.914 1300.11,783.952 1301.23,787.294 1302.35,808.813 1303.47,784.562 1304.59,792.402 1305.72,792.042 1306.84,798.489 1307.96,806.222 1309.08,810.136 1310.2,775.95 1311.32,784.186 1312.44,811.967 1313.56,781.741 1314.68,818.591 1315.8,771.692 1316.92,795.883 1318.04,795.075 1319.16,783.227 1320.28,815.694 1321.4,801.396 1322.52,792.505 1323.64,801.884 1324.76,804.966 1325.88,799.915 1327,821.085 1328.12,825.924 1329.24,811.382 1330.37,811.569 1331.49,799.542 1332.61,789.33 1333.73,831.044 1334.85,787.182 1335.97,812.088 1337.09,837.628 1338.21,816.136 1339.33,804.885 1340.45,799.686 1341.57,800.272 1342.69,816.176 1343.81,802.573 1344.93,831.696 1346.05,822.771 1347.17,782.669 1348.29,794.026 1349.41,820.693 1350.53,811.942 1351.65,806.241 1352.77,811.259 1353.89,809.177 1355.01,797.782 1356.14,849.51 1357.26,847.171 1358.38,837.822 1359.5,822.297 1360.62,786.479 1361.74,809.026 1362.86,812.699 1363.98,812.069 1365.1,875.242 1366.22,830.52 1367.34,838.85 1368.46,834.651 1369.58,866.133 1370.7,818.417 1371.82,850.723 1372.94,817.342 1374.06,810.807 1375.18,808.135 1376.3,839.284 1377.42,843.572 1378.54,811.758 1379.66,821.447 1380.78,833.733 1381.91,845.161 1383.03,818.478 1384.15,869.614 1385.27,790.361 1386.39,821.382 1387.51,852.616 1388.63,804.978 1389.75,839.899 1390.87,835.669 1391.99,851.86 1393.11,820.574 1394.23,824.525 1395.35,809.93 1396.47,847.939 1397.59,803.659 1398.71,845.525 1399.83,840.61 1400.95,870.494 1402.07,843.607 1403.19,824.25 1404.31,818.035 1405.43,820.514 1406.55,817.288 1407.68,886.125 1408.8,818.394 1409.92,860.113 1411.04,860.493 1412.16,836.809 1413.28,814.956 1414.4,853.064 1415.52,799.144 1416.64,821.01 1417.76,859.012 1418.88,845.996 1420,861.419 1421.12,843.219 1422.24,809.391 1423.36,880.687 1424.48,824.266 1425.6,838.713 1426.72,820.984 1427.84,816.776 1428.96,797.351 1430.08,839.843 1431.2,812.951 1432.33,820.768 1433.45,819.988 1434.57,849.668 1435.69,841.437 1436.81,859.495 1437.93,819.072 1439.05,816.977 1440.17,846.689 1441.29,834.984 1442.41,811.051 1443.53,800.703 1444.65,832.637 1445.77,822.133 1446.89,792.788 1448.01,811.567 1449.13,822.135 1450.25,859.587 1451.37,795.955 1452.49,824.515 1453.61,865.166 1454.73,787.125 1455.85,824.015 1456.97,824.03 1458.1,786.814 1459.22,831.944 1460.34,814.427 1461.46,841.504 1462.58,866.04 1463.7,813.993 1464.82,797.412 1465.94,832.477 1467.06,843.198 1468.18,820.938 1469.3,803.968 1470.42,803.523 1471.54,808.133 1472.66,811.717 1473.78,791.288 1474.9,823.814 1476.02,806.365 1477.14,806.453 1478.26,825.471 1479.38,810.145 1480.5,806.033 1481.62,818.601 1482.74,783.895 1483.87,812.942 1484.99,810.482 1486.11,790.902 1487.23,824.311 1488.35,811.473 1489.47,822.173 1490.59,814.368 1491.71,785.474 1492.83,808.837 1493.95,794.95 1495.07,806.49 1496.19,820.554 1497.31,844.204 1498.43,797.253 1499.55,797.817 1500.67,812.837 1501.79,802.225 1502.91,792.023 1504.03,773.898 1505.15,795.806 1506.27,768.9 1507.39,798.149 1508.51,813.747 1509.64,808.949 1510.76,809.208 1511.88,790.162 1513,792.317 1514.12,777.653 1515.24,803.669 1516.36,781.337 1517.48,786.54 1518.6,771.239 1519.72,787.696 1520.84,793.122 1521.96,785.217 1523.08,767.905 1524.2,769.722 1525.32,778.674 1526.44,768.904 1527.56,793.449 1528.68,773.445 1529.8,773.847 1530.92,779.145 1532.04,759.585 1533.16,762.639 1534.29,785.325 1535.41,768.423 1536.53,757.074 1537.65,770.276 1538.77,772.494 1539.89,766.628 1541.01,760.785 1542.13,763.638 1543.25,755.511 1544.37,743.964 1545.49,757.438 1546.61,771.682 1547.73,753.165 1548.85,757.346 1549.97,741.702 1551.09,745.128 1552.21,751.818 1553.33,739.34 1554.45,754.632 1555.57,745.541 1556.69,745.91 1557.81,742.834 1558.93,744.803 1560.06,739.783 1561.18,722.025 1562.3,734.639 1563.42,725.142 1564.54,728.958 1565.66,725.378 1566.78,718.814 1567.9,716.417 1569.02,713.51 1570.14,707.232 1571.26,712.353 1572.38,705.197 1573.5,691.34 1574.62,696.024 1575.74,687.546 1576.86,684.875 1577.98,685.628 1579.1,679.144 1580.22,668.286 1581.34,669.521 1582.46,656.037 1583.58,651.781 1584.7,645.804 1585.83,635.556 1586.95,629.4 1588.07,613.984 1589.19,598.284 1590.31,577.306 1591.43,513.101 1592.55,448.236 1593.67,414.108 1594.79,416.684 1595.91,443.772 1597.03,475.049 1598.15,505.551 1599.27,532.443 1600.39,554.269 1601.51,572.637 1602.63,590.086 1603.75,602.691 1604.87,614.539 1605.99,623.894 1607.11,633.156 1608.23,641.635 1609.35,645.207 1610.47,658.8 1611.6,664.457 1612.72,667.187 1613.84,675.958 1614.96,680.72 1616.08,683.114 1617.2,687.144 1618.32,690.215 1619.44,690.604 1620.56,694.102 1621.68,708.231 1622.8,701.603 1623.92,713.585 1625.04,714.503 1626.16,722.733 1627.28,722.091 1628.4,725.227 1629.52,732.443 1630.64,737.804 1631.76,722.985 1632.88,739.759 1634,738.024 1635.12,730.715 1636.25,750.964 1637.37,745.096 1638.49,744.759 1639.61,756.226 1640.73,752.726 1641.85,757.055 1642.97,752.99 1644.09,754.077 1645.21,760.15 1646.33,768.05 1647.45,763.382 1648.57,773.64 1649.69,765.293 1650.81,761.513 1651.93,768.545 1653.05,760.683 1654.17,779.465 1655.29,772.137 1656.41,765.344 1657.53,774.122 1658.65,777.061 1659.77,778.172 1660.89,776.65 1662.02,789.113 1663.14,770.279 1664.26,805.349 1665.38,787.71 1666.5,771.834 1667.62,779.913 1668.74,796.384 1669.86,783.653 1670.98,805.84 1672.1,812.314 1673.22,802.388 1674.34,776.124 1675.46,824.776 1676.58,790.821 1677.7,818.579 1678.82,814.924 1679.94,817.378 1681.06,791.851 1682.18,794.358 1683.3,813.821 1684.42,816.956 1685.54,817.415 1686.66,812.046 1687.79,790.96 1688.91,814.768 1690.03,838.943 1691.15,807.243 1692.27,803.051 1693.39,832.646 1694.51,813.349 1695.63,802.993 1696.75,844.113 1697.87,809.424 1698.99,797.808 1700.11,821.806 1701.23,804.12 1702.35,791.549 1703.47,797.266 1704.59,803.811 1705.71,826.654 1706.83,800.995 1707.95,824.939 1709.07,826.414 1710.19,802.432 1711.31,797.566 1712.43,820.066 1713.56,864.382 1714.68,798.953 1715.8,826.075 1716.92,817.182 1718.04,854.735 1719.16,830.166 1720.28,826.312 1721.4,861.069 1722.52,796.666 1723.64,858.221 1724.76,835.534 1725.88,814.711 1727,863.666 1728.12,877.613 1729.24,837.676 1730.36,815.178 1731.48,863.201 1732.6,898.325 1733.72,844.09 1734.84,869.09 1735.96,815.495 1737.08,811.16 1738.21,865.021 1739.33,895.841 1740.45,835.552 1741.57,850.452 1742.69,820.166 1743.81,833.401 1744.93,833.491 1746.05,827.581 1747.17,877.887 1748.29,835.052 1749.41,892.192 1750.53,799.46 1751.65,819.608 1752.77,867.96 1753.89,858.298 1755.01,845.547 1756.13,839.597 1757.25,833.951 1758.37,826.599 1759.49,828.051 1760.61,846.558 1761.73,849.557 1762.85,824.563 1763.98,911.685 1765.1,833.906 1766.22,869.407 1767.34,883.745 1768.46,836.164 1769.58,856.966 1770.7,865.102 1771.82,831.907 1772.94,815.677 1774.06,868.244 1775.18,847.449 1776.3,847.32 1777.42,803.896 1778.54,842.508 1779.66,802.627 1780.78,857.91 1781.9,854.105 1783.02,862.112 1784.14,892.464 1785.26,849.175 1786.38,819.546 1787.5,854.617 1788.62,853.395 1789.75,856.567 1790.87,822.513 1791.99,832.031 1793.11,851.069 1794.23,903.058 1795.35,855.554 1796.47,865.527 1797.59,873.785 1798.71,830.739 1799.83,876.153 1800.95,855.23 1802.07,913.041 1803.19,875.033 1804.31,856.868 1805.43,852.142 1806.55,896.483 1807.67,859.268 1808.79,905.109 1809.91,827.506 1811.03,842.364 1812.15,849.129 1813.27,886.596 1814.39,840.127 1815.52,876.485 1816.64,831.1 1817.76,933.667 1818.88,832.727 1820,851.563 1821.12,900.801 1822.24,893.07 1823.36,823.543 1824.48,867.269 1825.6,858.934 1826.72,838.823 1827.84,882.203 1828.96,831.199 1830.08,949.931 1831.2,923.839 1832.32,815.344 1833.44,836.462 1834.56,901.034 1835.68,927.989 1836.8,852.122 1837.92,836.038 1839.04,872.139 1840.17,867.278 1841.29,894.667 1842.41,862.853 1843.53,823.889 1844.65,912.802 1845.77,807.642 1846.89,919.151 1848.01,847.725 1849.13,834.507 1850.25,841.207 1851.37,872.873 1852.49,853.767 1853.61,850.68 1854.73,865.061 1855.85,889.906 1856.97,856.432 1858.09,878.951 1859.21,902.379 1860.33,862.167 1861.45,840.096 1862.57,825.945 1863.69,914.851 1864.81,814.33 1865.94,857.57 1867.06,869.898 1868.18,878.832 1869.3,874.163 1870.42,979.78 1871.54,864.354 1872.66,830.977 1873.78,848.107 1874.9,838.117 1876.02,884.329 1877.14,873.362 1878.26,854.615 1879.38,870.675 1880.5,855.359 1881.62,845.683 1882.74,829.633 1883.86,870.517 1884.98,853.854 1886.1,866.172 1887.22,923.648 1888.34,851.166 1889.46,898.903 1890.58,868.288 1891.71,874.418 1892.83,841.466 1893.95,889.312 1895.07,841.105 1896.19,833.417 1897.31,848.416 1898.43,928.02 1899.55,827.033 1900.67,893.823 1901.79,840.949 1902.91,864.365 1904.03,920.607 1905.15,836.003 1906.27,859.755 1907.39,842.353 1908.51,847.552 1909.63,846.903 1910.75,814.711 1911.87,865.089 1912.99,811.836 1914.11,854.894 1915.23,828.982 1916.35,859.621 1917.48,863.221 1918.6,831.191 1919.72,830.815 1920.84,823.213 1921.96,830.885 1923.08,803.969 1924.2,853.818 1925.32,821.473 1926.44,815.896 1927.56,825.559 1928.68,856.336 1929.8,828.076 1930.92,826.445 1932.04,806.669 1933.16,861.914 1934.28,804.709 1935.4,769.636 1936.52,796.287 1937.64,729.961 1938.76,694.532 1939.88,659.746 1941,624.181 1942.13,581.047 1943.25,606.699 1944.37,653.152 1945.49,707.251 1946.61,740.576 1947.73,744.224 1948.85,769.941 1949.97,804.774 1951.09,796.003 1952.21,814.651 1953.33,833.431 1954.45,814.117 1955.57,843.078 1956.69,819.395 1957.81,849.055 1958.93,865.681 1960.05,956.349 1961.17,880.389 1962.29,962.379 1963.41,923.691 1964.53,936.448 1965.65,869.592 1966.77,885.136 1967.9,909.29 1969.02,855.044 1970.14,829.512 1971.26,852.168 1972.38,874.159 1973.5,954.131 1974.62,874.455 1975.74,866.517 1976.86,918.523 1977.98,915.35 1979.1,931.441 1980.22,857.626 1981.34,828.889 1982.46,920.995 1983.58,835.341 1984.7,1111.15 1985.82,889.455 1986.94,901.834 1988.06,863.895 1989.18,888.287 1990.3,854.096 1991.42,889.88 1992.54,844.313 1993.67,886.485 1994.79,929.834 1995.91,989.136 1997.03,888.63 1998.15,889.115 1999.27,863.452 2000.39,916.463 2001.51,874.134 2002.63,848.592 2003.75,896.286 2004.87,959.886 2005.99,880.797 2007.11,830.328 2008.23,940.376 2009.35,877.185 2010.47,857.642 2011.59,886.801 2012.71,982.347 2013.83,905.659 2014.95,1042.5 2016.07,874.647 2017.19,838.904 2018.31,890.093 2019.44,945.95 2020.56,900.561 2021.68,901.736 2022.8,886.454 2023.92,866.816 2025.04,839.211 2026.16,908.538 2027.28,862.819 2028.4,893.385 2029.52,972.672 2030.64,846.935 2031.76,954.239 2032.88,899.042 2034,857.314 2035.12,893.625 2036.24,863.242 2037.36,884.278 2038.48,886.008 2039.6,897.826 2040.72,879.74 2041.84,841.414 2042.96,1010.75 2044.09,862.172 2045.21,912.404 2046.33,875.723 2047.45,946.359 2048.57,955.283 2049.69,892.582 2050.81,924.907 2051.93,843.452 2053.05,889.213 2054.17,890.452 2055.29,938.869 2056.41,887.861 2057.53,892.075 2058.65,924.032 2059.77,861.538 2060.89,999.705 2062.01,876.241 2063.13,843.571 2064.25,942.548 2065.37,876.603 2066.49,882.461 2067.61,874.691 2068.73,872.899 2069.86,908.761 2070.98,883.114 2072.1,884.398 2073.22,939.307 2074.34,860.832 2075.46,847.252 2076.58,954.647 2077.7,931.174 2078.82,868.013 2079.94,872.522 2081.06,1015.36 2082.18,922.146 2083.3,973.608 2084.42,869.632 2085.54,931.613 2086.66,887.778 2087.78,887.116 2088.9,885.331 2090.02,885.47 2091.14,846.973 2092.26,1012.76 2093.38,883.11 2094.5,886.964 2095.63,856.948 2096.75,906.557 2097.87,879.478 2098.99,831.86 2100.11,870.864 2101.23,879.529 2102.35,877.977 2103.47,923.537 2104.59,889.964 2105.71,851.375 2106.83,869.722 2107.95,979.155 2109.07,876.799 2110.19,870.31 2111.31,1304.45 2112.43,844.965 2113.55,878.951 2114.67,882.958 2115.79,872.727 2116.91,855.936 2118.03,992.128 2119.15,907.984 2120.27,864.55 2121.4,915.716 2122.52,853.874 2123.64,854.744 2124.76,855.219 2125.88,848.507 2127,904.911 2128.12,937.113 2129.24,896.48 2130.36,973.07 2131.48,959.101 2132.6,859.989 2133.72,950.23 2134.84,863.912 2135.96,901.507 2137.08,855.874 2138.2,838.909 2139.32,888.835 2140.44,862.197 2141.56,906.684 2142.68,904.776 2143.8,932.787 2144.92,961.057 2146.05,845.993 2147.17,840.67 2148.29,871.731 2149.41,910.575 2150.53,920.7 2151.65,832.927 2152.77,978.619 2153.89,875.218 2155.01,874.443 2156.13,892.473 2157.25,881.202 2158.37,910.889 2159.49,856.735 2160.61,989.911 2161.73,850.647 2162.85,888.911 2163.97,945.587 2165.09,863.548 2166.21,828.243 2167.33,860.832 2168.45,854.915 2169.57,887.171 2170.69,899.805 2171.82,850.203 2172.94,858.846 2174.06,861.943 2175.18,888.997 2176.3,878.719 2177.42,914.548 2178.54,861.575 2179.66,860.497 2180.78,974.303 2181.9,943.07 2183.02,910.819 2184.14,868.257 2185.26,885.956 2186.38,881.337 2187.5,863.765 2188.62,860.606 2189.74,919.372 2190.86,863.039 2191.98,843.992 2193.1,856.013 2194.22,830.64 2195.34,824.577 2196.46,893.431 2197.59,879.648 2198.71,916.617 2199.83,833.217 2200.95,849.199 2202.07,903.396 2203.19,849.687 2204.31,856.112 2205.43,866.453 2206.55,844.103 2207.67,880.883 2208.79,883.392 2209.91,845.08 2211.03,830.345 2212.15,882.33 2213.27,864.845 2214.39,832.653 2215.51,852.127 2216.63,825.129 2217.75,924.773 2218.87,873.082 2219.99,827.641 2221.11,862.426 2222.23,904.41 2223.36,833.298 2224.48,861.417 2225.6,869.728 2226.72,819.782 2227.84,864.297 2228.96,841.185 2230.08,869.988 2231.2,843.816 2232.32,829.156 2233.44,943.182 2234.56,853.434 2235.68,850.82 2236.8,838.283 2237.92,844.294 2239.04,846.614 "/>
<circle clip-path="url(#clip272)" cx="896.755" cy="310.457" r="14.4" fill="#e26f46" fill-rule="evenodd" fill-opacity="1" stroke="#000000" stroke-opacity="1" stroke-width="3.2"/>
<circle clip-path="url(#clip272)" cx="1245.21" cy="385.177" r="14.4" fill="#e26f46" fill-rule="evenodd" fill-opacity="1" stroke="#000000" stroke-opacity="1" stroke-width="3.2"/>
<circle clip-path="url(#clip272)" cx="1593.67" cy="414.108" r="14.4" fill="#e26f46" fill-rule="evenodd" fill-opacity="1" stroke="#000000" stroke-opacity="1" stroke-width="3.2"/>
<circle clip-path="url(#clip272)" cx="1942.13" cy="581.047" r="14.4" fill="#e26f46" fill-rule="evenodd" fill-opacity="1" stroke="#000000" stroke-opacity="1" stroke-width="3.2"/>
<path clip-path="url(#clip270)" d="M1060.49 239.836 L1726.85 239.836 L1726.85 110.236 L1060.49 110.236  Z" fill="#ffffff" fill-rule="evenodd" fill-opacity="1"/>
<polyline clip-path="url(#clip270)" style="stroke:#000000; stroke-linecap:round; stroke-linejoin:round; stroke-width:4; stroke-opacity:1; fill:none" points="1060.49,239.836 1726.85,239.836 1726.85,110.236 1060.49,110.236 1060.49,239.836 "/>
<polyline clip-path="url(#clip270)" style="stroke:#009af9; stroke-linecap:round; stroke-linejoin:round; stroke-width:5; stroke-opacity:1; fill:none" points="1080.4,175.036 1199.88,175.036 "/>
<path clip-path="url(#clip270)" d="M1219.79 189.739 L1219.79 177.735 Q1219.79 177.062 1219.82 176.828 Q1219.85 176.594 1220.03 176.418 Q1220.2 176.242 1220.55 176.242 Q1221.23 176.242 1221.28 176.857 Q1221.46 182.801 1225 186.08 Q1228.49 189.33 1234.46 189.33 Q1238.06 189.33 1240.29 186.753 Q1242.51 184.147 1242.51 180.751 Q1242.51 177.501 1240.64 175.218 Q1239.85 174.193 1238.85 173.549 Q1237.88 172.875 1237.27 172.67 Q1236.68 172.465 1235.54 172.173 Q1228.11 170.387 1227.64 170.182 Q1224.09 168.981 1221.93 165.966 Q1219.79 162.921 1219.79 159.202 Q1219.79 154.401 1223.16 151.005 Q1226.55 147.579 1231.47 147.579 Q1233.93 147.579 1235.98 148.37 Q1238.06 149.131 1238.91 149.833 Q1239.76 150.536 1241.08 151.795 L1243.15 148.37 Q1243.62 147.579 1244.06 147.579 Q1244.53 147.579 1244.62 147.872 Q1244.74 148.135 1244.74 149.014 L1244.74 161.076 Q1244.74 161.75 1244.71 161.984 Q1244.68 162.218 1244.47 162.364 Q1244.3 162.511 1243.95 162.511 Q1243.36 162.511 1243.21 161.808 Q1241.54 149.277 1231.53 149.277 Q1228.11 149.277 1225.85 151.59 Q1223.63 153.874 1223.63 157.124 Q1223.63 159.759 1225.27 161.925 Q1226.91 164.063 1229.69 164.736 L1237.36 166.58 Q1241.19 167.488 1243.77 170.884 Q1246.35 174.281 1246.35 178.702 Q1246.35 183.796 1243.01 187.485 Q1239.7 191.174 1234.52 191.174 Q1230.8 191.174 1227.93 189.944 Q1225.06 188.715 1223.51 186.987 Q1222.31 188.978 1221.52 190.091 L1221.34 190.384 Q1220.87 191.174 1220.44 191.174 Q1219.97 191.174 1219.88 190.881 Q1219.79 190.588 1219.79 189.739 Z" fill="#000000" fill-rule="nonzero" fill-opacity="1" /><path clip-path="url(#clip270)" d="M1254.17 189.857 L1254.17 188.012 Q1257.37 188.012 1258.1 187.631 Q1258.83 187.222 1258.83 185.289 L1258.83 169.157 Q1258.83 166.932 1258.07 166.405 Q1257.34 165.878 1254.41 165.878 L1254.41 164.004 L1262.78 163.36 L1262.78 185.348 Q1262.78 187.134 1263.43 187.573 Q1264.07 188.012 1267 188.012 L1267 189.857 Q1260.88 189.681 1260.76 189.681 Q1259.94 189.681 1254.17 189.857 M1256.69 152.908 Q1256.69 151.707 1257.6 150.741 Q1258.54 149.746 1259.85 149.746 Q1261.17 149.746 1262.11 150.653 Q1263.05 151.532 1263.05 152.937 Q1263.05 154.313 1262.11 155.221 Q1261.17 156.099 1259.85 156.099 Q1258.48 156.099 1257.57 155.133 Q1256.69 154.167 1256.69 152.908 Z" fill="#000000" fill-rule="nonzero" fill-opacity="1" /><path clip-path="url(#clip270)" d="M1269.9 194.6 Q1269.9 192.667 1271.36 190.998 Q1272.85 189.33 1275.43 188.598 Q1272.8 186.929 1272.8 183.269 Q1272.8 180.458 1274.64 178.292 Q1271.83 175.949 1271.83 172.114 Q1271.83 168.571 1274.64 165.966 Q1277.45 163.36 1281.55 163.36 Q1285.15 163.36 1287.9 165.526 Q1290.77 162.716 1294.26 162.686 Q1295.81 162.686 1296.54 163.653 Q1297.3 164.619 1297.3 165.644 Q1297.3 166.551 1296.72 166.99 Q1296.16 167.43 1295.57 167.43 Q1294.84 167.43 1294.31 166.961 Q1293.82 166.463 1293.82 165.702 Q1293.82 164.443 1294.78 164.063 Q1294.61 164.004 1294.2 164.004 Q1291.27 164.004 1288.78 166.346 Q1291.24 168.63 1291.24 172.173 Q1291.24 175.715 1288.43 178.321 Q1285.62 180.927 1281.55 180.927 Q1278.18 180.927 1275.61 179.053 Q1274.58 180.253 1274.58 181.893 Q1274.58 183.386 1275.49 184.557 Q1276.4 185.728 1277.77 185.904 Q1278.18 185.963 1282.25 185.963 Q1284.65 185.963 1285.97 186.021 Q1287.29 186.08 1289.16 186.49 Q1291.06 186.87 1292.56 187.631 Q1296.45 189.798 1296.48 194.482 Q1296.48 197.908 1292.53 200.045 Q1288.61 202.212 1283.16 202.212 Q1277.66 202.212 1273.76 200.016 Q1269.9 197.849 1269.9 194.6 M1273.03 194.6 Q1273.03 197.059 1275.93 198.933 Q1278.83 200.836 1283.22 200.836 Q1287.52 200.836 1290.42 198.962 Q1293.35 197.117 1293.35 194.6 Q1293.35 192.814 1292.32 191.672 Q1291.3 190.53 1289.19 190.061 Q1287.11 189.622 1285.65 189.534 Q1284.18 189.447 1281.49 189.447 L1277.95 189.447 Q1275.9 189.564 1274.46 191.057 Q1273.03 192.55 1273.03 194.6 M1276.31 172.173 Q1276.31 179.551 1281.55 179.551 Q1284.18 179.551 1285.79 177.15 Q1286.76 175.54 1286.76 172.114 Q1286.76 164.736 1281.55 164.736 Q1278.91 164.736 1277.27 167.137 Q1276.31 168.747 1276.31 172.173 Z" fill="#000000" fill-rule="nonzero" fill-opacity="1" /><path clip-path="url(#clip270)" d="M1303.43 189.857 L1303.43 188.012 Q1306.62 188.012 1307.36 187.631 Q1308.09 187.222 1308.09 185.289 L1308.09 169.216 Q1308.09 166.99 1307.3 166.434 Q1306.54 165.878 1303.43 165.878 L1303.43 164.004 L1311.86 163.36 L1311.86 169.655 Q1314.67 163.36 1320.74 163.36 Q1325.24 163.36 1327.03 165.585 Q1328.35 167.078 1328.61 168.747 Q1328.9 170.416 1328.9 174.749 L1328.9 186.197 Q1328.96 187.456 1329.93 187.749 Q1330.89 188.012 1333.59 188.012 L1333.59 189.857 Q1327.47 189.681 1326.85 189.681 Q1326.39 189.681 1320.09 189.857 L1320.09 188.012 Q1323.28 188.012 1324.01 187.631 Q1324.78 187.222 1324.78 185.289 L1324.78 171.324 Q1324.78 168.279 1323.84 166.493 Q1322.9 164.677 1320.33 164.677 Q1317.22 164.677 1314.73 167.283 Q1312.24 169.889 1312.24 174.281 L1312.24 185.289 Q1312.24 187.222 1312.98 187.631 Q1313.74 188.012 1316.9 188.012 L1316.9 189.857 Q1310.78 189.681 1310.2 189.681 Q1309.73 189.681 1303.43 189.857 Z" fill="#000000" fill-rule="nonzero" fill-opacity="1" /><path clip-path="url(#clip270)" d="M1337.82 184.147 Q1337.82 179.053 1343.82 176.359 Q1347.42 174.632 1354.86 174.193 L1354.86 171.997 Q1354.86 168.279 1352.89 166.317 Q1350.96 164.326 1348.5 164.326 Q1344.11 164.326 1342 167.078 Q1343.79 167.137 1344.43 168.044 Q1345.08 168.923 1345.08 169.83 Q1345.08 171.031 1344.32 171.821 Q1343.58 172.582 1342.32 172.582 Q1341.12 172.582 1340.33 171.851 Q1339.54 171.089 1339.54 169.772 Q1339.54 166.844 1342.18 164.912 Q1344.84 162.979 1348.62 162.979 Q1353.54 162.979 1356.82 166.288 Q1357.84 167.312 1358.34 168.63 Q1358.87 169.947 1358.92 170.826 Q1358.98 171.675 1358.98 173.373 L1358.98 185.348 Q1358.98 185.699 1359.1 186.285 Q1359.22 186.87 1359.74 187.631 Q1360.3 188.363 1361.21 188.363 Q1363.38 188.363 1363.35 184.528 L1363.35 181.161 L1364.87 181.161 L1364.87 184.528 Q1364.87 187.719 1363.17 188.978 Q1361.5 190.208 1359.95 190.208 Q1357.96 190.208 1356.7 188.744 Q1355.44 187.28 1355.27 185.289 Q1354.36 187.573 1352.28 189.066 Q1350.23 190.53 1347.42 190.53 Q1345.25 190.53 1343.2 189.974 Q1341.18 189.447 1339.48 187.953 Q1337.82 186.431 1337.82 184.147 M1342.44 184.089 Q1342.44 186.314 1344.02 187.749 Q1345.6 189.183 1347.83 189.183 Q1350.35 189.183 1352.6 187.251 Q1354.86 185.289 1354.86 181.454 L1354.86 175.452 Q1348.21 175.686 1345.31 178.35 Q1342.44 180.985 1342.44 184.089 Z" fill="#000000" fill-rule="nonzero" fill-opacity="1" /><path clip-path="url(#clip270)" d="M1367.27 189.857 L1367.27 188.012 Q1370.46 188.012 1371.19 187.631 Q1371.93 187.222 1371.93 185.289 L1371.93 154.108 Q1371.93 151.883 1371.14 151.327 Q1370.37 150.77 1367.27 150.77 L1367.27 148.897 L1375.88 148.252 L1375.88 185.289 Q1375.88 187.222 1376.64 187.631 Q1377.4 188.012 1380.56 188.012 L1380.56 189.857 Q1379.83 189.857 1378.31 189.798 Q1376.79 189.739 1375.67 189.71 Q1374.56 189.681 1373.92 189.681 Q1373.21 189.681 1367.27 189.857 Z" fill="#000000" fill-rule="nonzero" fill-opacity="1" /><circle clip-path="url(#clip270)" cx="1463.37" cy="175.036" r="25.6" fill="#e26f46" fill-rule="evenodd" fill-opacity="1" stroke="#000000" stroke-opacity="1" stroke-width="5.68889"/>
<path clip-path="url(#clip270)" d="M1543.02 195.302 L1543.02 193.457 L1544.45 193.457 Q1547.7 193.457 1548.44 192.93 Q1549.2 192.374 1549.2 190.617 L1549.2 159.026 Q1549.2 157.299 1548.44 156.772 Q1547.67 156.216 1544.45 156.216 L1543.02 156.216 L1543.02 154.342 L1564.19 154.342 Q1570.25 154.342 1574.29 157.68 Q1578.33 161.017 1578.33 165.497 Q1578.33 169.947 1574.2 173.168 Q1570.1 176.359 1564.66 176.359 L1554.53 176.359 L1554.53 190.617 Q1554.53 192.345 1555.26 192.901 Q1556.02 193.457 1559.27 193.457 L1560.7 193.457 L1560.7 195.302 Q1558.59 195.126 1551.83 195.126 Q1545.13 195.126 1543.02 195.302 M1554.35 174.807 L1562.61 174.807 Q1565.3 174.807 1567.26 174.046 Q1569.22 173.285 1570.1 172.377 Q1571.01 171.44 1571.51 169.947 Q1572.03 168.425 1572.09 167.605 Q1572.15 166.756 1572.15 165.497 Q1572.15 164.179 1572.09 163.359 Q1572.03 162.51 1571.51 161.017 Q1571.01 159.495 1570.1 158.587 Q1569.22 157.65 1567.26 156.948 Q1565.33 156.216 1562.61 156.216 L1557.28 156.216 Q1555.23 156.216 1554.79 156.626 Q1554.35 157.035 1554.35 158.616 L1554.35 174.807 Z" fill="#000000" fill-rule="nonzero" fill-opacity="1" /><path clip-path="url(#clip270)" d="M1589.18 182.097 Q1589.18 176.447 1592.81 172.436 Q1596.44 168.425 1601.65 168.425 Q1606.92 168.425 1609.65 171.85 Q1612.4 175.276 1612.4 180.194 Q1612.4 181.102 1612.16 181.278 Q1611.93 181.453 1610.91 181.453 L1594.16 181.453 Q1594.16 187.572 1595.97 190.442 Q1598.49 194.453 1602.74 194.453 Q1603.32 194.453 1604.02 194.336 Q1604.73 194.219 1606.16 193.721 Q1607.6 193.194 1608.86 191.818 Q1610.11 190.442 1610.85 188.275 Q1611.02 187.426 1611.61 187.455 Q1612.4 187.455 1612.4 188.158 Q1612.4 188.685 1611.81 189.885 Q1611.26 191.057 1610.17 192.462 Q1609.09 193.867 1606.98 194.921 Q1604.9 195.975 1602.39 195.975 Q1597.12 195.975 1593.13 191.993 Q1589.18 187.982 1589.18 182.097 M1594.22 180.194 L1608.45 180.194 Q1608.45 178.935 1608.21 177.53 Q1608.01 176.125 1607.36 174.192 Q1606.75 172.231 1605.28 171.001 Q1603.82 169.771 1601.65 169.771 Q1600.69 169.771 1599.63 170.181 Q1598.61 170.591 1597.35 171.587 Q1596.09 172.582 1595.21 174.836 Q1594.33 177.091 1594.22 180.194 Z" fill="#000000" fill-rule="nonzero" fill-opacity="1" /><path clip-path="url(#clip270)" d="M1615.3 189.593 Q1615.3 184.498 1621.3 181.805 Q1624.9 180.077 1632.34 179.638 L1632.34 177.442 Q1632.34 173.724 1630.38 171.762 Q1628.45 169.771 1625.99 169.771 Q1621.6 169.771 1619.49 172.524 Q1621.27 172.582 1621.92 173.49 Q1622.56 174.368 1622.56 175.276 Q1622.56 176.476 1621.8 177.267 Q1621.07 178.028 1619.81 178.028 Q1618.61 178.028 1617.82 177.296 Q1617.03 176.535 1617.03 175.217 Q1617.03 172.289 1619.66 170.357 Q1622.33 168.425 1626.1 168.425 Q1631.02 168.425 1634.3 171.733 Q1635.33 172.758 1635.83 174.075 Q1636.35 175.393 1636.41 176.271 Q1636.47 177.12 1636.47 178.818 L1636.47 190.793 Q1636.47 191.144 1636.59 191.73 Q1636.7 192.315 1637.23 193.077 Q1637.79 193.809 1638.69 193.809 Q1640.86 193.809 1640.83 189.973 L1640.83 186.606 L1642.35 186.606 L1642.35 189.973 Q1642.35 193.165 1640.66 194.424 Q1638.99 195.653 1637.44 195.653 Q1635.44 195.653 1634.19 194.189 Q1632.93 192.725 1632.75 190.734 Q1631.84 193.018 1629.76 194.511 Q1627.72 195.975 1624.9 195.975 Q1622.74 195.975 1620.69 195.419 Q1618.67 194.892 1616.97 193.399 Q1615.3 191.876 1615.3 189.593 M1619.93 189.534 Q1619.93 191.759 1621.51 193.194 Q1623.09 194.628 1625.31 194.628 Q1627.83 194.628 1630.09 192.696 Q1632.34 190.734 1632.34 186.899 L1632.34 180.897 Q1625.7 181.131 1622.8 183.796 Q1619.93 186.431 1619.93 189.534 Z" fill="#000000" fill-rule="nonzero" fill-opacity="1" /><path clip-path="url(#clip270)" d="M1644.76 195.302 L1644.76 193.457 Q1647.95 193.457 1648.68 193.077 Q1649.44 192.667 1649.44 190.734 L1649.44 159.553 Q1649.44 157.328 1648.65 156.772 Q1647.89 156.216 1644.76 156.216 L1644.76 154.342 L1653.39 153.698 L1653.39 182.478 L1661.86 175.159 Q1663.17 174.017 1663.17 172.816 Q1663.17 171.44 1661.45 171.323 L1661.45 169.449 Q1663.96 169.625 1668.15 169.625 Q1670.61 169.625 1672.34 169.449 L1672.34 171.323 Q1668.56 171.499 1664.78 174.544 Q1663.93 175.217 1661.91 176.974 Q1659.92 178.701 1659.92 178.877 Q1659.92 178.935 1659.98 179.082 Q1660.07 179.228 1660.19 179.345 Q1660.3 179.462 1660.3 179.521 L1667.92 190.266 Q1669.47 192.433 1670.61 192.96 Q1671.75 193.457 1673.74 193.457 L1673.74 195.302 Q1671.17 195.126 1668.5 195.126 Q1667.07 195.126 1662.03 195.302 L1662.03 193.457 Q1664.2 193.457 1664.2 192.052 Q1664.2 191.086 1659.34 184.381 Q1658.99 183.913 1658.2 182.888 Q1657.46 181.805 1657.05 181.278 L1653.22 184.557 L1653.22 190.734 Q1653.22 192.667 1653.95 193.077 Q1654.71 193.457 1657.9 193.457 L1657.9 195.302 Q1654.3 195.126 1651.31 195.126 Q1650.7 195.126 1644.76 195.302 Z" fill="#000000" fill-rule="nonzero" fill-opacity="1" /><path clip-path="url(#clip270)" d="M1676.99 194.511 L1676.99 186.606 Q1676.99 185.933 1677.02 185.699 Q1677.05 185.464 1677.22 185.289 Q1677.4 185.113 1677.75 185.113 Q1678.16 185.113 1678.3 185.289 Q1678.48 185.464 1678.6 186.138 Q1679.5 190.266 1681.44 192.462 Q1683.4 194.628 1686.94 194.628 Q1690.31 194.628 1692.01 193.135 Q1693.7 191.642 1693.7 189.183 Q1693.7 184.791 1687.47 183.678 Q1683.87 182.947 1682.37 182.478 Q1680.88 181.98 1679.56 180.897 Q1676.99 178.789 1676.99 175.803 Q1676.99 172.816 1679.24 170.62 Q1681.53 168.425 1686.56 168.425 Q1689.93 168.425 1692.21 170.123 Q1692.88 169.596 1693.24 169.157 Q1694.03 168.425 1694.44 168.425 Q1694.91 168.425 1694.99 168.747 Q1695.08 169.039 1695.08 169.888 L1695.08 175.92 Q1695.08 176.593 1695.05 176.827 Q1695.02 177.062 1694.85 177.237 Q1694.67 177.384 1694.29 177.384 Q1693.62 177.384 1693.59 176.827 Q1693.12 169.566 1686.56 169.566 Q1683.02 169.566 1681.44 170.943 Q1679.86 172.289 1679.86 174.134 Q1679.86 175.159 1680.32 175.949 Q1680.82 176.71 1681.44 177.179 Q1682.08 177.618 1683.25 178.057 Q1684.42 178.467 1685.13 178.613 Q1685.86 178.76 1687.23 179.053 Q1692.04 179.96 1694.06 181.922 Q1696.57 184.44 1696.57 187.631 Q1696.57 191.174 1694.17 193.574 Q1691.77 195.975 1686.94 195.975 Q1683.05 195.975 1680.32 193.369 Q1679.97 193.721 1679.71 194.043 Q1679.45 194.336 1679.33 194.453 Q1679.24 194.57 1679.21 194.658 Q1679.18 194.716 1679.12 194.775 Q1677.92 195.975 1677.63 195.975 Q1677.16 195.975 1677.07 195.653 Q1676.99 195.36 1676.99 194.511 Z" fill="#000000" fill-rule="nonzero" fill-opacity="1" /></svg>
